<svg xmlns="http://www.w3.org/2000/svg" viewBox="0 0 1862.48 195.09"><defs><style>.cls-1,.cls-2{fill:#040000;}.cls-2{stroke:#231815;stroke-miterlimit:10;}.cls-3{fill:#231815;}</style></defs><title>アセット 1</title><g id="レイヤー_2" data-name="レイヤー 2"><g id="アウトライン化"><path id="完全パス" class="cls-1" d="M24,176.66A66.37,66.37,0,0,1,100.66,68.73l-8.79,8.8A54.37,54.37,0,0,0,24,159.59L183.07.5h17L162.29,38.25l79.45,78.14-26.38,26.33-51.87,51.87h-17l60.28-60.28-70.87-69.7-18.5,18.5A66.39,66.39,0,0,1,32.21,182.5L41,173.69a54.37,54.37,0,0,0,67.87-82Z"/><rect class="cls-2" x="268.74" y="0.5" width="6.63" height="194.09"/><path class="cls-3" d="M371.18,11.71q24,0,40.72,16.34a53.57,53.57,0,0,1,16.77,39.87,54.19,54.19,0,0,1-7.6,28,56.29,56.29,0,0,1-21,20.52,58.43,58.43,0,0,1-57.49.18,56.58,56.58,0,0,1-21-20.6,54.87,54.87,0,0,1-.15-56.21,57.21,57.21,0,0,1,21-20.6A56.63,56.63,0,0,1,371.18,11.71Zm0,12.29a43.44,43.44,0,0,0-37.84,21.75,43.18,43.18,0,0,0-5.94,22.17,42.46,42.46,0,0,0,5.79,21.75,44.3,44.3,0,0,0,38,21.82A42.77,42.77,0,0,0,393,105.66a43.79,43.79,0,0,0,16-16,42.16,42.16,0,0,0,6-21.79,43.45,43.45,0,0,0-5.76-21.85A43.79,43.79,0,0,0,371.18,24Z"/><path class="cls-3" d="M455.6,8.62,538,93.85V14h14V126.3l-82.79-85v80.5H455.6Z"/><path class="cls-3" d="M643.29,14h17.27a107.39,107.39,0,0,1,19.33,1.6q11.43,2.1,17.55,10.27,5.76,7.68,5.76,19.41,0,16.34-12.16,24.51a40.48,40.48,0,0,1-23,6.84H656.93v45.18H643ZM662.9,26h-6V64.78h4.55q28.92.91,28.92-20.6Q690.4,26,662.9,26Z"/><path class="cls-3" d="M730.2,14h19.61q19.2,0,27.51,5.86,12.79,9,12.79,24.3a30.69,30.69,0,0,1-7.18,20.46q-7.18,8.52-19.12,10.27l34.6,46.92H782L749.53,76.3h-5.69v45.53H730.2Zm13.64,12V65.2a88,88,0,0,0,18.62-1.61Q777.33,60.25,777.32,45q0-19-28.93-19Z"/><path class="cls-3" d="M823.72,14h13.65V121.83H823.72Z"/><path class="cls-3" d="M921.86,34.41Q915.68,24,904,24q-10.38,0-15.77,8a12.3,12.3,0,0,0-2.42,6.92q0,10.26,10.73,14.31L909,57.94q19.11,7.26,24.23,19.13a34.39,34.39,0,0,1,2.92,13.68,30.74,30.74,0,0,1-5.83,18.33,35.43,35.43,0,0,1-15.57,12.19,34.12,34.12,0,0,1-13.28,2.86q-18.27,0-28.36-14.45a33.05,33.05,0,0,1-5.83-15.78L880.93,91a19.89,19.89,0,0,0,3.34,11.39q6.11,9.08,17.91,9.07a19.79,19.79,0,0,0,13.6-5.09,18.59,18.59,0,0,0,6.37-12.78l.28-3.56a14,14,0,0,0-5.83-12.92q-5.11-3.92-15.35-8.24a171.41,171.41,0,0,1-15.92-7.33Q872,53.82,872,38.6q0-10.28,8.6-18.3,9.39-8.73,23.88-8.73Q923,11.57,932.59,28Z"/><path class="cls-3" d="M1017.66,94.49l37.81-85.22,22.45,112.56h-14.26L1050.85,50l-33.19,74.38-33-74.65-13.18,72.07H957.68L980.07,9.22Z"/><path class="cls-3" d="M1162.2,14h19.62q19.18,0,27.5,5.86,12.79,9,12.79,24.3a30.69,30.69,0,0,1-7.18,20.46q-7.18,8.52-19.12,10.27l34.6,46.92H1214L1181.53,76.3h-5.68v45.53H1162.2Zm13.65,12V65.2a88.08,88.08,0,0,0,18.62-1.61q14.85-3.35,14.85-18.57,0-19-28.93-19Z"/><path class="cls-3" d="M1256.22,14h58.92V26.31h-45.28V56.47H1314V68.76h-44.14v40.78h45.28v12.29h-58.92Z"/><path class="cls-3" d="M1427,100.67v15.85a57.75,57.75,0,0,1-28.64,7.61,56.4,56.4,0,0,1-21.82-4.33q-21.6-8.94-31-30.65a56.25,56.25,0,0,1-4.62-22.69,49.43,49.43,0,0,1,11.08-31.7A62.25,62.25,0,0,1,1372.7,18a58.83,58.83,0,0,1,54.29.7V34.41a44.17,44.17,0,0,0-29.28-10.69q-17.42,0-30.31,12.78t-12.9,30q0,19.55,12.9,32.43t30.31,12.88Q1413.42,111.77,1427,100.67Z"/><path class="cls-3" d="M1507.86,11.71q24,0,40.72,16.34a53.58,53.58,0,0,1,16.78,39.87,54.2,54.2,0,0,1-7.61,28,56.33,56.33,0,0,1-21,20.52,58.45,58.45,0,0,1-57.5.18,56.58,56.58,0,0,1-21-20.6,54.84,54.84,0,0,1-.14-56.21,57.68,57.68,0,0,1,49.67-28.14Zm0,12.29A43.44,43.44,0,0,0,1470,45.75a43.18,43.18,0,0,0-5.94,22.17,42.37,42.37,0,0,0,5.8,21.75,44.26,44.26,0,0,0,38,21.82,42.81,42.81,0,0,0,21.86-5.83,43.83,43.83,0,0,0,16-16,42.16,42.16,0,0,0,6-21.79A43.45,43.45,0,0,0,1546,46.07,43.79,43.79,0,0,0,1507.86,24Z"/><path class="cls-3" d="M1593.64,14h19.61q19.2,0,27.51,5.86,12.78,9,12.79,24.3a30.74,30.74,0,0,1-7.18,20.46q-7.18,8.52-19.12,10.27l34.6,46.92h-16.4L1613,76.3h-5.69v45.53h-13.64Zm13.64,12V65.2a88,88,0,0,0,18.62-1.61q14.85-3.35,14.86-18.57,0-19-28.93-19Z"/><path class="cls-3" d="M1686.45,14h22.88q18,0,32.05,6.35,15.93,7.26,23.74,21.51a50.29,50.29,0,0,1,5.9,24.58q0,23.39-14.36,38.54-16,16.83-46.05,16.83h-24.16Zm13.72,12.29v83.23h8.31q31.27,0,43.07-20.18a42.33,42.33,0,0,0,5.54-21.72q0-21-14.78-31.77-13.15-9.55-35.32-9.56Z"/><path class="cls-3" d="M1848.2,34.41Q1842,24,1830.29,24q-10.38,0-15.78,8a12.38,12.38,0,0,0-2.42,6.92q0,10.26,10.73,14.31l12.51,4.75q19.13,7.26,24.24,19.13a34.38,34.38,0,0,1,2.91,13.68,30.67,30.67,0,0,1-5.83,18.33,35.35,35.35,0,0,1-15.56,12.19,34.21,34.21,0,0,1-13.29,2.86q-18.27,0-28.36-14.45a32.94,32.94,0,0,1-5.82-15.78L1807.26,91a19.89,19.89,0,0,0,3.34,11.39q6.11,9.08,17.91,9.07a19.82,19.82,0,0,0,13.61-5.09,18.62,18.62,0,0,0,6.36-12.78l.28-3.56a14,14,0,0,0-5.82-12.92q-5.13-3.92-15.35-8.24a168.83,168.83,0,0,1-15.92-7.33q-13.29-7.76-13.29-23,0-10.28,8.6-18.3,9.38-8.73,23.87-8.73,18.48,0,28.08,16.41Z"/><path class="cls-3" d="M333.75,156.46h3.81l8.22,20,8.23-20h3.78l-12,28.55Z"/><path class="cls-3" d="M388.45,155.88A14.11,14.11,0,0,1,398.7,160a13.44,13.44,0,0,1,4.22,10,13.58,13.58,0,0,1-1.91,7.06,14.24,14.24,0,0,1-5.28,5.17,14.43,14.43,0,0,1-7.28,1.92A14.42,14.42,0,0,1,376,177.12a13.81,13.81,0,0,1,0-14.15,14.54,14.54,0,0,1,12.51-7.09Zm0,3.1a10.74,10.74,0,0,0-5.51,1.46,11,11,0,0,0-5.51,9.59,10.63,10.63,0,0,0,1.46,5.48,11.12,11.12,0,0,0,9.56,5.49,10.77,10.77,0,0,0,5.5-1.47,11,11,0,0,0,4-4,10.64,10.64,0,0,0,1.5-5.49,11,11,0,0,0-11-11.05Z"/><path class="cls-3" d="M442.15,178.28v4a14.6,14.6,0,0,1-7.21,1.91,14.51,14.51,0,0,1-13.31-8.8,14.27,14.27,0,0,1-1.16-5.72,12.48,12.48,0,0,1,2.79-8,15.79,15.79,0,0,1,5.22-4.22,14.83,14.83,0,0,1,13.67.18v4a11.08,11.08,0,0,0-7.37-2.69,10.51,10.51,0,0,0-7.63,3.21,10.31,10.31,0,0,0-3.25,7.54,11.08,11.08,0,0,0,3.25,8.17,10.47,10.47,0,0,0,7.63,3.24A11.43,11.43,0,0,0,442.15,178.28Z"/><path class="cls-3" d="M472.22,155.27l13.22,28.33h-3.72l-3.17-6.8H465.93l-3.15,6.8H459Zm0,7.45-4.86,11h9.79Z"/><path class="cls-3" d="M503.49,156.46h3.43v24h8.39v3.09H503.49Z"/><path class="cls-3" d="M545.88,155.88A14.15,14.15,0,0,1,556.14,160a14,14,0,0,1,2.3,17.09,14.14,14.14,0,0,1-5.27,5.17,14.47,14.47,0,0,1-7.29,1.92,14.42,14.42,0,0,1-12.47-7.06,13.84,13.84,0,0,1,0-14.15,14.51,14.51,0,0,1,12.5-7.09Zm0,3.1a10.74,10.74,0,0,0-5.51,1.46,11.08,11.08,0,0,0-5.51,9.59,10.73,10.73,0,0,0,1.46,5.48,11.16,11.16,0,0,0,9.56,5.49,10.8,10.8,0,0,0,5.51-1.47,11,11,0,0,0,4-4,10.64,10.64,0,0,0,1.5-5.49,10.9,10.9,0,0,0-1.45-5.5,10.75,10.75,0,0,0-4-4.05A10.86,10.86,0,0,0,545.88,159Z"/><path class="cls-3" d="M579.33,156.46h3.44V183.6h-3.44Z"/><path class="cls-3" d="M603.41,156.46h5.76a19.5,19.5,0,0,1,8.07,1.6,12.22,12.22,0,0,1,7.46,11.6,13.56,13.56,0,0,1-3.61,9.71q-4,4.23-11.6,4.23h-6.08Zm3.45,3.1v20.95H609q7.86,0,10.84-5.08a10.65,10.65,0,0,0,1.39-5.47q0-5.28-3.72-8-3.32-2.4-8.89-2.4Z"/><path class="cls-3" d="M670.15,156.46H685v3.1h-11.4v7.59h11.11v3.09H673.58v10.27H685v3.09H670.15Z"/><path class="cls-3" d="M704.76,152.31h3.33V183.6h-3.33Z"/><path class="cls-3" d="M740.79,178l2.83,1.62a9,9,0,0,1-8.11,4.58,7.61,7.61,0,0,1-6.06-2.67,10.25,10.25,0,0,1-2.26-7,8.85,8.85,0,0,1,.68-3.25,7.55,7.55,0,0,1,4.21-4.38,8.85,8.85,0,0,1,3.43-.65q5.4,0,7.26,4.47a9.25,9.25,0,0,1,.81,4l0,1h-13a5.7,5.7,0,0,0,1.42,4,5,5,0,0,0,3.9,1.66Q739.06,181.34,740.79,178Zm-.47-4.71a5,5,0,0,0-1.45-3,4.29,4.29,0,0,0-3.13-1.21,4.83,4.83,0,0,0-5,4.22Z"/><path class="cls-3" d="M774.83,179v4.13a10.41,10.41,0,0,1-4.65,1,9.84,9.84,0,0,1-4.6-1.09,8.78,8.78,0,0,1-3.44-3.15,8.25,8.25,0,0,1-1.28-4.51,8.85,8.85,0,0,1,4.67-7.86,9.56,9.56,0,0,1,4.65-1.18,9.93,9.93,0,0,1,4.65,1v4.22a6.33,6.33,0,0,0-5.06-2.3,5.22,5.22,0,0,0-3.92,1.76,5.65,5.65,0,0,0-1.67,4,5.84,5.84,0,0,0,2.61,5.18,5.41,5.41,0,0,0,3.09.93,6.42,6.42,0,0,0,2.73-.52A8.26,8.26,0,0,0,774.83,179Z"/><path class="cls-3" d="M794.56,166.71v-6.43h3.29v6.43h3.29v3h-3.29V183.6h-3.29V169.73h-1.81v-3Z"/><path class="cls-3" d="M822.19,166.71v2.88c1-2.22,2.59-3.34,4.73-3.34a5,5,0,0,1,2.79.76l-1.51,3a3.45,3.45,0,0,0-2.2-.65q-3.81,0-3.81,5.65v8.57H818.9V166.71Z"/><path class="cls-3" d="M854.94,166.25a9.3,9.3,0,0,1,4.58,1.18,9,9,0,0,1,3.34,3.27,8.74,8.74,0,0,1,1.24,4.55,8.49,8.49,0,0,1-1.22,4.45,9.27,9.27,0,0,1-12.5,3.28,8.94,8.94,0,0,1-3.36-3.27,8.57,8.57,0,0,1-1.24-4.46,8.69,8.69,0,0,1,1.22-4.5,9.25,9.25,0,0,1,7.94-4.5Zm0,3.1a5.57,5.57,0,0,0-5.09,2.93,5.77,5.77,0,0,0-.81,3,5.44,5.44,0,0,0,3,5,5.8,5.8,0,0,0,3,.79,5.69,5.69,0,0,0,4.15-1.71,5.87,5.87,0,0,0-4.15-10Z"/><path class="cls-3" d="M921.86,161.6a5,5,0,0,0-4.51-2.62,4.49,4.49,0,0,0-4,2,3.17,3.17,0,0,0-.61,1.74,3.65,3.65,0,0,0,2.71,3.6l3.14,1.2c3.21,1.22,5.25,2.82,6.1,4.82a8.59,8.59,0,0,1,.74,3.44A7.75,7.75,0,0,1,924,180.4a8.92,8.92,0,0,1-3.92,3.06,8.6,8.6,0,0,1-3.34.72,8.19,8.19,0,0,1-7.14-3.64,8.36,8.36,0,0,1-1.47-4l3.44-.72a5.31,5.31,0,0,0,8.77,3.87,4.66,4.66,0,0,0,1.6-3.22l.08-.89a3.57,3.57,0,0,0-1.47-3.26,18.87,18.87,0,0,0-3.87-2.07,42.35,42.35,0,0,1-4-1.85,6.29,6.29,0,0,1-3.35-5.78,6.16,6.16,0,0,1,2.17-4.61,8.47,8.47,0,0,1,6-2.19,7.7,7.7,0,0,1,7.06,4.13Z"/><path class="cls-3" d="M952.24,166.25a9.26,9.26,0,0,1,4.57,1.18,9,9,0,0,1,3.34,3.27,8.75,8.75,0,0,1,1.25,4.55,8.5,8.5,0,0,1-1.23,4.45,9.27,9.27,0,0,1-12.5,3.28,8.94,8.94,0,0,1-3.36-3.27,8.56,8.56,0,0,1-1.23-4.46,8.68,8.68,0,0,1,1.21-4.5,9,9,0,0,1,3.38-3.3A9.1,9.1,0,0,1,952.24,166.25Zm0,3.1a5.57,5.57,0,0,0-5.1,2.93,5.77,5.77,0,0,0-.81,3,5.45,5.45,0,0,0,2.95,5,5.84,5.84,0,0,0,3,.79,5.67,5.67,0,0,0,4.14-1.71,5.87,5.87,0,0,0-4.14-10Z"/><path class="cls-3" d="M991.23,166.71h3.29v9.72c0,3.13-1,5.42-3,6.86a6.92,6.92,0,0,1-4.08,1.14,6.82,6.82,0,0,1-6.39-3.67,8.1,8.1,0,0,1-1-4v-10h3.26v9.58a5.79,5.79,0,0,0,1,3.45,3.62,3.62,0,0,0,3.12,1.6c2.56,0,3.84-1.69,3.84-5.05Z"/><path class="cls-3" d="M1014.68,166.71H1018v2.41a6,6,0,0,1,5.31-2.87q6,0,6,7.23V183.6H1026V173.41a5.17,5.17,0,0,0-.77-3.15,3.56,3.56,0,0,0-3-1.14q-4.25,0-4.24,5.25v9.23h-3.28Z"/><path class="cls-3" d="M1062.41,152.31h3.29V183.6h-3.29v-2.74a6.79,6.79,0,0,1-5.87,3.32,7.51,7.51,0,0,1-6.32-3,9.47,9.47,0,0,1-2-5.89,10.32,10.32,0,0,1,1-4.6,7.68,7.68,0,0,1,3.21-3.45,8,8,0,0,1,4-1,7.19,7.19,0,0,1,3.49.95,6.23,6.23,0,0,1,2.52,2.46Zm.14,22.94c0-2.52-.89-4.3-2.66-5.36a5.75,5.75,0,0,0-3-.77,4.83,4.83,0,0,0-4.79,3.29,7.49,7.49,0,0,0-.59,2.91,6.13,6.13,0,0,0,2.2,5,4.63,4.63,0,0,0,3.1,1,5.1,5.1,0,0,0,5.09-3.15A6.89,6.89,0,0,0,1062.55,175.25Z"/><path class="cls-3" d="M1132.58,178.28v4a14.6,14.6,0,0,1-7.21,1.91,14.51,14.51,0,0,1-13.31-8.8,14.27,14.27,0,0,1-1.16-5.72,12.48,12.48,0,0,1,2.79-8,15.79,15.79,0,0,1,5.22-4.22,14.83,14.83,0,0,1,13.67.18v4a11.08,11.08,0,0,0-7.37-2.69,10.51,10.51,0,0,0-7.63,3.21,10.31,10.31,0,0,0-3.25,7.54,11.08,11.08,0,0,0,3.25,8.17,10.47,10.47,0,0,0,7.63,3.24A11.43,11.43,0,0,0,1132.58,178.28Z"/><path class="cls-3" d="M1155.55,166.71v2.88c1-2.22,2.59-3.34,4.72-3.34a5,5,0,0,1,2.79.76l-1.5,3a3.47,3.47,0,0,0-2.2-.65q-3.81,0-3.81,5.65v8.57h-3.29V166.71Z"/><path class="cls-3" d="M1192.92,178l2.82,1.62a9,9,0,0,1-8.1,4.58,7.63,7.63,0,0,1-6.07-2.67,10.29,10.29,0,0,1-2.25-7,8.85,8.85,0,0,1,.68-3.25,7.53,7.53,0,0,1,4.2-4.38,8.93,8.93,0,0,1,3.44-.65q5.4,0,7.26,4.47a9.25,9.25,0,0,1,.81,4l0,1h-13a5.74,5.74,0,0,0,1.41,4,5,5,0,0,0,3.9,1.66C1190.13,181.34,1191.76,180.22,1192.92,178Zm-.47-4.71a5,5,0,0,0-1.45-3,4.31,4.31,0,0,0-3.13-1.21,4.85,4.85,0,0,0-5,4.22Z"/><path class="cls-3" d="M1227.17,166.71h3.29V183.6h-3.29v-2.74a7.11,7.11,0,0,1-5.94,3.32,7.73,7.73,0,0,1-3.34-.68,8,8,0,0,1-3.71-3.46,10.09,10.09,0,0,1-1.2-4.94q0-5.5,4.23-7.81a8.25,8.25,0,0,1,4-1,6.66,6.66,0,0,1,2,.36,6.74,6.74,0,0,1,3.9,3Zm.14,8.32a6.06,6.06,0,0,0-1.46-4.15,5.14,5.14,0,0,0-4-1.76,5.22,5.22,0,0,0-4.68,2.74,6.08,6.08,0,0,0-.84,3.24,6,6,0,0,0,2.75,5.46,4.81,4.81,0,0,0,2.56.78,5.22,5.22,0,0,0,4.23-1.88A6.65,6.65,0,0,0,1227.31,175Z"/><path class="cls-3" d="M1250.94,166.71v-6.43h3.3v6.43h3.29v3h-3.29V183.6h-3.3V169.73h-1.8v-3Z"/><path class="cls-3" d="M1282.68,166.25a9.26,9.26,0,0,1,4.57,1.18,9,9,0,0,1,3.34,3.27,8.75,8.75,0,0,1,1.25,4.55,8.5,8.5,0,0,1-1.23,4.45,9.27,9.27,0,0,1-12.5,3.28,8.94,8.94,0,0,1-3.36-3.27,8.56,8.56,0,0,1-1.23-4.46,8.68,8.68,0,0,1,1.21-4.5,9,9,0,0,1,3.38-3.3A9.1,9.1,0,0,1,1282.68,166.25Zm0,3.1a5.57,5.57,0,0,0-5.1,2.93,5.77,5.77,0,0,0-.81,3,5.45,5.45,0,0,0,3,5,5.84,5.84,0,0,0,3,.79,5.67,5.67,0,0,0,4.14-1.71,5.87,5.87,0,0,0-4.14-10Z"/><path class="cls-3" d="M1314.09,166.71v2.88c1-2.22,2.58-3.34,4.72-3.34a5,5,0,0,1,2.79.76l-1.5,3a3.47,3.47,0,0,0-2.2-.65q-3.81,0-3.81,5.65v8.57h-3.3V166.71Z"/><path class="cls-3" d="M1346.1,170.6a2.38,2.38,0,0,0-2.23-1.48,1.68,1.68,0,0,0-1.75,1.74q0,1,1.53,1.74l2.88,1.39q3.57,1.72,3.57,4.74a5.23,5.23,0,0,1-2.81,4.66,5.35,5.35,0,0,1-2.83.79c-3.13,0-5.2-1.24-6.23-3.74l2.87-1.34a3.21,3.21,0,0,0,3.07,2.24,2.62,2.62,0,0,0,1.66-.58,2.47,2.47,0,0,0,.94-1.45,2.74,2.74,0,0,0-1.33-2.25,9.56,9.56,0,0,0-1.29-.77l-1.27-.65c-2.56-1.31-3.84-2.84-3.84-4.57a5,5,0,0,1,5.06-4.82,5.17,5.17,0,0,1,4.72,3Z"/><rect class="cls-3" x="1393.33" y="158.66" width="28.35" height="28.35"/><rect class="cls-3" x="1462.66" y="158.66" width="28.35" height="28.35"/><rect class="cls-3" x="1531.98" y="158.66" width="28.35" height="28.35"/><rect class="cls-3" x="1601.3" y="158.66" width="28.35" height="28.35"/><rect class="cls-3" x="1670.62" y="158.66" width="28.35" height="28.35"/><rect class="cls-3" x="1739.95" y="158.66" width="28.35" height="28.35"/><rect class="cls-3" x="1809.27" y="158.66" width="28.35" height="28.35"/></g></g></svg>