<?xml version="1.0" encoding="utf-8"?>
<!-- Generator: Adobe Illustrator 23.1.0, SVG Export Plug-In . SVG Version: 6.00 Build 0)  -->
<svg version="1.1" id="レイヤー_1" xmlns="http://www.w3.org/2000/svg" xmlns:xlink="http://www.w3.org/1999/xlink" x="0px"
	 y="0px" viewBox="0 0 82.7 41.6" style="enable-background:new 0 0 82.7 41.6;" xml:space="preserve">
<style type="text/css">
	.st0{fill:#FFFFFF;}
</style>
<title>アセット 9</title>
<g>
	<g id="label">
		<g id="label-2">
			<path id="black" class="st0" d="M7.2,14.4c0,3.1-1.4,5.1-3.5,5.5l-1.3,0.2l-0.4,3.2c0,0.1-0.1,0.2-0.2,0.3l-1.5,0.3
				c-0.2,0-0.3-0.1-0.3-0.2c0,0,0-0.1,0-0.1l1.3-10.9c0-0.1,0.1-0.2,0.2-0.2l3.1-0.6C6.3,11.5,7.2,12.4,7.2,14.4z M2.6,18.4l1.2-0.2
				c0.7-0.1,1.1-0.8,1.3-2.4c0-0.3,0.1-0.6,0.1-0.9c0-0.9-0.3-1.1-0.8-1L3.2,14L2.6,18.4z M13,15.7c0,0.1-0.2,0.3-0.3,0.2
				c0,0,0,0,0,0c-0.1,0-0.2,0-0.3,0c-0.7,0.1-1.4,1-1.7,2.8l0,0l-0.3,3.1c0,0.1-0.1,0.2-0.2,0.3l-1.3,0.2c-0.1,0.1-0.3,0-0.4-0.2
				c0,0,0-0.1,0-0.1l0.8-7.1c0-0.1,0.1-0.2,0.2-0.3l1.1-0.2c0.2,0,0.3,0.1,0.3,0.2c0,0,0,0.1,0,0.1l-0.1,1.3l0,0
				c0.6-1.4,1.2-2,1.9-2.1c0.1,0,0.2,0,0.4,0c0.2,0,0.3,0.2,0.2,0.3c0,0,0,0,0,0L13,15.7z M19.8,20.3l-1.3,0.2
				c-0.2,0-0.3-0.1-0.3-0.2c0,0,0-0.1,0-0.1l0.5-4.5c0-0.2,0-0.3,0-0.5c0-0.6-0.2-0.7-0.6-0.7c-0.5,0.1-0.9,0.5-1.2,0.9
				c0,0,0,0.1,0,0.1l-0.6,5.1c0,0.1-0.1,0.2-0.2,0.2l-1.3,0.2c-0.2,0-0.3-0.1-0.3-0.2c0,0,0-0.1,0-0.1l1.3-11.3
				c0-0.1,0.1-0.2,0.3-0.2l1.3-0.2c0.2,0,0.3,0.1,0.3,0.2c0,0,0,0,0,0.1L17,14l0,0c0.5-0.6,1.2-1.1,2-1.2c1.1-0.2,1.6,0.4,1.6,1.8
				c0,0.3,0,0.6,0,0.9L20,20.1C20,20.2,19.9,20.3,19.8,20.3L19.8,20.3z M25.6,20.5c-0.7,1.9-1.6,2.8-2.9,3.2c-0.1,0-0.3,0-0.3-0.2
				c0,0,0-0.1,0-0.1v-0.9c0-0.1,0.1-0.2,0.2-0.3c0.7-0.2,1.2-0.8,1.3-1.4l0.2-0.4l-1.5-7.9c0-0.2,0.1-0.3,0.2-0.3c0,0,0,0,0,0
				l1.5-0.3c0.2,0,0.3,0.1,0.3,0.2c0,0,0,0,0,0l0.6,5.6l0,0l1.9-6.2c0-0.1,0.1-0.2,0.2-0.2l1.3-0.2c0.2,0,0.3,0.1,0.3,0.3
				c0,0,0,0.1,0,0.1L25.6,20.5z M34.5,11.8L33.4,12c-0.1,0-0.2,0.1-0.2,0.2l-0.4,3.3c0,0.1,0,0.2,0,0.4c0,0.5,0.3,0.5,1,0.3
				c0.1-0.1,0.2,0,0.3,0.1c0,0,0,0.1,0,0.1c0,0.2,0,1,0,1c0,0.1,0,0.2-0.1,0.2c-0.4,0.3-0.8,0.5-1.3,0.5c-1.2,0.2-1.7-0.3-1.7-1.6
				c0-0.2,0-0.4,0-0.7l0.4-3.3c0-0.2-0.1-0.3-0.2-0.3h-0.3c-0.1,0-0.2-0.2-0.2-0.3l0.1-0.9c0-0.1,0.1-0.2,0.2-0.3l0.6-0.1
				c0.1,0,0.2-0.1,0.2-0.2l0.7-2.1c0-0.1,0.1-0.2,0.2-0.2l0.8-0.1c0.2,0,0.3,0.1,0.3,0.2c0,0,0,0.1,0,0.1L33.5,10
				c0,0.2,0.1,0.3,0.2,0.3c0,0,0.1,0,0.1,0l0.7-0.1c0.2,0,0.3,0.1,0.3,0.2c0,0,0,0,0,0.1l-0.1,1C34.7,11.7,34.6,11.8,34.5,11.8
				C34.4,11.8,34.4,11.8,34.5,11.8L34.5,11.8z M67.6,6.1l-1.1,0.2c-0.1,0-0.2,0.1-0.2,0.2L66,9.9c0,0.1,0,0.2,0,0.4
				c0,0.5,0.3,0.5,1,0.3c0.1-0.1,0.2,0,0.3,0.1c0,0,0,0.1,0,0.1c0,0.2,0,1.1,0,1.1c0,0.1,0,0.2-0.1,0.2c-0.4,0.3-0.8,0.5-1.3,0.6
				c-1.2,0.2-1.7-0.3-1.7-1.6c0-0.2,0-0.4,0-0.7L64.5,7c0-0.2-0.1-0.3-0.2-0.3H64c-0.1,0-0.3-0.2-0.2-0.3c0,0,0,0,0,0l0.1-1
				c0-0.1,0.1-0.2,0.2-0.3L64.6,5c0.1,0,0.2-0.1,0.2-0.2l0.7-2.1c0-0.1,0.1-0.2,0.2-0.2l0.8-0.1c0.1,0,0.3,0.1,0.3,0.2
				c0,0,0,0.1,0,0.1l-0.2,1.7c0,0.2,0.1,0.3,0.2,0.3c0,0,0.1,0,0.1,0l0.7-0.1c0.2,0,0.3,0.1,0.3,0.2c0,0,0,0.1,0,0.1l-0.1,1
				C67.9,5.9,67.8,6,67.6,6.1z M41.4,16.6L40,16.8c-0.2,0-0.3-0.1-0.3-0.2c0,0,0-0.1,0-0.1l0.5-4.5c0-0.2,0-0.4,0-0.5
				c0-0.6-0.2-0.7-0.6-0.7c-0.5,0.1-0.9,0.5-1.2,0.9c0,0,0,0.1,0,0.1L37.9,17c0,0.1-0.1,0.2-0.2,0.3l-1.3,0.2
				c-0.2,0-0.3-0.1-0.3-0.2c0,0,0-0.1,0-0.1l1.3-11.3c0-0.1,0.1-0.2,0.2-0.3l1.3-0.2c0.2,0,0.3,0.1,0.3,0.2c0,0,0,0.1,0,0.1
				l-0.5,4.5l0,0c0.5-0.6,1.2-1.1,2-1.2c1.1-0.2,1.6,0.4,1.6,1.8c0,0.3,0,0.5,0,0.9l-0.5,4.7C41.6,16.5,41.5,16.6,41.4,16.6z
				 M50.1,10.4l-0.5,4.5c0,0.1-0.1,0.2-0.2,0.3L48,15.4c-0.2,0-0.3-0.1-0.3-0.2c0,0,0-0.1,0-0.1l0.5-4.4c0-0.2,0-0.3,0-0.5
				c0-0.6-0.2-0.7-0.5-0.6c-0.4,0.1-0.8,0.4-1,0.8c0,0,0,0.1,0,0.1L46,15.6c0,0.1-0.1,0.2-0.2,0.2L44.5,16c-0.2,0-0.3-0.1-0.3-0.2
				c0,0,0-0.1,0-0.1L45,8.6c0-0.1,0.1-0.2,0.2-0.2l1.1-0.2c0.2,0,0.3,0.1,0.3,0.2c0,0,0,0,0,0.1V9l0,0c0.4-0.7,1.1-1.2,1.9-1.4
				c0.6-0.2,1.2,0.2,1.3,0.7c0,0.1,0,0.2,0,0.3l0,0C50.3,7.8,51.1,7.2,52,7c1-0.2,1.6,0.4,1.6,1.9c0,0.3,0,0.5,0,0.8L53,14.3
				c0,0.1-0.1,0.2-0.2,0.3l-1.3,0.2c-0.2,0-0.3-0.1-0.3-0.2c0,0,0-0.1,0-0.1l0.5-4.4c0-0.2,0-0.3,0-0.5c0-0.6-0.2-0.7-0.5-0.7
				C50.5,9.2,50.1,9.7,50.1,10.4z M55.9,9.6c0.3-2.2,1.2-3.4,2.6-3.7c0.5-0.1,1.1,0,1.5,0.4l0.1-0.4c0-0.1,0.1-0.2,0.2-0.2l1.2-0.2
				c0.2,0,0.3,0.1,0.3,0.2c0,0,0,0.1,0,0.1L61,13c0,0.1-0.1,0.2-0.2,0.3l-1.1,0.2c-0.2,0-0.3-0.1-0.3-0.2c0,0,0,0,0-0.1v-0.6l0,0
				c-0.5,0.7-1.3,1.2-2.1,1.4c-1.1,0.2-1.6-0.4-1.6-1.8c0-0.3,0-0.5,0-0.8L55.9,9.6z M59.3,11.1l0.4-3.2c0-0.1-0.1-0.3-0.2-0.3
				c-0.2-0.1-0.4-0.1-0.6,0c-0.6,0.1-1,0.6-1.1,1.8L57.6,11c0,0.2,0,0.3,0,0.5c0,0.6,0.2,0.7,0.6,0.6c0.5-0.1,0.9-0.5,1.2-0.9
				C59.4,11.2,59.4,11.1,59.3,11.1z M71.9,4.1l-0.8,7.1c0,0.1-0.1,0.2-0.2,0.3l-1.3,0.2c-0.2,0-0.3-0.1-0.3-0.2c0,0,0-0.1,0-0.1
				l0.8-7.1c0-0.1,0.1-0.2,0.2-0.2l1.3-0.2c0.1-0.1,0.3,0,0.4,0.2C72,4,72,4,71.9,4.1L71.9,4.1z M72.3,0.3L72.1,2
				c0,0.1-0.1,0.2-0.2,0.3l-1.2,0.2c-0.2,0-0.3-0.1-0.3-0.2c0,0,0-0.1,0-0.1l0.2-1.7c0-0.1,0.1-0.2,0.2-0.2L72,0
				C72.2,0,72.3,0.1,72.3,0.3C72.3,0.3,72.3,0.3,72.3,0.3z M78.2,5c-0.1,0.1-0.3,0-0.4-0.1c0,0,0,0,0,0c-0.1-0.5-0.3-0.6-0.7-0.6
				c-0.6,0.1-1,0.6-1.2,1.8l-0.2,1.8c0,0.1,0,0.3,0,0.4c0,0.6,0.3,0.8,0.7,0.7s0.8-0.4,1.1-1.1c0-0.1,0.2-0.2,0.3-0.2l0.8,0.1
				c0.2,0,0.3,0.2,0.2,0.3c0,0,0,0,0,0.1c-0.4,1.3-1.6,2.3-2.9,2.5c-1.5,0.3-2.2-0.6-2.2-1.9c0-0.2,0-0.3,0-0.5l0.2-2
				c0.1-1.8,1.3-3.3,3.1-3.7C78,2.4,79,2.9,79.2,3.8c0,0.1,0.1,0.3,0.1,0.4c0,0.1,0,0.2-0.2,0.3L78.2,5z M9.9,26l-0.5,4.4
				c0,0.2,0.1,0.3,0.3,0.3c0,0,0,0,0.1,0l1.8-0.3c0.1,0,0.2-0.1,0.2-0.3l0.6-4.7c0-0.1,0.1-0.2,0.2-0.3l1.5-0.3
				c0.2,0,0.3,0.1,0.3,0.3c0,0,0,0,0,0.1L13,36.2c0,0.1-0.1,0.2-0.2,0.3l-1.5,0.3c-0.2,0-0.3-0.1-0.3-0.2c0,0,0-0.1,0-0.1l0.4-3.6
				c0-0.2-0.1-0.3-0.3-0.3c0,0-0.1,0-0.1,0l-1.8,0.3C9.1,32.8,9,32.9,9,33l-0.4,4c0,0.1-0.1,0.2-0.2,0.3l-1.5,0.3
				c-0.2,0-0.3-0.1-0.3-0.3c0,0,0,0,0-0.1l1.3-10.9C7.8,26.1,7.9,26,8,26l1.5-0.3C9.7,25.7,9.8,25.8,9.9,26C9.9,26,9.9,26,9.9,26z
				 M16.2,31.3c0.3-2.2,1.2-3.4,2.6-3.6c0.5-0.1,1.1,0,1.5,0.4l0.1-0.4c0-0.1,0.1-0.2,0.2-0.2l1.2-0.2c0.2,0,0.3,0.1,0.3,0.2
				c0,0,0,0.1,0,0.1l-0.9,7.2c0,0.1-0.1,0.2-0.3,0.3l-1.1,0.2c-0.2,0-0.3-0.1-0.3-0.3c0,0,0,0,0,0v-0.6l0,0
				c-0.5,0.7-1.2,1.2-2.1,1.4c-1.1,0.2-1.6-0.4-1.6-1.8c0-0.3,0-0.5,0.1-0.8L16.2,31.3z M19.6,32.8l0.4-3.2c0-0.1-0.1-0.3-0.2-0.3
				c-0.2-0.1-0.4-0.1-0.6,0c-0.6,0.1-1,0.6-1.1,1.8l-0.2,1.7c0,0.2,0,0.3,0,0.5c0,0.6,0.2,0.7,0.6,0.7c0.5-0.1,0.9-0.5,1.2-0.9
				C19.6,32.9,19.6,32.9,19.6,32.8z M28.6,27.8c0,0.1-0.2,0.2-0.3,0.2c-0.1,0-0.2,0-0.3,0c-0.7,0.1-1.3,0.5-1.7,2.2
				c0,0-0.1,0.6-0.1,0.6L25.8,34c0,0.1-0.1,0.2-0.2,0.3l-1.3,0.2c-0.2,0-0.3-0.1-0.3-0.2c0,0,0-0.1,0-0.1l0.8-7.2
				c0-0.1,0.1-0.2,0.2-0.3l1-0.2c0.2,0,0.3,0.1,0.3,0.2c0,0,0,0,0,0.1l-0.1,1.3l0,0c0.6-1.4,1.2-2,1.9-2.1c0.1,0,0.2,0,0.4,0
				c0.2,0,0.3,0.1,0.3,0.3c0,0,0,0,0,0L28.6,27.8z M33.7,31.9L33.7,31.9c-0.5,0.7-1.2,1.2-2.1,1.4c-1.1,0.2-1.6-0.4-1.6-1.8
				c0-0.3,0-0.5,0-0.8l0.3-1.8c0.3-2.2,1.2-3.4,2.6-3.6c0.5-0.1,1,0,1.4,0.3l0,0l0.5-4.4c0-0.1,0.1-0.2,0.2-0.3l1.3-0.2
				c0.2,0,0.3,0.1,0.3,0.3c0,0,0,0,0,0.1l-1.4,11.3c0,0.1-0.1,0.2-0.2,0.3L34,32.7c-0.2,0-0.3-0.1-0.3-0.2c0,0,0,0,0-0.1L33.7,31.9z
				 M31.9,30.8c0,0.6,0.2,0.8,0.6,0.7c0.5-0.1,0.9-0.5,1.2-0.9c0,0,0-0.1,0-0.1l0.4-3.3c0-0.1-0.1-0.3-0.2-0.3
				c-0.2-0.1-0.4-0.1-0.6,0c-0.6,0.1-0.9,0.6-1.1,1.8l-0.3,1.8C31.9,30.5,31.8,30.6,31.9,30.8L31.9,30.8z M42.5,26
				c-0.1,0.1-0.3,0-0.4-0.1c0,0,0,0,0-0.1c-0.1-0.5-0.4-0.6-0.7-0.5c-0.6,0.1-1,0.6-1.2,1.8l-0.3,2c0,0.1,0,0.3,0,0.4
				c0,0.6,0.3,0.8,0.7,0.7s0.9-0.4,1.1-1.1c0-0.1,0.2-0.2,0.3-0.2l0.8,0.1c0.2,0,0.3,0.2,0.2,0.3c0,0,0,0,0,0.1
				c-0.4,1.3-1.5,2.2-2.9,2.5c-1.5,0.3-2.2-0.6-2.2-1.9c0-0.2,0-0.3,0-0.5l0.3-2.1c0.1-1.8,1.3-3.3,3.1-3.7c0.9-0.2,1.8,0.3,2.1,1.2
				c0,0.1,0.1,0.3,0.1,0.4c0,0.1,0,0.2-0.2,0.3L42.5,26z M50.7,27c-0.1,1.7-1.4,3.2-3.2,3.5c-1.7,0.3-2.5-0.6-2.5-2
				c0-0.2,0-0.3,0-0.5l0.3-2.1c0.1-1.7,1.4-3.2,3.2-3.5c1.7-0.3,2.5,0.6,2.5,2c0,0.2,0,0.4,0,0.5L50.7,27z M47,27.6
				c0,0.1,0,0.3,0,0.4c0,0.7,0.3,0.9,0.8,0.8s1-0.6,1.1-1.6l0.3-2c0-0.1,0-0.3,0-0.4c0-0.7-0.3-0.9-0.8-0.8s-1,0.6-1.1,1.6L47,27.6z
				 M57.5,22.7c0,0.1-0.2,0.2-0.3,0.2c-0.1,0-0.2,0-0.3,0c-0.7,0.1-1.3,1-1.7,2.8l0,0l-0.4,3.1c0,0.1-0.1,0.2-0.2,0.2l-1.3,0.2
				c-0.2,0-0.3-0.1-0.3-0.2c0,0,0-0.1,0-0.1l0.8-7.2c0-0.1,0.1-0.2,0.2-0.3l1.1-0.1c0.2,0,0.3,0.1,0.3,0.2c0,0,0,0,0,0.1l-0.1,1.3
				l0,0c0.6-1.4,1.2-2,1.9-2.1c0.1,0,0.2,0,0.4,0c0.2,0,0.3,0.2,0.2,0.3c0,0,0,0,0,0L57.5,22.7z M61.1,25.1c-0.1,0-0.2,0.1-0.2,0.2
				v-0.1c0,0.1,0,0.3,0,0.4c0,0.7,0.3,1,0.9,0.9s0.8-0.4,1.2-1.2c0-0.1,0.2-0.2,0.3-0.2l0.8,0.1c0.2,0,0.3,0.2,0.2,0.3
				c0,0,0,0,0,0.1c-0.4,1.3-1.5,2.3-2.9,2.6c-1,0.3-2-0.2-2.3-1.2c-0.1-0.3-0.1-0.5-0.1-0.8c0-0.2,0-0.3,0-0.5l0.3-2.1
				c0.1-1.7,1.4-3.2,3.1-3.5c1.6-0.3,2.3,0.6,2.3,2.1c0,0.2,0,0.3,0,0.5l-0.2,1.7c0,0.1-0.1,0.2-0.2,0.2L61.1,25.1z M61.4,23.8
				l1.2-0.2c0.1,0,0.2-0.1,0.2-0.3l0.1-0.6c0-0.1,0-0.3,0-0.4c0-0.6-0.3-0.8-0.7-0.8s-1,0.5-1.1,1.5v0.4
				C61.1,23.6,61.2,23.8,61.4,23.8C61.4,23.8,61.4,23.8,61.4,23.8z M75.8,34.6c0,0,5-11.5,5.6-13.1c2.2-5.5-1.4-9.2-7-7.5
				c-4.4,1.3-6.3,4.4-6.8,11.1c0,0.2,0.1,0.3,0.3,0.3c0,0,0.1,0,0.1,0l1.4-0.3c0.1,0,0.2-0.1,0.2-0.3c0.2-5.4,1.7-8.3,5.1-9.3
				c4.5-1.3,6.4,2,4.8,5.5l-6.1,14 M68,39.6l-0.7,1.5c-0.1,0.2,0,0.3,0.1,0.4c0.1,0,0.1,0,0.2,0L81.9,39c0.1,0,0.2-0.1,0.2-0.2
				l0.2-1.3c0-0.2-0.1-0.4-0.4-0.5c0,0-0.1,0-0.1,0l-13.4,2.3C68.2,39.3,68.1,39.4,68,39.6z M69.3,37.8l12.9-2.3
				c0.2,0,0.3-0.2,0.3-0.3l0.2-1.3c0-0.2-0.1-0.4-0.3-0.5c0,0-0.1,0-0.1,0l-12.5,2.1L69,37.4c-0.1,0.1,0,0.3,0.1,0.4
				C69.2,37.8,69.3,37.8,69.3,37.8L69.3,37.8z M72,35.2c0,0,6.2-14.3,6.3-14.5c1.3-3.5-1.1-4.5-3.2-3.9c-2.6,0.7-3.8,3.4-4.2,7.8
				c0,0.2,0.1,0.3,0.3,0.3c0,0,0.1,0,0.1,0l1.4-0.3c0.1,0,0.2-0.1,0.2-0.3c0-2.6,0.8-5.2,2.3-5.9c1.1-0.5,1.8,0.2,1.2,1.6l-2.7,6.4
				l0,0l-4,9.1L72,35.2z"/>
		</g>
	</g>
</g>
</svg>
