<svg xmlns="http://www.w3.org/2000/svg" viewBox="0 0 322.68 162.13"><defs><style>.cls-1{fill:#231815;}.cls-2{fill:#009fe8;}.cls-3{fill:#d72b59;}.cls-4{fill:#1d95d4;}.cls-5{fill:#e3007f;}</style></defs><title>アセット 1</title><g id="レイヤー_2" data-name="レイヤー 2"><g id="レイヤー_1-2" data-name="レイヤー 1"><g id="title_logo" data-name="title logo"><path d="M28.15,56.07c0,12.17-5.48,20-13.51,21.36l-5.15.88L8.09,90.69a1.1,1.1,0,0,1-.9,1l-5.9,1A1.1,1.1,0,0,1,0,91.45L5,49.08a1.13,1.13,0,0,1,.91-1L18,46C24.61,44.85,28.15,48.37,28.15,56.07Zm-18,15.39,4.62-.81c2.74-.48,4.21-3,5.08-9.39a26.56,26.56,0,0,0,.27-3.66c0-3.47-1.07-4.42-3.21-4.05l-4.55.8Z"/><path d="M50.58,61.22a1.11,1.11,0,0,1-1.25.88,3.75,3.75,0,0,0-1.19,0c-2.8.49-5.27,4-6.8,10.89l0,.13L40,85.1a1.09,1.09,0,0,1-.9,1l-5.16.9a1.1,1.1,0,0,1-1.28-1.22L35.81,58a1.1,1.1,0,0,1,.9-1l4.16-.72a1.1,1.1,0,0,1,1.29,1.16l-.37,5.17.13,0c2.28-5.48,4.62-7.76,7.36-8.24a4.72,4.72,0,0,1,1.42-.07,1.09,1.09,0,0,1,.94,1.31Z"/><path d="M77.14,79.4l-5.09.89a1.11,1.11,0,0,1-1.29-1.22l2-17.43c.06-.75.13-1.36.13-1.9,0-2.4-.94-2.84-2.34-2.6-1.86.33-3.48,1.9-4.61,3.62a1.19,1.19,0,0,0-.17.49L63.53,81a1.11,1.11,0,0,1-.91,1l-5.15.9a1.1,1.1,0,0,1-1.29-1.22l5.17-43.88a1.1,1.1,0,0,1,.91-1l5.08-.89a1.1,1.1,0,0,1,1.29,1.22L66.47,54.65l.13,0a13.09,13.09,0,0,1,7.56-4.73c4.15-.73,6.22,1.52,6.22,6.87a31.58,31.58,0,0,1-.2,3.32L78,78.45A1.09,1.09,0,0,1,77.14,79.4Z"/><path d="M99.81,80.19c-2.76,7.48-6.09,11-11.43,12.58A1.11,1.11,0,0,1,87,91.67l.13-3.62a1.11,1.11,0,0,1,.74-1c2.55-.94,4-2.45,5.23-5.61l.61-1.51-5.82-30.7a1.11,1.11,0,0,1,.9-1.29l5.76-1a1.11,1.11,0,0,1,1.29,1l2.41,22,.14,0,7.23-24.25a1.11,1.11,0,0,1,.86-.78l4.94-.86a1.1,1.1,0,0,1,1.22,1.47Z"/><path d="M134.29,46.12l-4.14.73a1.09,1.09,0,0,0-.9.95l-1.47,13c-.07.48-.14,1.16-.14,1.36,0,1.87,1.27,2.1,3.8,1a.84.84,0,0,1,1.24.8c0,.84-.1,4.13-.1,4.13a1.08,1.08,0,0,1-.47.93A13,13,0,0,1,127,71.21c-4.75.83-6.75-1.22-6.75-6.17a18,18,0,0,1,.13-2.57l1.57-12.73a1.11,1.11,0,0,0-.93-1.23l-1-.15a1.11,1.11,0,0,1-.93-1.21l.41-3.71a1.1,1.1,0,0,1,.82-.95l2.21-.55a1.1,1.1,0,0,0,.78-.74l2.62-8.33a1.11,1.11,0,0,1,.87-.75l3-.53a1.1,1.1,0,0,1,1.28,1.22l-.77,6.41a1.1,1.1,0,0,0,1.28,1.22l2.76-.48a1.1,1.1,0,0,1,1.29,1.21l-.47,4A1.08,1.08,0,0,1,134.29,46.12Z"/><path d="M263.85,23.7l-4.14.72a1.11,1.11,0,0,0-.9,1l-1.47,13c-.07.48-.14,1.17-.14,1.37,0,1.87,1.27,2.1,3.8,1a.84.84,0,0,1,1.24.81c0,.83-.09,4.13-.09,4.13a1.11,1.11,0,0,1-.47.92,13.1,13.1,0,0,1-5.15,2.12c-4.74.83-6.75-1.23-6.75-6.18a18,18,0,0,1,.13-2.56l1.57-12.74a1.11,1.11,0,0,0-.93-1.23l-1-.14a1.12,1.12,0,0,1-.93-1.22l.41-3.7a1.1,1.1,0,0,1,.83-.95l2.2-.55a1.12,1.12,0,0,0,.78-.74l2.63-8.33a1.1,1.1,0,0,1,.86-.76l3-.53a1.11,1.11,0,0,1,1.29,1.22l-.78,6.42A1.1,1.1,0,0,0,261.17,18l2.77-.49a1.1,1.1,0,0,1,1.28,1.22l-.47,4A1.08,1.08,0,0,1,263.85,23.7Z"/><path d="M161.34,64.66l-5.09.89A1.1,1.1,0,0,1,155,64.34l2-17.43c.07-.75.13-1.36.13-1.9,0-2.41-.93-2.85-2.34-2.6-1.86.33-3.47,1.9-4.6,3.62a1,1,0,0,0-.18.48l-2.24,19.74a1.09,1.09,0,0,1-.9,1l-5.16.91a1.1,1.1,0,0,1-1.28-1.22L145.56,23a1.1,1.1,0,0,1,.9-1l5.09-.89a1.1,1.1,0,0,1,1.28,1.22l-2.16,17.53.14,0a13,13,0,0,1,7.55-4.73c4.15-.73,6.22,1.52,6.22,6.87a29.06,29.06,0,0,1-.2,3.31l-2.13,18.37A1.1,1.1,0,0,1,161.34,64.66Z"/><path d="M195.28,40.6l-2.07,17.69a1.1,1.1,0,0,1-.9,1l-5.09.89a1.11,1.11,0,0,1-1.29-1.22l1.93-17.15a12.34,12.34,0,0,0,.13-2c0-2.34-.8-2.74-2.07-2.52a6.37,6.37,0,0,0-3.8,2.94,1.12,1.12,0,0,0-.18.5l-2.31,20a1.09,1.09,0,0,1-.9.95l-5.16.9a1.1,1.1,0,0,1-1.28-1.21l3.17-27.74a1.08,1.08,0,0,1,.9-1l4.21-.74A1.11,1.11,0,0,1,181.86,33l-.15,2,.13,0c2.14-3.05,4.82-4.85,7.42-5.31,2.75-.48,4.75.71,5.35,4l.14,0c2.34-3.82,5.35-5.82,8.23-6.32,3.87-.68,6.15,1.6,6.15,7.22a25.1,25.1,0,0,1-.2,3l-2.14,18.37a1.09,1.09,0,0,1-.9.95l-5.09.89a1.11,1.11,0,0,1-1.29-1.22l2-17.16c.07-.75.14-1.36.14-1.9,0-2.41-.87-2.86-2.14-2.63C197.83,35.14,195.69,37.12,195.28,40.6Z"/><path d="M218,37.36c1.2-8.64,4.82-13.29,10.3-14.25a6.45,6.45,0,0,1,5.75,1.47l.42-1.5a1.11,1.11,0,0,1,.87-.8l4.61-.8a1.1,1.1,0,0,1,1.28,1.22l-3.24,28a1.12,1.12,0,0,1-.9,1l-4.33.75a1.1,1.1,0,0,1-1.29-1.08V49.08l-.13,0c-2.41,3.16-5.29,5.07-8.16,5.57-4.15.73-6.29-1.51-6.29-7.06a18.31,18.31,0,0,1,.2-3.18Zm13.5,5.77L233,30.52a1.12,1.12,0,0,0-.76-1.21,5.15,5.15,0,0,0-2.48-.17c-2.34.41-3.74,2.33-4.35,6.92l-.84,6.6a11.21,11.21,0,0,0-.13,2c0,2.4.93,2.78,2.34,2.53,1.73-.3,3.34-1.81,4.53-3.54A1,1,0,0,0,231.53,43.13Z"/><path d="M280.69,15.8l-3.23,27.75a1.13,1.13,0,0,1-.91,1l-5.09.89a1.1,1.1,0,0,1-1.28-1.22l3.17-27.74a1.08,1.08,0,0,1,.9-1l5.15-.9A1.1,1.1,0,0,1,280.69,15.8ZM282.1,1.23l-.74,6.38a1.08,1.08,0,0,1-.9,1l-4.56.8a1.1,1.1,0,0,1-1.28-1.21l.73-6.39a1.13,1.13,0,0,1,.91-1L280.82,0A1.1,1.1,0,0,1,282.1,1.23Z"/><path d="M305.16,19.41a1.11,1.11,0,0,1-1.57-.69c-.49-1.93-1.37-2.38-2.76-2.14-2.48.44-3.88,2.35-4.48,6.94l-.9,7.31a14.24,14.24,0,0,0-.14,1.56c0,2.34,1,3,2.81,2.72s3.32-1.63,4.38-4.43a1.13,1.13,0,0,1,1.21-.73l3.15.5a1.11,1.11,0,0,1,.86,1.5c-2.3,5.45-5.86,8.73-11.27,9.68-5.95,1-8.56-2.39-8.56-7.34,0-.6.07-1.21.13-1.83l1-7.92c.87-6.77,4.61-13,12-14.34,4.51-.78,7.57,1.34,8.39,6.28a1.14,1.14,0,0,1-.61,1.16Z"/><path d="M38.47,101.61l-2.11,17.07a1.13,1.13,0,0,0,1.32,1.25l7-1.22a1.12,1.12,0,0,0,.93-1L47.85,99.3a1.13,1.13,0,0,1,.93-1l5.83-1a1.13,1.13,0,0,1,1.32,1.25l-5.08,42.61a1.15,1.15,0,0,1-.93,1l-5.82,1a1.13,1.13,0,0,1-1.32-1.25l1.71-14.06a1.13,1.13,0,0,0-1.32-1.25l-7,1.23a1.13,1.13,0,0,0-.93,1l-1.82,15.4a1.11,1.11,0,0,1-.92,1l-5.84,1A1.13,1.13,0,0,1,25.32,145l5.07-42.6a1.13,1.13,0,0,1,.93-1l5.83-1A1.13,1.13,0,0,1,38.47,101.61Z"/><path d="M63,122.18c1.2-8.64,4.81-13.28,10.3-14.24a6.45,6.45,0,0,1,5.75,1.47l.41-1.49a1.13,1.13,0,0,1,.9-.81l4.55-.8a1.13,1.13,0,0,1,1.32,1.25l-3.34,28a1.15,1.15,0,0,1-.93,1l-4.27.74a1.13,1.13,0,0,1-1.32-1.11V134l-.14,0c-2.4,3.17-5.28,5.08-8.16,5.58-4.14.72-6.28-1.51-6.28-7.06a18.25,18.25,0,0,1,.2-3.18ZM76.44,128l1.61-12.64a1.15,1.15,0,0,0-.78-1.23,5.08,5.08,0,0,0-2.46-.16c-2.34.41-3.75,2.33-4.35,6.91l-.94,6.66a10.38,10.38,0,0,0-.14,2c0,2.41.94,2.78,2.35,2.54,1.72-.31,3.33-1.81,4.52-3.53A1.22,1.22,0,0,0,76.44,128Z"/><path d="M111.33,108.27a1.14,1.14,0,0,1-1.28.9,3.86,3.86,0,0,0-1.16,0c-2.8.49-5,1.83-6.54,8.68,0,0-.29,2.3-.29,2.35l-1.44,12.21a1.13,1.13,0,0,1-.93,1l-5.1.89a1.13,1.13,0,0,1-1.32-1.24l3.28-28a1.11,1.11,0,0,1,.92-1l4.1-.72a1.13,1.13,0,0,1,1.33,1.19l-.37,5.13.14,0c2.27-5.49,4.61-7.77,7.35-8.25a5.32,5.32,0,0,1,1.4-.07,1.13,1.13,0,0,1,1,1.34Z"/><path d="M131.29,124.42l-.13,0c-2.41,3.16-5.29,5-8.16,5.51-4.15.72-6.29-1.51-6.29-7.07a18.2,18.2,0,0,1,.2-3.17l1-7.14c1.21-8.64,4.82-13.29,10.3-14.25a6.35,6.35,0,0,1,5.35,1.21l.14,0,2-17.07a1.12,1.12,0,0,1,.93-1l5.09-.89a1.13,1.13,0,0,1,1.32,1.25l-5.28,44.11a1.11,1.11,0,0,1-.93,1l-4.26.75a1.13,1.13,0,0,1-1.33-1.12Zm-7.09-4.37c0,2.47.94,2.91,2.41,2.65,1.86-.32,3.41-2,4.54-3.67a1.25,1.25,0,0,0,.17-.49l1.55-12.79a1.13,1.13,0,0,0-.76-1.22,4.78,4.78,0,0,0-2.42-.16c-2.34.41-3.68,2.31-4.34,6.91l-1,6.94C124.27,118.89,124.2,119.51,124.2,120.05Z"/><path d="M165.65,101.53a1.11,1.11,0,0,1-1.58-.69c-.48-1.93-1.37-2.38-2.76-2.14-2.48.43-3.88,2.35-4.48,6.94l-1,7.6a14.45,14.45,0,0,0-.14,1.56c0,2.35,1,3,2.81,2.72s3.32-1.63,4.38-4.42a1.11,1.11,0,0,1,1.21-.73l3.15.5a1.1,1.1,0,0,1,.86,1.49c-2.3,5.45-5.86,8.73-11.27,9.68-5.95,1-8.56-2.38-8.56-7.33a16.42,16.42,0,0,1,.13-1.84l1.08-8.21c.87-6.78,4.61-13,12-14.34,4.51-.79,7.58,1.33,8.39,6.27a1.11,1.11,0,0,1-.61,1.16Z"/><path d="M197.87,105.48c-.87,6.57-5,12.25-12.37,13.54-6.69,1.17-9.83-2.3-9.83-7.85a17.67,17.67,0,0,1,.13-1.83l1.08-8.28c.87-6.51,5-12.32,12.37-13.6,6.69-1.17,9.84,2.22,9.84,7.71a20,20,0,0,1-.14,2Zm-14.64,2.3a15.17,15.17,0,0,0-.14,1.69c0,2.68,1.07,3.63,3.08,3.28,2.54-.45,3.81-2.28,4.35-6.25l1-7.74c.06-.61.13-1.16.13-1.69,0-2.61-1.07-3.63-3.14-3.27-2.48.44-3.82,2.34-4.22,6.23Z"/><path d="M224.32,88.52a1.1,1.1,0,0,1-1.24.88,3.81,3.81,0,0,0-1.2,0c-2.8.49-5.26,4-6.8,10.89l0,.13-1.44,12.24a1.11,1.11,0,0,1-.9,1l-5.16.9a1.11,1.11,0,0,1-1.29-1.22l3.29-28a1.08,1.08,0,0,1,.9-1l4.16-.73a1.11,1.11,0,0,1,1.29,1.17L215.53,90l.13,0c2.28-5.49,4.62-7.77,7.36-8.25a5.08,5.08,0,0,1,1.42-.07,1.09,1.09,0,0,1,.94,1.31Z"/><path d="M238.28,97.87a1.11,1.11,0,0,0-.91.95l.1-.6a13.06,13.06,0,0,0-.14,1.56c0,2.74,1.2,3.74,3.48,3.34,2-.35,3.26-1.65,4.5-4.76a1.13,1.13,0,0,1,1.19-.71l3.21.47a1.1,1.1,0,0,1,.88,1.47c-2.24,5.81-5.76,9-11.25,10-6.29,1.1-9.43-2.37-9.43-8a16.07,16.07,0,0,1,.13-1.82l1.08-8.22c.87-6.44,4.88-12.29,12-13.55,6.15-1.07,9.1,2.56,9.1,8.11a20,20,0,0,1-.14,2l-.83,6.65a1.11,1.11,0,0,1-.91,1Zm1.34-5.11,4.68-.82a1.1,1.1,0,0,0,.9-1l.3-2.34a12.09,12.09,0,0,0,.07-1.55c0-2.47-1-3.24-2.88-2.91-2.41.42-3.68,2.12-4.14,5.68l-.22,1.66A1.11,1.11,0,0,0,239.62,92.76Z"/><path class="cls-1" d="M295.86,135.16s19.45-44.87,22-51.21c8.68-21.26-5.69-36-27.35-29.33C273.47,59.86,265.84,71.91,264,97.91a1.14,1.14,0,0,0,1.33,1.2l5.48-1a1.12,1.12,0,0,0,.92-1c.77-21.09,6.43-32.24,20-36.18,17.57-5.09,25.17,7.62,18.75,21.27l-23.92,54.58"/><path class="cls-1" d="M265.34,154.46l-2.6,6a1.19,1.19,0,0,0,1.3,1.64l55.42-9.91a1.09,1.09,0,0,0,.9-1L321,146a1.58,1.58,0,0,0-1.84-1.75L267,153.19A2.17,2.17,0,0,0,265.34,154.46Z"/><path class="cls-1" d="M269.17,145.84l2.91-7,48.72-8.31a1.58,1.58,0,0,1,1.84,1.74l-.59,4.89a1.58,1.58,0,0,1-1.29,1.37l-50.3,8.88A1.18,1.18,0,0,1,269.17,145.84Z"/><path class="cls-1" d="M272,138.87l15.47-35.63h0l10.68-24.83c2.27-5.71-.49-8.23-4.84-6.4-5.93,2.5-9.24,12.85-9.16,22.94a1.12,1.12,0,0,1-.93,1.12l-5.38.94a1.13,1.13,0,0,1-1.32-1.21c1.42-17.08,6.34-27.69,16.32-30.34,8.51-2.26,17.64,1.87,12.65,15.33-.27.72-24.42,56.62-24.42,56.62Z"/><path class="cls-2" d="M8.71,85.15l-.63,5.48a1.08,1.08,0,0,1-.9,1l-5.89,1Z"/><path class="cls-2" d="M51.5,135.73l-.64,5.43a1.12,1.12,0,0,1-.91,1l-5.88,1Z"/><path class="cls-3" d="M78.66,73.11l-.61,5.31a1.11,1.11,0,0,1-.9,1L72,80.29Z"/><path class="cls-3" d="M162.87,58.1l-.64,5.62a1.07,1.07,0,0,1-.89.94l-5.14.91Z"/><path class="cls-3" d="M138.47,120.35l-.64,5.62a1.09,1.09,0,0,1-.89.94l-4.33.75Z"/><path class="cls-4" d="M207.37,51.17l-.57,4.73a1.09,1.09,0,0,1-.89.94l-5.14.91Z"/><path class="cls-3" d="M238.58,45.63l-.55,5a1.07,1.07,0,0,1-.89.94l-4.4.79Z"/><path class="cls-3" d="M83.53,130.54l-.6,5a1.13,1.13,0,0,1-.91,1l-4.26.75Z"/><path class="cls-3" d="M277.94,39.4l-.48,4.13a1.07,1.07,0,0,1-.89.94l-5.14.91Z"/><path class="cls-4" d="M303.62,29.92l3.25.51a1.08,1.08,0,0,1,.86,1.47,17.67,17.67,0,0,1-2.17,4Z"/><path class="cls-4" d="M164,112.35l3.25.51a1.08,1.08,0,0,1,.86,1.47,17.67,17.67,0,0,1-2.17,4Z"/><path class="cls-4" d="M246.49,97.66l3.24.47a1.08,1.08,0,0,1,.84,1.49,20.72,20.72,0,0,1-2,4Z"/><path class="cls-2" d="M129.07,63.86a6.91,6.91,0,0,0,2.27-.59c.73-.32,1.34,0,1.34.81s-.11,4.26-.11,4.26Z"/><path class="cls-4" d="M258.82,41.43a9.21,9.21,0,0,0,2.09-.59.86.86,0,0,1,1.34.83l-.1,4.08Z"/><path class="cls-5" d="M315.59,144.89c.08,0,2.52-.43,3.49-.6a1.6,1.6,0,0,1,1.87,2l-.58,4.82Z"/><path class="cls-4" d="M317.27,131.2c.08,0,2.52-.43,3.49-.6a1.61,1.61,0,0,1,1.88,2l-.59,4.83Z"/><path class="cls-2" d="M87,91.73l.11-3.58A1.31,1.31,0,0,1,87.9,87a8.48,8.48,0,0,0,3.56-2.5Z"/><path class="cls-3" d="M47.32,55.06a6,6,0,0,1,2.56-.82c1.37-.08,1.92.48,1.77,1.34L50.59,61.2Z"/><path class="cls-4" d="M108.07,102.17a6.15,6.15,0,0,1,2.56-.82c1.36-.08,1.92.48,1.77,1.34l-1.06,5.62Z"/><path class="cls-3" d="M221.06,82.39a6.19,6.19,0,0,1,2.55-.82c1.37-.07,1.92.48,1.77,1.34l-1.06,5.62Z"/><path class="cls-3" d="M182.09,119.12a11.71,11.71,0,0,0,3.41-.1,14.44,14.44,0,0,0,11.3-9.36Z"/></g></g></g></svg>