<svg xmlns="http://www.w3.org/2000/svg" viewBox="0 0 167.65 93.03"><defs><style>.cls-1{fill:#0067d8;}.cls-2{fill:none;}</style></defs><title>アートボード 1</title><g id="label"><path class="cls-1" d="M53.68,65a.05.05,0,0,1-.06-.06v-.52a.05.05,0,0,1,.06-.06h.55a.05.05,0,0,1,.06.06v.52a.05.05,0,0,1-.06.06Zm0,3.44a.05.05,0,0,1-.06-.06V65.56a.05.05,0,0,1,.06-.06h.55a.05.05,0,0,1,.06.06v2.77a.05.05,0,0,1-.06.06Z"/><path class="cls-1" d="M55.33,68.39s0,0,0-.06V65.56s0-.06,0-.06h.56a.05.05,0,0,1,.06.06v.24h0a.84.84,0,0,1,.29-.27,1.08,1.08,0,0,1,.46-.1.8.8,0,0,1,.34.07,1,1,0,0,1,.27.17.06.06,0,0,1,0,.09l-.32.4a.05.05,0,0,1-.08,0,1,1,0,0,0-.21-.1.51.51,0,0,0-.22,0,.47.47,0,0,0-.41.19.94.94,0,0,0-.13.54v1.57a.05.05,0,0,1-.06.06Z"/><path class="cls-1" d="M59.81,68.39a.05.05,0,0,1-.06-.06v-.21h0a1,1,0,0,1-.29.24.9.9,0,0,1-.46.1,1.07,1.07,0,0,1-.41-.08.94.94,0,0,1-.32-.23,1,1,0,0,1-.19-.34,1.18,1.18,0,0,1-.07-.43V65.56a.05.05,0,0,1,.06-.06h.55a.05.05,0,0,1,.06.06v1.67a.71.71,0,0,0,.13.45.48.48,0,0,0,.41.18.49.49,0,0,0,.4-.18.69.69,0,0,0,.14-.45V65.56a.05.05,0,0,1,.06-.06h.55a.05.05,0,0,1,.06.06v2.77a.05.05,0,0,1-.06.06Z"/><path class="cls-1" d="M62.56,68.46a1.32,1.32,0,0,1-.75-.21,1,1,0,0,1-.44-.59,2.34,2.34,0,0,1-.09-.72,2.32,2.32,0,0,1,.09-.71,1,1,0,0,1,.44-.59,1.32,1.32,0,0,1,.75-.21,1.34,1.34,0,0,1,.58.12,1.14,1.14,0,0,1,.42.33.06.06,0,0,1,0,.09l-.38.33a0,0,0,0,1-.08,0,.9.9,0,0,0-.23-.18.62.62,0,0,0-.31-.07.52.52,0,0,0-.33.1.51.51,0,0,0-.21.28,1.44,1.44,0,0,0-.05.24c0,.08,0,.18,0,.29s0,.22,0,.3a1.44,1.44,0,0,0,.05.24.51.51,0,0,0,.21.28.52.52,0,0,0,.33.1.74.74,0,0,0,.31-.07,1,1,0,0,0,.23-.19.05.05,0,0,1,.08,0l.38.33a.06.06,0,0,1,0,.08,1.14,1.14,0,0,1-.42.33A1.34,1.34,0,0,1,62.56,68.46Z"/><path class="cls-1" d="M66.15,68.39a.05.05,0,0,1-.06-.06v-.21h0a.7.7,0,0,1-.31.24,1.08,1.08,0,0,1-.51.1,1.1,1.1,0,0,1-.37-.06.76.76,0,0,1-.31-.16.71.71,0,0,1-.21-.27,1,1,0,0,1-.08-.4.79.79,0,0,1,.31-.69,1.41,1.41,0,0,1,.85-.22H66a0,0,0,0,0,0,0v-.14a.4.4,0,0,0-.14-.36.78.78,0,0,0-.5-.12,1.12,1.12,0,0,0-.4.06.8.8,0,0,0-.26.14s-.07,0-.08,0l-.23-.4a.05.05,0,0,1,0-.08,1.37,1.37,0,0,1,.42-.2,2,2,0,0,1,.6-.08,1.4,1.4,0,0,1,.93.24,1,1,0,0,1,.28.77v1.89a.05.05,0,0,1-.06.06Zm-.71-.48a.81.81,0,0,0,.48-.12.42.42,0,0,0,.16-.37V67.2s0,0,0,0h-.47a1,1,0,0,0-.48.09.32.32,0,0,0-.15.3C64.94,67.79,65.11,67.91,65.44,67.91Z"/><path class="cls-1" d="M67.75,65a.05.05,0,0,1-.06-.06v-.52a.05.05,0,0,1,.06-.06h.55a.05.05,0,0,1,.06.06v.52a.05.05,0,0,1-.06.06Zm0,3.44a.05.05,0,0,1-.06-.06V65.56a.05.05,0,0,1,.06-.06h.55a.05.05,0,0,1,.06.06v2.77a.05.05,0,0,1-.06.06Z"/><path class="cls-1" d="M70.5,68.46a1.32,1.32,0,0,1-.75-.21,1,1,0,0,1-.44-.59,2.34,2.34,0,0,1-.09-.72,2.32,2.32,0,0,1,.09-.71,1,1,0,0,1,.44-.59,1.32,1.32,0,0,1,.75-.21,1.34,1.34,0,0,1,.58.12,1.23,1.23,0,0,1,.42.33s0,.06,0,.09l-.38.33a.06.06,0,0,1-.09,0,.66.66,0,0,0-.23-.18.56.56,0,0,0-.3-.07.52.52,0,0,0-.33.1.47.47,0,0,0-.21.28,1.44,1.44,0,0,0,0,.24,2.53,2.53,0,0,0,0,.29,2.63,2.63,0,0,0,0,.3,1.44,1.44,0,0,0,0,.24.47.47,0,0,0,.21.28.52.52,0,0,0,.33.1.66.66,0,0,0,.3-.07A.69.69,0,0,0,71,67.6s.06,0,.09,0l.38.33a.06.06,0,0,1,0,.08,1.23,1.23,0,0,1-.42.33A1.34,1.34,0,0,1,70.5,68.46Z"/><path class="cls-1" d="M73.47,68.46a1.32,1.32,0,0,1-.77-.22,1.09,1.09,0,0,1-.44-.59,2.05,2.05,0,0,1-.07-.31,2.25,2.25,0,0,1,0-.4,2.41,2.41,0,0,1,0-.4,1.41,1.41,0,0,1,.07-.31,1.08,1.08,0,0,1,.43-.59,1.46,1.46,0,0,1,1.51,0,1.11,1.11,0,0,1,.43.59s0,.1,0,.16,0,.11,0,.18,0,.14,0,.23v.3a.05.05,0,0,1-.06.06H72.88s0,0,0,0a.49.49,0,0,0,0,.12l0,.1a.63.63,0,0,0,.65.44,1,1,0,0,0,.41-.08.79.79,0,0,0,.27-.2s.06,0,.09,0l.35.31a.05.05,0,0,1,0,.08,1.39,1.39,0,0,1-.49.36A1.68,1.68,0,0,1,73.47,68.46Zm.58-1.84a1,1,0,0,0,0-.25.56.56,0,0,0-.21-.27.6.6,0,0,0-.35-.1.61.61,0,0,0-.36.1.56.56,0,0,0-.21.27.69.69,0,0,0,0,.25,0,0,0,0,0,0,0H74A0,0,0,0,0,74.05,66.62Z"/><path class="cls-1" d="M54.68,24.18s0-.06.08-.06h.55a.08.08,0,0,1,.08.06l1.38,4s0,.06,0,.06h-.59s-.06,0-.08-.06l-.27-.79H54.26l-.27.79a.08.08,0,0,1-.08.06h-.58s-.06,0,0-.06Zm.9,2.54L55,25.14h0l-.55,1.58Z"/><path class="cls-1" d="M57.58,24.77a.05.05,0,0,1-.06-.06v-.53a.05.05,0,0,1,.06-.06h.55a.05.05,0,0,1,.06.06v.53a.05.05,0,0,1-.06.06Zm0,3.43a.05.05,0,0,1-.06-.06V25.37a.05.05,0,0,1,.06-.06h.55a.05.05,0,0,1,.06.06v2.77a.05.05,0,0,1-.06.06Z"/><path class="cls-1" d="M59.24,28.2a.05.05,0,0,1-.06-.06V25.37a.05.05,0,0,1,.06-.06h.55a.05.05,0,0,1,.06.06v.25h0a.73.73,0,0,1,.28-.27,1.05,1.05,0,0,1,.8,0,.8.8,0,0,1,.27.18.05.05,0,0,1,0,.08l-.31.4s-.06,0-.09,0l-.2-.1a.78.78,0,0,0-.22,0A.45.45,0,0,0,60,26a.94.94,0,0,0-.13.54v1.56a.05.05,0,0,1-.06.06Z"/><path class="cls-1" d="M54.53,48.3a.05.05,0,0,1-.06-.06V44.89s0,0,0,0H53.37a.05.05,0,0,1-.06-.06v-.51a.05.05,0,0,1,.06-.06h2.92a.05.05,0,0,1,.06.06v.51a.05.05,0,0,1-.06.06H55.22a0,0,0,0,0,0,0v3.35a.05.05,0,0,1-.06.06Z"/><path class="cls-1" d="M58.37,48.3a.05.05,0,0,1-.06-.06V48h0a.7.7,0,0,1-.31.24,1.23,1.23,0,0,1-.51.09,1.44,1.44,0,0,1-.37,0,1,1,0,0,1-.31-.16.74.74,0,0,1-.21-.28.93.93,0,0,1-.08-.39.78.78,0,0,1,.31-.69,1.43,1.43,0,0,1,.85-.23h.59a0,0,0,0,0,0,0v-.14a.44.44,0,0,0-.14-.37.86.86,0,0,0-.5-.11,1.12,1.12,0,0,0-.4.06.65.65,0,0,0-.26.14s-.06,0-.08,0l-.23-.39a.05.05,0,0,1,0-.08,1.37,1.37,0,0,1,.42-.2,2,2,0,0,1,.6-.08,1.4,1.4,0,0,1,.93.24,1,1,0,0,1,.28.77v1.89a.05.05,0,0,1-.06.06Zm-.71-.48a.81.81,0,0,0,.48-.12.43.43,0,0,0,.16-.37V47.1a0,0,0,0,0,0,0h-.48a1,1,0,0,0-.48.09.32.32,0,0,0-.15.3C57.16,47.7,57.33,47.82,57.66,47.82Z"/><path class="cls-1" d="M61.74,48.3a.05.05,0,0,1-.06-.06V46.57a.74.74,0,0,0-.14-.46.51.51,0,0,0-.41-.17.5.5,0,0,0-.4.17.69.69,0,0,0-.15.46v1.67a.05.05,0,0,1-.06.06H60a.05.05,0,0,1-.06-.06V45.47a.05.05,0,0,1,.06-.06h.55a.05.05,0,0,1,.06.06v.21h0a.67.67,0,0,1,.28-.24,1,1,0,0,1,.48-.1,1.08,1.08,0,0,1,.42.08,1,1,0,0,1,.31.22.9.9,0,0,1,.2.34,1.21,1.21,0,0,1,.07.43v1.83a.05.05,0,0,1-.06.06Z"/><path class="cls-1" d="M64.47,48.36a1.32,1.32,0,0,1-.75-.2,1,1,0,0,1-.44-.6,2.85,2.85,0,0,1,0-1.42,1.08,1.08,0,0,1,.44-.6,1.4,1.4,0,0,1,.75-.2,1.34,1.34,0,0,1,.58.12,1.23,1.23,0,0,1,.42.33.05.05,0,0,1,0,.08l-.38.33s-.06,0-.09,0a.66.66,0,0,0-.23-.18.56.56,0,0,0-.3-.07.58.58,0,0,0-.33.09.54.54,0,0,0-.21.29,1.55,1.55,0,0,0,0,.23,4.5,4.5,0,0,0,0,.6,1.44,1.44,0,0,0,0,.24.55.55,0,0,0,.21.28.58.58,0,0,0,.33.09.67.67,0,0,0,.3-.06.83.83,0,0,0,.23-.19.06.06,0,0,1,.09,0l.38.33s0,0,0,.08a1.26,1.26,0,0,1-1,.44Z"/><path class="cls-1" d="M68.12,48.3a.05.05,0,0,1-.06-.06V46.57a.74.74,0,0,0-.13-.46.58.58,0,0,0-.82,0,.68.68,0,0,0-.14.46v1.67a.05.05,0,0,1-.06.06h-.56a.05.05,0,0,1-.06-.06v-4a.05.05,0,0,1,.06-.06h.56a.05.05,0,0,1,.06.06v1.4h0a.7.7,0,0,1,.29-.24.94.94,0,0,1,.47-.1,1.08,1.08,0,0,1,.42.08,1,1,0,0,1,.32.22,1.27,1.27,0,0,1,.2.34,1.49,1.49,0,0,1,.07.43v1.83a.05.05,0,0,1-.06.06Z"/><path class="cls-1" d="M69.76,44.86a.05.05,0,0,1-.06-.06v-.52a.05.05,0,0,1,.06-.06h.56a.05.05,0,0,1,.06.06v.52a.05.05,0,0,1-.06.06Zm0,3.44a.05.05,0,0,1-.06-.06V45.47a.05.05,0,0,1,.06-.06h.56a.05.05,0,0,1,.06.06v2.77a.05.05,0,0,1-.06.06Z"/><path class="cls-1" d="M73.25,48.3a.1.1,0,0,1-.09-.06L72.42,47l-.38.45v.77s0,.06-.07.06h-.55a.05.05,0,0,1-.06-.06v-4a.05.05,0,0,1,.06-.06H72s.07,0,.07.06v2.35l1-1.16a.17.17,0,0,1,.12-.06h.61s0,0,0,0,0,0,0,0l-.91,1.05,1,1.72s0,0,0,0a.05.05,0,0,1,0,0Z"/><path class="cls-1" d="M74.85,49.38a.05.05,0,0,1-.06-.06v-.48a.05.05,0,0,1,.06-.06H75a.46.46,0,0,0,.27-.08.69.69,0,0,0,.16-.27l.08-.24-1-2.72s0-.06,0-.06h.59a.07.07,0,0,1,.07.06l.66,1.88h0l.62-1.88a.07.07,0,0,1,.07-.06h.57s.06,0,0,.06l-1.1,3c-.07.17-.13.31-.19.43a1.59,1.59,0,0,1-.21.27.68.68,0,0,1-.26.15,1,1,0,0,1-.31.05Z"/><polygon class="cls-1" points="35.08 71.89 34.88 71.69 45.26 61.3 45.46 61.5 35.08 71.89"/><polygon class="cls-1" points="35.08 51.47 34.88 51.27 45.26 40.89 45.46 41.09 35.08 51.47"/><polygon class="cls-1" points="35.08 31.06 34.88 30.86 45.26 20.48 45.46 20.68 35.08 31.06"/><polygon class="cls-1" points="35.08 10.65 34.88 10.45 45.26 0.07 45.46 0.27 35.08 10.65"/><path class="cls-1" d="M55,3.67a5,5,0,0,0,.25-.83L56,3c-.09.22-.2.48-.32.72h1.79v4h-.57V7.36H54.43v.32h-.58v-4Zm-.6,1.54h2.42v-1H54.43Zm0,1.64h2.42V5.71H54.43Z"/><path class="cls-1" d="M60.38,3.36H59V3h3.37v.39H60.92v.28h1.83v.9h-.53V4h-1.3V5.35h-.54V4H59.11v.54h-.53v-.9h1.8Zm2,4.38h-.59V7.51H58.9V7.09h2.89V6.71H59.08v-.4h2.71V6H58.91V5.55h3.47ZM60.19,4.87v.34h-.95V4.87Zm0-.61v.35h-.93V4.26Zm1.87,0v.35h-.94V4.26Zm0,.61v.34h-1V4.87Z"/><path class="cls-1" d="M67.06,7.38a9.37,9.37,0,0,1-1.42.11,3.25,3.25,0,0,1-1.31-.2,1,1,0,0,1-.59-.88,1.31,1.31,0,0,1,.49-1A4.11,4.11,0,0,1,64.84,5,14.31,14.31,0,0,1,64.33,3L65,3a12.75,12.75,0,0,0,.41,1.74,10.43,10.43,0,0,1,1.38-.56l.26.55a7.35,7.35,0,0,0-2.12.89,1,1,0,0,0-.53.78c0,.4.37.58,1.19.58A9.47,9.47,0,0,0,67,6.8Z"/><path class="cls-1" d="M69.12,5.84l-.69.88-.35-.42c.43-.55.73-.92,1-1.28v-.7a6.07,6.07,0,0,1-.83.19L68.2,4c.31,0,.38,0,.77-.11l.17,0c0-.22,0-.47,0-.9l.57,0c0,.19,0,.23,0,.35l0,.5.24.19-.25.35v.29A2,2,0,0,1,71.06,4a1.31,1.31,0,0,1,1.28,1.47,1.78,1.78,0,0,1-.55,1.31,2.61,2.61,0,0,1-1.18.57l-.35-.48c1-.2,1.46-.67,1.46-1.41,0-.57-.33-1-.79-1a1.86,1.86,0,0,0-1.24.67V7.63h-.57V5.84Z"/><path class="cls-1" d="M-.09,64.37A.05.05,0,0,1,0,64.31H1.49a1.59,1.59,0,0,1,.9.23,1.22,1.22,0,0,1,.51.69s0,.11.05.17l0,.22a2.66,2.66,0,0,1,0,.3c0,.12,0,.26,0,.43s0,.31,0,.42a2.36,2.36,0,0,1,0,.3c0,.09,0,.16,0,.22s0,.13-.05.18a1.22,1.22,0,0,1-.51.69,1.67,1.67,0,0,1-.9.23H0a.05.05,0,0,1-.06-.06ZM.83,67.6h.46a1,1,0,0,0,.5-.1.54.54,0,0,0,.26-.35.62.62,0,0,0,0-.1.46.46,0,0,0,0-.14,1.55,1.55,0,0,0,0-.23,3.22,3.22,0,0,0,0-.33,3.22,3.22,0,0,0,0-.33,1.41,1.41,0,0,0,0-.22.61.61,0,0,0,0-.15l0-.1a.59.59,0,0,0-.26-.36,1.17,1.17,0,0,0-.5-.1H.83s0,0,0,0v2.44A0,0,0,0,0,.83,67.6Z"/><path class="cls-1" d="M3.9,65A.05.05,0,0,1,3.84,65v-.59a.05.05,0,0,1,.06-.06h.72a.05.05,0,0,1,.06.06V65a.05.05,0,0,1-.06.06Zm0,3.37a.05.05,0,0,1-.06-.06V65.55s0-.07.06-.07h.72s.06,0,.06.07v2.78a.05.05,0,0,1-.06.06Z"/><path class="cls-1" d="M5.62,68.39s-.07,0-.07-.06V65.55a.07.07,0,0,1,.07-.07h.71s.06,0,.06.07v.24h0a.75.75,0,0,1,.29-.27,1,1,0,0,1,.47-.1.9.9,0,0,1,.28,0,.86.86,0,0,1,.23.13.07.07,0,0,1,0,.09l-.33.61a.07.07,0,0,1-.09,0,.76.76,0,0,0-.42-.13.42.42,0,0,0-.34.17.84.84,0,0,0-.11.46v1.53a.05.05,0,0,1-.06.06Z"/><path class="cls-1" d="M9.45,68.46a1.53,1.53,0,0,1-.83-.22,1.18,1.18,0,0,1-.46-.61,2.64,2.64,0,0,1-.07-.3,2.21,2.21,0,0,1,0-.39,2.33,2.33,0,0,1,0-.4,1.32,1.32,0,0,1,.07-.3,1.08,1.08,0,0,1,.45-.61,1.44,1.44,0,0,1,.8-.21,1.42,1.42,0,0,1,.8.21,1.12,1.12,0,0,1,.45.6.75.75,0,0,1,0,.16s0,.11,0,.18a1.66,1.66,0,0,1,0,.24c0,.09,0,.2,0,.32s0,.06-.07.06H8.93a0,0,0,0,0,0,0,.43.43,0,0,0,0,.17.53.53,0,0,0,.22.29.74.74,0,0,0,.38.09.89.89,0,0,0,.38-.07.81.81,0,0,0,.29-.19s.06,0,.08,0l.4.37a.06.06,0,0,1,0,.09,1.63,1.63,0,0,1-.53.35A1.76,1.76,0,0,1,9.45,68.46Zm.44-1.83s0,0,0,0a.37.37,0,0,0,0-.11s0-.07,0-.1a.43.43,0,0,0-.18-.24.59.59,0,0,0-.31-.08.62.62,0,0,0-.31.08.46.46,0,0,0-.17.24.3.3,0,0,0,0,.1.37.37,0,0,0,0,.11s0,0,0,0Z"/><path class="cls-1" d="M12.72,68.46a1.43,1.43,0,0,1-.79-.21,1.13,1.13,0,0,1-.46-.62,1.2,1.2,0,0,1-.07-.3,2.3,2.3,0,0,1,0-.39,2.42,2.42,0,0,1,0-.4,1.32,1.32,0,0,1,.07-.3,1.07,1.07,0,0,1,.46-.61,1.43,1.43,0,0,1,.79-.21,1.4,1.4,0,0,1,.66.15,1.07,1.07,0,0,1,.44.4.05.05,0,0,1,0,.08l-.52.34s-.07,0-.09,0a.72.72,0,0,0-.21-.19.5.5,0,0,0-.26-.06.44.44,0,0,0-.28.08.45.45,0,0,0-.17.23,1.18,1.18,0,0,0,0,.2,2.63,2.63,0,0,0,0,.3,2.44,2.44,0,0,0,0,.29.88.88,0,0,0,0,.2.44.44,0,0,0,.17.24.51.51,0,0,0,.28.08.5.5,0,0,0,.26-.06.9.9,0,0,0,.21-.19s.05,0,.09,0l.52.34a.06.06,0,0,1,0,.09,1.12,1.12,0,0,1-.44.39A1.4,1.4,0,0,1,12.72,68.46Z"/><path class="cls-1" d="M15.59,68.43a.91.91,0,0,1-.71-.24,1.06,1.06,0,0,1-.21-.73V66.14s0,0,0,0h-.18a.05.05,0,0,1-.06-.06v-.49s0-.07.06-.07h.18s0,0,0,0v-.78a.05.05,0,0,1,.06-.06h.71a.05.05,0,0,1,.06.06v.78s0,0,0,0h.37s.06,0,.06.07V66a.05.05,0,0,1-.06.06h-.37s0,0,0,0v1.28a.33.33,0,0,0,.06.23.29.29,0,0,0,.21.06h.14a.05.05,0,0,1,.06.06v.59s0,.07-.06.07Z"/><path class="cls-1" d="M16.79,65a.05.05,0,0,1-.06-.06v-.59a.05.05,0,0,1,.06-.06h.72a.05.05,0,0,1,.06.06V65a.05.05,0,0,1-.06.06Zm0,3.37a.05.05,0,0,1-.06-.06V65.55s0-.07.06-.07h.72s.06,0,.06.07v2.78a.05.05,0,0,1-.06.06Z"/><path class="cls-1" d="M19.68,68.46a1.56,1.56,0,0,1-.8-.21,1.08,1.08,0,0,1-.46-.61,1.67,1.67,0,0,1-.08-.32c0-.11,0-.24,0-.38s0-.27,0-.38a2,2,0,0,1,.08-.33,1,1,0,0,1,.46-.6,1.61,1.61,0,0,1,1.59,0,1.09,1.09,0,0,1,.47.6c0,.11,0,.22.07.33s0,.23,0,.38,0,.27,0,.38a3,3,0,0,1-.07.32,1.14,1.14,0,0,1-.47.61A1.55,1.55,0,0,1,19.68,68.46Zm0-.71a.43.43,0,0,0,.45-.32,1.18,1.18,0,0,0,0-.2,2.36,2.36,0,0,0,0-.29,2.27,2.27,0,0,0,0-.29,1.55,1.55,0,0,0,0-.21.43.43,0,0,0-.45-.31.41.41,0,0,0-.45.31,1.6,1.6,0,0,0-.05.21c0,.07,0,.16,0,.29s0,.22,0,.29a1.17,1.17,0,0,0,.05.2A.42.42,0,0,0,19.68,67.75Z"/><path class="cls-1" d="M23.58,68.39a.05.05,0,0,1-.06-.06V66.66a.61.61,0,0,0-.11-.38.39.39,0,0,0-.34-.15.4.4,0,0,0-.33.15.56.56,0,0,0-.12.38v1.67a.05.05,0,0,1-.06.06h-.72a.05.05,0,0,1-.06-.06V65.55s0-.07.06-.07h.72s.06,0,.06.07v.2h0a.89.89,0,0,1,.29-.24,1,1,0,0,1,.46-.09,1,1,0,0,1,.43.08.77.77,0,0,1,.31.22.94.94,0,0,1,.19.34,1.51,1.51,0,0,1,.06.44v1.83a.05.05,0,0,1-.06.06Z"/><path class="cls-1" d="M-.09,3.51A.05.05,0,0,1,0,3.45H.74a.05.05,0,0,1,.06.06v4a.05.05,0,0,1-.06.06H0a.05.05,0,0,1-.06-.06Z"/><path class="cls-1" d="M2.6,7.57a.88.88,0,0,1-.69-.22,1,1,0,0,1-.21-.7V3.51a.05.05,0,0,1,.06-.06h.72a.05.05,0,0,1,.06.06V6.58a.29.29,0,0,0,.06.21.26.26,0,0,0,.19.07h.12s.07,0,.07.06v.59s0,.06-.07.06Z"/><path class="cls-1" d="M4.54,7.57a.92.92,0,0,1-.7-.22,1,1,0,0,1-.2-.7V3.51a.05.05,0,0,1,.06-.06h.72a.05.05,0,0,1,.06.06V6.58a.29.29,0,0,0,.06.21.26.26,0,0,0,.19.07h.12c.05,0,.06,0,.06.06v.59s0,.06-.06.06Z"/><path class="cls-1" d="M7.35,7.53a.05.05,0,0,1-.06-.06V7.26h0A1,1,0,0,1,7,7.51a1,1,0,0,1-.45.09,1.18,1.18,0,0,1-.43-.08.86.86,0,0,1-.3-.23A.94.94,0,0,1,5.62,7a1.44,1.44,0,0,1-.06-.43V4.69a.05.05,0,0,1,.06-.06h.72a.05.05,0,0,1,.06.06V6.36a.59.59,0,0,0,.11.38.37.37,0,0,0,.33.14.37.37,0,0,0,.33-.14.56.56,0,0,0,.12-.38V4.69a.05.05,0,0,1,.06-.06h.72a.05.05,0,0,1,.06.06V7.47a.05.05,0,0,1-.06.06Z"/><path class="cls-1" d="M10.14,7.6a2,2,0,0,1-1.32-.45s0-.06,0-.08l.39-.44s0,0,.08,0a1.37,1.37,0,0,0,.43.23,1.25,1.25,0,0,0,.46.09.63.63,0,0,0,.34-.08.24.24,0,0,0,.11-.2.23.23,0,0,0-.08-.17.71.71,0,0,0-.33-.08l-.33,0a1.15,1.15,0,0,1-.7-.27.77.77,0,0,1-.25-.62.86.86,0,0,1,.31-.68,1.45,1.45,0,0,1,.89-.25,2,2,0,0,1,.67.11,1.56,1.56,0,0,1,.5.25.06.06,0,0,1,0,.09L11,5.43a.05.05,0,0,1-.08,0,2.28,2.28,0,0,0-.35-.17,1.61,1.61,0,0,0-.44-.06.49.49,0,0,0-.27.06.21.21,0,0,0-.09.18.16.16,0,0,0,.08.15.72.72,0,0,0,.32.09l.32,0a1.18,1.18,0,0,1,.74.28.84.84,0,0,1,.22.6.9.9,0,0,1-.34.73A1.47,1.47,0,0,1,10.14,7.6Z"/><path class="cls-1" d="M13.16,7.57a.91.91,0,0,1-.71-.23,1.09,1.09,0,0,1-.21-.74V5.28s0,0,0,0H12A.05.05,0,0,1,12,5.19v-.5A.05.05,0,0,1,12,4.63h.18a0,0,0,0,0,0,0V3.81s0-.06.06-.06H13a.05.05,0,0,1,.06.06v.78s0,0,0,0h.38a.05.05,0,0,1,.06.06v.5a.05.05,0,0,1-.06.06H13.1a0,0,0,0,0,0,0V6.57a.3.3,0,0,0,.06.22.28.28,0,0,0,.2.07h.15a.05.05,0,0,1,.06.06v.59a.05.05,0,0,1-.06.06Z"/><path class="cls-1" d="M14.36,7.53a.05.05,0,0,1-.06-.06V4.69a.05.05,0,0,1,.06-.06h.72a.05.05,0,0,1,.06.06v.25h0a.78.78,0,0,1,.29-.28,1.12,1.12,0,0,1,.47-.1.92.92,0,0,1,.28.05.65.65,0,0,1,.23.13.06.06,0,0,1,0,.08l-.33.61s-.05,0-.09,0a.7.7,0,0,0-.42-.14.43.43,0,0,0-.34.18.81.81,0,0,0-.1.45V7.47a.05.05,0,0,1-.06.06Z"/><path class="cls-1" d="M18.72,7.53s-.06,0-.06-.06V7.28h0a.81.81,0,0,1-.31.23,1.13,1.13,0,0,1-.49.09,1.5,1.5,0,0,1-.37,0,1,1,0,0,1-.31-.16A.67.67,0,0,1,17,7.11a1,1,0,0,1-.07-.4A.81.81,0,0,1,17.22,6a1.52,1.52,0,0,1,.87-.22h.52s0,0,0,0V5.63a.38.38,0,0,0-.12-.3.85.85,0,0,0-.47-.09,1.15,1.15,0,0,0-.39,0,1.26,1.26,0,0,0-.26.13,0,0,0,0,1-.08,0l-.27-.47a.06.06,0,0,1,0-.09,1.44,1.44,0,0,1,.45-.21,2.35,2.35,0,0,1,.63-.08,2.06,2.06,0,0,1,.6.07.93.93,0,0,1,.4.19.65.65,0,0,1,.22.33,1.27,1.27,0,0,1,.07.46V7.47a.05.05,0,0,1-.06.06ZM18.1,7c.36,0,.54-.13.54-.4v-.2s0,0,0,0H18.2c-.35,0-.52.11-.52.33S17.82,7,18.1,7Z"/><path class="cls-1" d="M21.28,7.57a.91.91,0,0,1-.71-.23,1,1,0,0,1-.22-.74V5.28a0,0,0,0,0,0,0h-.18a.05.05,0,0,1-.06-.06v-.5a.05.05,0,0,1,.06-.06h.18s0,0,0,0V3.81a.05.05,0,0,1,.06-.06h.72a.05.05,0,0,1,.06.06v.78s0,0,0,0h.38a.05.05,0,0,1,.06.06v.5a.05.05,0,0,1-.06.06h-.38a0,0,0,0,0,0,0V6.57a.3.3,0,0,0,.06.22.28.28,0,0,0,.2.07h.15a.05.05,0,0,1,.06.06v.59a.05.05,0,0,1-.06.06Z"/><path class="cls-1" d="M22.48,4.17c-.05,0-.07,0-.07-.06v-.6s0-.06.07-.06h.71s.06,0,.06.06v.6s0,.06-.06.06Zm0,3.36c-.05,0-.07,0-.07-.06V4.69s0-.06.07-.06h.71s.06,0,.06.06V7.47s0,.06-.06.06Z"/><path class="cls-1" d="M25.36,7.6a1.49,1.49,0,0,1-.8-.21,1.1,1.1,0,0,1-.46-.61A3,3,0,0,1,24,6.46a2.18,2.18,0,0,1,0-.38,2.24,2.24,0,0,1,0-.38,3,3,0,0,1,.07-.32,1.14,1.14,0,0,1,.46-.61,1.49,1.49,0,0,1,.8-.21,1.47,1.47,0,0,1,.8.21,1.09,1.09,0,0,1,.46.61,1.65,1.65,0,0,1,.07.32,2.17,2.17,0,0,1,0,.38,2.09,2.09,0,0,1,0,.38,1.65,1.65,0,0,1-.07.32,1.06,1.06,0,0,1-.46.61A1.47,1.47,0,0,1,25.36,7.6Zm0-.71a.43.43,0,0,0,.45-.31.78.78,0,0,0,0-.21,2,2,0,0,0,0-.29,2.07,2.07,0,0,0,0-.29.78.78,0,0,0,0-.21.48.48,0,0,0-.9,0,1.55,1.55,0,0,0,0,.21,2.36,2.36,0,0,0,0,.29,2.27,2.27,0,0,0,0,.29,1.55,1.55,0,0,0,0,.21A.43.43,0,0,0,25.36,6.89Z"/><path class="cls-1" d="M29.27,7.53a.05.05,0,0,1-.06-.06V5.81a.67.67,0,0,0-.11-.39.48.48,0,0,0-.68,0,.61.61,0,0,0-.12.39V7.47a.05.05,0,0,1-.06.06h-.72a.05.05,0,0,1-.06-.06V4.69a.05.05,0,0,1,.06-.06h.72a.05.05,0,0,1,.06.06v.2h0a.81.81,0,0,1,.28-.23,1.06,1.06,0,0,1,.47-.1,1.08,1.08,0,0,1,.42.08.91.91,0,0,1,.32.22,1.17,1.17,0,0,1,.19.35,1.44,1.44,0,0,1,.06.43V7.47a.05.05,0,0,1-.06.06Z"/><path class="cls-1" d="M-.09,23.8A.05.05,0,0,1,0,23.74H1.49a1.59,1.59,0,0,1,.9.23,1.22,1.22,0,0,1,.51.69c0,.05,0,.11.05.17l0,.22a2.66,2.66,0,0,1,0,.3c0,.12,0,.26,0,.43s0,.31,0,.42a2.36,2.36,0,0,1,0,.3c0,.09,0,.16,0,.22s0,.12-.05.18a1.22,1.22,0,0,1-.51.69,1.67,1.67,0,0,1-.9.23H0a.05.05,0,0,1-.06-.06ZM.83,27h.46a1,1,0,0,0,.5-.1.54.54,0,0,0,.26-.35l0-.1s0-.08,0-.14a1.55,1.55,0,0,0,0-.23c0-.09,0-.2,0-.33s0-.24,0-.33a1.41,1.41,0,0,0,0-.22c0-.06,0-.11,0-.15l0-.11a.6.6,0,0,0-.26-.35,1.17,1.17,0,0,0-.5-.1H.83s0,0,0,0V27A0,0,0,0,0,.83,27Z"/><path class="cls-1" d="M5.08,27.88a1.49,1.49,0,0,1-.82-.21,1.18,1.18,0,0,1-.46-.61,1.46,1.46,0,0,1-.07-.3,2.21,2.21,0,0,1,0-.39c0-.15,0-.29,0-.4a1.32,1.32,0,0,1,.08-.3,1.08,1.08,0,0,1,.45-.61A1.43,1.43,0,0,1,5,24.85a1.43,1.43,0,0,1,.81.21,1.23,1.23,0,0,1,.45.6c0,.05,0,.1,0,.16s0,.11,0,.18,0,.15,0,.24v.32a.05.05,0,0,1-.06.06H4.57s0,0,0,0a.71.71,0,0,0,0,.17.48.48,0,0,0,.22.28.65.65,0,0,0,.38.1.92.92,0,0,0,.38-.07.77.77,0,0,0,.28-.19s.07,0,.09,0l.4.37a.06.06,0,0,1,0,.09,1.49,1.49,0,0,1-.52.35A1.81,1.81,0,0,1,5.08,27.88Zm.45-1.82a0,0,0,0,0,0,0s0-.08,0-.11a.44.44,0,0,1,0-.1.55.55,0,0,0-.18-.24.64.64,0,0,0-.62,0,.43.43,0,0,0-.18.24.44.44,0,0,1,0,.1s0,.07,0,.11a0,0,0,0,0,0,0Z"/><path class="cls-1" d="M8.3,27.88a2.06,2.06,0,0,1-.78-.13A2,2,0,0,1,7,27.43s0-.05,0-.08l.39-.44a.06.06,0,0,1,.08,0,1.82,1.82,0,0,0,.43.24,1.54,1.54,0,0,0,.46.08.61.61,0,0,0,.34-.08.24.24,0,0,0,.11-.2.18.18,0,0,0-.08-.16.73.73,0,0,0-.33-.09l-.32,0a1.32,1.32,0,0,1-.71-.27.81.81,0,0,1-.24-.62.81.81,0,0,1,.31-.68,1.36,1.36,0,0,1,.88-.25A2,2,0,0,1,9,25a1.75,1.75,0,0,1,.51.26s0,.06,0,.09l-.33.41a.06.06,0,0,1-.09,0,2.29,2.29,0,0,0-.35-.16,1.25,1.25,0,0,0-.43-.07.43.43,0,0,0-.28.07.2.2,0,0,0-.09.17.19.19,0,0,0,.08.16.75.75,0,0,0,.32.08l.32,0a1.1,1.1,0,0,1,.74.28.81.81,0,0,1,.23.6.92.92,0,0,1-.34.72A1.48,1.48,0,0,1,8.3,27.88Z"/><path class="cls-1" d="M10.37,24.45a.05.05,0,0,1-.06-.06V23.8a.05.05,0,0,1,.06-.06h.72a.05.05,0,0,1,.06.06v.59a.05.05,0,0,1-.06.06Zm0,3.37a.05.05,0,0,1-.06-.06V25a.05.05,0,0,1,.06-.06h.72a.05.05,0,0,1,.06.06v2.79a.05.05,0,0,1-.06.06Z"/><path class="cls-1" d="M13.11,29a1.65,1.65,0,0,1-.32,0,1.58,1.58,0,0,1-.31-.09,1.15,1.15,0,0,1-.27-.14.85.85,0,0,1-.2-.17s0-.07,0-.09l.42-.44a.08.08,0,0,1,.09,0,1.2,1.2,0,0,0,.29.19.78.78,0,0,0,.31.07.58.58,0,0,0,.45-.16.75.75,0,0,0,.14-.49v-.24h0a.67.67,0,0,1-.28.24,1,1,0,0,1-.46.09,1,1,0,0,1-.61-.17A1,1,0,0,1,12,27c0-.11-.05-.21-.07-.32s0-.25,0-.4,0-.29,0-.41a3,3,0,0,1,.07-.32,1,1,0,0,1,.37-.52,1,1,0,0,1,.61-.18,1.08,1.08,0,0,1,.46.09.67.67,0,0,1,.28.24h0V25s0-.06,0-.06h.72s.07,0,.07.06v2.54A1.29,1.29,0,0,1,13.11,29Zm.12-2a.49.49,0,0,0,.28-.08.42.42,0,0,0,.15-.24.85.85,0,0,0,0-.17,1.4,1.4,0,0,0,0-.23,1.3,1.3,0,0,0,0-.23,1,1,0,0,0,0-.18.45.45,0,0,0-.15-.24.49.49,0,0,0-.28-.07.47.47,0,0,0-.28.07.52.52,0,0,0-.15.24,1,1,0,0,0,0,.18,1.48,1.48,0,0,0,0,.23,1.55,1.55,0,0,0,0,.23.85.85,0,0,0,0,.17.47.47,0,0,0,.15.24A.47.47,0,0,0,13.23,27Z"/><path class="cls-1" d="M17.24,27.82a.05.05,0,0,1-.06-.06V26.09a.61.61,0,0,0-.11-.38.46.46,0,0,0-.68,0,.56.56,0,0,0-.12.38v1.67a.05.05,0,0,1-.06.06h-.72a.05.05,0,0,1-.06-.06V25a.05.05,0,0,1,.06-.06h.72a.05.05,0,0,1,.06.06v.21h0a.84.84,0,0,1,.28-.24,1.06,1.06,0,0,1,.47-.09.93.93,0,0,1,.42.08.7.7,0,0,1,.31.22.81.81,0,0,1,.19.34,1.5,1.5,0,0,1,.07.44v1.83a.05.05,0,0,1-.06.06Z"/><path class="cls-1" d="M-.09,44.08A.05.05,0,0,1,0,44H.69a.08.08,0,0,1,.09.06l1,2.33h0l1-2.33A.1.1,0,0,1,3,44h.7a.05.05,0,0,1,.06.06v4a.05.05,0,0,1-.06.06H3A.05.05,0,0,1,2.91,48V45.75h0l-.76,1.72a.12.12,0,0,1-.11.08H1.61a.13.13,0,0,1-.12-.08L.74,45.75h0V48a.05.05,0,0,1-.06.06H0A.05.05,0,0,1-.09,48Z"/><path class="cls-1" d="M6.31,48.1A.05.05,0,0,1,6.25,48v-.19h0a.71.71,0,0,1-.3.23,1.16,1.16,0,0,1-.49.09,1.5,1.5,0,0,1-.37-.05A.83.83,0,0,1,4.77,48a.67.67,0,0,1-.21-.28,1,1,0,0,1-.08-.4.8.8,0,0,1,.34-.71,1.52,1.52,0,0,1,.87-.22H6.2a0,0,0,0,0,0,0V46.2a.38.38,0,0,0-.12-.3.88.88,0,0,0-.47-.09,1.15,1.15,0,0,0-.39,0A1,1,0,0,0,5,46a0,0,0,0,1-.08,0l-.27-.47a.06.06,0,0,1,0-.09,1.34,1.34,0,0,1,.45-.21,2.35,2.35,0,0,1,.63-.08,2.15,2.15,0,0,1,.6.07.93.93,0,0,1,.4.19.71.71,0,0,1,.22.33,1.53,1.53,0,0,1,.07.46V48A.05.05,0,0,1,7,48.1Zm-.61-.56c.36,0,.54-.13.54-.4v-.2a0,0,0,0,0,0,0H5.8c-.35,0-.52.11-.52.33S5.42,47.54,5.7,47.54Z"/><path class="cls-1" d="M9,48.17A1.87,1.87,0,0,1,8.26,48a2,2,0,0,1-.54-.31.06.06,0,0,1,0-.08l.39-.44s.05,0,.09,0a1.44,1.44,0,0,0,.42.23,1.29,1.29,0,0,0,.46.09.58.58,0,0,0,.34-.08.23.23,0,0,0,.12-.2.21.21,0,0,0-.09-.17A.64.64,0,0,0,9.12,47L8.8,47a1.18,1.18,0,0,1-.71-.27.8.8,0,0,1-.24-.62.83.83,0,0,1,.31-.68A1.42,1.42,0,0,1,9,45.13a2.06,2.06,0,0,1,.68.11,1.8,1.8,0,0,1,.5.25.06.06,0,0,1,0,.09L9.89,46a.05.05,0,0,1-.08,0,2,2,0,0,0-.36-.17A1.49,1.49,0,0,0,9,45.78a.53.53,0,0,0-.28.06.21.21,0,0,0-.09.18.21.21,0,0,0,.08.16,1,1,0,0,0,.33.08l.31,0a1.13,1.13,0,0,1,.74.28.85.85,0,0,1,.23.6.94.94,0,0,1-.34.73A1.48,1.48,0,0,1,9,48.17Z"/><path class="cls-1" d="M12.07,48.14a1,1,0,0,1-.72-.23,1.09,1.09,0,0,1-.21-.74V45.85s0,0,0,0h-.18a.05.05,0,0,1-.06-.06v-.5a.05.05,0,0,1,.06-.06h.18s0,0,0,0v-.78a.05.05,0,0,1,.06-.06h.71s.07,0,.07.06v.78s0,0,0,0h.37a.05.05,0,0,1,.06.06v.5a.05.05,0,0,1-.06.06H12a0,0,0,0,0,0,0v1.29c0,.11,0,.18,0,.22a.31.31,0,0,0,.21.07h.14a.05.05,0,0,1,.06.06v.59a.05.05,0,0,1-.06.06Z"/><path class="cls-1" d="M14.41,48.17a1.45,1.45,0,0,1-.83-.22,1.1,1.1,0,0,1-.46-.61,2.47,2.47,0,0,1-.07-1.08.94.94,0,0,1,.07-.3,1,1,0,0,1,.45-.61,1.37,1.37,0,0,1,.8-.22,1.42,1.42,0,0,1,.8.22,1.05,1.05,0,0,1,.45.6.83.83,0,0,1,0,.15l0,.19a1.4,1.4,0,0,1,0,.23c0,.09,0,.2,0,.32s0,.06-.07.06H13.89s0,0,0,0a.41.41,0,0,0,0,.16.47.47,0,0,0,.22.29.74.74,0,0,0,.38.1,1.07,1.07,0,0,0,.38-.07,1.12,1.12,0,0,0,.29-.19s.06,0,.08,0l.4.37s0,.06,0,.08a1.51,1.51,0,0,1-.52.36A1.8,1.8,0,0,1,14.41,48.17Zm.44-1.82a0,0,0,0,0,0,0s0-.08,0-.12,0-.06,0-.1a.41.41,0,0,0-.18-.23.64.64,0,0,0-.62,0,.44.44,0,0,0-.17.23l0,.1v.12s0,0,0,0Z"/><path class="cls-1" d="M16.52,48.1a.05.05,0,0,1-.06-.06V45.26a.05.05,0,0,1,.06-.06h.72a.05.05,0,0,1,.06.06v.25h0a.66.66,0,0,1,.29-.28,1.08,1.08,0,0,1,.46-.1.87.87,0,0,1,.28,0,.58.58,0,0,1,.23.13.05.05,0,0,1,0,.08l-.34.61s0,0-.08,0a.7.7,0,0,0-.42-.14.4.4,0,0,0-.34.18.75.75,0,0,0-.11.45V48a.05.05,0,0,1-.06.06Z"/><path class="cls-1" d="M19.25,44.74a.05.05,0,0,1-.06-.06v-.6a.05.05,0,0,1,.06-.06H20a.05.05,0,0,1,.06.06v.6a.05.05,0,0,1-.06.06Zm0,3.36a.05.05,0,0,1-.06-.06V45.26a.05.05,0,0,1,.06-.06H20a.05.05,0,0,1,.06.06V48a.05.05,0,0,1-.06.06Z"/><path class="cls-1" d="M22.71,48.1a.05.05,0,0,1-.06-.06V46.38a.67.67,0,0,0-.11-.39.42.42,0,0,0-.34-.14.42.42,0,0,0-.33.14.61.61,0,0,0-.13.39V48s0,.06,0,.06H21a.05.05,0,0,1-.06-.06V45.26A.05.05,0,0,1,21,45.2h.72s0,0,0,.06v.2h0a.76.76,0,0,1,.29-.23,1,1,0,0,1,.46-.1,1.18,1.18,0,0,1,.43.08.87.87,0,0,1,.31.22,1,1,0,0,1,.19.35,1.44,1.44,0,0,1,.06.43V48a.05.05,0,0,1-.06.06Z"/><path class="cls-1" d="M25.43,49.25a1.84,1.84,0,0,1-.33,0l-.3-.09a1.71,1.71,0,0,1-.27-.14.88.88,0,0,1-.2-.18.06.06,0,0,1,0-.09l.42-.43a.06.06,0,0,1,.09,0,1.54,1.54,0,0,0,.28.19.87.87,0,0,0,.32.06.56.56,0,0,0,.45-.16A.71.71,0,0,0,26,47.9v-.25h0a.68.68,0,0,1-.28.25,1.09,1.09,0,0,1-.47.09,1,1,0,0,1-.61-.18,1.06,1.06,0,0,1-.36-.52c0-.11,0-.22-.07-.33a2.36,2.36,0,0,1,0-.4,2.42,2.42,0,0,1,0-.4,3,3,0,0,1,.07-.32,1,1,0,0,1,.36-.53,1,1,0,0,1,.61-.18,1.09,1.09,0,0,1,.47.09.76.76,0,0,1,.28.25h0v-.21a.05.05,0,0,1,.06-.06h.73s.05,0,.05.06v2.53A1.28,1.28,0,0,1,25.43,49.25Zm.12-2A.4.4,0,0,0,26,47a1.16,1.16,0,0,0,0-.18,2.65,2.65,0,0,0,0-.46,1.16,1.16,0,0,0,0-.18.42.42,0,0,0-.15-.23.49.49,0,0,0-.28-.08.47.47,0,0,0-.28.08.42.42,0,0,0-.15.23,1.16,1.16,0,0,0,0,.18,2.65,2.65,0,0,0,0,.46,1.16,1.16,0,0,0,0,.18.42.42,0,0,0,.15.23A.41.41,0,0,0,25.55,47.28Z"/><rect class="cls-2" width="167.65" height="93.03"/></g></svg>