<?xml version="1.0" encoding="utf-8"?>
<!-- Generator: Adobe Illustrator 23.1.0, SVG Export Plug-In . SVG Version: 6.00 Build 0)  -->
<svg version="1.1" id="レイヤー_1" xmlns="http://www.w3.org/2000/svg" xmlns:xlink="http://www.w3.org/1999/xlink" x="0px"
	 y="0px" viewBox="0 0 363.4 369.6" style="enable-background:new 0 0 363.4 369.6;" xml:space="preserve">
<style type="text/css">
	.st0{fill:#FFFFFF;}
	.st1{fill:url(#SVGID_1_);}
	.st2{fill:url(#SVGID_2_);}
	.st3{fill:url(#SVGID_3_);}
	.st4{fill:url(#SVGID_4_);}
	.st5{fill:url(#SVGID_5_);}
	.st6{fill:url(#SVGID_6_);}
	.st7{fill:url(#SVGID_7_);}
	.st8{fill:url(#SVGID_8_);}
	.st9{fill:url(#SVGID_9_);}
	.st10{fill:url(#SVGID_10_);}
	.st11{fill:url(#SVGID_11_);}
	.st12{fill:url(#SVGID_12_);}
	.st13{fill:url(#SVGID_13_);}
	.st14{fill:url(#SVGID_14_);}
	.st15{fill:url(#SVGID_15_);}
	.st16{fill:url(#SVGID_16_);}
	.st17{fill:url(#SVGID_17_);}
	.st18{fill:url(#SVGID_18_);}
	.st19{fill:url(#SVGID_19_);}
	.st20{fill:url(#SVGID_20_);}
	.st21{fill:url(#SVGID_21_);}
	.st22{fill:url(#SVGID_22_);}
	.st23{fill:url(#SVGID_23_);}
	.st24{fill:url(#SVGID_24_);}
	.st25{fill:url(#SVGID_25_);}
	.st26{fill:url(#SVGID_26_);}
	.st27{fill:url(#SVGID_27_);}
	.st28{fill:url(#SVGID_28_);}
	.st29{fill:url(#SVGID_29_);}
	.st30{fill:url(#SVGID_30_);}
	.st31{fill:url(#SVGID_31_);}
	.st32{fill:url(#SVGID_32_);}
	.st33{fill:url(#SVGID_33_);}
	.st34{fill:url(#SVGID_34_);}
	.st35{fill:url(#SVGID_35_);}
	.st36{fill:url(#SVGID_36_);}
	.st37{fill:url(#SVGID_37_);}
	.st38{fill:url(#SVGID_38_);}
	.st39{fill:url(#SVGID_39_);}
	.st40{fill:url(#SVGID_40_);}
	.st41{fill:url(#SVGID_41_);}
	.st42{fill:url(#SVGID_42_);}
	.st43{fill:url(#SVGID_43_);}
	.st44{fill:url(#SVGID_44_);}
	.st45{fill:url(#SVGID_45_);}
	.st46{fill:url(#SVGID_46_);}
	.st47{fill:url(#SVGID_47_);}
	.st48{fill:url(#SVGID_48_);}
	.st49{fill:url(#SVGID_49_);}
	.st50{fill:url(#SVGID_50_);}
</style>
<title>アセット 7</title>
<title>アセット 7</title>
<g>
	<g>
		<g id="backcard_outside">
			<g>
				<g>
					<polygon class="st0" points="-35,117.7 -60.5,143.1 -32.1,143.1 -6.7,117.7 					"/>
					<polygon class="st0" points="75.8,35.3 111,0 82.7,0 47.4,35.3 					"/>
					<polygon class="st0" points="38.9,43.8 -26.6,109.2 1.8,109.2 67.3,43.8 					"/>
					<polygon class="st0" points="-147.5,230.2 -181,263.7 -152.7,263.7 -119.1,230.2 					"/>
					<path class="st0" d="M-44,153l-67.3,67.2h-24.3l67.3-67.3L-44,153 M-40.6,151.6H-69l-70.1,70.1h28.4L-40.6,151.6L-40.6,151.6z"
						/>
					<polygon class="st0" points="76,48 35.1,88.9 63.4,88.9 104.4,48 					"/>
					<path class="st0" d="M148.9,1.4l-36.6,36.7H87.9l36.7-36.7L148.9,1.4 M152.4,0h-28.3L84.6,39.5h28.3L152.4,0z"/>
					
						<linearGradient id="SVGID_1_" gradientUnits="userSpaceOnUse" x1="-60.5" y1="795.68" x2="55" y2="795.68" gradientTransform="matrix(1 0 0 1 0 -654.73)">
						<stop  offset="0" style="stop-color:#FFFFFF"/>
						<stop  offset="1" style="stop-color:#FFFFFF;stop-opacity:0"/>
					</linearGradient>
					<path class="st1" d="M52.6,98.4l-85.1,85.1H-58l85.1-85.1H52.6 M55,97.4H26.6l-87.1,87.1h28.4L55,97.4z"/>
					<polygon class="st0" points="-69,193 -139.7,263.7 -111.4,263.7 -40.6,193 					"/>
					<polygon class="st0" points="11.3,17.1 28.4,0 0,0 -17,17.1 					"/>
					<path class="st0" d="M-0.6,27l-89.3,89.3h-24.3L-24.9,27H-0.6 M2.8,25.5h-28.4l-92.1,92.2h28.3L2.8,25.5L2.8,25.5z"/>
					<path class="st0" d="M-214.2,240.6l-21.7,21.7h-24.4l21.7-21.7L-214.2,240.6 M-210.8,239.1h-28.4l-24.5,24.6h28.4L-210.8,239.1
						L-210.8,239.1z"/>
					<polygon class="st0" points="-202.3,230.7 -97.8,126.2 -126.2,126.2 -230.7,230.7 					"/>
					
						<linearGradient id="SVGID_2_" gradientUnits="userSpaceOnUse" x1="193.6" y1="681.2" x2="276.4" y2="681.2" gradientTransform="matrix(1 0 0 1 0 -654)">
						<stop  offset="0" style="stop-color:#FFFFFF"/>
						<stop  offset="1" style="stop-color:#FFFFFF;stop-opacity:0"/>
					</linearGradient>
					<polygon class="st2" points="222,54.4 276.4,0 248,0 193.6,54.4 					"/>
					<polygon class="st0" points="95,181.4 213.5,62.9 185.1,62.9 66.6,181.4 					"/>
					<polygon class="st0" points="-114.9,391.2 3.6,272.7 -24.7,272.7 -143.2,391.2 					"/>
					
						<linearGradient id="SVGID_3_" gradientUnits="userSpaceOnUse" x1="-15.7" y1="881.53" x2="86.5" y2="881.53" gradientTransform="matrix(1 0 0 1 0 -654.73)">
						<stop  offset="0" style="stop-color:#FFFFFF;stop-opacity:0"/>
						<stop  offset="1" style="stop-color:#FFFFFF"/>
					</linearGradient>
					<path class="st3" d="M84.1,190.9l-71.9,71.9h-25.5l71.9-71.9H84.1 M86.5,189.9H58.2l-73.9,73.8h28.4L86.5,189.9L86.5,189.9z"/>
					<polygon class="st0" points="164.3,70.8 235,0 206.7,0 135.9,70.8 					"/>
					<path class="st0" d="M152.4,80.7l-54.6,54.6H73.5l54.6-54.7L152.4,80.7 M155.8,79.3h-28.3L70,136.8h28.3L155.8,79.3z"/>
					
						<linearGradient id="SVGID_4_" gradientUnits="userSpaceOnUse" x1="10.5" y1="824.7" x2="89.8" y2="824.7" gradientTransform="matrix(1 0 0 1 0 -654)">
						<stop  offset="0" style="stop-color:#FFFFFF"/>
						<stop  offset="1" style="stop-color:#FFFFFF;stop-opacity:0"/>
					</linearGradient>
					<polygon class="st4" points="38.8,196.2 89.8,145.2 61.5,145.2 10.5,196.2 					"/>
					
						<linearGradient id="SVGID_5_" gradientUnits="userSpaceOnUse" x1="-57" y1="888.2" x2="30.39" y2="888.2" gradientTransform="matrix(1 0 0 1 0 -654)">
						<stop  offset="0" style="stop-color:#FFFFFF"/>
						<stop  offset="1" style="stop-color:#FFFFFF;stop-opacity:0"/>
					</linearGradient>
					<polygon class="st5" points="2,204.7 -57,263.7 -28.7,263.7 30.3,204.7 					"/>
					<path class="st0" d="M66.3,1.4L17.6,50.1H-6.7L41.9,1.4L66.3,1.4 M69.7,0H41.3l-51.5,51.5h28.3L69.7,0z"/>
					<path class="st0" d="M-106.7,174.4l-87.9,87.9h-24.3l87.9-87.9H-106.7 M-103.3,172.9h-28.3l-90.8,90.8h28.3L-103.3,172.9
						L-103.3,172.9z"/>
					<polygon class="st0" points="-94.8,164.5 9.7,60 -18.6,60 -123.1,164.5 					"/>
					<path class="st0" d="M17.2,174.5L-20,211.7h-24.3l37.2-37.2H17.2 M20.6,173.1H-7.7l-40,40h28.4L20.6,173.1L20.6,173.1z"/>
					<polygon class="st0" points="176.6,17.1 193.7,0 165.3,0 148.3,17.1 					"/>
					<polygon class="st0" points="-98.4,263.7 -70,263.7 -27.9,221.6 -56.2,221.6 					"/>
					
						<linearGradient id="SVGID_6_" gradientUnits="userSpaceOnUse" x1="46.9" y1="726" x2="168.2" y2="726" gradientTransform="matrix(1 0 0 1 0 -654)">
						<stop  offset="0" style="stop-color:#FFFFFF;stop-opacity:0"/>
						<stop  offset="1" style="stop-color:#FFFFFF"/>
					</linearGradient>
					<polygon class="st6" points="139.8,25.5 46.9,118.5 75.2,118.5 168.2,25.5 					"/>
					<polygon class="st0" points="0.8,164.6 29.1,164.6 66.8,126.9 38.4,126.9 					"/>
					
						<linearGradient id="SVGID_7_" gradientUnits="userSpaceOnUse" x1="375.4" y1="792.9" x2="375.4" y2="702" gradientTransform="matrix(1 0 0 1 0 -654)">
						<stop  offset="0" style="stop-color:#FFFFFF"/>
						<stop  offset="1" style="stop-color:#FFFFFF;stop-opacity:0"/>
					</linearGradient>
					<polygon class="st7" points="406.7,48 315.8,138.9 344.1,138.9 435,48 					"/>
					<path class="st0" d="M412.7,27l-35.8,35.8h-24.3L388.4,27H412.7 M416.1,25.5h-28.3l-38.7,38.7h28.3L416.1,25.5L416.1,25.5z"/>
					<polygon class="st0" points="478,87.7 449.6,87.7 390,147.4 418.3,147.4 					"/>
					
						<linearGradient id="SVGID_8_" gradientUnits="userSpaceOnUse" x1="186.1" y1="965.45" x2="294.1" y2="965.45" gradientTransform="matrix(1 0 0 1 0 -654)">
						<stop  offset="0" style="stop-color:#FFFFFF"/>
						<stop  offset="1" style="stop-color:#FFFFFF;stop-opacity:0"/>
					</linearGradient>
					<polygon class="st8" points="294.1,271.6 265.7,271.6 186.1,351.3 214.4,351.3 					"/>
					<polygon class="st0" points="486.4,79.2 565.7,0 537.3,0 458.1,79.2 					"/>
					<path class="st0" d="M603.6,1.4L473.9,131.1h-24.3L579.3,1.4H603.6 M607,0h-28.4L446.2,132.5h28.3L607,0z"/>
					<path class="st0" d="M193.6,122.1l-41,41h-24.3l41-41L193.6,122.1 M197.1,120.8h-28.4l-43.8,43.8h28.4L197.1,120.8L197.1,120.8
						z"/>
					<path class="st0" d="M1.9,313.8l-40.9,41h-24.3l41-41H1.9 M5.4,312.4H-23l-43.8,43.8h28.4L5.4,312.4L5.4,312.4z"/>
					<path class="st0" d="M524.2,122.1l-41,41h-24.3l41-41L524.2,122.1 M527.6,120.8h-28.3l-43.8,43.7h28.3L527.6,120.8L527.6,120.8
						z"/>
					<polygon class="st0" points="567.8,52.2 507.8,112.2 536.1,112.2 596.1,52.2 					"/>
					<polygon class="st0" points="437.7,141 374.1,204.6 402.4,204.6 466.1,141 					"/>
					<polygon class="st0" points="604.6,43.8 648.3,0 620,0 576.2,43.8 					"/>
					
						<linearGradient id="SVGID_9_" gradientUnits="userSpaceOnUse" x1="314.6" y1="801.45" x2="410.9" y2="801.45" gradientTransform="matrix(1 0 0 1 0 -654)">
						<stop  offset="0" style="stop-color:#FFFFFF"/>
						<stop  offset="1" style="stop-color:#FFFFFF;stop-opacity:0"/>
					</linearGradient>
					<polygon class="st9" points="382.5,113.5 314.6,181.4 343,181.4 410.9,113.5 					"/>
					<path class="st0" d="M219.2,303.1l-65,65.1h-24.3l65.1-65.1H219.2 M222.6,301.7h-28.3l-67.9,67.9h28.3L222.6,301.7L222.6,301.7
						z"/>
					<polygon class="st0" points="402.9,301.7 335,369.6 363.4,369.6 431.3,301.7 					"/>
					
						<linearGradient id="SVGID_10_" gradientUnits="userSpaceOnUse" x1="245.8" y1="832.88" x2="335.7" y2="832.88" gradientTransform="matrix(1 0 0 1 0 -654.73)">
						<stop  offset="0" style="stop-color:#FFFFFF"/>
						<stop  offset="1" style="stop-color:#FFFFFF;stop-opacity:0"/>
					</linearGradient>
					<path class="st10" d="M333.2,148.4l-59.5,59.5h-25.4l59.5-59.5H333.2 M335.7,147.4h-28.4l-61.5,61.5h28.4L335.7,147.4
						L335.7,147.4z"/>
					
						<linearGradient id="SVGID_11_" gradientUnits="userSpaceOnUse" x1="110.61" y1="968.08" x2="200.42" y2="968.08" gradientTransform="matrix(1 0 0 1 0 -654.73)">
						<stop  offset="0" style="stop-color:#FFFFFF;stop-opacity:0"/>
						<stop  offset="1" style="stop-color:#FFFFFF"/>
					</linearGradient>
					<path class="st11" d="M198,283.6l-59.5,59.5H113l59.5-59.5H198 M200.4,282.6H172l-61.5,61.5h28.4L200.4,282.6z"/>
					
						<linearGradient id="SVGID_12_" gradientUnits="userSpaceOnUse" x1="98.1" y1="814.88" x2="271.3" y2="814.88" gradientTransform="matrix(1 0 0 1 0 -654.73)">
						<stop  offset="0" style="stop-color:#FFFFFF"/>
						<stop  offset="1" style="stop-color:#FFFFFF;stop-opacity:0"/>
					</linearGradient>
					<path class="st12" d="M268.9,88.7L126.1,231.6h-25.5L243.4,88.7H268.9 M271.3,87.7H243L98.1,232.6h28.3L271.3,87.7z"/>
					
						<linearGradient id="SVGID_13_" gradientUnits="userSpaceOnUse" x1="-87.2" y1="1000.13" x2="86" y2="1000.13" gradientTransform="matrix(1 0 0 1 0 -654.73)">
						<stop  offset="0" style="stop-color:#FFFFFF;stop-opacity:0"/>
						<stop  offset="1" style="stop-color:#FFFFFF"/>
					</linearGradient>
					<path class="st13" d="M83.6,274L-59.2,416.8h-25.5L58.1,274H83.6 M86,273H57.6L-87.2,417.8h28.4L86,273z"/>
					
						<linearGradient id="SVGID_14_" gradientUnits="userSpaceOnUse" x1="180" y1="810.95" x2="278.4" y2="810.95" gradientTransform="matrix(1 0 0 1 0 -654)">
						<stop  offset="0" style="stop-color:#FFFFFF;stop-opacity:0"/>
						<stop  offset="1" style="stop-color:#FFFFFF"/>
					</linearGradient>
					<polygon class="st14" points="250.1,121.9 180,192 208.4,192 278.4,121.9 					"/>
					
						<linearGradient id="SVGID_15_" gradientUnits="userSpaceOnUse" x1="177.1" y1="736.2" x2="265.5" y2="736.2" gradientTransform="matrix(1 0 0 1 0 -654)">
						<stop  offset="0" style="stop-color:#FFFFFF"/>
						<stop  offset="1" style="stop-color:#FFFFFF;stop-opacity:0"/>
					</linearGradient>
					<polygon class="st15" points="237.1,52.2 177.1,112.2 205.4,112.2 265.5,52.2 					"/>
					<polygon class="st0" points="6.5,282.8 -13.5,302.8 14.9,302.8 34.9,282.8 					"/>
					
						<linearGradient id="SVGID_16_" gradientUnits="userSpaceOnUse" x1="308.9" y1="724.45" x2="308.9" y2="821.12" gradientTransform="matrix(1 0 0 1 0 -654)">
						<stop  offset="0" style="stop-color:#FFFFFF"/>
						<stop  offset="1" style="stop-color:#FFFFFF;stop-opacity:0"/>
					</linearGradient>
					<polygon class="st16" points="369,72.7 340.6,72.7 248.8,164.6 277.1,164.6 					"/>
					
						<linearGradient id="SVGID_17_" gradientUnits="userSpaceOnUse" x1="28.6" y1="992.75" x2="148.9" y2="992.75" gradientTransform="matrix(1 0 0 1 0 -654)">
						<stop  offset="0" style="stop-color:#FFFFFF"/>
						<stop  offset="1" style="stop-color:#FFFFFF;stop-opacity:0"/>
					</linearGradient>
					<polygon class="st17" points="148.9,292.8 120.5,292.8 28.6,384.7 57,384.7 					"/>
					
						<linearGradient id="SVGID_18_" gradientUnits="userSpaceOnUse" x1="202.3" y1="895.75" x2="334.5" y2="895.75" gradientTransform="matrix(1 0 0 1 0 -654)">
						<stop  offset="0" style="stop-color:#FFFFFF"/>
						<stop  offset="1" style="stop-color:#FFFFFF;stop-opacity:0"/>
					</linearGradient>
					<polygon class="st18" points="306.2,189.8 202.3,293.7 230.6,293.7 334.5,189.8 					"/>
					
						<linearGradient id="SVGID_19_" gradientUnits="userSpaceOnUse" x1="180.9" y1="899.5" x2="265.7" y2="899.5" gradientTransform="matrix(1 0 0 1 0 -654)">
						<stop  offset="0" style="stop-color:#FFFFFF;stop-opacity:0"/>
						<stop  offset="1" style="stop-color:#FFFFFF"/>
					</linearGradient>
					<polygon class="st19" points="237.4,217.3 180.9,273.7 209.3,273.7 265.7,217.3 					"/>
					<path class="st0" d="M265.2,174.5L157.4,282.3h-24.3l107.8-107.8L265.2,174.5 M268.6,173.1h-28.3L129.6,283.7H158L268.6,173.1
						L268.6,173.1z"/>
					
						<linearGradient id="SVGID_20_" gradientUnits="userSpaceOnUse" x1="68.3" y1="906.05" x2="199.9" y2="906.05" gradientTransform="matrix(1 0 0 1 0 -654)">
						<stop  offset="0" style="stop-color:#FFFFFF"/>
						<stop  offset="1" style="stop-color:#FFFFFF;stop-opacity:0"/>
					</linearGradient>
					<polygon class="st20" points="171.6,200.4 68.3,303.7 96.6,303.7 199.9,200.4 					"/>
					
						<linearGradient id="SVGID_21_" gradientUnits="userSpaceOnUse" x1="356.3" y1="872.35" x2="475.4" y2="872.35" gradientTransform="matrix(1 0 0 1 0 -654)">
						<stop  offset="0" style="stop-color:#FFFFFF"/>
						<stop  offset="1" style="stop-color:#FFFFFF;stop-opacity:0"/>
					</linearGradient>
					<polygon class="st21" points="447,173 356.3,263.7 384.6,263.7 475.4,173 					"/>
					<polygon class="st0" points="349.5,270.5 258.7,361.3 287.1,361.3 377.8,270.5 					"/>
					<path class="st0" d="M520.9,1.4L418.8,103.6h-24.3L496.6,1.4H520.9 M524.3,0H496L391,105h28.3L524.3,0z"/>
					
						<linearGradient id="SVGID_22_" gradientUnits="userSpaceOnUse" x1="273.6" y1="864.53" x2="409.8" y2="864.53" gradientTransform="matrix(1 0 0 1 0 -654.73)">
						<stop  offset="0" style="stop-color:#FFFFFF;stop-opacity:0"/>
						<stop  offset="1" style="stop-color:#FFFFFF"/>
					</linearGradient>
					<path class="st22" d="M407.4,156.9L301.5,262.7H276l105.9-105.9L407.4,156.9 M409.8,155.9h-28.4L273.6,263.7h28.3L409.8,155.9z
						"/>
					<polygon class="st0" points="365.6,213.1 264.9,313.7 293.3,313.7 393.9,213.1 					"/>
					<path class="st0" d="M283.3,321.7l-97.8,97.8h-24.3l97.8-97.8H283.3 M286.7,320.3h-28.3L157.7,420.9h28.4L286.7,320.3
						L286.7,320.3z"/>
					<polygon class="st0" points="424.6,17.1 441.7,0 413.3,0 396.3,17.1 					"/>
					
						<linearGradient id="SVGID_23_" gradientUnits="userSpaceOnUse" x1="258.5" y1="711.48" x2="400.3" y2="711.48" gradientTransform="matrix(1 0 0 1 0 -654.73)">
						<stop  offset="0" style="stop-color:#FFFFFF"/>
						<stop  offset="1" style="stop-color:#FFFFFF;stop-opacity:0"/>
					</linearGradient>
					<path class="st23" d="M397.9,1L286.5,112.5H261L372.4,1H397.9 M400.3,0H372L258.5,113.5h28.3L400.3,0z"/>
					<path class="st0" d="M86.1,312.3L-24.6,422.9h-24.3L61.7,312.2L86.1,312.3 M89.5,310.8H61.1L-52.3,424.3H-24L89.5,310.8
						L89.5,310.8z"/>
					<polygon class="st0" points="443.5,39.5 483,0 454.7,0 415.1,39.5 					"/>
					
						<linearGradient id="SVGID_24_" gradientUnits="userSpaceOnUse" x1="15.6" y1="877.35" x2="144.7" y2="877.35" gradientTransform="matrix(1 0 0 1 0 -654)">
						<stop  offset="0" style="stop-color:#FFFFFF"/>
						<stop  offset="1" style="stop-color:#FFFFFF;stop-opacity:0"/>
					</linearGradient>
					<polygon class="st24" points="116.4,173 15.6,273.7 44,273.7 144.7,173 					"/>
					<polygon class="st0" points="89.6,241 66.9,263.7 95.3,263.7 118,241 					"/>
					<path class="st0" d="M314.3,1.4l-41,40.9H249l40.9-40.9L314.3,1.4 M317.7,0h-28.4l-43.7,43.8h28.3L317.7,0z"/>
					
						<linearGradient id="SVGID_25_" gradientUnits="userSpaceOnUse" x1="251.4" y1="693.6" x2="359" y2="693.6" gradientTransform="matrix(1 0 0 1 0 -654)">
						<stop  offset="0" style="stop-color:#FFFFFF"/>
						<stop  offset="1" style="stop-color:#FFFFFF;stop-opacity:0"/>
					</linearGradient>
					<polygon class="st25" points="279.8,79.2 359,0 330.7,0 251.4,79.2 					"/>
					<path class="st0" d="M599.1,89.1l-142,142h-24.3l142-142L599.1,89.1 M602.5,87.7h-28.3L429.3,232.6h28.3L602.5,87.7z"/>
					<path class="st0" d="M413.8,274.4l-142,142h-24.3l142-142H413.8 M417.2,273h-28.3L244,417.8h28.4L417.2,273L417.2,273z"/>
					<polygon class="st0" points="420.8,241 398.1,263.7 426.5,263.7 449.2,241 					"/>
					<polygon class="st0" points="611,79.2 690.2,0 661.8,0 582.6,79.2 					"/>
				</g>
			</g>
		</g>
	</g>
	<g>
		<g id="backcard_outside_1_">
			<g>
				<g>
					<polygon class="st0" points="-761.7,389.7 -787.2,415.1 -758.8,415.1 -733.4,389.7 					"/>
					<polygon class="st0" points="-650.9,307.3 -615.7,272 -644,272 -679.3,307.3 					"/>
					<polygon class="st0" points="-687.8,315.8 -753.3,381.2 -724.9,381.2 -659.4,315.8 					"/>
					<polygon class="st0" points="-874.2,502.2 -907.7,535.7 -879.4,535.7 -845.8,502.2 					"/>
					<path class="st0" d="M-770.7,425l-67.3,67.2h-24.3l67.3-67.3L-770.7,425 M-767.3,423.6h-28.4l-70.1,70.1h28.4L-767.3,423.6
						L-767.3,423.6z"/>
					<polygon class="st0" points="-650.7,320 -691.6,360.9 -663.3,360.9 -622.3,320 					"/>
					<path class="st0" d="M-577.8,273.4l-36.6,36.7h-24.4l36.7-36.7H-577.8 M-574.3,272h-28.3l-39.5,39.5h28.3L-574.3,272z"/>
					
						<linearGradient id="SVGID_26_" gradientUnits="userSpaceOnUse" x1="-787.175" y1="1067.655" x2="-671.675" y2="1067.655" gradientTransform="matrix(1 0 0 1 0 -654.73)">
						<stop  offset="0" style="stop-color:#FFFFFF"/>
						<stop  offset="1" style="stop-color:#FFFFFF;stop-opacity:0"/>
					</linearGradient>
					<path class="st26" d="M-674.1,370.4l-85.1,85.1h-25.5l85.1-85.1H-674.1 M-671.7,369.4h-28.4l-87.1,87.1h28.4L-671.7,369.4z"/>
					<polygon class="st0" points="-795.7,465 -866.4,535.7 -838.1,535.7 -767.3,465 					"/>
					<polygon class="st0" points="-715.4,289.1 -698.3,272 -726.7,272 -743.7,289.1 					"/>
					<path class="st0" d="M-727.3,299l-89.3,89.3h-24.3l89.3-89.3H-727.3 M-723.9,297.5h-28.4l-92.1,92.2h28.3L-723.9,297.5
						L-723.9,297.5z"/>
					<path class="st0" d="M-940.9,512.6l-21.7,21.7H-987l21.7-21.7L-940.9,512.6 M-937.5,511.1h-28.4l-24.5,24.6h28.4L-937.5,511.1
						L-937.5,511.1z"/>
					<polygon class="st0" points="-929,502.7 -824.5,398.2 -852.9,398.2 -957.4,502.7 					"/>
					
						<linearGradient id="SVGID_27_" gradientUnits="userSpaceOnUse" x1="-533.0751" y1="953.175" x2="-450.2751" y2="953.175" gradientTransform="matrix(1 0 0 1 0 -654)">
						<stop  offset="0" style="stop-color:#FFFFFF"/>
						<stop  offset="1" style="stop-color:#FFFFFF;stop-opacity:0"/>
					</linearGradient>
					<polygon class="st27" points="-504.7,326.4 -450.3,272 -478.7,272 -533.1,326.4 					"/>
					<polygon class="st0" points="-631.7,453.4 -513.2,334.9 -541.6,334.9 -660.1,453.4 					"/>
					<polygon class="st0" points="-841.6,663.2 -723.1,544.7 -751.4,544.7 -869.9,663.2 					"/>
					
						<linearGradient id="SVGID_28_" gradientUnits="userSpaceOnUse" x1="-742.3751" y1="1153.505" x2="-640.175" y2="1153.505" gradientTransform="matrix(1 0 0 1 0 -654.73)">
						<stop  offset="0" style="stop-color:#FFFFFF;stop-opacity:0"/>
						<stop  offset="1" style="stop-color:#FFFFFF"/>
					</linearGradient>
					<path class="st28" d="M-642.6,462.9l-71.9,71.9H-740l71.9-71.9H-642.6 M-640.2,461.9h-28.3l-73.9,73.8h28.4L-640.2,461.9
						L-640.2,461.9z"/>
					<polygon class="st0" points="-562.4,342.8 -491.7,272 -520,272 -590.8,342.8 					"/>
					<path class="st0" d="M-574.3,352.7l-54.6,54.6h-24.3l54.6-54.7L-574.3,352.7 M-570.9,351.3h-28.3l-57.5,57.5h28.3L-570.9,351.3
						z"/>
					
						<linearGradient id="SVGID_29_" gradientUnits="userSpaceOnUse" x1="-716.175" y1="1096.675" x2="-636.8751" y2="1096.675" gradientTransform="matrix(1 0 0 1 0 -654)">
						<stop  offset="0" style="stop-color:#FFFFFF"/>
						<stop  offset="1" style="stop-color:#FFFFFF;stop-opacity:0"/>
					</linearGradient>
					<polygon class="st29" points="-687.9,468.2 -636.9,417.2 -665.2,417.2 -716.2,468.2 					"/>
					
						<linearGradient id="SVGID_30_" gradientUnits="userSpaceOnUse" x1="-783.675" y1="1160.175" x2="-696.2851" y2="1160.175" gradientTransform="matrix(1 0 0 1 0 -654)">
						<stop  offset="0" style="stop-color:#FFFFFF"/>
						<stop  offset="1" style="stop-color:#FFFFFF;stop-opacity:0"/>
					</linearGradient>
					<polygon class="st30" points="-724.7,476.7 -783.7,535.7 -755.4,535.7 -696.4,476.7 					"/>
					<path class="st0" d="M-660.4,273.4l-48.7,48.7h-24.3l48.6-48.7H-660.4 M-657,272h-28.4l-51.5,51.5h28.3L-657,272z"/>
					<path class="st0" d="M-833.4,446.4l-87.9,87.9h-24.3l87.9-87.9H-833.4 M-830,444.9h-28.3l-90.8,90.8h28.3L-830,444.9
						L-830,444.9z"/>
					<polygon class="st0" points="-821.5,436.5 -717,332 -745.3,332 -849.8,436.5 					"/>
					<path class="st0" d="M-709.5,446.5l-37.2,37.2H-771l37.2-37.2H-709.5 M-706.1,445.1h-28.3l-40,40h28.4L-706.1,445.1
						L-706.1,445.1z"/>
					<polygon class="st0" points="-550.1,289.1 -533,272 -561.4,272 -578.4,289.1 					"/>
					<polygon class="st0" points="-825.1,535.7 -796.7,535.7 -754.6,493.6 -782.9,493.6 					"/>
					
						<linearGradient id="SVGID_31_" gradientUnits="userSpaceOnUse" x1="-679.775" y1="997.975" x2="-558.475" y2="997.975" gradientTransform="matrix(1 0 0 1 0 -654)">
						<stop  offset="0" style="stop-color:#FFFFFF;stop-opacity:0"/>
						<stop  offset="1" style="stop-color:#FFFFFF"/>
					</linearGradient>
					<polygon class="st31" points="-586.9,297.5 -679.8,390.5 -651.5,390.5 -558.5,297.5 					"/>
					<polygon class="st0" points="-725.9,436.6 -697.6,436.6 -659.9,398.9 -688.3,398.9 					"/>
					
						<linearGradient id="SVGID_32_" gradientUnits="userSpaceOnUse" x1="-351.2751" y1="1064.875" x2="-351.2751" y2="973.975" gradientTransform="matrix(1 0 0 1 0 -654)">
						<stop  offset="0" style="stop-color:#FFFFFF"/>
						<stop  offset="1" style="stop-color:#FFFFFF;stop-opacity:0"/>
					</linearGradient>
					<polygon class="st32" points="-320,320 -410.9,410.9 -382.6,410.9 -291.7,320 					"/>
					<path class="st0" d="M-314,299l-35.8,35.8h-24.3l35.8-35.8H-314 M-310.6,297.5h-28.3l-38.7,38.7h28.3L-310.6,297.5
						L-310.6,297.5z"/>
					<polygon class="st0" points="-248.7,359.7 -277.1,359.7 -336.7,419.4 -308.4,419.4 					"/>
					
						<linearGradient id="SVGID_33_" gradientUnits="userSpaceOnUse" x1="-540.5751" y1="1237.425" x2="-432.5751" y2="1237.425" gradientTransform="matrix(1 0 0 1 0 -654)">
						<stop  offset="0" style="stop-color:#FFFFFF"/>
						<stop  offset="1" style="stop-color:#FFFFFF;stop-opacity:0"/>
					</linearGradient>
					<polygon class="st33" points="-432.6,543.6 -461,543.6 -540.6,623.3 -512.3,623.3 					"/>
					<polygon class="st0" points="-240.3,351.2 -161,272 -189.4,272 -268.6,351.2 					"/>
					<path class="st0" d="M-123.1,273.4l-129.7,129.7h-24.3l129.7-129.7H-123.1 M-119.7,272h-28.4l-132.4,132.5h28.3L-119.7,272z"/>
					<path class="st0" d="M-533.1,394.1l-41,41h-24.3l41-41H-533.1 M-529.6,392.8H-558l-43.8,43.8h28.4L-529.6,392.8L-529.6,392.8z"
						/>
					<path class="st0" d="M-724.8,585.8l-40.9,41H-790l41-41H-724.8 M-721.3,584.4h-28.4l-43.8,43.8h28.4L-721.3,584.4L-721.3,584.4
						z"/>
					<path class="st0" d="M-202.5,394.1l-41,41h-24.3l41-41H-202.5 M-199.1,392.8h-28.3l-43.8,43.7h28.3L-199.1,392.8L-199.1,392.8z
						"/>
					<polygon class="st0" points="-158.9,324.2 -218.9,384.2 -190.6,384.2 -130.6,324.2 					"/>
					<polygon class="st0" points="-289,413 -352.6,476.6 -324.3,476.6 -260.6,413 					"/>
					<polygon class="st0" points="-122.1,315.8 -78.4,272 -106.7,272 -150.5,315.8 					"/>
					
						<linearGradient id="SVGID_34_" gradientUnits="userSpaceOnUse" x1="-412.0751" y1="1073.425" x2="-315.7751" y2="1073.425" gradientTransform="matrix(1 0 0 1 0 -654)">
						<stop  offset="0" style="stop-color:#FFFFFF"/>
						<stop  offset="1" style="stop-color:#FFFFFF;stop-opacity:0"/>
					</linearGradient>
					<polygon class="st34" points="-344.2,385.5 -412.1,453.4 -383.7,453.4 -315.8,385.5 					"/>
					<path class="st0" d="M-507.5,575.1l-65,65.1h-24.3l65.1-65.1H-507.5 M-504.1,573.7h-28.3l-67.9,67.9h28.3L-504.1,573.7
						L-504.1,573.7z"/>
					<polygon class="st0" points="-323.8,573.7 -391.7,641.6 -363.3,641.6 -295.4,573.7 					"/>
					
						<linearGradient id="SVGID_35_" gradientUnits="userSpaceOnUse" x1="-480.8751" y1="1104.855" x2="-390.975" y2="1104.855" gradientTransform="matrix(1 0 0 1 0 -654.73)">
						<stop  offset="0" style="stop-color:#FFFFFF"/>
						<stop  offset="1" style="stop-color:#FFFFFF;stop-opacity:0"/>
					</linearGradient>
					<path class="st35" d="M-393.5,420.4l-59.5,59.5h-25.4l59.5-59.5H-393.5 M-391,419.4h-28.4l-61.5,61.5h28.4L-391,419.4
						L-391,419.4z"/>
					
						<linearGradient id="SVGID_36_" gradientUnits="userSpaceOnUse" x1="-616.0651" y1="1240.0551" x2="-526.2551" y2="1240.0551" gradientTransform="matrix(1 0 0 1 0 -654.73)">
						<stop  offset="0" style="stop-color:#FFFFFF;stop-opacity:0"/>
						<stop  offset="1" style="stop-color:#FFFFFF"/>
					</linearGradient>
					<path class="st36" d="M-528.7,555.6l-59.5,59.5h-25.5l59.5-59.5H-528.7 M-526.3,554.6h-28.4l-61.5,61.5h28.4L-526.3,554.6z"/>
					
						<linearGradient id="SVGID_37_" gradientUnits="userSpaceOnUse" x1="-628.5751" y1="1086.855" x2="-455.3751" y2="1086.855" gradientTransform="matrix(1 0 0 1 0 -654.73)">
						<stop  offset="0" style="stop-color:#FFFFFF"/>
						<stop  offset="1" style="stop-color:#FFFFFF;stop-opacity:0"/>
					</linearGradient>
					<path class="st37" d="M-457.8,360.7l-142.8,142.9h-25.5l142.8-142.9H-457.8 M-455.4,359.7h-28.3l-144.9,144.9h28.3
						L-455.4,359.7z"/>
					
						<linearGradient id="SVGID_38_" gradientUnits="userSpaceOnUse" x1="-813.8751" y1="1272.105" x2="-640.675" y2="1272.105" gradientTransform="matrix(1 0 0 1 0 -654.73)">
						<stop  offset="0" style="stop-color:#FFFFFF;stop-opacity:0"/>
						<stop  offset="1" style="stop-color:#FFFFFF"/>
					</linearGradient>
					<path class="st38" d="M-643.1,546l-142.8,142.8h-25.5L-668.6,546H-643.1 M-640.7,545h-28.4l-144.8,144.8h28.4L-640.7,545z"/>
					
						<linearGradient id="SVGID_39_" gradientUnits="userSpaceOnUse" x1="-546.675" y1="1082.925" x2="-448.2751" y2="1082.925" gradientTransform="matrix(1 0 0 1 0 -654)">
						<stop  offset="0" style="stop-color:#FFFFFF;stop-opacity:0"/>
						<stop  offset="1" style="stop-color:#FFFFFF"/>
					</linearGradient>
					<polygon class="st39" points="-476.6,393.9 -546.7,464 -518.3,464 -448.3,393.9 					"/>
					
						<linearGradient id="SVGID_40_" gradientUnits="userSpaceOnUse" x1="-549.5751" y1="1008.175" x2="-461.175" y2="1008.175" gradientTransform="matrix(1 0 0 1 0 -654)">
						<stop  offset="0" style="stop-color:#FFFFFF"/>
						<stop  offset="1" style="stop-color:#FFFFFF;stop-opacity:0"/>
					</linearGradient>
					<polygon class="st40" points="-489.6,324.2 -549.6,384.2 -521.3,384.2 -461.2,324.2 					"/>
					<polygon class="st0" points="-720.2,554.8 -740.2,574.8 -711.8,574.8 -691.8,554.8 					"/>
					
						<linearGradient id="SVGID_41_" gradientUnits="userSpaceOnUse" x1="-417.7751" y1="996.425" x2="-417.7751" y2="1093.095" gradientTransform="matrix(1 0 0 1 0 -654)">
						<stop  offset="0" style="stop-color:#FFFFFF"/>
						<stop  offset="1" style="stop-color:#FFFFFF;stop-opacity:0"/>
					</linearGradient>
					<polygon class="st41" points="-357.7,344.7 -386.1,344.7 -477.9,436.6 -449.6,436.6 					"/>
					
						<linearGradient id="SVGID_42_" gradientUnits="userSpaceOnUse" x1="-698.0751" y1="1264.725" x2="-577.775" y2="1264.725" gradientTransform="matrix(1 0 0 1 0 -654)">
						<stop  offset="0" style="stop-color:#FFFFFF"/>
						<stop  offset="1" style="stop-color:#FFFFFF;stop-opacity:0"/>
					</linearGradient>
					<polygon class="st42" points="-577.8,564.8 -606.2,564.8 -698.1,656.7 -669.7,656.7 					"/>
					
						<linearGradient id="SVGID_43_" gradientUnits="userSpaceOnUse" x1="-524.3751" y1="1167.725" x2="-392.175" y2="1167.725" gradientTransform="matrix(1 0 0 1 0 -654)">
						<stop  offset="0" style="stop-color:#FFFFFF"/>
						<stop  offset="1" style="stop-color:#FFFFFF;stop-opacity:0"/>
					</linearGradient>
					<polygon class="st43" points="-420.5,461.8 -524.4,565.7 -496.1,565.7 -392.2,461.8 					"/>
					
						<linearGradient id="SVGID_44_" gradientUnits="userSpaceOnUse" x1="-545.775" y1="1171.475" x2="-460.975" y2="1171.475" gradientTransform="matrix(1 0 0 1 0 -654)">
						<stop  offset="0" style="stop-color:#FFFFFF;stop-opacity:0"/>
						<stop  offset="1" style="stop-color:#FFFFFF"/>
					</linearGradient>
					<polygon class="st44" points="-489.3,489.3 -545.8,545.7 -517.4,545.7 -461,489.3 					"/>
					<path class="st0" d="M-461.5,446.5l-107.8,107.8h-24.3l107.8-107.8L-461.5,446.5 M-458.1,445.1h-28.3l-110.7,110.6h28.4
						L-458.1,445.1L-458.1,445.1z"/>
					
						<linearGradient id="SVGID_45_" gradientUnits="userSpaceOnUse" x1="-658.3751" y1="1178.025" x2="-526.775" y2="1178.025" gradientTransform="matrix(1 0 0 1 0 -654)">
						<stop  offset="0" style="stop-color:#FFFFFF"/>
						<stop  offset="1" style="stop-color:#FFFFFF;stop-opacity:0"/>
					</linearGradient>
					<polygon class="st45" points="-555.1,472.4 -658.4,575.7 -630.1,575.7 -526.8,472.4 					"/>
					
						<linearGradient id="SVGID_46_" gradientUnits="userSpaceOnUse" x1="-370.3751" y1="1144.3251" x2="-251.2751" y2="1144.3251" gradientTransform="matrix(1 0 0 1 0 -654)">
						<stop  offset="0" style="stop-color:#FFFFFF"/>
						<stop  offset="1" style="stop-color:#FFFFFF;stop-opacity:0"/>
					</linearGradient>
					<polygon class="st46" points="-279.7,445 -370.4,535.7 -342.1,535.7 -251.3,445 					"/>
					<polygon class="st0" points="-377.2,542.5 -468,633.3 -439.6,633.3 -348.9,542.5 					"/>
					<path class="st0" d="M-205.8,273.4l-102.1,102.2h-24.3l102.1-102.2H-205.8 M-202.4,272h-28.3l-105,105h28.3L-202.4,272z"/>
					
						<linearGradient id="SVGID_47_" gradientUnits="userSpaceOnUse" x1="-453.0751" y1="1136.505" x2="-316.8751" y2="1136.505" gradientTransform="matrix(1 0 0 1 0 -654.73)">
						<stop  offset="0" style="stop-color:#FFFFFF;stop-opacity:0"/>
						<stop  offset="1" style="stop-color:#FFFFFF"/>
					</linearGradient>
					<path class="st47" d="M-319.3,428.9l-105.9,105.8h-25.5l105.9-105.9L-319.3,428.9 M-316.9,427.9h-28.4l-107.8,107.8h28.3
						L-316.9,427.9z"/>
					<polygon class="st0" points="-361.1,485.1 -461.8,585.7 -433.4,585.7 -332.8,485.1 					"/>
					<path class="st0" d="M-443.4,593.7l-97.8,97.8h-24.3l97.8-97.8H-443.4 M-440,592.3h-28.3L-569,692.9h28.4L-440,592.3
						L-440,592.3z"/>
					<polygon class="st0" points="-302.1,289.1 -285,272 -313.4,272 -330.4,289.1 					"/>
					
						<linearGradient id="SVGID_48_" gradientUnits="userSpaceOnUse" x1="-468.175" y1="983.455" x2="-326.3751" y2="983.455" gradientTransform="matrix(1 0 0 1 0 -654.73)">
						<stop  offset="0" style="stop-color:#FFFFFF"/>
						<stop  offset="1" style="stop-color:#FFFFFF;stop-opacity:0"/>
					</linearGradient>
					<path class="st48" d="M-328.8,273l-111.4,111.5h-25.5L-354.3,273H-328.8 M-326.4,272h-28.3l-113.5,113.5h28.3L-326.4,272z"/>
					<path class="st0" d="M-640.6,584.3l-110.7,110.6h-24.3L-665,584.2L-640.6,584.3 M-637.2,582.8h-28.4L-779,696.3h28.3
						L-637.2,582.8L-637.2,582.8z"/>
					<polygon class="st0" points="-283.2,311.5 -243.7,272 -272,272 -311.6,311.5 					"/>
					
						<linearGradient id="SVGID_49_" gradientUnits="userSpaceOnUse" x1="-711.0751" y1="1149.3251" x2="-581.975" y2="1149.3251" gradientTransform="matrix(1 0 0 1 0 -654)">
						<stop  offset="0" style="stop-color:#FFFFFF"/>
						<stop  offset="1" style="stop-color:#FFFFFF;stop-opacity:0"/>
					</linearGradient>
					<polygon class="st49" points="-610.3,445 -711.1,545.7 -682.7,545.7 -582,445 					"/>
					<polygon class="st0" points="-637.1,513 -659.8,535.7 -631.4,535.7 -608.7,513 					"/>
					<path class="st0" d="M-412.4,273.4l-41,40.9h-24.3l40.9-40.9H-412.4 M-409,272h-28.4l-43.7,43.8h28.3L-409,272z"/>
					
						<linearGradient id="SVGID_50_" gradientUnits="userSpaceOnUse" x1="-475.2751" y1="965.575" x2="-367.675" y2="965.575" gradientTransform="matrix(1 0 0 1 0 -654)">
						<stop  offset="0" style="stop-color:#FFFFFF"/>
						<stop  offset="1" style="stop-color:#FFFFFF;stop-opacity:0"/>
					</linearGradient>
					<polygon class="st50" points="-446.9,351.2 -367.7,272 -396,272 -475.3,351.2 					"/>
					<path class="st0" d="M-127.6,361.1l-142,142h-24.3l142-142H-127.6 M-124.2,359.7h-28.3l-144.9,144.9h28.3L-124.2,359.7z"/>
					<path class="st0" d="M-312.9,546.4l-142,142h-24.3l142-142H-312.9 M-309.5,545h-28.3l-144.9,144.8h28.4L-309.5,545L-309.5,545z
						"/>
					<polygon class="st0" points="-305.9,513 -328.6,535.7 -300.2,535.7 -277.5,513 					"/>
					<polygon class="st0" points="-115.7,351.2 -36.5,272 -64.9,272 -144.1,351.2 					"/>
				</g>
			</g>
		</g>
	</g>
</g>
</svg>
