<?xml version="1.0" encoding="utf-8"?>
<!-- Generator: Adobe Illustrator 23.1.0, SVG Export Plug-In . SVG Version: 6.00 Build 0)  -->
<svg version="1.1" id="レイヤー_1" xmlns="http://www.w3.org/2000/svg" xmlns:xlink="http://www.w3.org/1999/xlink" x="0px"
	 y="0px" viewBox="0 0 362.7 357.8" style="enable-background:new 0 0 362.7 357.8;" xml:space="preserve">
<style type="text/css">
	.st0{clip-path:url(#SVGID_2_);}
	.st1{fill:url(#SVGID_3_);}
	.st2{fill:url(#SVGID_4_);}
	.st3{fill:url(#SVGID_5_);}
	.st4{fill:#FFFFFF;}
	.st5{fill:url(#SVGID_6_);}
	.st6{fill:url(#SVGID_7_);}
	.st7{fill:url(#SVGID_8_);}
	.st8{fill:url(#SVGID_9_);}
	.st9{fill:url(#SVGID_10_);}
	.st10{fill:url(#SVGID_11_);}
	.st11{fill:url(#SVGID_12_);}
	.st12{fill:url(#SVGID_13_);}
	.st13{fill:url(#SVGID_14_);}
	.st14{fill:url(#SVGID_15_);}
	.st15{fill:url(#SVGID_16_);}
	.st16{fill:url(#SVGID_17_);}
	.st17{fill:url(#SVGID_18_);}
	.st18{fill:url(#SVGID_19_);}
	.st19{fill:url(#SVGID_20_);}
	.st20{fill:url(#SVGID_21_);}
	.st21{fill:url(#SVGID_22_);}
	.st22{fill:url(#SVGID_23_);}
	.st23{fill:url(#SVGID_24_);}
	.st24{fill:url(#SVGID_25_);}
	.st25{fill:url(#SVGID_26_);}
	.st26{fill:url(#SVGID_27_);}
	.st27{fill:url(#SVGID_28_);}
	.st28{fill:url(#SVGID_29_);}
	.st29{fill:url(#SVGID_30_);}
	.st30{fill:url(#SVGID_31_);}
	.st31{fill:url(#SVGID_32_);}
	.st32{fill:url(#SVGID_33_);}
	.st33{fill:url(#SVGID_34_);}
	.st34{fill:url(#SVGID_35_);}
	.st35{fill:url(#SVGID_36_);}
	.st36{fill:url(#SVGID_37_);}
	.st37{fill:url(#SVGID_38_);}
	.st38{fill:url(#SVGID_39_);}
	.st39{fill:url(#SVGID_40_);}
	.st40{fill:url(#SVGID_41_);}
	.st41{fill:url(#SVGID_42_);}
	.st42{fill:url(#SVGID_43_);}
	.st43{fill:url(#SVGID_44_);}
	.st44{fill:url(#SVGID_45_);}
	.st45{fill:url(#SVGID_46_);}
	.st46{fill:url(#SVGID_47_);}
	.st47{fill:url(#SVGID_48_);}
	.st48{fill:url(#SVGID_49_);}
	.st49{fill:url(#SVGID_50_);}
	.st50{fill:url(#SVGID_51_);}
	.st51{fill:url(#SVGID_52_);}
	.st52{fill:url(#SVGID_53_);}
	.st53{fill:url(#SVGID_54_);}
	.st54{fill:url(#SVGID_55_);}
	.st55{fill:url(#SVGID_56_);}
	.st56{fill:url(#SVGID_57_);}
</style>
<title>アセット 3</title>
<g>
	<g id="label">
		<g>
			<defs>
				<rect id="SVGID_1_" width="362.7" height="357.8"/>
			</defs>
			<clipPath id="SVGID_2_">
				<use xlink:href="#SVGID_1_"  style="overflow:visible;"/>
			</clipPath>
			<g class="st0">
				
					<linearGradient id="SVGID_3_" gradientUnits="userSpaceOnUse" x1="-51.25" y1="294.24" x2="2.53" y2="294.24" gradientTransform="matrix(1 0 0 -1 0 423.34)">
					<stop  offset="0" style="stop-color:#FFF57F"/>
					<stop  offset="1" style="stop-color:#F09DC1;stop-opacity:0"/>
				</linearGradient>
				<polygon class="st1" points="-25.8,116.4 -51.3,141.8 -22.9,141.8 2.5,116.4 				"/>
				
					<linearGradient id="SVGID_4_" gradientUnits="userSpaceOnUse" x1="56.61" y1="407.03" x2="120.24" y2="407.03" gradientTransform="matrix(1 0 0 -1 0 423.34)">
					<stop  offset="0" style="stop-color:#FFF57F"/>
					<stop  offset="1" style="stop-color:#F09DC1;stop-opacity:0"/>
				</linearGradient>
				<polygon class="st2" points="85,33.9 120.2,-1.3 91.9,-1.3 56.6,33.9 				"/>
				
					<linearGradient id="SVGID_5_" gradientUnits="userSpaceOnUse" x1="-17.34" y1="348.17" x2="76.49" y2="348.17" gradientTransform="matrix(1 0 0 -1 0 423.34)">
					<stop  offset="0" style="stop-color:#9ED8F5"/>
					<stop  offset="1" style="stop-color:#FFF000;stop-opacity:0"/>
				</linearGradient>
				<polygon class="st3" points="48.1,42.4 -17.3,107.9 11,107.9 76.5,42.4 				"/>
				<polygon class="st4" points="-138.3,228.8 -171.8,262.4 -143.5,262.4 -109.9,228.8 				"/>
				
					<linearGradient id="SVGID_6_" gradientUnits="userSpaceOnUse" x1="-129.81" y1="238.005" x2="-31.37" y2="238.005" gradientTransform="matrix(1 0 0 -1 0 423.34)">
					<stop  offset="0" style="stop-color:#F09DC1"/>
					<stop  offset="1" style="stop-color:#FFF000;stop-opacity:0"/>
				</linearGradient>
				<path class="st5" d="M-33.8,151.3l-68.1,68.1h-25.5l68.1-68.1H-33.8 M-31.4,150.3h-28.3l-70.1,70.1h28.3L-31.4,150.3
					L-31.4,150.3z"/>
				
					<linearGradient id="SVGID_7_" gradientUnits="userSpaceOnUse" x1="44.31" y1="356.215" x2="113.58" y2="356.215" gradientTransform="matrix(1 0 0 -1 0 423.34)">
					<stop  offset="0" style="stop-color:#FFF57F"/>
					<stop  offset="1" style="stop-color:#F09DC1;stop-opacity:0"/>
				</linearGradient>
				<polygon class="st6" points="85.2,46.7 44.3,87.6 72.7,87.6 113.6,46.7 				"/>
				
					<linearGradient id="SVGID_8_" gradientUnits="userSpaceOnUse" x1="93.71" y1="404.91" x2="161.57" y2="404.91" gradientTransform="matrix(1 0 0 -1 0 423.34)">
					<stop  offset="0" style="stop-color:#F09DC1"/>
					<stop  offset="1" style="stop-color:#FFF000;stop-opacity:0"/>
				</linearGradient>
				<path class="st7" d="M159.2-0.3l-37.5,37.5H96.1l37.5-37.5H159.2 M161.6-1.3h-28.3L93.7,38.2h28.3L161.6-1.3z"/>
				
					<linearGradient id="SVGID_9_" gradientUnits="userSpaceOnUse" x1="-51.3" y1="283.71" x2="64.18" y2="283.71" gradientTransform="matrix(1 0 0 -1 0 423.34)">
					<stop  offset="0" style="stop-color:#9ED8F5"/>
					<stop  offset="1" style="stop-color:#FFF000;stop-opacity:0"/>
				</linearGradient>
				<path class="st8" d="M61.8,97.1l-85.1,85.1h-25.5l85.1-85.1H61.8 M64.2,96.1H35.8l-87.1,87.1h28.4L64.2,96.1z"/>
				
					<linearGradient id="SVGID_10_" gradientUnits="userSpaceOnUse" x1="-130.49" y1="196.31" x2="-31.43" y2="196.31" gradientTransform="matrix(1 0 0 -1 0 423.34)">
					<stop  offset="0" style="stop-color:#FFF697"/>
					<stop  offset="1" style="stop-color:#7DCCF3;stop-opacity:0"/>
				</linearGradient>
				<polygon class="st9" points="-59.8,191.7 -130.5,262.4 -102.2,262.4 -31.4,191.7 				"/>
				
					<linearGradient id="SVGID_11_" gradientUnits="userSpaceOnUse" x1="-7.83" y1="416.135" x2="37.58" y2="416.135" gradientTransform="matrix(1 0 0 -1 0 423.34)">
					<stop  offset="0" style="stop-color:#9ED8F5"/>
					<stop  offset="1" style="stop-color:#FFF000;stop-opacity:0"/>
				</linearGradient>
				<polygon class="st10" points="20.5,15.7 37.6,-1.3 9.2,-1.3 -7.8,15.7 				"/>
				<path class="st4" d="M8.6,25.7L-80.7,115h-24.3l89.3-89.3H8.6 M12,24.3h-28.4l-92.2,92.1h28.3L12,24.3L12,24.3z"/>
				<path class="st4" d="M-205,239.3l-21.7,21.7h-24.3l21.7-21.7L-205,239.3 M-201.6,237.9H-230l-24.5,24.5h28.4L-201.6,237.9
					L-201.6,237.9z"/>
				<polygon class="st4" points="-193.1,229.4 -88.6,124.9 -117,124.9 -221.5,229.4 				"/>
				
					<linearGradient id="SVGID_12_" gradientUnits="userSpaceOnUse" x1="244.195" y1="365.62" x2="244.195" y2="440.25" gradientTransform="matrix(1 0 0 -1 0 423.34)">
					<stop  offset="0" style="stop-color:#FFF697"/>
					<stop  offset="1" style="stop-color:#7DCCF3;stop-opacity:0"/>
				</linearGradient>
				<polygon class="st11" points="231.2,53.1 285.6,-1.3 257.2,-1.3 202.8,53.1 				"/>
				
					<linearGradient id="SVGID_13_" gradientUnits="userSpaceOnUse" x1="75.85" y1="302.545" x2="222.69" y2="302.545" gradientTransform="matrix(1 0 0 -1 0 423.34)">
					<stop  offset="0" style="stop-color:#9ED8F5"/>
					<stop  offset="1" style="stop-color:#FFF000;stop-opacity:0"/>
				</linearGradient>
				<polygon class="st12" points="104.2,180 222.7,61.5 194.3,61.5 75.8,180 				"/>
				
					<linearGradient id="SVGID_14_" gradientUnits="userSpaceOnUse" x1="-134.01" y1="92.685" x2="12.83" y2="92.685" gradientTransform="matrix(1 0 0 -1 0 423.34)">
					<stop  offset="0" style="stop-color:#FFF697"/>
					<stop  offset="1" style="stop-color:#7DCCF3;stop-opacity:0"/>
				</linearGradient>
				<polygon class="st13" points="-105.7,389.9 12.8,271.4 -15.5,271.4 -134,389.9 				"/>
				
					<linearGradient id="SVGID_15_" gradientUnits="userSpaceOnUse" x1="-6.49" y1="197.885" x2="95.73" y2="197.885" gradientTransform="matrix(1 0 0 -1 0 423.34)">
					<stop  offset="0" style="stop-color:#9ED8F5"/>
					<stop  offset="1" style="stop-color:#FFF000;stop-opacity:0"/>
				</linearGradient>
				<path class="st14" d="M93.3,189.5l-71.9,71.9H-4.1l71.9-71.9H93.3 M95.7,188.5H67.4l-73.9,73.9h28.4L95.7,188.5L95.7,188.5z"/>
				
					<linearGradient id="SVGID_16_" gradientUnits="userSpaceOnUse" x1="145.12" y1="389.285" x2="244.24" y2="389.285" gradientTransform="matrix(1 0 0 -1 0 423.34)">
					<stop  offset="0" style="stop-color:#FFF57F"/>
					<stop  offset="1" style="stop-color:#F09DC1;stop-opacity:0"/>
				</linearGradient>
				<polygon class="st15" points="173.5,69.4 244.2,-1.3 215.9,-1.3 145.1,69.4 				"/>
				
					<linearGradient id="SVGID_17_" gradientUnits="userSpaceOnUse" x1="79.17" y1="316.69" x2="164.99" y2="316.69" gradientTransform="matrix(1 0 0 -1 0 423.34)">
					<stop  offset="0" style="stop-color:#9ED8F5"/>
					<stop  offset="1" style="stop-color:#FFF000;stop-opacity:0"/>
				</linearGradient>
				<path class="st16" d="M162.6,78.9l-55.5,55.5H81.6l55.5-55.5L162.6,78.9 M165,77.9h-28.3l-57.5,57.5h28.3L165,77.9z"/>
				
					<linearGradient id="SVGID_18_" gradientUnits="userSpaceOnUse" x1="19.68" y1="253.965" x2="99.04" y2="253.965" gradientTransform="matrix(1 0 0 -1 0 423.34)">
					<stop  offset="0" style="stop-color:#9ED8F5"/>
					<stop  offset="1" style="stop-color:#FFF000;stop-opacity:0"/>
				</linearGradient>
				<polygon class="st17" points="48,194.9 99,143.9 70.7,143.9 19.7,194.9 				"/>
				
					<linearGradient id="SVGID_19_" gradientUnits="userSpaceOnUse" x1="-47.83" y1="190.47" x2="39.56" y2="190.47" gradientTransform="matrix(1 0 0 -1 0 423.34)">
					<stop  offset="0" style="stop-color:#FFF000"/>
					<stop  offset="1" style="stop-color:#FFF000;stop-opacity:0"/>
				</linearGradient>
				<polygon class="st18" points="11.2,203.3 -47.8,262.4 -19.5,262.4 39.6,203.3 				"/>
				
					<linearGradient id="SVGID_20_" gradientUnits="userSpaceOnUse" x1="-0.94" y1="398.915" x2="78.92" y2="398.915" gradientTransform="matrix(1 0 0 -1 0 423.34)">
					<stop  offset="0" style="stop-color:#9ED8F5"/>
					<stop  offset="1" style="stop-color:#FFF000;stop-opacity:0"/>
				</linearGradient>
				<path class="st19" d="M76.5-0.3L27,49.2H1.5L51-0.3H76.5 M78.9-1.3H50.6L-0.9,50.2h28.3L78.9-1.3L78.9-1.3z"/>
				<path class="st4" d="M-97.5,173.1l-87.9,87.9h-24.3l87.9-87.9L-97.5,173.1 M-94.1,171.6h-28.3l-90.8,90.7h28.4L-94.1,171.6
					L-94.1,171.6z"/>
				
					<linearGradient id="SVGID_21_" gradientUnits="userSpaceOnUse" x1="-113.94" y1="312.43" x2="18.93" y2="312.43" gradientTransform="matrix(1 0 0 -1 0 423.34)">
					<stop  offset="0" style="stop-color:#FFF57F"/>
					<stop  offset="1" style="stop-color:#F09DC1;stop-opacity:0"/>
				</linearGradient>
				<polygon class="st20" points="-85.6,163.2 18.9,58.6 -9.4,58.6 -113.9,163.2 				"/>
				
					<linearGradient id="SVGID_22_" gradientUnits="userSpaceOnUse" x1="-38.49" y1="231.61" x2="29.86" y2="231.61" gradientTransform="matrix(1 0 0 -1 0 423.34)">
					<stop  offset="0" style="stop-color:#FFF697"/>
					<stop  offset="1" style="stop-color:#7DCCF3;stop-opacity:0"/>
				</linearGradient>
				<path class="st21" d="M27.4,172.7l-38,38h-25.5l38-38H27.4 M29.8,171.7H1.5l-40,40h28.4L29.8,171.7L29.8,171.7z"/>
				
					<linearGradient id="SVGID_23_" gradientUnits="userSpaceOnUse" x1="157.49" y1="416.135" x2="202.9" y2="416.135" gradientTransform="matrix(1 0 0 -1 0 423.34)">
					<stop  offset="0" style="stop-color:#FFF697"/>
					<stop  offset="1" style="stop-color:#7DCCF3;stop-opacity:0"/>
				</linearGradient>
				<polygon class="st22" points="185.8,15.7 202.9,-1.3 174.6,-1.3 157.5,15.7 				"/>
				
					<linearGradient id="SVGID_24_" gradientUnits="userSpaceOnUse" x1="-89.16" y1="182.035" x2="-18.65" y2="182.035" gradientTransform="matrix(1 0 0 -1 0 423.34)">
					<stop  offset="0" style="stop-color:#FFF57F"/>
					<stop  offset="1" style="stop-color:#F09DC1;stop-opacity:0"/>
				</linearGradient>
				<polygon class="st23" points="-89.2,262.4 -60.8,262.4 -18.7,220.2 -47,220.2 				"/>
				
					<linearGradient id="SVGID_25_" gradientUnits="userSpaceOnUse" x1="56.09" y1="352.67" x2="177.36" y2="352.67" gradientTransform="matrix(1 0 0 -1 0 423.34)">
					<stop  offset="0" style="stop-color:#FFF57F"/>
					<stop  offset="1" style="stop-color:#F09DC1;stop-opacity:0"/>
				</linearGradient>
				<polygon class="st24" points="149,24.2 56.1,117.1 84.4,117.1 177.4,24.2 				"/>
				
					<linearGradient id="SVGID_26_" gradientUnits="userSpaceOnUse" x1="9.97" y1="278.91" x2="75.97" y2="278.91" gradientTransform="matrix(1 0 0 -1 0 423.34)">
					<stop  offset="0" style="stop-color:#9ED8F5"/>
					<stop  offset="1" style="stop-color:#FFF000;stop-opacity:0"/>
				</linearGradient>
				<polygon class="st25" points="10,163.3 38.3,163.3 76,125.6 47.6,125.6 				"/>
				
					<linearGradient id="SVGID_27_" gradientUnits="userSpaceOnUse" x1="384.6049" y1="285.77" x2="384.6049" y2="376.68" gradientTransform="matrix(1 0 0 -1 0 423.34)">
					<stop  offset="0" style="stop-color:#F09DC1"/>
					<stop  offset="1" style="stop-color:#FFF000;stop-opacity:0"/>
				</linearGradient>
				<polygon class="st26" points="415.9,46.7 325,137.6 353.3,137.6 444.2,46.7 				"/>
				<path class="st4" d="M421.9,25.7l-35.8,35.8h-24.3l35.8-35.8H421.9 M425.4,24.3H397l-38.7,38.6h28.3L425.4,24.3L425.4,24.3z"/>
				<polygon class="st4" points="487.2,86.4 458.8,86.4 399.2,146.1 427.5,146.1 				"/>
				
					<linearGradient id="SVGID_28_" gradientUnits="userSpaceOnUse" x1="195.27" y1="113.23" x2="303.28" y2="113.23" gradientTransform="matrix(1 0 0 -1 0 423.34)">
					<stop  offset="0" style="stop-color:#FFF57F"/>
					<stop  offset="1" style="stop-color:#F09DC1;stop-opacity:0"/>
				</linearGradient>
				<polygon class="st27" points="303.3,270.3 274.9,270.3 195.3,349.9 223.6,349.9 				"/>
				<polygon class="st4" points="495.7,77.9 574.9,-1.3 546.5,-1.3 467.3,77.9 				"/>
				<path class="st4" d="M612.8,0.1L483.2,129.7h-24.3L588.5,0.1H612.8 M616.2-1.3h-28.4L455.4,131.2h28.3L616.2-1.3z"/>
				
					<linearGradient id="SVGID_29_" gradientUnits="userSpaceOnUse" x1="134.05" y1="282.06" x2="206.22" y2="282.06" gradientTransform="matrix(1 0 0 -1 0 423.34)">
					<stop  offset="0" style="stop-color:#F09DC1"/>
					<stop  offset="1" style="stop-color:#FFF000;stop-opacity:0"/>
				</linearGradient>
				<path class="st28" d="M203.8,120.4L162,162.2h-25.5l41.8-41.8H203.8 M206.2,119.4h-28.4l-43.8,43.8h28.4L206.2,119.4
					L206.2,119.4z"/>
				
					<linearGradient id="SVGID_30_" gradientUnits="userSpaceOnUse" x1="-57.62" y1="90.39" x2="14.51" y2="90.39" gradientTransform="matrix(1 0 0 -1 0 423.34)">
					<stop  offset="0" style="stop-color:#FFF697"/>
					<stop  offset="1" style="stop-color:#7DCCF3;stop-opacity:0"/>
				</linearGradient>
				<polygon class="st29" points="-29.3,354.8 14.5,311.1 -13.8,311.1 -57.6,354.8 				"/>
				<path class="st4" d="M533.4,120.8l-41,41h-24.3l41-41L533.4,120.8 M536.8,119.4h-28.3l-43.8,43.8h28.3L536.8,119.4z"/>
				<polygon class="st4" points="577,50.9 517,110.9 545.3,110.9 605.3,50.9 				"/>
				<polygon class="st4" points="446.9,139.6 383.3,203.3 411.6,203.3 475.3,139.6 				"/>
				<polygon class="st4" points="613.8,42.4 657.5,-1.3 629.2,-1.3 585.5,42.4 				"/>
				
					<linearGradient id="SVGID_31_" gradientUnits="userSpaceOnUse" x1="323.84" y1="277.245" x2="420.08" y2="277.245" gradientTransform="matrix(1 0 0 -1 0 423.34)">
					<stop  offset="0" style="stop-color:#FFF697"/>
					<stop  offset="1" style="stop-color:#7DCCF3;stop-opacity:0"/>
				</linearGradient>
				<polygon class="st30" points="391.7,112.2 323.8,180 352.2,180 420.1,112.2 				"/>
				
					<linearGradient id="SVGID_32_" gradientUnits="userSpaceOnUse" x1="135.62" y1="88.995" x2="231.86" y2="88.995" gradientTransform="matrix(1 0 0 -1 0 423.34)">
					<stop  offset="0" style="stop-color:#9ED8F5"/>
					<stop  offset="1" style="stop-color:#FFF000;stop-opacity:0"/>
				</linearGradient>
				<path class="st31" d="M229.4,301.4l-65.9,65.9H138l65.9-65.9L229.4,301.4 M231.8,300.4h-28.3l-67.9,67.9H164L231.8,300.4
					L231.8,300.4z"/>
				<polygon class="st4" points="412.1,300.4 344.2,368.3 372.6,368.3 440.5,300.4 				"/>
				
					<linearGradient id="SVGID_33_" gradientUnits="userSpaceOnUse" x1="255.05" y1="246.56" x2="344.9" y2="246.56" gradientTransform="matrix(1 0 0 -1 0 423.34)">
					<stop  offset="0" style="stop-color:#F09DC1"/>
					<stop  offset="1" style="stop-color:#FFF000;stop-opacity:0"/>
				</linearGradient>
				<path class="st32" d="M342.4,147.1L283,206.5h-25.5l59.5-59.5H342.4 M344.9,146.1h-28.4l-61.5,61.5h28.4L344.9,146.1
					L344.9,146.1z"/>
				
					<linearGradient id="SVGID_34_" gradientUnits="userSpaceOnUse" x1="119.82" y1="111.34" x2="209.63" y2="111.34" gradientTransform="matrix(1 0 0 -1 0 423.34)">
					<stop  offset="0" style="stop-color:#F09DC1"/>
					<stop  offset="1" style="stop-color:#FFF000;stop-opacity:0"/>
				</linearGradient>
				<path class="st33" d="M207.2,282.3l-59.5,59.5h-25.5l59.5-59.5H207.2 M209.6,281.3h-28.4l-61.5,61.5h28.4L209.6,281.3z"/>
				
					<linearGradient id="SVGID_35_" gradientUnits="userSpaceOnUse" x1="107.33" y1="264.53" x2="280.51" y2="264.53" gradientTransform="matrix(1 0 0 -1 0 423.34)">
					<stop  offset="0" style="stop-color:#9ED8F5"/>
					<stop  offset="1" style="stop-color:#FFF000;stop-opacity:0"/>
				</linearGradient>
				<path class="st34" d="M278.1,87.4L135.3,230.2h-25.5L252.6,87.4H278.1 M280.5,86.4h-28.3L107.3,231.2h28.3L280.5,86.4z"/>
				
					<linearGradient id="SVGID_36_" gradientUnits="userSpaceOnUse" x1="-77.95" y1="79.255" x2="95.24" y2="79.255" gradientTransform="matrix(1 0 0 -1 0 423.34)">
					<stop  offset="0" style="stop-color:#F09DC1"/>
					<stop  offset="1" style="stop-color:#FFF000;stop-opacity:0"/>
				</linearGradient>
				<path class="st35" d="M92.8,272.7L-50,415.5h-25.5L67.3,272.7H92.8 M95.2,271.7H66.9L-78,416.5h28.4L95.2,271.7z"/>
				
					<linearGradient id="SVGID_37_" gradientUnits="userSpaceOnUse" x1="189.25" y1="267.71" x2="287.61" y2="267.71" gradientTransform="matrix(1 0 0 -1 0 423.34)">
					<stop  offset="0" style="stop-color:#9ED8F5"/>
					<stop  offset="1" style="stop-color:#FFF000;stop-opacity:0"/>
				</linearGradient>
				<polygon class="st36" points="259.3,120.6 189.2,190.6 217.6,190.6 287.6,120.6 				"/>
				
					<linearGradient id="SVGID_38_" gradientUnits="userSpaceOnUse" x1="186.31" y1="342.435" x2="274.67" y2="342.435" gradientTransform="matrix(1 0 0 -1 0 423.34)">
					<stop  offset="0" style="stop-color:#FFF697"/>
					<stop  offset="1" style="stop-color:#7DCCF3;stop-opacity:0"/>
				</linearGradient>
				<polygon class="st37" points="246.3,50.9 186.3,110.9 214.7,110.9 274.7,50.9 				"/>
				
					<linearGradient id="SVGID_39_" gradientUnits="userSpaceOnUse" x1="-4.25" y1="131.87" x2="44.1" y2="131.87" gradientTransform="matrix(1 0 0 -1 0 423.34)">
					<stop  offset="0" style="stop-color:#F09DC1"/>
					<stop  offset="1" style="stop-color:#FFF000;stop-opacity:0"/>
				</linearGradient>
				<path class="st38" d="M41.7,282.5l-18,18H-1.8l18-18H41.7 M44.1,281.5H15.7l-20,20h28.4L44.1,281.5L44.1,281.5z"/>
				
					<linearGradient id="SVGID_40_" gradientUnits="userSpaceOnUse" x1="257.96" y1="306.03" x2="378.2" y2="306.03" gradientTransform="matrix(1 0 0 -1 0 423.34)">
					<stop  offset="0" style="stop-color:#FFF697"/>
					<stop  offset="1" style="stop-color:#7DCCF3;stop-opacity:0"/>
				</linearGradient>
				<path class="st39" d="M375.8,72.4l-89.9,89.9h-25.5l89.9-89.9H375.8 M378.2,71.4h-28.3L258,163.2h28.3L378.2,71.4z"/>
				
					<linearGradient id="SVGID_41_" gradientUnits="userSpaceOnUse" x1="37.84" y1="85.905" x2="158.08" y2="85.905" gradientTransform="matrix(1 0 0 -1 0 423.34)">
					<stop  offset="0" style="stop-color:#FFF697"/>
					<stop  offset="1" style="stop-color:#7DCCF3;stop-opacity:0"/>
				</linearGradient>
				<polygon class="st40" points="158.1,291.5 129.7,291.5 37.8,383.4 66.2,383.4 				"/>
				
					<linearGradient id="SVGID_42_" gradientUnits="userSpaceOnUse" x1="211.49" y1="182.89" x2="343.71" y2="182.89" gradientTransform="matrix(1 0 0 -1 0 423.34)">
					<stop  offset="0" style="stop-color:#9ED8F5"/>
					<stop  offset="1" style="stop-color:#FFF000;stop-opacity:0"/>
				</linearGradient>
				<polygon class="st41" points="315.4,188.5 211.5,292.4 239.8,292.4 343.7,188.5 				"/>
				
					<linearGradient id="SVGID_43_" gradientUnits="userSpaceOnUse" x1="190.16" y1="179.155" x2="274.91" y2="179.155" gradientTransform="matrix(1 0 0 -1 0 423.34)">
					<stop  offset="0" style="stop-color:#FFF57F"/>
					<stop  offset="1" style="stop-color:#F09DC1;stop-opacity:0"/>
				</linearGradient>
				<polygon class="st42" points="246.6,216 190.2,272.4 218.5,272.4 274.9,216 				"/>
				
					<linearGradient id="SVGID_44_" gradientUnits="userSpaceOnUse" x1="138.82" y1="196.28" x2="277.84" y2="196.28" gradientTransform="matrix(1 0 0 -1 0 423.34)">
					<stop  offset="0" style="stop-color:#FFF697"/>
					<stop  offset="1" style="stop-color:#7DCCF3;stop-opacity:0"/>
				</linearGradient>
				<polygon class="st43" points="249.5,171.7 138.8,282.4 167.2,282.4 277.8,171.7 				"/>
				
					<linearGradient id="SVGID_45_" gradientUnits="userSpaceOnUse" x1="77.49" y1="172.585" x2="209.12" y2="172.585" gradientTransform="matrix(1 0 0 -1 0 423.34)">
					<stop  offset="0" style="stop-color:#F09DC1"/>
					<stop  offset="1" style="stop-color:#FFF000;stop-opacity:0"/>
				</linearGradient>
				<polygon class="st44" points="180.8,199.1 77.5,302.4 105.8,302.4 209.1,199.1 				"/>
				
					<linearGradient id="SVGID_46_" gradientUnits="userSpaceOnUse" x1="365.48" y1="206.32" x2="484.58" y2="206.32" gradientTransform="matrix(1 0 0 -1 0 423.34)">
					<stop  offset="0" style="stop-color:#FFF000"/>
					<stop  offset="1" style="stop-color:#FFF000;stop-opacity:0"/>
				</linearGradient>
				<polygon class="st45" points="456.2,171.6 365.5,262.4 393.8,262.4 484.6,171.6 				"/>
				
					<linearGradient id="SVGID_47_" gradientUnits="userSpaceOnUse" x1="267.93" y1="108.775" x2="387.03" y2="108.775" gradientTransform="matrix(1 0 0 -1 0 423.34)">
					<stop  offset="0" style="stop-color:#F09DC1"/>
					<stop  offset="1" style="stop-color:#FFF000;stop-opacity:0"/>
				</linearGradient>
				<polygon class="st46" points="358.7,269.2 267.9,359.9 296.3,359.9 387,269.2 				"/>
				<path class="st4" d="M530.1,0.1L428,102.3h-24.3L505.8,0.1H530.1 M533.6-1.3h-28.3l-105,105h28.3L533.6-1.3z"/>
				
					<linearGradient id="SVGID_48_" gradientUnits="userSpaceOnUse" x1="282.82" y1="214.885" x2="419.04" y2="214.885" gradientTransform="matrix(1 0 0 -1 0 423.34)">
					<stop  offset="0" style="stop-color:#9ED8F5"/>
					<stop  offset="1" style="stop-color:#FFF000;stop-opacity:0"/>
				</linearGradient>
				<path class="st47" d="M416.6,155.5L310.8,261.4h-25.5l105.9-105.9H416.6 M419,154.5h-28.4L282.8,262.4h28.3L419,154.5z"/>
				
					<linearGradient id="SVGID_49_" gradientUnits="userSpaceOnUse" x1="274.15" y1="161.265" x2="403.14" y2="161.265" gradientTransform="matrix(1 0 0 -1 0 423.34)">
					<stop  offset="0" style="stop-color:#FFF697"/>
					<stop  offset="1" style="stop-color:#7DCCF3;stop-opacity:0"/>
				</linearGradient>
				<polygon class="st48" points="374.8,211.8 274.2,312.4 302.5,312.4 403.1,211.8 				"/>
				
					<linearGradient id="SVGID_50_" gradientUnits="userSpaceOnUse" x1="166.95" y1="54.07" x2="295.95" y2="54.07" gradientTransform="matrix(1 0 0 -1 0 423.34)">
					<stop  offset="0" style="stop-color:#F09DC1"/>
					<stop  offset="1" style="stop-color:#FFF000;stop-opacity:0"/>
				</linearGradient>
				<path class="st49" d="M293.5,320l-98.7,98.6h-25.5l98.7-98.6L293.5,320 M295.9,318.9h-28.3L166.9,419.6h28.4L295.9,318.9
					L295.9,318.9z"/>
				<polygon class="st4" points="433.8,15.7 450.9,-1.3 422.5,-1.3 405.5,15.7 				"/>
				
					<linearGradient id="SVGID_51_" gradientUnits="userSpaceOnUse" x1="267.74" y1="367.93" x2="409.56" y2="367.93" gradientTransform="matrix(1 0 0 -1 0 423.34)">
					<stop  offset="0" style="stop-color:#9ED8F5"/>
					<stop  offset="1" style="stop-color:#FFF000;stop-opacity:0"/>
				</linearGradient>
				<path class="st50" d="M407.2-0.3L295.7,111.2h-25.5L381.6-0.3H407.2 M409.6-1.3h-28.3L267.7,112.2h28.3L409.6-1.3z"/>
				
					<linearGradient id="SVGID_52_" gradientUnits="userSpaceOnUse" x1="-43.13" y1="57.06" x2="98.69" y2="57.06" gradientTransform="matrix(1 0 0 -1 0 423.34)">
					<stop  offset="0" style="stop-color:#9ED8F5"/>
					<stop  offset="1" style="stop-color:#FFF000;stop-opacity:0"/>
				</linearGradient>
				<path class="st51" d="M96.3,310.5L-15.2,422h-25.5L70.8,310.5H96.3 M98.7,309.5H70.3L-43.1,423h28.3L98.7,309.5z"/>
				<polygon class="st4" points="452.7,38.2 492.2,-1.3 463.9,-1.3 424.4,38.2 				"/>
				
					<linearGradient id="SVGID_53_" gradientUnits="userSpaceOnUse" x1="24.83" y1="201.32" x2="153.92" y2="201.32" gradientTransform="matrix(1 0 0 -1 0 423.34)">
					<stop  offset="0" style="stop-color:#FFF57F"/>
					<stop  offset="1" style="stop-color:#F09DC1;stop-opacity:0"/>
				</linearGradient>
				<polygon class="st52" points="125.6,171.6 24.8,272.4 53.2,272.4 153.9,171.6 				"/>
				
					<linearGradient id="SVGID_54_" gradientUnits="userSpaceOnUse" x1="76.16" y1="172.295" x2="127.2" y2="172.295" gradientTransform="matrix(1 0 0 -1 0 423.34)">
					<stop  offset="0" style="stop-color:#FFF57F"/>
					<stop  offset="1" style="stop-color:#F09DC1;stop-opacity:0"/>
				</linearGradient>
				<polygon class="st53" points="98.8,239.7 76.2,262.4 104.5,262.4 127.2,239.7 				"/>
				
					<linearGradient id="SVGID_55_" gradientUnits="userSpaceOnUse" x1="254.8" y1="402.79" x2="326.92" y2="402.79" gradientTransform="matrix(1 0 0 -1 0 423.34)">
					<stop  offset="0" style="stop-color:#9ED8F5"/>
					<stop  offset="1" style="stop-color:#FFF000;stop-opacity:0"/>
				</linearGradient>
				<path class="st54" d="M324.5-0.3l-41.8,41.8h-25.5L299-0.3H324.5 M326.9-1.3h-28.4l-43.7,43.8h28.3L326.9-1.3L326.9-1.3z"/>
				
					<linearGradient id="SVGID_56_" gradientUnits="userSpaceOnUse" x1="260.64" y1="385.05" x2="368.23" y2="385.05" gradientTransform="matrix(1 0 0 -1 0 423.34)">
					<stop  offset="0" style="stop-color:#9ED8F5"/>
					<stop  offset="1" style="stop-color:#FFF000;stop-opacity:0"/>
				</linearGradient>
				<polygon class="st55" points="289,77.9 368.2,-1.3 339.9,-1.3 260.6,77.9 				"/>
				<path class="st4" d="M608.3,87.8l-142,142h-24.3l142-142H608.3 M611.7,86.4h-28.3L438.5,231.2h28.3L611.7,86.4z"/>
				
					<linearGradient id="SVGID_57_" gradientUnits="userSpaceOnUse" x1="253.22" y1="79.255" x2="426.45" y2="79.255" gradientTransform="matrix(1 0 0 -1 0 423.34)">
					<stop  offset="0" style="stop-color:#F09DC1"/>
					<stop  offset="1" style="stop-color:#FFF000;stop-opacity:0"/>
				</linearGradient>
				<path class="st56" d="M424,272.7L281.2,415.5h-25.5l142.9-142.8H424 M426.5,271.7h-28.4L253.2,416.5h28.4L426.5,271.7
					L426.5,271.7z"/>
				<polygon class="st4" points="430,239.7 407.3,262.4 435.7,262.4 458.4,239.7 				"/>
				<polygon class="st4" points="620.2,77.9 699.4,-1.3 671,-1.3 591.8,77.9 				"/>
			</g>
		</g>
	</g>
</g>
</svg>
