<?xml version="1.0" encoding="utf-8"?>
<!-- Generator: Adobe Illustrator 23.1.0, SVG Export Plug-In . SVG Version: 6.00 Build 0)  -->
<svg version="1.1" id="レイヤー_1" xmlns="http://www.w3.org/2000/svg" xmlns:xlink="http://www.w3.org/1999/xlink" x="0px"
	 y="0px" viewBox="0 0 167.6 93" style="enable-background:new 0 0 167.6 93;" xml:space="preserve">
<style type="text/css">
	.st0{fill:#0067D8;}
	.st1{fill:#FFFFFF;}
</style>
<g>
	<title>アートボード 1</title>
	<g>
		<g>
			<g>
				<path class="st0" d="M53.8,3.6C53.8,3.6,53.8,3.6,53.8,3.6L53.8,3c0,0,0-0.1,0.1-0.1h0.6c0,0,0.1,0,0.1,0.1v0.5
					c0,0,0,0.1-0.1,0.1H53.8z M53.8,7.1C53.8,7.1,53.8,7,53.8,7.1l-0.1-2.8c0,0,0-0.1,0.1-0.1h0.6c0,0,0.1,0,0.1,0.1V7
					c0,0,0,0.1-0.1,0.1H53.8z"/>
				<path class="st0" d="M55.5,7.1C55.4,7.1,55.4,7,55.5,7.1l-0.1-2.8c0,0,0-0.1,0.1-0.1H56c0,0,0.1,0,0.1,0.1v0.2h0
					c0.1-0.1,0.2-0.2,0.3-0.3c0.1-0.1,0.3-0.1,0.5-0.1c0.1,0,0.2,0,0.3,0.1c0.1,0,0.2,0.1,0.3,0.2c0,0,0,0.1,0,0.1l-0.3,0.4
					c0,0-0.1,0-0.1,0c-0.1,0-0.1-0.1-0.2-0.1c-0.1,0-0.1,0-0.2,0c-0.2,0-0.3,0.1-0.4,0.2s-0.1,0.3-0.1,0.5V7c0,0,0,0.1-0.1,0.1H55.5
					z"/>
				<path class="st0" d="M60,7.1C59.9,7.1,59.9,7,60,7.1l-0.1-0.3h0C59.8,6.9,59.7,7,59.6,7c-0.1,0.1-0.3,0.1-0.5,0.1
					c-0.2,0-0.3,0-0.4-0.1c-0.1-0.1-0.2-0.1-0.3-0.2c-0.1-0.1-0.2-0.2-0.2-0.3s-0.1-0.3-0.1-0.4V4.2c0,0,0-0.1,0.1-0.1h0.6
					c0,0,0.1,0,0.1,0.1v1.7c0,0.2,0,0.3,0.1,0.5s0.2,0.2,0.4,0.2c0.2,0,0.3-0.1,0.4-0.2c0.1-0.1,0.1-0.3,0.1-0.5V4.2
					c0,0,0-0.1,0.1-0.1h0.6c0,0,0.1,0,0.1,0.1V7c0,0,0,0.1-0.1,0.1H60z"/>
				<path class="st0" d="M62.7,7.1c-0.3,0-0.5-0.1-0.8-0.2c-0.2-0.1-0.4-0.3-0.4-0.6c-0.1-0.2-0.1-0.4-0.1-0.7s0-0.5,0.1-0.7
					c0.1-0.3,0.2-0.5,0.4-0.6c0.2-0.1,0.5-0.2,0.8-0.2c0.2,0,0.4,0,0.6,0.1s0.3,0.2,0.4,0.3c0,0,0,0.1,0,0.1L63.3,5c0,0-0.1,0-0.1,0
					c-0.1-0.1-0.1-0.1-0.2-0.2s-0.2-0.1-0.3-0.1c-0.1,0-0.2,0-0.3,0.1c-0.1,0.1-0.2,0.2-0.2,0.3c0,0.1,0,0.2,0,0.2
					c0,0.1,0,0.2,0,0.3c0,0.1,0,0.2,0,0.3c0,0.1,0,0.2,0,0.2c0,0.1,0.1,0.2,0.2,0.3c0.1,0.1,0.2,0.1,0.3,0.1c0.1,0,0.2,0,0.3-0.1
					s0.2-0.1,0.2-0.2c0,0,0.1,0,0.1,0l0.4,0.3c0,0,0,0,0,0.1c-0.1,0.1-0.3,0.2-0.4,0.3S62.9,7.1,62.7,7.1z"/>
				<path class="st0" d="M66.3,7.1C66.3,7.1,66.2,7,66.3,7.1l-0.1-0.3h0C66.2,6.9,66.1,7,65.9,7c-0.1,0.1-0.3,0.1-0.5,0.1
					c-0.1,0-0.3,0-0.4-0.1c-0.1,0-0.2-0.1-0.3-0.2c-0.1-0.1-0.2-0.2-0.2-0.3s-0.1-0.2-0.1-0.4c0-0.3,0.1-0.5,0.3-0.7
					c0.2-0.1,0.5-0.2,0.8-0.2h0.6c0,0,0,0,0,0V5.2c0-0.2,0-0.3-0.1-0.4c-0.1-0.1-0.3-0.1-0.5-0.1c-0.2,0-0.3,0-0.4,0.1
					S65,4.8,64.9,4.9c0,0-0.1,0-0.1,0l-0.2-0.4c0,0,0-0.1,0-0.1c0.1-0.1,0.3-0.2,0.4-0.2s0.4-0.1,0.6-0.1c0.4,0,0.8,0.1,0.9,0.2
					c0.2,0.2,0.3,0.4,0.3,0.8V7c0,0,0,0.1-0.1,0.1H66.3z M65.6,6.6c0.2,0,0.4,0,0.5-0.1s0.2-0.2,0.2-0.4V5.9c0,0,0,0,0,0h-0.5
					c-0.2,0-0.4,0-0.5,0.1c-0.1,0.1-0.1,0.2-0.1,0.3C65.1,6.5,65.3,6.6,65.6,6.6z"/>
				<path class="st0" d="M67.9,3.6C67.9,3.6,67.8,3.6,67.9,3.6L67.8,3c0,0,0-0.1,0.1-0.1h0.6c0,0,0.1,0,0.1,0.1v0.5
					c0,0,0,0.1-0.1,0.1H67.9z M67.9,7.1C67.9,7.1,67.8,7,67.9,7.1l-0.1-2.8c0,0,0-0.1,0.1-0.1h0.6c0,0,0.1,0,0.1,0.1V7
					c0,0,0,0.1-0.1,0.1H67.9z"/>
				<path class="st0" d="M70.6,7.1c-0.3,0-0.5-0.1-0.8-0.2c-0.2-0.1-0.4-0.3-0.4-0.6c-0.1-0.2-0.1-0.4-0.1-0.7s0-0.5,0.1-0.7
					c0.1-0.3,0.2-0.5,0.4-0.6c0.2-0.1,0.5-0.2,0.8-0.2c0.2,0,0.4,0,0.6,0.1s0.3,0.2,0.4,0.3c0,0,0,0.1,0,0.1L71.3,5c0,0-0.1,0-0.1,0
					c-0.1-0.1-0.1-0.1-0.2-0.2s-0.2-0.1-0.3-0.1c-0.1,0-0.2,0-0.3,0.1c-0.1,0.1-0.2,0.2-0.2,0.3c0,0.1,0,0.2,0,0.2
					c0,0.1,0,0.2,0,0.3c0,0.1,0,0.2,0,0.3c0,0.1,0,0.2,0,0.2c0,0.1,0.1,0.2,0.2,0.3c0.1,0.1,0.2,0.1,0.3,0.1c0.1,0,0.2,0,0.3-0.1
					s0.2-0.1,0.2-0.2c0,0,0.1,0,0.1,0l0.4,0.3c0,0,0,0,0,0.1c-0.1,0.1-0.3,0.2-0.4,0.3S70.9,7.1,70.6,7.1z"/>
				<path class="st0" d="M73.6,7.1c-0.3,0-0.6-0.1-0.8-0.2c-0.2-0.1-0.4-0.3-0.4-0.6c0-0.1-0.1-0.2-0.1-0.3c0-0.1,0-0.2,0-0.4
					c0-0.2,0-0.3,0-0.4c0-0.1,0-0.2,0.1-0.3c0.1-0.3,0.2-0.4,0.4-0.6c0.2-0.1,0.5-0.2,0.7-0.2c0.3,0,0.6,0.1,0.8,0.2
					c0.2,0.1,0.3,0.3,0.4,0.6c0,0.1,0,0.1,0,0.2s0,0.1,0,0.2c0,0.1,0,0.1,0,0.2s0,0.2,0,0.3c0,0,0,0.1-0.1,0.1H73c0,0,0,0,0,0
					c0,0,0,0.1,0,0.1s0,0.1,0,0.1c0.1,0.3,0.3,0.4,0.6,0.4c0.2,0,0.3,0,0.4-0.1c0.1-0.1,0.2-0.1,0.3-0.2c0,0,0.1,0,0.1,0l0.4,0.3
					c0,0,0,0.1,0,0.1c-0.1,0.1-0.3,0.3-0.5,0.4S73.9,7.1,73.6,7.1z M74.2,5.3c0-0.1,0-0.2,0-0.2c0-0.1-0.1-0.2-0.2-0.3
					s-0.2-0.1-0.4-0.1c-0.1,0-0.3,0-0.4,0.1S73.1,4.9,73,5c0,0.1,0,0.2,0,0.2c0,0,0,0,0,0L74.2,5.3C74.2,5.3,74.2,5.3,74.2,5.3z"/>
			</g>
		</g>
		<g>
			<g>
				<path class="st0" d="M91.8,8.1C91.7,8.1,91.7,8.1,91.8,8.1l-0.1-3.9c0,0,0-0.1,0.1-0.1h0.6c0,0,0.1,0,0.1,0.1v0.2h0
					c0.1-0.1,0.2-0.2,0.3-0.2c0.1-0.1,0.3-0.1,0.5-0.1c0.2,0,0.5,0.1,0.6,0.2s0.3,0.3,0.4,0.5c0,0.1,0.1,0.2,0.1,0.3s0,0.3,0,0.5
					c0,0.2,0,0.4,0,0.5c0,0.1,0,0.2-0.1,0.3C94.1,6.7,94,6.8,93.8,7c-0.2,0.1-0.4,0.2-0.6,0.2c-0.2,0-0.4,0-0.5-0.1
					c-0.1-0.1-0.2-0.1-0.3-0.2h0v1.3c0,0,0,0.1-0.1,0.1H91.8z M93,6.5c0.3,0,0.5-0.1,0.5-0.4c0-0.1,0-0.1,0-0.2s0-0.2,0-0.3
					s0-0.2,0-0.3s0-0.2,0-0.2c-0.1-0.2-0.3-0.4-0.5-0.4c-0.3,0-0.5,0.1-0.5,0.4c0,0.1,0,0.1,0,0.2s0,0.2,0,0.3s0,0.2,0,0.3
					s0,0.2,0,0.2C92.5,6.4,92.7,6.5,93,6.5z"/>
				<path class="st0" d="M96.3,7.1c-0.3,0-0.5-0.1-0.8-0.2c-0.2-0.1-0.4-0.3-0.4-0.6C95.1,6.2,95,6.1,95,6c0-0.1,0-0.2,0-0.4
					c0-0.2,0-0.3,0-0.4c0-0.1,0-0.2,0.1-0.3c0.1-0.3,0.2-0.4,0.4-0.6c0.2-0.1,0.5-0.2,0.8-0.2c0.3,0,0.5,0.1,0.8,0.2
					s0.4,0.3,0.4,0.6c0,0.1,0.1,0.2,0.1,0.3c0,0.1,0,0.2,0,0.4c0,0.2,0,0.3,0,0.4c0,0.1,0,0.2-0.1,0.3c-0.1,0.3-0.2,0.4-0.4,0.6
					C96.8,7.1,96.6,7.1,96.3,7.1z M96.3,6.5c0.1,0,0.2,0,0.3-0.1c0.1-0.1,0.2-0.2,0.2-0.3c0-0.1,0-0.2,0-0.2c0-0.1,0-0.2,0-0.3
					s0-0.2,0-0.3s0-0.2,0-0.2c0-0.1-0.1-0.2-0.2-0.3c-0.1-0.1-0.2-0.1-0.3-0.1c-0.1,0-0.3,0-0.3,0.1c-0.1,0.1-0.2,0.2-0.2,0.3
					c0,0.1,0,0.2,0,0.2c0,0.1,0,0.2,0,0.3s0,0.2,0,0.3c0,0.1,0,0.2,0,0.2c0,0.1,0.1,0.2,0.2,0.3C96,6.5,96.1,6.5,96.3,6.5z"/>
				<path class="st0" d="M99.2,7.1c-0.3,0-0.5-0.1-0.6-0.2s-0.2-0.3-0.2-0.6V3c0,0,0-0.1,0.1-0.1H99c0,0,0.1,0,0.1,0.1v3.2
					c0,0.1,0,0.2,0.1,0.2s0.1,0.1,0.2,0.1h0.1c0,0,0.1,0,0.1,0.1V7c0,0,0,0.1-0.1,0.1H99.2z"/>
				<path class="st0" d="M100.3,8.1C100.3,8.1,100.3,8.1,100.3,8.1l-0.1-0.5c0,0,0-0.1,0.1-0.1h0.1c0.1,0,0.2,0,0.3-0.1
					c0.1-0.1,0.1-0.1,0.2-0.3L101,7l-1.1-2.7c0,0,0-0.1,0-0.1h0.6c0,0,0.1,0,0.1,0.1l0.7,1.9h0l0.6-1.9c0,0,0-0.1,0.1-0.1h0.6
					c0,0,0.1,0,0,0.1l-1.1,3c-0.1,0.2-0.1,0.3-0.2,0.4c-0.1,0.1-0.1,0.2-0.2,0.3c-0.1,0.1-0.2,0.1-0.3,0.2s-0.2,0-0.3,0H100.3z"/>
				<path class="st0" d="M104.3,7.1c-0.3,0-0.5,0-0.8-0.1s-0.4-0.2-0.5-0.3c0,0,0-0.1,0-0.1l0.3-0.4c0,0,0.1,0,0.1,0
					c0.1,0.1,0.2,0.2,0.4,0.2c0.2,0.1,0.3,0.1,0.5,0.1c0.2,0,0.3,0,0.4-0.1c0.1-0.1,0.1-0.1,0.1-0.2c0-0.1,0-0.2-0.1-0.2
					c-0.1-0.1-0.2-0.1-0.4-0.1l-0.3,0c-0.3,0-0.5-0.1-0.7-0.3c-0.1-0.1-0.2-0.3-0.2-0.6c0-0.3,0.1-0.5,0.3-0.7
					c0.2-0.2,0.5-0.2,0.8-0.2c0.2,0,0.4,0,0.6,0.1c0.2,0.1,0.3,0.2,0.5,0.3c0,0,0,0.1,0,0.1l-0.3,0.4c0,0-0.1,0-0.1,0
					c-0.1-0.1-0.2-0.1-0.3-0.2c-0.1,0-0.3-0.1-0.4-0.1c-0.1,0-0.3,0-0.3,0.1c-0.1,0.1-0.1,0.1-0.1,0.2c0,0.1,0,0.2,0.1,0.2
					c0.1,0,0.2,0.1,0.4,0.1l0.3,0c0.3,0,0.5,0.1,0.7,0.3c0.1,0.1,0.2,0.3,0.2,0.6c0,0.3-0.1,0.5-0.3,0.7S104.7,7.1,104.3,7.1z"/>
				<path class="st0" d="M108.2,7.1C108.2,7.1,108.1,7,108.2,7.1l-0.1-1.7c0-0.2,0-0.3-0.1-0.5c-0.1-0.1-0.2-0.2-0.4-0.2
					c-0.2,0-0.3,0.1-0.4,0.2c-0.1,0.1-0.1,0.3-0.1,0.5V7c0,0,0,0.1-0.1,0.1h-0.6c0,0-0.1,0-0.1-0.1V3c0,0,0-0.1,0.1-0.1h0.6
					c0,0,0.1,0,0.1,0.1v1.4h0c0.1-0.1,0.2-0.2,0.3-0.2c0.1-0.1,0.3-0.1,0.5-0.1c0.2,0,0.3,0,0.4,0.1s0.2,0.1,0.3,0.2
					c0.1,0.1,0.2,0.2,0.2,0.3c0,0.1,0.1,0.3,0.1,0.4V7c0,0,0,0.1-0.1,0.1H108.2z"/>
				<path class="st0" d="M111.5,7.1C111.4,7.1,111.4,7,111.5,7.1l-0.1-0.3h0c-0.1,0.1-0.2,0.2-0.3,0.2c-0.1,0.1-0.3,0.1-0.5,0.1
					c-0.1,0-0.3,0-0.4-0.1c-0.1,0-0.2-0.1-0.3-0.2c-0.1-0.1-0.2-0.2-0.2-0.3s-0.1-0.2-0.1-0.4c0-0.3,0.1-0.5,0.3-0.7
					c0.2-0.1,0.5-0.2,0.8-0.2h0.6c0,0,0,0,0,0V5.2c0-0.2,0-0.3-0.1-0.4c-0.1-0.1-0.3-0.1-0.5-0.1c-0.2,0-0.3,0-0.4,0.1
					s-0.2,0.1-0.3,0.1c0,0-0.1,0-0.1,0l-0.2-0.4c0,0,0-0.1,0-0.1c0.1-0.1,0.3-0.2,0.4-0.2s0.4-0.1,0.6-0.1c0.4,0,0.8,0.1,0.9,0.2
					c0.2,0.2,0.3,0.4,0.3,0.8V7c0,0,0,0.1-0.1,0.1H111.5z M110.8,6.6c0.2,0,0.4,0,0.5-0.1s0.2-0.2,0.2-0.4V5.9c0,0,0,0,0,0h-0.5
					c-0.2,0-0.4,0-0.5,0.1c-0.1,0.1-0.1,0.2-0.1,0.3C110.3,6.5,110.4,6.6,110.8,6.6z"/>
			</g>
		</g>
		<g>
			<g>
				<path class="st0" d="M53.9,20.8C53.8,20.8,53.8,20.8,53.9,20.8l-0.1-0.5c0,0,0-0.1,0.1-0.1H54c0.1,0,0.2,0,0.3-0.1
					c0.1-0.1,0.1-0.1,0.2-0.3l0.1-0.2l-1.1-2.7c0,0,0-0.1,0-0.1h0.6c0,0,0.1,0,0.1,0.1l0.7,1.9h0l0.6-1.9c0,0,0-0.1,0.1-0.1h0.6
					c0,0,0.1,0,0,0.1l-1.1,3c-0.1,0.2-0.1,0.3-0.2,0.4c-0.1,0.1-0.1,0.2-0.2,0.3c-0.1,0.1-0.2,0.1-0.3,0.2s-0.2,0-0.3,0H53.9z"/>
				<path class="st0" d="M57.9,19.8c-0.3,0-0.5-0.1-0.8-0.2c-0.2-0.1-0.4-0.3-0.4-0.6c0-0.1-0.1-0.2-0.1-0.3c0-0.1,0-0.2,0-0.4
					c0-0.2,0-0.3,0-0.4c0-0.1,0-0.2,0.1-0.3c0.1-0.3,0.2-0.4,0.4-0.6c0.2-0.1,0.5-0.2,0.8-0.2c0.3,0,0.5,0.1,0.8,0.2
					s0.4,0.3,0.4,0.6c0,0.1,0.1,0.2,0.1,0.3c0,0.1,0,0.2,0,0.4c0,0.2,0,0.3,0,0.4c0,0.1,0,0.2-0.1,0.3c-0.1,0.3-0.2,0.4-0.4,0.6
					C58.5,19.7,58.2,19.8,57.9,19.8z M57.9,19.2c0.1,0,0.2,0,0.3-0.1c0.1-0.1,0.2-0.2,0.2-0.3c0-0.1,0-0.2,0-0.2c0-0.1,0-0.2,0-0.3
					s0-0.2,0-0.3s0-0.2,0-0.2c0-0.1-0.1-0.2-0.2-0.3c-0.1-0.1-0.2-0.1-0.3-0.1c-0.1,0-0.3,0-0.3,0.1c-0.1,0.1-0.2,0.2-0.2,0.3
					c0,0.1,0,0.2,0,0.2c0,0.1,0,0.2,0,0.3s0,0.2,0,0.3c0,0.1,0,0.2,0,0.2c0,0.1,0.1,0.2,0.2,0.3C57.7,19.2,57.8,19.2,57.9,19.2z"/>
				<path class="st0" d="M61.8,19.7C61.8,19.7,61.8,19.7,61.8,19.7l-0.1-0.3h0c-0.1,0.1-0.2,0.2-0.3,0.2c-0.1,0.1-0.3,0.1-0.5,0.1
					c-0.2,0-0.3,0-0.4-0.1c-0.1-0.1-0.2-0.1-0.3-0.2c-0.1-0.1-0.2-0.2-0.2-0.3S60,18.9,60,18.7v-1.8c0,0,0-0.1,0.1-0.1h0.6
					c0,0,0.1,0,0.1,0.1v1.7c0,0.2,0,0.3,0.1,0.5s0.2,0.2,0.4,0.2c0.2,0,0.3-0.1,0.4-0.2c0.1-0.1,0.1-0.3,0.1-0.5v-1.7
					c0,0,0-0.1,0.1-0.1h0.6c0,0,0.1,0,0.1,0.1v2.8c0,0,0,0.1-0.1,0.1H61.8z"/>
			</g>
		</g>
		<g>
			<g>
				<path class="st0" d="M91.7,18.7c0-0.1,0-0.1-0.1-0.2c0-0.1,0-0.1,0-0.2c0-0.1,0-0.2,0-0.3s0-0.2,0-0.4c0-0.2,0-0.3,0-0.4
					c0-0.1,0-0.2,0-0.3c0-0.1,0-0.2,0-0.2c0-0.1,0-0.1,0.1-0.2c0.1-0.3,0.3-0.6,0.5-0.8c0.2-0.2,0.5-0.2,0.9-0.2
					c0.3,0,0.6,0.1,0.8,0.2s0.4,0.4,0.5,0.6c0,0,0,0.1,0,0.1L94,16.7c0,0-0.1,0-0.1,0c-0.1-0.1-0.2-0.3-0.3-0.4
					c-0.1-0.1-0.3-0.2-0.5-0.2c-0.2,0-0.4,0-0.5,0.1c-0.1,0.1-0.2,0.2-0.3,0.4c0,0,0,0.1,0,0.1s0,0.1,0,0.2c0,0.1,0,0.2,0,0.3
					c0,0.1,0,0.2,0,0.4c0,0.2,0,0.3,0,0.4s0,0.2,0,0.3c0,0.1,0,0.1,0,0.2s0,0.1,0,0.1c0.1,0.2,0.1,0.3,0.3,0.4s0.3,0.1,0.5,0.1
					c0.2,0,0.4-0.1,0.5-0.2c0.1-0.1,0.2-0.2,0.3-0.4c0,0,0-0.1,0.1,0l0.5,0.2c0,0,0,0,0,0.1c-0.1,0.3-0.3,0.5-0.5,0.6
					s-0.5,0.2-0.8,0.2c-0.3,0-0.6-0.1-0.9-0.2S91.8,19,91.7,18.7z"/>
				<path class="st0" d="M97.1,19.6C97.1,19.6,97,19.6,97.1,19.6L97,19.4h0c-0.1,0.1-0.2,0.2-0.3,0.2c-0.1,0.1-0.3,0.1-0.5,0.1
					c-0.1,0-0.3,0-0.4-0.1c-0.1,0-0.2-0.1-0.3-0.2c-0.1-0.1-0.2-0.2-0.2-0.3s-0.1-0.2-0.1-0.4c0-0.3,0.1-0.5,0.3-0.7
					c0.2-0.1,0.5-0.2,0.8-0.2H97c0,0,0,0,0,0v-0.1c0-0.2,0-0.3-0.1-0.4c-0.1-0.1-0.3-0.1-0.5-0.1c-0.2,0-0.3,0-0.4,0.1
					s-0.2,0.1-0.3,0.1c0,0-0.1,0-0.1,0L95.4,17c0,0,0-0.1,0-0.1c0.1-0.1,0.3-0.2,0.4-0.2s0.4-0.1,0.6-0.1c0.4,0,0.8,0.1,0.9,0.2
					c0.2,0.2,0.3,0.4,0.3,0.8v1.9c0,0,0,0.1-0.1,0.1H97.1z M96.4,19.2c0.2,0,0.4,0,0.5-0.1s0.2-0.2,0.2-0.4v-0.2c0,0,0,0,0,0h-0.5
					c-0.2,0-0.4,0-0.5,0.1c-0.1,0.1-0.1,0.2-0.1,0.3C95.9,19,96,19.2,96.4,19.2z"/>
				<path class="st0" d="M98.7,20.7C98.7,20.7,98.6,20.7,98.7,20.7l-0.1-3.9c0,0,0-0.1,0.1-0.1h0.6c0,0,0.1,0,0.1,0.1V17h0
					c0.1-0.1,0.2-0.2,0.3-0.2c0.1-0.1,0.3-0.1,0.5-0.1c0.2,0,0.5,0.1,0.6,0.2s0.3,0.3,0.4,0.5c0,0.1,0.1,0.2,0.1,0.3s0,0.3,0,0.5
					c0,0.2,0,0.4,0,0.5c0,0.1,0,0.2-0.1,0.3c-0.1,0.2-0.2,0.4-0.4,0.5c-0.2,0.1-0.4,0.2-0.6,0.2c-0.2,0-0.4,0-0.5-0.1
					c-0.1-0.1-0.2-0.1-0.3-0.2h0v1.3c0,0,0,0.1-0.1,0.1H98.7z M99.9,19.1c0.3,0,0.5-0.1,0.5-0.4c0-0.1,0-0.1,0-0.2s0-0.2,0-0.3
					s0-0.2,0-0.3s0-0.2,0-0.2c-0.1-0.2-0.3-0.4-0.5-0.4c-0.3,0-0.5,0.1-0.5,0.4c0,0.1,0,0.1,0,0.2s0,0.2,0,0.3s0,0.2,0,0.3
					s0,0.2,0,0.2C99.4,19,99.6,19.1,99.9,19.1z"/>
				<path class="st0" d="M103.2,19.7c-0.3,0-0.5-0.1-0.8-0.2c-0.2-0.1-0.4-0.3-0.4-0.6c-0.1-0.2-0.1-0.4-0.1-0.7s0-0.5,0.1-0.7
					c0.1-0.3,0.2-0.5,0.4-0.6c0.2-0.1,0.5-0.2,0.8-0.2c0.2,0,0.4,0,0.6,0.1s0.3,0.2,0.4,0.3c0,0,0,0.1,0,0.1l-0.4,0.3
					c0,0-0.1,0-0.1,0c-0.1-0.1-0.1-0.1-0.2-0.2s-0.2-0.1-0.3-0.1c-0.1,0-0.2,0-0.3,0.1c-0.1,0.1-0.2,0.2-0.2,0.3c0,0.1,0,0.2,0,0.2
					c0,0.1,0,0.2,0,0.3c0,0.1,0,0.2,0,0.3c0,0.1,0,0.2,0,0.2c0,0.1,0.1,0.2,0.2,0.3c0.1,0.1,0.2,0.1,0.3,0.1c0.1,0,0.2,0,0.3-0.1
					s0.2-0.1,0.2-0.2c0,0,0.1,0,0.1,0l0.4,0.3c0,0,0,0,0,0.1c-0.1,0.1-0.3,0.2-0.4,0.3S103.4,19.7,103.2,19.7z"/>
				<path class="st0" d="M106.8,19.6C106.8,19.6,106.8,19.6,106.8,19.6l-0.1-1.7c0-0.2,0-0.3-0.1-0.5c-0.1-0.1-0.2-0.2-0.4-0.2
					c-0.2,0-0.3,0.1-0.4,0.2c-0.1,0.1-0.1,0.3-0.1,0.5v1.7c0,0,0,0.1-0.1,0.1h-0.6c0,0-0.1,0-0.1-0.1v-4c0,0,0-0.1,0.1-0.1h0.6
					c0,0,0.1,0,0.1,0.1V17h0c0.1-0.1,0.2-0.2,0.3-0.2c0.1-0.1,0.3-0.1,0.5-0.1c0.2,0,0.3,0,0.4,0.1s0.2,0.1,0.3,0.2
					c0.1,0.1,0.2,0.2,0.2,0.3c0,0.1,0.1,0.3,0.1,0.4v1.8c0,0,0,0.1-0.1,0.1H106.8z"/>
				<path class="st0" d="M108.5,16.2C108.4,16.2,108.4,16.2,108.5,16.2l-0.1-0.6c0,0,0-0.1,0.1-0.1h0.6c0,0,0.1,0,0.1,0.1v0.5
					c0,0,0,0.1-0.1,0.1H108.5z M108.5,19.6C108.4,19.6,108.4,19.6,108.5,19.6l-0.1-2.8c0,0,0-0.1,0.1-0.1h0.6c0,0,0.1,0,0.1,0.1v2.8
					c0,0,0,0.1-0.1,0.1H108.5z"/>
				<path class="st0" d="M110.1,16.2C110.1,16.2,110.1,16.2,110.1,16.2l-0.1-0.6c0,0,0-0.1,0.1-0.1h0.6c0,0,0.1,0,0.1,0.1v0.5
					c0,0,0,0.1-0.1,0.1H110.1z M110.1,19.6C110.1,19.6,110.1,19.6,110.1,19.6l-0.1-2.8c0,0,0-0.1,0.1-0.1h0.6c0,0,0.1,0,0.1,0.1v2.8
					c0,0,0,0.1-0.1,0.1H110.1z"/>
			</g>
		</g>
		<g>
			<g>
				<path class="st0" d="M55.7,46.2c0,0.3-0.1,0.4-0.4,0.4c-0.1,0-0.3,0-0.5,0l-0.1-0.5c0.1,0,0.3,0,0.4,0c0.1,0,0.1,0,0.1-0.1v-0.5
					c-0.3,0.4-0.8,0.7-1.3,1l-0.3-0.4c0.5-0.2,1-0.5,1.4-0.9l0.2,0.2v-0.7h-0.5l0.3,0.2c-0.3,0.3-0.7,0.6-1.1,0.7l-0.3-0.4
					c0.4-0.1,0.7-0.3,1-0.5h-0.9v-0.4h1L54.3,44c0.3-0.1,0.5-0.2,0.6-0.4l-0.1,0c-0.3,0.1-0.8,0.2-1.1,0.2l-0.1-0.4
					c0.5,0,1-0.1,1.4-0.2c0-0.1,0-0.1,0-0.2h-1.1v-0.3H55v-0.2h-1.3v-0.4H55v-0.4h0.5v1.1c0,0.9-0.2,1.2-0.9,1.5h1V46.2z M57.1,44.9
					c-0.3,0.3-0.7,0.5-1,0.7l-0.3-0.4c0.3-0.1,0.7-0.3,0.9-0.5h-0.8v-0.4h2v2c0,0.3-0.1,0.4-0.4,0.4c-0.1,0-0.3,0-0.5,0l-0.1-0.5
					c0.1,0,0.3,0,0.4,0c0.1,0,0.1,0,0.1-0.1v-0.5c-0.3,0.4-0.8,0.7-1.3,0.9L55.8,46c0.5-0.2,1-0.5,1.3-0.9l0.2,0.2v-0.6h-0.5
					L57.1,44.9z M57.8,42.1v0.4h-1.3v0.3h1.1V43h-1.1v0.3h1.4v0.4h-1.4v0.4H56v-2.4h0.5v0.4H57.8z"/>
				<path class="st0" d="M63,43.5c0,1.2-0.1,2-0.2,2.4c-0.1,0.4-0.3,0.5-0.7,0.5c-0.3,0-0.7,0-0.9-0.1L61,45.8
					c0.3,0.1,0.6,0.1,0.8,0.1c0.3,0,0.3-0.1,0.4-0.3c0.1-0.3,0.1-0.7,0.2-1.6h-0.6c0,0.1-0.1,0.2-0.1,0.3l-0.6-0.1
					c0.2-0.5,0.4-1.1,0.5-1.6h-1c-0.1,2.1-0.5,3.1-1.4,3.9l-0.4-0.4c0.9-0.7,1.2-1.6,1.3-3.4l0-0.1h-0.9v-0.5H62l0.3,0.2
					c-0.1,0.4-0.2,0.8-0.3,1.2H63z"/>
				<path class="st0" d="M66.4,46.5h-0.6V44c-0.5,0.4-0.9,0.7-1.4,1L64,44.4c1-0.4,2.2-1.5,2.9-2.6l0.5,0.3c-0.3,0.4-0.6,0.8-1,1.2
					V46.5z"/>
				<path class="st0" d="M71.8,42.6c-0.2,0.6-0.5,1.2-0.8,1.7c0,0,0,0,0,0c0.5,0.4,1.1,1,1.5,1.5L72,46.3c-0.4-0.6-0.9-1.1-1.3-1.5
					c-0.5,0.7-1.1,1.2-1.8,1.6l-0.4-0.5c1.1-0.6,2.1-1.8,2.5-3l-2.1,0l0-0.6l2.5,0L71.8,42.6z"/>
				<path class="st0" d="M77.1,42.9c0,1.6-0.1,2.5-0.2,3c-0.1,0.4-0.3,0.5-0.6,0.5c-0.1,0-0.1,0-0.2,0l0,0c-0.2,0-0.4-0.1-0.6-0.1
					l0-0.6c0.2,0.1,0.5,0.2,0.7,0.2c0.2,0,0.2-0.1,0.3-0.3c0.1-0.3,0.1-1.1,0.1-2.1h-1c-0.1,1.3-0.7,2.4-1.6,3L73.6,46
					c0.9-0.6,1.4-1.5,1.4-2.6h-1.3v-0.5H75v-1h0.6v1H77.1z"/>
			</g>
		</g>
		<g>
			<g>
				<path class="st0" d="M53.8,29.1C53.8,29.1,53.8,29.1,53.8,29.1l2.6-0.1c0,0,0.1,0,0.1,0.1v0.5c0,0,0,0.1-0.1,0.1h-1.9
					c0,0,0,0,0,0v1c0,0,0,0,0,0h1.6c0,0,0.1,0,0.1,0.1v0.5c0,0,0,0.1-0.1,0.1h-1.6c0,0,0,0,0,0v1.6c0,0,0,0.1-0.1,0.1h-0.6
					c0,0-0.1,0-0.1-0.1V29.1z"/>
				<path class="st0" d="M57.2,33.2C57.2,33.2,57.1,33.1,57.2,33.2l-0.1-2.8c0,0,0-0.1,0.1-0.1h0.6c0,0,0.1,0,0.1,0.1v0.2h0
					c0.1-0.1,0.2-0.2,0.3-0.3c0.1-0.1,0.3-0.1,0.5-0.1c0.1,0,0.2,0,0.3,0.1c0.1,0,0.2,0.1,0.3,0.2c0,0,0,0.1,0,0.1l-0.3,0.4
					c0,0-0.1,0-0.1,0c-0.1,0-0.1-0.1-0.2-0.1c-0.1,0-0.1,0-0.2,0c-0.2,0-0.3,0.1-0.4,0.2s-0.1,0.3-0.1,0.5v1.6c0,0,0,0.1-0.1,0.1
					H57.2z"/>
				<path class="st0" d="M61,33.2c-0.3,0-0.6-0.1-0.8-0.2c-0.2-0.1-0.4-0.3-0.4-0.6c0-0.1-0.1-0.2-0.1-0.3c0-0.1,0-0.2,0-0.4
					c0-0.2,0-0.3,0-0.4c0-0.1,0-0.2,0.1-0.3c0.1-0.3,0.2-0.4,0.4-0.6c0.2-0.1,0.5-0.2,0.7-0.2c0.3,0,0.6,0.1,0.8,0.2
					c0.2,0.1,0.3,0.3,0.4,0.6c0,0.1,0,0.1,0,0.2s0,0.1,0,0.2c0,0.1,0,0.1,0,0.2s0,0.2,0,0.3c0,0,0,0.1-0.1,0.1h-1.8c0,0,0,0,0,0
					c0,0,0,0.1,0,0.1s0,0.1,0,0.1c0.1,0.3,0.3,0.4,0.6,0.4c0.2,0,0.3,0,0.4-0.1c0.1-0.1,0.2-0.1,0.3-0.2c0,0,0.1,0,0.1,0l0.4,0.3
					c0,0,0,0.1,0,0.1c-0.1,0.1-0.3,0.3-0.5,0.4S61.2,33.2,61,33.2z M61.5,31.4c0-0.1,0-0.2,0-0.2c0-0.1-0.1-0.2-0.2-0.3
					s-0.2-0.1-0.4-0.1c-0.1,0-0.3,0-0.4,0.1s-0.2,0.2-0.2,0.3c0,0.1,0,0.2,0,0.2c0,0,0,0,0,0L61.5,31.4
					C61.5,31.4,61.5,31.4,61.5,31.4z"/>
				<path class="st0" d="M64.3,33.2c-0.3,0-0.6-0.1-0.8-0.2c-0.2-0.1-0.4-0.3-0.4-0.6c0-0.1-0.1-0.2-0.1-0.3c0-0.1,0-0.2,0-0.4
					c0-0.2,0-0.3,0-0.4c0-0.1,0-0.2,0.1-0.3c0.1-0.3,0.2-0.4,0.4-0.6c0.2-0.1,0.5-0.2,0.7-0.2c0.3,0,0.6,0.1,0.8,0.2
					c0.2,0.1,0.3,0.3,0.4,0.6c0,0.1,0,0.1,0,0.2s0,0.1,0,0.2c0,0.1,0,0.1,0,0.2s0,0.2,0,0.3c0,0,0,0.1-0.1,0.1h-1.8c0,0,0,0,0,0
					c0,0,0,0.1,0,0.1s0,0.1,0,0.1c0.1,0.3,0.3,0.4,0.6,0.4c0.2,0,0.3,0,0.4-0.1c0.1-0.1,0.2-0.1,0.3-0.2c0,0,0.1,0,0.1,0l0.4,0.3
					c0,0,0,0.1,0,0.1c-0.1,0.1-0.3,0.3-0.5,0.4S64.5,33.2,64.3,33.2z M64.8,31.4c0-0.1,0-0.2,0-0.2c0-0.1-0.1-0.2-0.2-0.3
					s-0.2-0.1-0.4-0.1c-0.1,0-0.3,0-0.4,0.1s-0.2,0.2-0.2,0.3c0,0.1,0,0.2,0,0.2c0,0,0,0,0,0L64.8,31.4
					C64.8,31.4,64.8,31.4,64.8,31.4z"/>
				<path class="st0" d="M66.3,33.2C66.3,33.2,66.2,33.1,66.3,33.2l-0.1-0.5c0,0,0,0,0-0.1l1.5-1.7v0h-1.4c0,0-0.1,0-0.1-0.1v-0.5
					c0,0,0-0.1,0.1-0.1h2.1c0,0,0.1,0,0.1,0.1v0.5c0,0,0,0,0,0.1L67,32.6v0h1.4c0,0,0.1,0,0.1,0.1v0.5c0,0,0,0.1-0.1,0.1H66.3z"/>
				<path class="st0" d="M70.5,33.2c-0.3,0-0.6-0.1-0.8-0.2c-0.2-0.1-0.4-0.3-0.4-0.6c0-0.1-0.1-0.2-0.1-0.3c0-0.1,0-0.2,0-0.4
					c0-0.2,0-0.3,0-0.4c0-0.1,0-0.2,0.1-0.3c0.1-0.3,0.2-0.4,0.4-0.6c0.2-0.1,0.5-0.2,0.7-0.2c0.3,0,0.6,0.1,0.8,0.2
					c0.2,0.1,0.3,0.3,0.4,0.6c0,0.1,0,0.1,0,0.2s0,0.1,0,0.2c0,0.1,0,0.1,0,0.2s0,0.2,0,0.3c0,0,0,0.1-0.1,0.1h-1.8c0,0,0,0,0,0
					c0,0,0,0.1,0,0.1s0,0.1,0,0.1c0.1,0.3,0.3,0.4,0.6,0.4c0.2,0,0.3,0,0.4-0.1c0.1-0.1,0.2-0.1,0.3-0.2c0,0,0.1,0,0.1,0l0.4,0.3
					c0,0,0,0.1,0,0.1c-0.1,0.1-0.3,0.3-0.5,0.4S70.8,33.2,70.5,33.2z M71.1,31.4c0-0.1,0-0.2,0-0.2c0-0.1-0.1-0.2-0.2-0.3
					s-0.2-0.1-0.4-0.1c-0.1,0-0.3,0-0.4,0.1S70,31,69.9,31.1c0,0.1,0,0.2,0,0.2c0,0,0,0,0,0L71.1,31.4
					C71.1,31.4,71.1,31.4,71.1,31.4z"/>
				<path class="st0" d="M72.7,33.2C72.6,33.2,72.6,33.1,72.7,33.2l-0.1-2.8c0,0,0-0.1,0.1-0.1h0.6c0,0,0.1,0,0.1,0.1v0.2h0
					c0.1-0.1,0.2-0.2,0.3-0.3c0.1-0.1,0.3-0.1,0.5-0.1c0.1,0,0.2,0,0.3,0.1c0.1,0,0.2,0.1,0.3,0.2c0,0,0,0.1,0,0.1l-0.3,0.4
					c0,0-0.1,0-0.1,0c-0.1,0-0.1-0.1-0.2-0.1c-0.1,0-0.1,0-0.2,0c-0.2,0-0.3,0.1-0.4,0.2s-0.1,0.3-0.1,0.5v1.6c0,0,0,0.1-0.1,0.1
					H72.7z"/>
			</g>
		</g>
		<g>
			<g>
				<path class="st0" d="M92.6,33.2C92.6,33.2,92.6,33.1,92.6,33.2l-0.1-3.4c0,0,0,0,0,0h-1.1c0,0-0.1,0-0.1-0.1v-0.5
					c0,0,0-0.1,0.1-0.1h2.9c0,0,0.1,0,0.1,0.1v0.5c0,0,0,0.1-0.1,0.1h-1.1c0,0,0,0,0,0v3.3c0,0,0,0.1-0.1,0.1H92.6z"/>
				<path class="st0" d="M96.5,33.2C96.4,33.2,96.4,33.1,96.5,33.2l-0.1-0.3h0c-0.1,0.1-0.2,0.2-0.3,0.2c-0.1,0.1-0.3,0.1-0.5,0.1
					c-0.1,0-0.3,0-0.4-0.1c-0.1,0-0.2-0.1-0.3-0.2c-0.1-0.1-0.2-0.2-0.2-0.3s-0.1-0.2-0.1-0.4c0-0.3,0.1-0.5,0.3-0.7
					c0.2-0.1,0.5-0.2,0.8-0.2h0.6c0,0,0,0,0,0v-0.1c0-0.2,0-0.3-0.1-0.4c-0.1-0.1-0.3-0.1-0.5-0.1c-0.2,0-0.3,0-0.4,0.1
					s-0.2,0.1-0.3,0.1c0,0-0.1,0-0.1,0l-0.2-0.4c0,0,0-0.1,0-0.1c0.1-0.1,0.3-0.2,0.4-0.2s0.4-0.1,0.6-0.1c0.4,0,0.8,0.1,0.9,0.2
					c0.2,0.2,0.3,0.4,0.3,0.8v1.9c0,0,0,0.1-0.1,0.1H96.5z M95.8,32.7c0.2,0,0.4,0,0.5-0.1s0.2-0.2,0.2-0.4V32c0,0,0,0,0,0h-0.5
					c-0.2,0-0.4,0-0.5,0.1c-0.1,0.1-0.1,0.2-0.1,0.3C95.3,32.6,95.4,32.7,95.8,32.7z"/>
				<path class="st0" d="M99.8,33.2C99.8,33.2,99.8,33.1,99.8,33.2l-0.1-1.7c0-0.2,0-0.3-0.1-0.5c-0.1-0.1-0.2-0.2-0.4-0.2
					c-0.2,0-0.3,0.1-0.4,0.2c-0.1,0.1-0.1,0.3-0.1,0.5v1.7c0,0,0,0.1-0.1,0.1h-0.6c0,0-0.1,0-0.1-0.1v-2.8c0,0,0-0.1,0.1-0.1h0.6
					c0,0,0.1,0,0.1,0.1v0.2h0c0.1-0.1,0.2-0.2,0.3-0.2c0.1-0.1,0.3-0.1,0.5-0.1c0.2,0,0.3,0,0.4,0.1s0.2,0.1,0.3,0.2
					c0.1,0.1,0.2,0.2,0.2,0.3c0,0.1,0.1,0.3,0.1,0.4v1.8c0,0,0,0.1-0.1,0.1H99.8z"/>
				<path class="st0" d="M102.6,33.2c-0.3,0-0.5-0.1-0.8-0.2c-0.2-0.1-0.4-0.3-0.4-0.6c-0.1-0.2-0.1-0.4-0.1-0.7
					c0-0.3,0-0.5,0.1-0.7c0.1-0.3,0.2-0.5,0.4-0.6c0.2-0.1,0.5-0.2,0.8-0.2c0.2,0,0.4,0,0.6,0.1s0.3,0.2,0.4,0.3c0,0,0,0.1,0,0.1
					l-0.4,0.3c0,0-0.1,0-0.1,0c-0.1-0.1-0.1-0.1-0.2-0.2s-0.2-0.1-0.3-0.1c-0.1,0-0.2,0-0.3,0.1c-0.1,0.1-0.2,0.2-0.2,0.3
					c0,0.1,0,0.2,0,0.2c0,0.1,0,0.2,0,0.3c0,0.1,0,0.2,0,0.3c0,0.1,0,0.2,0,0.2c0,0.1,0.1,0.2,0.2,0.3c0.1,0.1,0.2,0.1,0.3,0.1
					c0.1,0,0.2,0,0.3-0.1s0.2-0.1,0.2-0.2c0,0,0.1,0,0.1,0l0.4,0.3c0,0,0,0,0,0.1c-0.1,0.1-0.3,0.2-0.4,0.3S102.8,33.2,102.6,33.2z"
					/>
				<path class="st0" d="M106.2,33.2C106.2,33.2,106.2,33.1,106.2,33.2l-0.1-1.7c0-0.2,0-0.3-0.1-0.5c-0.1-0.1-0.2-0.2-0.4-0.2
					c-0.2,0-0.3,0.1-0.4,0.2c-0.1,0.1-0.1,0.3-0.1,0.5v1.7c0,0,0,0.1-0.1,0.1h-0.6c0,0-0.1,0-0.1-0.1v-4c0,0,0-0.1,0.1-0.1h0.6
					c0,0,0.1,0,0.1,0.1v1.4h0c0.1-0.1,0.2-0.2,0.3-0.2c0.1-0.1,0.3-0.1,0.5-0.1c0.2,0,0.3,0,0.4,0.1s0.2,0.1,0.3,0.2
					c0.1,0.1,0.2,0.2,0.2,0.3c0,0.1,0.1,0.3,0.1,0.4v1.8c0,0,0,0.1-0.1,0.1H106.2z"/>
				<path class="st0" d="M107.9,29.7C107.8,29.7,107.8,29.7,107.9,29.7l-0.1-0.6c0,0,0-0.1,0.1-0.1h0.6c0,0,0.1,0,0.1,0.1v0.5
					c0,0,0,0.1-0.1,0.1H107.9z M107.9,33.2C107.8,33.2,107.8,33.1,107.9,33.2l-0.1-2.8c0,0,0-0.1,0.1-0.1h0.6c0,0,0.1,0,0.1,0.1v2.8
					c0,0,0,0.1-0.1,0.1H107.9z"/>
				<path class="st0" d="M111.3,33.2C111.3,33.2,111.3,33.1,111.3,33.2l-0.8-1.3l-0.4,0.5v0.8c0,0,0,0.1-0.1,0.1h-0.6
					c0,0-0.1,0-0.1-0.1v-4c0,0,0-0.1,0.1-0.1h0.6c0,0,0.1,0,0.1,0.1v2.4l1-1.2c0,0,0.1-0.1,0.1-0.1h0.6c0,0,0,0,0,0s0,0,0,0
					l-0.9,1.1l1.1,1.7c0,0,0,0,0,0c0,0,0,0,0,0H111.3z"/>
				<path class="st0" d="M112.9,34.2C112.9,34.2,112.9,34.2,112.9,34.2l-0.1-0.5c0,0,0-0.1,0.1-0.1h0.1c0.1,0,0.2,0,0.3-0.1
					c0.1-0.1,0.1-0.1,0.2-0.3l0.1-0.2l-1.1-2.7c0,0,0-0.1,0-0.1h0.6c0,0,0.1,0,0.1,0.1l0.7,1.9h0l0.6-1.9c0,0,0-0.1,0.1-0.1h0.6
					c0,0,0.1,0,0,0.1l-1.1,3c-0.1,0.2-0.1,0.3-0.2,0.4c-0.1,0.1-0.1,0.2-0.2,0.3c-0.1,0.1-0.2,0.1-0.3,0.2s-0.2,0-0.3,0H112.9z"/>
			</g>
		</g>
		<polygon class="st0" points="35.2,10.6 35,10.4 45.4,0 45.6,0.2 		"/>
		<g>
			<g>
				<path class="st0" d="M91.7,42.2C91.7,42.1,91.7,42.1,91.7,42.2l0.6-0.1c0,0,0.1,0,0.1,0.1v1.9l1.5-1.9c0,0,0.1,0,0.1,0h0.7
					c0,0,0,0,0,0c0,0,0,0,0,0.1l-1.3,1.5l1.4,2.4c0,0,0,0.1,0,0.1h-0.7c0,0-0.1,0-0.1,0l-1.1-1.9L92.4,45v1.1c0,0,0,0.1-0.1,0.1
					h-0.6c0,0-0.1,0-0.1-0.1V42.2z"/>
				<path class="st0" d="M97,46.3c-0.4,0-0.7-0.1-0.9-0.2s-0.4-0.4-0.5-0.7c0-0.1,0-0.1-0.1-0.2c0-0.1,0-0.1,0-0.2
					c0-0.1,0-0.2,0-0.3s0-0.3,0-0.4s0-0.3,0-0.4s0-0.2,0-0.3c0-0.1,0-0.2,0-0.2c0-0.1,0-0.1,0.1-0.2c0.1-0.3,0.3-0.6,0.5-0.7
					c0.3-0.2,0.6-0.2,0.9-0.2c0.4,0,0.7,0.1,0.9,0.2c0.3,0.2,0.4,0.4,0.5,0.7c0,0.1,0,0.1,0.1,0.2c0,0.1,0,0.1,0,0.2s0,0.2,0,0.3
					s0,0.3,0,0.4s0,0.3,0,0.4s0,0.2,0,0.3s0,0.2,0,0.2c0,0.1,0,0.1-0.1,0.2c-0.1,0.3-0.3,0.6-0.5,0.7S97.3,46.3,97,46.3z M97,45.6
					c0.2,0,0.4,0,0.5-0.1s0.2-0.2,0.3-0.4c0,0,0-0.1,0-0.1c0,0,0-0.1,0-0.2c0-0.1,0-0.2,0-0.3c0-0.1,0-0.2,0-0.4s0-0.3,0-0.4
					c0-0.1,0-0.2,0-0.3c0-0.1,0-0.1,0-0.2c0,0,0-0.1,0-0.1c-0.1-0.2-0.1-0.3-0.3-0.4s-0.3-0.1-0.5-0.1s-0.4,0-0.5,0.1
					s-0.2,0.2-0.3,0.4c0,0,0,0.1,0,0.1c0,0,0,0.1,0,0.2c0,0.1,0,0.2,0,0.3c0,0.1,0,0.2,0,0.4s0,0.3,0,0.4c0,0.1,0,0.2,0,0.3
					c0,0.1,0,0.1,0,0.2c0,0,0,0.1,0,0.1c0.1,0.2,0.1,0.3,0.3,0.4S96.8,45.6,97,45.6z"/>
				<path class="st0" d="M99.4,45.4C99.3,45.3,99.4,45.3,99.4,45.4l0.6-0.2c0,0,0.1,0,0.1,0c0,0.1,0.1,0.2,0.2,0.3
					c0.1,0.1,0.2,0.1,0.4,0.1c0.2,0,0.3-0.1,0.4-0.2c0.1-0.1,0.2-0.3,0.2-0.4c0-0.2-0.1-0.4-0.2-0.5s-0.3-0.2-0.5-0.2h-0.2
					c0,0-0.1,0-0.1-0.1v-0.5c0,0,0-0.1,0.1-0.1h0.2c0.2,0,0.3-0.1,0.4-0.2c0.1-0.1,0.2-0.3,0.2-0.4c0-0.2,0-0.3-0.1-0.4
					c-0.1-0.1-0.2-0.2-0.4-0.2c-0.2,0-0.3,0-0.4,0.1c-0.1,0.1-0.2,0.2-0.2,0.3c0,0,0,0-0.1,0L99.5,43c0,0-0.1,0,0-0.1
					c0-0.1,0.1-0.2,0.1-0.3c0.1-0.1,0.2-0.2,0.3-0.3c0.1-0.1,0.2-0.1,0.4-0.2s0.3-0.1,0.5-0.1c0.2,0,0.4,0,0.5,0.1
					c0.1,0.1,0.3,0.1,0.4,0.2c0.1,0.1,0.2,0.2,0.2,0.4c0.1,0.1,0.1,0.3,0.1,0.5c0,0.2,0,0.3-0.1,0.5c-0.1,0.1-0.2,0.3-0.3,0.4v0
					c0.1,0,0.1,0.1,0.2,0.1c0.1,0.1,0.1,0.1,0.2,0.2c0.1,0.1,0.1,0.2,0.1,0.3c0,0.1,0.1,0.2,0.1,0.4c0,0.2,0,0.4-0.1,0.5
					c-0.1,0.2-0.2,0.3-0.3,0.4c-0.1,0.1-0.2,0.2-0.4,0.2c-0.2,0.1-0.3,0.1-0.5,0.1c-0.3,0-0.6-0.1-0.8-0.2
					C99.6,45.9,99.4,45.7,99.4,45.4z"/>
				<path class="st0" d="M104.1,45.2c0-0.2,0.1-0.4,0.2-0.6c0.1-0.2,0.3-0.4,0.6-0.6c-0.1-0.1-0.2-0.2-0.2-0.3
					c-0.1-0.1-0.1-0.2-0.1-0.2s-0.1-0.1-0.1-0.2c0-0.1,0-0.1,0-0.2c0-0.1,0-0.3,0.1-0.4c0.1-0.1,0.1-0.2,0.2-0.3
					c0.1-0.1,0.2-0.1,0.3-0.2c0.1,0,0.3-0.1,0.4-0.1c0.1,0,0.3,0,0.4,0.1c0.1,0.1,0.2,0.1,0.3,0.2s0.2,0.2,0.2,0.3
					c0,0.1,0.1,0.2,0.1,0.3c0,0.1,0,0.2,0,0.3c0,0.1-0.1,0.2-0.1,0.2c-0.1,0.1-0.1,0.2-0.2,0.3s-0.2,0.2-0.3,0.3l0.6,0.8l0.4-0.5
					c0,0,0.1,0,0.1,0l0.3,0.3c0,0,0,0.1,0,0.1l-0.5,0.6l0.1,0.2c0,0,0.1,0.1,0.1,0.1c0,0,0.1,0,0.1,0h0.1c0,0,0.1,0,0.1,0.1v0.5
					c0,0,0,0.1-0.1,0.1H107c-0.1,0-0.1,0-0.2,0c-0.1,0-0.1,0-0.1-0.1c0,0-0.1-0.1-0.1-0.1c0,0-0.1-0.1-0.1-0.2l-0.1-0.1
					c-0.2,0.2-0.3,0.3-0.5,0.4s-0.4,0.1-0.6,0.1c-0.2,0-0.4,0-0.5-0.1c-0.1-0.1-0.3-0.1-0.4-0.2c-0.1-0.1-0.2-0.2-0.2-0.3
					S104.1,45.3,104.1,45.2z M104.7,45.1c0,0.2,0,0.3,0.1,0.4c0.1,0.1,0.2,0.2,0.4,0.2c0.1,0,0.2,0,0.3-0.1c0.1-0.1,0.2-0.2,0.4-0.3
					l-0.7-0.9c-0.2,0.2-0.3,0.3-0.4,0.4C104.7,44.9,104.7,45,104.7,45.1z M105.3,43.5c0.1-0.1,0.2-0.1,0.2-0.2s0.1-0.1,0.1-0.2
					c0,0,0.1-0.1,0.1-0.1c0,0,0-0.1,0-0.1c0-0.1,0-0.2-0.1-0.3c-0.1-0.1-0.2-0.1-0.3-0.1c-0.1,0-0.2,0-0.3,0.1
					c-0.1,0.1-0.1,0.2-0.1,0.3c0,0,0,0.1,0,0.1s0,0.1,0,0.1c0,0,0.1,0.1,0.1,0.2C105.2,43.4,105.3,43.5,105.3,43.5z"/>
				<path class="st0" d="M110.6,46.3c-0.3,0-0.5-0.1-0.8-0.2c-0.2-0.1-0.4-0.3-0.4-0.6c-0.1-0.2-0.1-0.4-0.1-0.7s0-0.5,0.1-0.7
					c0.1-0.3,0.2-0.5,0.4-0.6c0.2-0.1,0.5-0.2,0.8-0.2c0.2,0,0.4,0,0.6,0.1s0.3,0.2,0.4,0.3c0,0,0,0.1,0,0.1l-0.4,0.3
					c0,0-0.1,0-0.1,0c-0.1-0.1-0.1-0.1-0.2-0.2s-0.2-0.1-0.3-0.1c-0.1,0-0.2,0-0.3,0.1c-0.1,0.1-0.2,0.2-0.2,0.3c0,0.1,0,0.2,0,0.2
					c0,0.1,0,0.2,0,0.3c0,0.1,0,0.2,0,0.3c0,0.1,0,0.2,0,0.2c0,0.1,0.1,0.2,0.2,0.3c0.1,0.1,0.2,0.1,0.3,0.1c0.1,0,0.2,0,0.3-0.1
					s0.2-0.1,0.2-0.2c0,0,0.1,0,0.1,0l0.4,0.3c0,0,0,0,0,0.1c-0.1,0.1-0.3,0.2-0.4,0.3S110.8,46.3,110.6,46.3z"/>
				<path class="st0" d="M114.2,46.2C114.2,46.2,114.2,46.2,114.2,46.2l-0.1-1.7c0-0.2,0-0.3-0.1-0.5c-0.1-0.1-0.2-0.2-0.4-0.2
					c-0.2,0-0.3,0.1-0.4,0.2c-0.1,0.1-0.1,0.3-0.1,0.5v1.7c0,0,0,0.1-0.1,0.1h-0.6c0,0-0.1,0-0.1-0.1v-4c0,0,0-0.1,0.1-0.1h0.6
					c0,0,0.1,0,0.1,0.1v1.4h0c0.1-0.1,0.2-0.2,0.3-0.2c0.1-0.1,0.3-0.1,0.5-0.1c0.2,0,0.3,0,0.4,0.1s0.2,0.1,0.3,0.2
					c0.1,0.1,0.2,0.2,0.2,0.3c0,0.1,0.1,0.3,0.1,0.4v1.8c0,0,0,0.1-0.1,0.1H114.2z"/>
				<path class="st0" d="M115.9,42.7C115.8,42.7,115.8,42.7,115.9,42.7l-0.1-0.6c0,0,0-0.1,0.1-0.1h0.6c0,0,0.1,0,0.1,0.1v0.5
					c0,0,0,0.1-0.1,0.1H115.9z M115.9,46.2C115.8,46.2,115.8,46.2,115.9,46.2l-0.1-2.8c0,0,0-0.1,0.1-0.1h0.6c0,0,0.1,0,0.1,0.1v2.8
					c0,0,0,0.1-0.1,0.1H115.9z"/>
				<path class="st0" d="M119.3,46.2C119.3,46.2,119.3,46.2,119.3,46.2l-0.8-1.3l-0.4,0.5v0.8c0,0,0,0.1-0.1,0.1h-0.6
					c0,0-0.1,0-0.1-0.1v-4c0,0,0-0.1,0.1-0.1h0.6c0,0,0.1,0,0.1,0.1v2.4l1-1.2c0,0,0.1-0.1,0.1-0.1h0.6c0,0,0,0,0,0s0,0,0,0
					l-0.9,1.1l1.1,1.7c0,0,0,0,0,0c0,0,0,0,0,0H119.3z"/>
				<path class="st0" d="M122.5,46.2C122.4,46.2,122.4,46.2,122.5,46.2l-0.1-0.3h0c-0.1,0.1-0.2,0.2-0.3,0.2
					c-0.1,0.1-0.3,0.1-0.5,0.1c-0.2,0-0.3,0-0.4-0.1c-0.1-0.1-0.2-0.1-0.3-0.2c-0.1-0.1-0.2-0.2-0.2-0.3s-0.1-0.3-0.1-0.4v-1.8
					c0,0,0-0.1,0.1-0.1h0.6c0,0,0.1,0,0.1,0.1V45c0,0.2,0,0.3,0.1,0.5s0.2,0.2,0.4,0.2c0.2,0,0.3-0.1,0.4-0.2
					c0.1-0.1,0.1-0.3,0.1-0.5v-1.7c0,0,0-0.1,0.1-0.1h0.6c0,0,0.1,0,0.1,0.1v2.8c0,0,0,0.1-0.1,0.1H122.5z"/>
				<path class="st0" d="M126.6,46.2C126.5,46.2,126.5,46.2,126.6,46.2l-0.6-1.9h0l-0.6,1.8c0,0,0,0.1-0.1,0.1h-0.5
					c0,0-0.1,0-0.1-0.1l-0.9-2.8c0,0,0-0.1,0-0.1h0.6c0,0,0.1,0,0.1,0.1l0.6,1.9h0l0.6-1.9c0,0,0-0.1,0.1-0.1h0.4c0,0,0.1,0,0.1,0.1
					l0.6,1.9h0l0.5-1.9c0,0,0-0.1,0.1-0.1h0.6c0,0,0.1,0,0,0.1l-0.9,2.8c0,0,0,0.1-0.1,0.1H126.6z"/>
				<path class="st0" d="M128.6,44.8v-0.5c0,0,0-0.1,0.1-0.1h1.7c0,0,0.1,0,0.1,0.1v0.5c0,0,0,0.1-0.1,0.1L128.6,44.8
					C128.6,44.9,128.6,44.9,128.6,44.8z"/>
				<path class="st0" d="M133.5,41.9c0,0,2.6,4.5,2.6,4.5c0,0-0.3,0-2.6,0c-1.4,0-2.6,0-2.6,0s0.6-1,1.3-2.3
					C133.2,42.5,133.5,41.9,133.5,41.9z M133.5,42.7c0,0-0.4,0.7-1,1.6l-0.9,1.6h3.8l-0.9-1.6C133.9,43.5,133.5,42.7,133.5,42.7z"/>
				<path class="st0" d="M136.5,44.8v-0.5c0,0,0-0.1,0.1-0.1h1.7c0,0,0.1,0,0.1,0.1v0.5c0,0,0,0.1-0.1,0.1L136.5,44.8
					C136.5,44.9,136.5,44.9,136.5,44.8z"/>
			</g>
		</g>
		<g>
			<g>
				<path class="st0" d="M1.7,7.1c-0.2,0-0.3,0-0.5,0C1.1,7.1,0.9,7,0.8,7C0.7,6.9,0.5,6.9,0.4,6.8C0.3,6.7,0.2,6.6,0.1,6.6
					c0,0,0-0.1,0-0.1l0.5-0.5c0,0,0.1,0,0.1,0C0.8,6,1,6.1,1.1,6.2s0.4,0.1,0.6,0.1s0.4,0,0.5-0.1S2.4,6,2.4,5.9
					c0-0.1,0-0.2-0.1-0.3C2.2,5.5,2,5.4,1.8,5.4l-0.2,0C1.1,5.3,0.8,5.2,0.6,5C0.4,4.8,0.3,4.5,0.3,4.2c0-0.2,0-0.4,0.1-0.5
					c0.1-0.2,0.2-0.3,0.3-0.4C0.8,3.1,0.9,3.1,1.1,3c0.2-0.1,0.4-0.1,0.6-0.1C2,2.9,2.2,3,2.5,3s0.4,0.2,0.6,0.3c0,0,0,0.1,0,0.1
					L2.7,4c0,0-0.1,0-0.1,0C2.5,3.9,2.4,3.8,2.2,3.8S1.9,3.7,1.7,3.7c-0.2,0-0.3,0-0.4,0.1S1.2,4,1.2,4.1c0,0.1,0,0.2,0.1,0.3
					c0.1,0.1,0.3,0.1,0.5,0.2l0.2,0C2.4,4.7,2.8,4.8,3,5s0.3,0.5,0.3,0.9c0,0.2,0,0.4-0.1,0.5C3.1,6.5,3,6.6,2.9,6.8S2.6,7,2.4,7
					C2.2,7.1,2,7.1,1.7,7.1z"/>
				<path class="st0" d="M5.3,7.1C5,7.1,4.7,7.1,4.5,6.9C4.3,6.8,4.1,6.6,4,6.3C4,6.2,4,6.1,4,6c0-0.1,0-0.2,0-0.4
					c0-0.1,0-0.3,0-0.4C4,5.1,4,5,4,4.9c0.1-0.3,0.2-0.5,0.5-0.6C4.7,4.2,5,4.1,5.3,4.1c0.3,0,0.6,0.1,0.8,0.2
					c0.2,0.1,0.4,0.3,0.5,0.6c0,0.1,0.1,0.2,0.1,0.3s0,0.2,0,0.4c0,0.1,0,0.3,0,0.4c0,0.1,0,0.2-0.1,0.3C6.5,6.6,6.3,6.8,6.1,6.9
					C5.9,7.1,5.6,7.1,5.3,7.1z M5.3,6.4c0.2,0,0.4-0.1,0.5-0.3c0-0.1,0-0.1,0-0.2c0-0.1,0-0.2,0-0.3s0-0.2,0-0.3c0-0.1,0-0.1,0-0.2
					C5.7,4.9,5.5,4.8,5.3,4.8c-0.2,0-0.4,0.1-0.5,0.3c0,0.1,0,0.1,0,0.2c0,0.1,0,0.2,0,0.3s0,0.2,0,0.3c0,0.1,0,0.1,0,0.2
					C4.9,6.3,5.1,6.4,5.3,6.4z"/>
				<path class="st0" d="M9.2,7.1C9.2,7.1,9.1,7,9.2,7.1L9.1,5.3c0-0.2,0-0.3-0.1-0.4C9,4.9,8.8,4.8,8.7,4.8c-0.1,0-0.3,0-0.3,0.1
					C8.3,5,8.2,5.2,8.2,5.3V7c0,0,0,0.1-0.1,0.1H7.5c0,0-0.1,0-0.1-0.1V4.2c0,0,0-0.1,0.1-0.1h0.7c0,0,0.1,0,0.1,0.1v0.2h0
					c0.1-0.1,0.2-0.2,0.3-0.2C8.6,4.1,8.8,4.1,9,4.1c0.2,0,0.3,0,0.4,0.1c0.1,0.1,0.2,0.1,0.3,0.2s0.1,0.2,0.2,0.3S10,5,10,5.2V7
					c0,0,0,0.1-0.1,0.1H9.2z"/>
				<path class="st0" d="M11.9,8.2c-0.1,0-0.2,0-0.3,0c-0.1,0-0.2-0.1-0.3-0.1C11.2,8,11.1,8,11,7.9c-0.1-0.1-0.1-0.1-0.2-0.2
					c0,0,0-0.1,0-0.1l0.4-0.4c0,0,0.1,0,0.1,0c0.1,0.1,0.2,0.1,0.3,0.2c0.1,0,0.2,0.1,0.3,0.1c0.2,0,0.4-0.1,0.4-0.2
					c0.1-0.1,0.1-0.3,0.1-0.5V6.6h0c-0.1,0.1-0.2,0.2-0.3,0.2c-0.1,0.1-0.3,0.1-0.5,0.1c-0.2,0-0.4-0.1-0.6-0.2s-0.3-0.3-0.4-0.5
					c0-0.1-0.1-0.2-0.1-0.3c0-0.1,0-0.2,0-0.4s0-0.3,0-0.4c0-0.1,0-0.2,0.1-0.3c0.1-0.2,0.2-0.4,0.4-0.5s0.4-0.2,0.6-0.2
					c0.2,0,0.3,0,0.5,0.1c0.1,0.1,0.2,0.1,0.3,0.2h0V4.2c0,0,0-0.1,0.1-0.1h0.7c0,0,0.1,0,0.1,0.1v2.5C13.4,7.7,12.9,8.2,11.9,8.2z
					 M12,6.2c0.1,0,0.2,0,0.3-0.1c0.1-0.1,0.1-0.1,0.2-0.2c0-0.1,0-0.1,0-0.2c0-0.1,0-0.1,0-0.2s0-0.2,0-0.2c0-0.1,0-0.1,0-0.2
					c0-0.1-0.1-0.2-0.2-0.2c-0.1-0.1-0.2-0.1-0.3-0.1s-0.2,0-0.3,0.1c-0.1,0.1-0.1,0.1-0.2,0.2c0,0.1,0,0.1,0,0.2c0,0.1,0,0.1,0,0.2
					s0,0.2,0,0.2c0,0.1,0,0.1,0,0.2c0,0.1,0.1,0.2,0.2,0.2C11.8,6.2,11.9,6.2,12,6.2z"/>
			</g>
		</g>
	</g>
	<g>
		<g>
			<g>
				<path class="st0" d="M67.9,57.9C67.9,57.9,67.9,57.9,67.9,57.9l-0.1-0.6c0,0,0-0.1,0.1-0.1h0.6c0,0,0.1,0,0.1,0.1v0.5
					c0,0,0,0.1-0.1,0.1H67.9z M67.9,61.3C67.9,61.3,67.9,61.3,67.9,61.3l-0.1-2.8c0,0,0-0.1,0.1-0.1h0.6c0,0,0.1,0,0.1,0.1v2.8
					c0,0,0,0.1-0.1,0.1H67.9z"/>
				<path class="st0" d="M69.6,61.3C69.5,61.3,69.5,61.3,69.6,61.3l-0.1-2.8c0,0,0-0.1,0.1-0.1h0.6c0,0,0.1,0,0.1,0.1v0.2h0
					c0.1-0.1,0.2-0.2,0.3-0.3c0.1-0.1,0.3-0.1,0.5-0.1c0.1,0,0.2,0,0.3,0.1c0.1,0,0.2,0.1,0.3,0.2c0,0,0,0.1,0,0.1l-0.3,0.4
					c0,0-0.1,0-0.1,0C71.1,59.1,71,59,71,59c-0.1,0-0.1,0-0.2,0c-0.2,0-0.3,0.1-0.4,0.2s-0.1,0.3-0.1,0.5v1.6c0,0,0,0.1-0.1,0.1
					H69.6z"/>
				<path class="st0" d="M74.1,61.3C74,61.3,74,61.3,74.1,61.3L74,61.1h0c-0.1,0.1-0.2,0.2-0.3,0.2c-0.1,0.1-0.3,0.1-0.5,0.1
					c-0.2,0-0.3,0-0.4-0.1c-0.1-0.1-0.2-0.1-0.3-0.2c-0.1-0.1-0.2-0.2-0.2-0.3s-0.1-0.3-0.1-0.4v-1.8c0,0,0-0.1,0.1-0.1h0.6
					c0,0,0.1,0,0.1,0.1v1.7c0,0.2,0,0.3,0.1,0.5s0.2,0.2,0.4,0.2c0.2,0,0.3-0.1,0.4-0.2c0.1-0.1,0.1-0.3,0.1-0.5v-1.7
					c0,0,0-0.1,0.1-0.1h0.6c0,0,0.1,0,0.1,0.1v2.8c0,0,0,0.1-0.1,0.1H74.1z"/>
				<path class="st0" d="M76.8,61.4c-0.3,0-0.5-0.1-0.8-0.2c-0.2-0.1-0.4-0.3-0.4-0.6c-0.1-0.2-0.1-0.4-0.1-0.7s0-0.5,0.1-0.7
					c0.1-0.3,0.2-0.5,0.4-0.6c0.2-0.1,0.5-0.2,0.8-0.2c0.2,0,0.4,0,0.6,0.1s0.3,0.2,0.4,0.3c0,0,0,0.1,0,0.1l-0.4,0.3
					c0,0-0.1,0-0.1,0c-0.1-0.1-0.1-0.1-0.2-0.2S76.9,59,76.8,59c-0.1,0-0.2,0-0.3,0.1c-0.1,0.1-0.2,0.2-0.2,0.3c0,0.1,0,0.2,0,0.2
					c0,0.1,0,0.2,0,0.3c0,0.1,0,0.2,0,0.3c0,0.1,0,0.2,0,0.2c0,0.1,0.1,0.2,0.2,0.3c0.1,0.1,0.2,0.1,0.3,0.1c0.1,0,0.2,0,0.3-0.1
					s0.2-0.1,0.2-0.2c0,0,0.1,0,0.1,0l0.4,0.3c0,0,0,0,0,0.1c-0.1,0.1-0.3,0.2-0.4,0.3S77,61.4,76.8,61.4z"/>
				<path class="st0" d="M80.4,61.3C80.4,61.3,80.3,61.3,80.4,61.3l-0.1-0.3h0c-0.1,0.1-0.2,0.2-0.3,0.2c-0.1,0.1-0.3,0.1-0.5,0.1
					c-0.1,0-0.3,0-0.4-0.1c-0.1,0-0.2-0.1-0.3-0.2c-0.1-0.1-0.2-0.2-0.2-0.3s-0.1-0.2-0.1-0.4c0-0.3,0.1-0.5,0.3-0.7
					c0.2-0.1,0.5-0.2,0.8-0.2h0.6c0,0,0,0,0,0v-0.1c0-0.2,0-0.3-0.1-0.4c-0.1-0.1-0.3-0.1-0.5-0.1c-0.2,0-0.3,0-0.4,0.1
					s-0.2,0.1-0.3,0.1c0,0-0.1,0-0.1,0l-0.2-0.4c0,0,0-0.1,0-0.1c0.1-0.1,0.3-0.2,0.4-0.2s0.4-0.1,0.6-0.1c0.4,0,0.8,0.1,0.9,0.2
					c0.2,0.2,0.3,0.4,0.3,0.8v1.9c0,0,0,0.1-0.1,0.1H80.4z M79.7,60.8c0.2,0,0.4,0,0.5-0.1s0.2-0.2,0.2-0.4v-0.2c0,0,0,0,0,0h-0.5
					c-0.2,0-0.4,0-0.5,0.1c-0.1,0.1-0.1,0.2-0.1,0.3C79.2,60.7,79.3,60.8,79.7,60.8z"/>
				<path class="st0" d="M82,57.9C82,57.9,81.9,57.9,82,57.9l-0.1-0.6c0,0,0-0.1,0.1-0.1h0.6c0,0,0.1,0,0.1,0.1v0.5
					c0,0,0,0.1-0.1,0.1H82z M82,61.3C82,61.3,81.9,61.3,82,61.3l-0.1-2.8c0,0,0-0.1,0.1-0.1h0.6c0,0,0.1,0,0.1,0.1v2.8
					c0,0,0,0.1-0.1,0.1H82z"/>
				<path class="st0" d="M84.7,61.4c-0.3,0-0.5-0.1-0.8-0.2c-0.2-0.1-0.4-0.3-0.4-0.6c-0.1-0.2-0.1-0.4-0.1-0.7s0-0.5,0.1-0.7
					c0.1-0.3,0.2-0.5,0.4-0.6c0.2-0.1,0.5-0.2,0.8-0.2c0.2,0,0.4,0,0.6,0.1s0.3,0.2,0.4,0.3c0,0,0,0.1,0,0.1l-0.4,0.3
					c0,0-0.1,0-0.1,0c-0.1-0.1-0.1-0.1-0.2-0.2S84.9,59,84.7,59c-0.1,0-0.2,0-0.3,0.1c-0.1,0.1-0.2,0.2-0.2,0.3c0,0.1,0,0.2,0,0.2
					c0,0.1,0,0.2,0,0.3c0,0.1,0,0.2,0,0.3c0,0.1,0,0.2,0,0.2c0,0.1,0.1,0.2,0.2,0.3c0.1,0.1,0.2,0.1,0.3,0.1c0.1,0,0.2,0,0.3-0.1
					s0.2-0.1,0.2-0.2c0,0,0.1,0,0.1,0l0.4,0.3c0,0,0,0,0,0.1c-0.1,0.1-0.3,0.2-0.4,0.3S85,61.4,84.7,61.4z"/>
				<path class="st0" d="M87.7,61.4c-0.3,0-0.6-0.1-0.8-0.2c-0.2-0.1-0.4-0.3-0.4-0.6c0-0.1-0.1-0.2-0.1-0.3c0-0.1,0-0.2,0-0.4
					c0-0.2,0-0.3,0-0.4c0-0.1,0-0.2,0.1-0.3c0.1-0.3,0.2-0.4,0.4-0.6c0.2-0.1,0.5-0.2,0.7-0.2c0.3,0,0.6,0.1,0.8,0.2
					c0.2,0.1,0.3,0.3,0.4,0.6c0,0.1,0,0.1,0,0.2s0,0.1,0,0.2c0,0.1,0,0.1,0,0.2s0,0.2,0,0.3c0,0,0,0.1-0.1,0.1h-1.8c0,0,0,0,0,0
					c0,0,0,0.1,0,0.1s0,0.1,0,0.1c0.1,0.3,0.3,0.4,0.6,0.4c0.2,0,0.3,0,0.4-0.1c0.1-0.1,0.2-0.1,0.3-0.2c0,0,0.1,0,0.1,0l0.4,0.3
					c0,0,0,0.1,0,0.1c-0.1,0.1-0.3,0.3-0.5,0.4S88,61.4,87.7,61.4z M88.3,59.6c0-0.1,0-0.2,0-0.2c0-0.1-0.1-0.2-0.2-0.3
					s-0.2-0.1-0.4-0.1c-0.1,0-0.3,0-0.4,0.1s-0.2,0.2-0.2,0.3c0,0.1,0,0.2,0,0.2c0,0,0,0,0,0L88.3,59.6
					C88.3,59.6,88.3,59.6,88.3,59.6z"/>
			</g>
		</g>
		<rect x="53.3" y="56.5" class="st0" width="10.9" height="5.9"/>
		<g>
			<g>
				<path class="st1" d="M56.4,61.4c-0.3,0-0.5-0.1-0.6-0.2c-0.1-0.1-0.2-0.3-0.2-0.6v-1.1c0,0,0,0,0,0h-0.2c0,0,0,0,0,0V59
					c0,0,0,0,0,0h0.2c0,0,0,0,0,0v-0.6c0,0,0-0.1,0-0.1h0.6c0,0,0,0,0,0.1v0.6c0,0,0,0,0,0h0.3c0,0,0,0,0,0v0.4c0,0,0,0,0,0h-0.3
					c0,0,0,0,0,0v1.1c0,0.1,0,0.2,0.1,0.2c0,0,0.1,0.1,0.2,0.1h0.1c0,0,0,0,0,0.1v0.5c0,0,0,0,0,0H56.4z"/>
				<path class="st1" d="M57.4,61.3C57.4,61.3,57.3,61.3,57.4,61.3l0-2.4c0,0,0,0,0,0H58c0,0,0,0,0,0v0.2h0c0.1-0.1,0.1-0.2,0.2-0.2
					c0.1-0.1,0.2-0.1,0.4-0.1c0.1,0,0.2,0,0.2,0c0.1,0,0.1,0.1,0.2,0.1c0,0,0,0,0,0.1l-0.3,0.5c0,0,0,0-0.1,0
					c-0.1-0.1-0.2-0.1-0.4-0.1c-0.1,0-0.2,0.1-0.3,0.1C58.1,59.7,58,59.8,58,60v1.3c0,0,0,0,0,0H57.4z"/>
				<path class="st1" d="M59.2,60.7C59.2,60.6,59.3,60.6,59.2,60.7l0.6,0c0,0,0,0,0,0v0.6c0,0,0,0,0,0h-0.6c0,0,0,0,0,0V60.7z"/>
				<path class="st1" d="M61.2,58.7L61.2,58.7l-0.5,0.4c0,0-0.1,0-0.1,0v-0.6c0,0,0-0.1,0-0.1l0.6-0.4c0,0,0.1,0,0.1,0h0.6
					c0,0,0,0,0,0.1v3.3c0,0,0,0,0,0h-0.6c0,0,0,0,0,0V58.7z"/>
			</g>
		</g>
		<rect x="53.3" y="77.8" class="st0" width="16.5" height="5.9"/>
		<g>
			<g>
				<path class="st1" d="M56.4,82.6c-0.3,0-0.5-0.1-0.6-0.2c-0.1-0.1-0.2-0.3-0.2-0.6v-1.1c0,0,0,0,0,0h-0.2c0,0,0,0,0,0v-0.4
					c0,0,0,0,0,0h0.2c0,0,0,0,0,0v-0.6c0,0,0-0.1,0-0.1h0.6c0,0,0,0,0,0.1v0.6c0,0,0,0,0,0h0.3c0,0,0,0,0,0v0.4c0,0,0,0,0,0h-0.3
					c0,0,0,0,0,0v1.1c0,0.1,0,0.2,0.1,0.2c0,0,0.1,0.1,0.2,0.1h0.1c0,0,0,0,0,0.1v0.5c0,0,0,0,0,0H56.4z"/>
				<path class="st1" d="M57.4,82.6C57.4,82.6,57.3,82.6,57.4,82.6l0-2.4c0,0,0,0,0,0H58c0,0,0,0,0,0v0.2h0c0.1-0.1,0.1-0.2,0.2-0.2
					c0.1-0.1,0.2-0.1,0.4-0.1c0.1,0,0.2,0,0.2,0c0.1,0,0.1,0.1,0.2,0.1c0,0,0,0,0,0.1l-0.3,0.5c0,0,0,0-0.1,0
					c-0.1-0.1-0.2-0.1-0.4-0.1c-0.1,0-0.2,0.1-0.3,0.1C58.1,81,58,81.1,58,81.3v1.3c0,0,0,0,0,0H57.4z"/>
				<path class="st1" d="M59.2,81.9C59.2,81.9,59.3,81.9,59.2,81.9l0.6,0c0,0,0,0,0,0v0.6c0,0,0,0,0,0h-0.6c0,0,0,0,0,0V81.9z"/>
				<path class="st1" d="M60.6,81.9C60.6,81.8,60.6,81.8,60.6,81.9l0.6-0.2c0,0,0,0,0.1,0c0,0.1,0.1,0.2,0.2,0.2
					c0.1,0.1,0.2,0.1,0.3,0.1c0.1,0,0.2,0,0.3-0.1c0.1-0.1,0.1-0.2,0.1-0.3c0-0.2,0-0.3-0.1-0.4c-0.1-0.1-0.2-0.1-0.3-0.1h-0.1
					c0,0,0,0,0,0v-0.5c0,0,0,0,0,0h0.1c0.1,0,0.2,0,0.3-0.1c0.1-0.1,0.1-0.2,0.1-0.3c0-0.1,0-0.2-0.1-0.3c-0.1-0.1-0.2-0.1-0.3-0.1
					c-0.1,0-0.2,0-0.3,0.1S61.3,80,61.3,80c0,0,0,0-0.1,0L60.7,80c0,0,0,0,0-0.1c0-0.1,0.1-0.2,0.1-0.3s0.1-0.2,0.2-0.2
					c0.1-0.1,0.2-0.1,0.3-0.2c0.1,0,0.3-0.1,0.4-0.1c0.2,0,0.3,0,0.4,0.1s0.2,0.1,0.3,0.2c0.1,0.1,0.2,0.2,0.2,0.3
					c0,0.1,0.1,0.2,0.1,0.4c0,0.1,0,0.3-0.1,0.4c-0.1,0.1-0.2,0.2-0.3,0.3v0c0,0,0.1,0.1,0.2,0.1c0.1,0,0.1,0.1,0.1,0.2
					c0,0.1,0.1,0.1,0.1,0.2s0,0.2,0,0.3c0,0.2,0,0.3-0.1,0.4c-0.1,0.1-0.1,0.2-0.2,0.3c-0.1,0.1-0.2,0.2-0.4,0.2
					c-0.1,0-0.3,0.1-0.4,0.1c-0.3,0-0.5-0.1-0.7-0.2C60.8,82.3,60.7,82.1,60.6,81.9z"/>
				<path class="st1" d="M63.5,81.9C63.5,81.9,63.5,81.9,63.5,81.9l0.6,0c0,0,0,0,0,0v0.6c0,0,0,0.1,0,0.1l-0.5,0.5c0,0-0.1,0-0.1,0
					c0,0,0,0,0-0.1V81.9z"/>
				<path class="st1" d="M64.8,82.1v-0.5c0,0,0,0,0-0.1l1-2.2c0,0,0,0,0.1,0h0.6c0,0,0,0,0,0.1l-1,2.2v0h0.6c0,0,0,0,0,0v-0.7
					c0,0,0,0,0,0h0.6c0,0,0,0,0,0v0.7c0,0,0,0,0,0h0.2c0,0,0,0,0,0v0.5c0,0,0,0,0,0h-0.2c0,0,0,0,0,0v0.4c0,0,0,0,0,0h-0.6
					c0,0,0,0,0,0v-0.4c0,0,0,0,0,0L64.8,82.1C64.8,82.1,64.8,82.1,64.8,82.1z"/>
			</g>
		</g>
		<rect x="97.6" y="56.5" class="st0" width="11.7" height="5.9"/>
		<g>
			<g>
				<path class="st1" d="M100.6,61.4c-0.3,0-0.5-0.1-0.6-0.2c-0.1-0.1-0.2-0.3-0.2-0.6v-1.1c0,0,0,0,0,0h-0.2c0,0,0,0,0,0V59
					c0,0,0,0,0,0h0.2c0,0,0,0,0,0v-0.6c0,0,0-0.1,0-0.1h0.6c0,0,0,0,0,0.1v0.6c0,0,0,0,0,0h0.3c0,0,0,0,0,0v0.4c0,0,0,0,0,0h-0.3
					c0,0,0,0,0,0v1.1c0,0.1,0,0.2,0.1,0.2c0,0,0.1,0.1,0.2,0.1h0.1c0,0,0,0,0,0.1v0.5c0,0,0,0,0,0H100.6z"/>
				<path class="st1" d="M101.6,61.3C101.6,61.3,101.6,61.3,101.6,61.3l0-2.4c0,0,0,0,0,0h0.6c0,0,0,0,0,0v0.2h0
					c0.1-0.1,0.1-0.2,0.2-0.2c0.1-0.1,0.2-0.1,0.4-0.1c0.1,0,0.2,0,0.2,0c0.1,0,0.1,0.1,0.2,0.1c0,0,0,0,0,0.1l-0.3,0.5
					c0,0,0,0-0.1,0c-0.1-0.1-0.2-0.1-0.4-0.1c-0.1,0-0.2,0.1-0.3,0.1c-0.1,0.1-0.1,0.2-0.1,0.4v1.3c0,0,0,0,0,0H101.6z"/>
				<path class="st1" d="M103.5,60.7C103.5,60.6,103.5,60.6,103.5,60.7l0.6,0c0,0,0,0,0,0v0.6c0,0,0,0,0,0h-0.6c0,0,0,0,0,0V60.7z"
					/>
				<path class="st1" d="M104.9,60.6C104.8,60.6,104.9,60.5,104.9,60.6l0.6-0.2c0,0,0,0,0.1,0c0,0.1,0.1,0.2,0.2,0.2
					c0.1,0.1,0.2,0.1,0.3,0.1c0.1,0,0.2,0,0.3-0.1c0.1-0.1,0.1-0.2,0.1-0.3c0-0.2,0-0.3-0.1-0.4c-0.1-0.1-0.2-0.1-0.3-0.1h-0.1
					c0,0,0,0,0,0v-0.5c0,0,0,0,0,0h0.1c0.1,0,0.2,0,0.3-0.1c0.1-0.1,0.1-0.2,0.1-0.3c0-0.1,0-0.2-0.1-0.3c-0.1-0.1-0.2-0.1-0.3-0.1
					c-0.1,0-0.2,0-0.3,0.1s-0.1,0.1-0.1,0.2c0,0,0,0-0.1,0l-0.5-0.1c0,0,0,0,0-0.1c0-0.1,0.1-0.2,0.1-0.3s0.1-0.2,0.2-0.2
					c0.1-0.1,0.2-0.1,0.3-0.2c0.1,0,0.3-0.1,0.4-0.1c0.2,0,0.3,0,0.4,0.1s0.2,0.1,0.3,0.2c0.1,0.1,0.2,0.2,0.2,0.3
					c0,0.1,0.1,0.2,0.1,0.4c0,0.1,0,0.3-0.1,0.4c-0.1,0.1-0.2,0.2-0.3,0.3v0c0,0,0.1,0.1,0.2,0.1c0.1,0,0.1,0.1,0.1,0.2
					c0,0.1,0.1,0.1,0.1,0.2s0,0.2,0,0.3c0,0.2,0,0.3-0.1,0.4c-0.1,0.1-0.1,0.2-0.2,0.3c-0.1,0.1-0.2,0.2-0.4,0.2
					c-0.1,0-0.3,0.1-0.4,0.1c-0.3,0-0.5-0.1-0.7-0.2C105,61,104.9,60.8,104.9,60.6z"/>
			</g>
		</g>
		<rect x="136.1" y="56.5" class="st0" width="11.7" height="5.9"/>
		<g>
			<g>
				<path class="st1" d="M139.2,61.4c-0.3,0-0.5-0.1-0.6-0.2c-0.1-0.1-0.2-0.3-0.2-0.6v-1.1c0,0,0,0,0,0h-0.2c0,0,0,0,0,0V59
					c0,0,0,0,0,0h0.2c0,0,0,0,0,0v-0.6c0,0,0-0.1,0-0.1h0.6c0,0,0,0,0,0.1v0.6c0,0,0,0,0,0h0.3c0,0,0,0,0,0v0.4c0,0,0,0,0,0h-0.3
					c0,0,0,0,0,0v1.1c0,0.1,0,0.2,0.1,0.2c0,0,0.1,0.1,0.2,0.1h0.1c0,0,0,0,0,0.1v0.5c0,0,0,0,0,0H139.2z"/>
				<path class="st1" d="M140.2,61.3C140.2,61.3,140.1,61.3,140.2,61.3l0-2.4c0,0,0,0,0,0h0.6c0,0,0,0,0,0v0.2h0
					c0.1-0.1,0.1-0.2,0.2-0.2c0.1-0.1,0.2-0.1,0.4-0.1c0.1,0,0.2,0,0.2,0c0.1,0,0.1,0.1,0.2,0.1c0,0,0,0,0,0.1l-0.3,0.5
					c0,0,0,0-0.1,0c-0.1-0.1-0.2-0.1-0.4-0.1c-0.1,0-0.2,0.1-0.3,0.1c-0.1,0.1-0.1,0.2-0.1,0.4v1.3c0,0,0,0,0,0H140.2z"/>
				<path class="st1" d="M142,60.7C142,60.6,142.1,60.6,142,60.7l0.6,0c0,0,0,0,0,0v0.6c0,0,0,0,0,0h-0.6c0,0,0,0,0,0V60.7z"/>
				<path class="st1" d="M143.4,60.3c0-0.2,0-0.4,0.1-0.5c0.1-0.1,0.2-0.2,0.3-0.3v0c-0.1-0.1-0.2-0.1-0.2-0.3
					c-0.1-0.1-0.1-0.3-0.1-0.4c0-0.1,0-0.3,0.1-0.4s0.1-0.2,0.2-0.3s0.2-0.2,0.3-0.2c0.1-0.1,0.3-0.1,0.5-0.1c0.2,0,0.3,0,0.5,0.1
					c0.1,0.1,0.2,0.1,0.3,0.2s0.2,0.2,0.2,0.3c0,0.1,0.1,0.2,0.1,0.4c0,0.2,0,0.3-0.1,0.4c-0.1,0.1-0.1,0.2-0.2,0.3v0
					c0.1,0.1,0.2,0.2,0.3,0.3c0.1,0.1,0.1,0.3,0.1,0.5c0,0.2,0,0.3-0.1,0.4c-0.1,0.1-0.1,0.2-0.2,0.3c-0.1,0.1-0.2,0.2-0.4,0.2
					c-0.1,0-0.3,0.1-0.5,0.1c-0.2,0-0.3,0-0.5-0.1c-0.1-0.1-0.3-0.1-0.4-0.2c-0.1-0.1-0.2-0.2-0.2-0.3
					C143.4,60.6,143.4,60.5,143.4,60.3z M144.1,60.3c0,0.1,0,0.3,0.1,0.3c0.1,0.1,0.2,0.1,0.3,0.1c0.1,0,0.3,0,0.3-0.1
					c0.1-0.1,0.1-0.2,0.1-0.3c0-0.1,0-0.3-0.1-0.3c-0.1-0.1-0.2-0.1-0.3-0.1c-0.1,0-0.3,0-0.3,0.1C144.1,60.1,144.1,60.2,144.1,60.3
					z M144.5,59.3c0.1,0,0.2,0,0.3-0.1c0.1-0.1,0.1-0.2,0.1-0.3c0-0.1,0-0.2-0.1-0.3c-0.1-0.1-0.2-0.1-0.3-0.1c-0.1,0-0.2,0-0.3,0.1
					c-0.1,0.1-0.1,0.2-0.1,0.3c0,0.1,0,0.2,0.1,0.3S144.4,59.3,144.5,59.3z"/>
			</g>
		</g>
		<g>
			<g>
				<path class="st0" d="M115,57.8c-0.4,0.1-0.9,0.2-1.4,0.2c0,0.2,0,0.4,0,0.6c0.2-0.1,0.5-0.1,0.7-0.1c0-0.1,0-0.1,0.1-0.3
					l0.5,0.1c0,0.1,0,0.1-0.1,0.2c0.7,0.2,1.1,0.6,1.1,1.3c0,0.4-0.1,0.7-0.5,1c-0.3,0.3-0.6,0.5-1.1,0.6l-0.3-0.4
					c0.9-0.2,1.3-0.6,1.3-1.2c0-0.4-0.3-0.8-0.7-0.9c-0.3,0.7-0.6,1.2-1,1.6c0,0.2,0,0.3,0.1,0.4l-0.5,0.2c0-0.1,0-0.1,0-0.2l0-0.1
					c-0.3,0.2-0.5,0.2-0.7,0.2c-0.4,0-0.6-0.3-0.6-0.7c0-0.6,0.3-1.1,0.9-1.5c0.1-0.1,0.2-0.1,0.3-0.2c0-0.1,0-0.3,0-0.8
					c-0.2,0-0.6,0-0.9,0l0-0.5c0.1,0,0.2,0,0.3,0c0.2,0,0.4,0,0.7,0c0-0.1,0-0.2,0-0.2l0-0.1c0,0,0-0.1,0-0.2l0-0.3l0.6,0
					c0,0.3-0.1,0.6-0.1,0.7c0.5-0.1,0.9-0.1,1.4-0.2L115,57.8z M113,60.4c0-0.2,0-0.8,0-1c-0.4,0.3-0.6,0.7-0.6,1.1
					c0,0.1,0,0.2,0.1,0.2c0,0,0.1,0,0.1,0C112.8,60.6,112.9,60.6,113,60.4L113,60.4z M114.1,59c-0.2,0-0.4,0.1-0.6,0.1
					c0,0.1,0,0.2,0,0.3c0,0.2,0,0.3,0,0.5V60C113.7,59.7,113.9,59.4,114.1,59L114.1,59L114.1,59z"/>
				<path class="st0" d="M119,57.4c0-0.1,0-0.1,0-0.2l0-0.4h0.6l0,0.3l0,0.1l0,0.4c0.8,0.1,1.3,0.7,1.3,1.5c0,0.9-0.5,1.5-1.4,1.5
					h-0.1c-0.1,0.4-0.4,0.8-0.7,1l-0.5-0.3c0.3-0.3,0.5-0.5,0.6-0.8c-0.3-0.1-0.6-0.3-0.8-0.6l0.3-0.4c0.2,0.3,0.4,0.4,0.6,0.5
					c0-0.3,0-0.5,0-0.9c0-0.3,0-0.6,0-1c-0.3,0.1-0.7,0.4-0.9,0.7c-0.3,0.4-0.5,1-0.5,1.4c0,0.1,0,0.3,0.1,0.5l-0.6,0.1
					c-0.1-0.7-0.1-1.2-0.1-1.8c0-0.5,0.1-1.2,0.2-1.8l0.6,0.1c-0.1,0.6-0.2,1.2-0.2,1.8c0.3-0.8,0.8-1.3,1.5-1.5L119,57.4z
					 M119.6,58.5c0,0.3,0,0.4,0,0.6c0,0.4,0,0.8-0.1,1c0.5,0,0.8-0.4,0.8-1c0-0.6-0.3-0.9-0.7-1L119.6,58.5z"/>
				<path class="st0" d="M122.9,56.8h0.6l0,0.7c0.3,0,0.6-0.1,0.9-0.1l0.1,0.5c-0.3,0.1-0.6,0.1-0.9,0.1l0,1c0,0.1,0.1,0.3,0.1,0.4
					c0,0.2,0,0.4-0.2,0.6c-0.1,0.2-0.2,0.4-0.2,0.5c0,0.1,0.1,0.2,0.2,0.2c0.1,0,0.4,0.1,0.6,0.1c0.3,0,0.6,0,0.8-0.1
					c0.2-0.1,0.2-0.2,0.2-0.5c0-0.3-0.1-0.6-0.2-1l0.5,0c0.1,0.3,0.2,0.8,0.2,1.2c0,0.4-0.2,0.7-0.5,0.8c-0.2,0.1-0.7,0.2-1.2,0.2
					c-0.3,0-0.5,0-0.7,0c-0.4-0.1-0.6-0.3-0.6-0.6c0-0.1,0-0.2,0.1-0.3c-0.1,0-0.1,0-0.2,0c-0.4,0-0.6-0.3-0.6-0.9
					c0-0.3,0.1-0.4,0.2-0.6c0.2-0.3,0.4-0.4,0.7-0.4c0.1,0,0.1,0,0.2,0l0-0.5c-0.3,0-0.4,0-0.7,0c-0.1,0-0.2,0-0.4,0v-0.5
					c0.2,0,0.3,0,0.4,0c0.2,0,0.3,0,0.6,0L122.9,56.8z M123,59.5c0-0.3-0.1-0.5-0.2-0.5c-0.2,0-0.4,0.3-0.4,0.7
					c0,0.3,0.1,0.4,0.3,0.4c0.2,0,0.3-0.2,0.4-0.5C123,59.5,123,59.5,123,59.5z M125.8,59.1c-0.3-0.5-0.6-0.9-1-1.2l0.4-0.3
					c0.4,0.3,0.7,0.7,1,1.2L125.8,59.1z"/>
			</g>
		</g>
		<g>
			<g>
				<path class="st0" d="M153.8,61.2C153.7,61.2,153.7,61.2,153.8,61.2l-0.1-1.7c0-0.2,0-0.3-0.1-0.5c-0.1-0.1-0.2-0.2-0.4-0.2
					c-0.2,0-0.3,0.1-0.4,0.2c-0.1,0.1-0.1,0.3-0.1,0.5v1.7c0,0,0,0.1-0.1,0.1H152c0,0-0.1,0-0.1-0.1v-1.7c0-0.2,0-0.3-0.1-0.5
					c-0.1-0.1-0.2-0.2-0.4-0.2c-0.2,0-0.3,0.1-0.4,0.2c-0.1,0.1-0.1,0.3-0.1,0.5v1.7c0,0,0,0.1-0.1,0.1h-0.6c0,0-0.1,0-0.1-0.1v-2.8
					c0,0,0-0.1,0.1-0.1h0.6c0,0,0.1,0,0.1,0.1v0.2h0c0.1-0.1,0.2-0.2,0.3-0.2c0.1-0.1,0.3-0.1,0.5-0.1c0.2,0,0.3,0,0.5,0.1
					c0.1,0.1,0.2,0.2,0.3,0.3h0c0.1-0.1,0.2-0.2,0.4-0.3c0.1-0.1,0.3-0.1,0.5-0.1c0.2,0,0.3,0,0.4,0.1s0.2,0.1,0.3,0.2
					c0.1,0.1,0.2,0.2,0.2,0.3c0,0.1,0.1,0.3,0.1,0.4v1.8c0,0,0,0.1-0.1,0.1H153.8z"/>
				<path class="st0" d="M155.4,57.8C155.4,57.8,155.3,57.8,155.4,57.8l-0.1-0.6c0,0,0-0.1,0.1-0.1h0.6c0,0,0.1,0,0.1,0.1v0.5
					c0,0,0,0.1-0.1,0.1H155.4z M155.4,61.2C155.4,61.2,155.3,61.2,155.4,61.2l-0.1-2.8c0,0,0-0.1,0.1-0.1h0.6c0,0,0.1,0,0.1,0.1v2.8
					c0,0,0,0.1-0.1,0.1H155.4z"/>
				<path class="st0" d="M157.1,62.3C157,62.3,157,62.3,157.1,62.3l-0.1-3.9c0,0,0-0.1,0.1-0.1h0.6c0,0,0.1,0,0.1,0.1v0.2h0
					c0.1-0.1,0.2-0.2,0.3-0.2c0.1-0.1,0.3-0.1,0.5-0.1c0.2,0,0.5,0.1,0.6,0.2s0.3,0.3,0.4,0.5c0,0.1,0.1,0.2,0.1,0.3s0,0.3,0,0.5
					c0,0.2,0,0.4,0,0.5c0,0.1,0,0.2-0.1,0.3c-0.1,0.2-0.2,0.4-0.4,0.5c-0.2,0.1-0.4,0.2-0.6,0.2c-0.2,0-0.4,0-0.5-0.1
					c-0.1-0.1-0.2-0.1-0.3-0.2h0v1.3c0,0,0,0.1-0.1,0.1H157.1z M158.3,60.7c0.3,0,0.5-0.1,0.5-0.4c0-0.1,0-0.1,0-0.2s0-0.2,0-0.3
					s0-0.2,0-0.3s0-0.2,0-0.2c-0.1-0.2-0.3-0.4-0.5-0.4c-0.3,0-0.5,0.1-0.5,0.4c0,0.1,0,0.1,0,0.2s0,0.2,0,0.3s0,0.2,0,0.3
					s0,0.2,0,0.2C157.8,60.6,158,60.7,158.3,60.7z"/>
				<path class="st0" d="M160.5,62.3C160.4,62.3,160.4,62.3,160.5,62.3l-0.1-3.9c0,0,0-0.1,0.1-0.1h0.6c0,0,0.1,0,0.1,0.1v0.2h0
					c0.1-0.1,0.2-0.2,0.3-0.2c0.1-0.1,0.3-0.1,0.5-0.1c0.2,0,0.5,0.1,0.6,0.2s0.3,0.3,0.4,0.5c0,0.1,0.1,0.2,0.1,0.3s0,0.3,0,0.5
					c0,0.2,0,0.4,0,0.5c0,0.1,0,0.2-0.1,0.3c-0.1,0.2-0.2,0.4-0.4,0.5c-0.2,0.1-0.4,0.2-0.6,0.2c-0.2,0-0.4,0-0.5-0.1
					c-0.1-0.1-0.2-0.1-0.3-0.2h0v1.3c0,0,0,0.1-0.1,0.1H160.5z M161.7,60.7c0.3,0,0.5-0.1,0.5-0.4c0-0.1,0-0.1,0-0.2s0-0.2,0-0.3
					s0-0.2,0-0.3s0-0.2,0-0.2c-0.1-0.2-0.3-0.4-0.5-0.4c-0.3,0-0.5,0.1-0.5,0.4c0,0.1,0,0.1,0,0.2s0,0.2,0,0.3s0,0.2,0,0.3
					s0,0.2,0,0.2C161.2,60.6,161.4,60.7,161.7,60.7z"/>
				<path class="st0" d="M165.5,61.2C165.5,61.2,165.5,61.2,165.5,61.2l-0.1-0.3h0c-0.1,0.1-0.2,0.2-0.3,0.2
					c-0.1,0.1-0.3,0.1-0.5,0.1c-0.1,0-0.3,0-0.4-0.1c-0.1,0-0.2-0.1-0.3-0.2c-0.1-0.1-0.2-0.2-0.2-0.3s-0.1-0.2-0.1-0.4
					c0-0.3,0.1-0.5,0.3-0.7c0.2-0.1,0.5-0.2,0.8-0.2h0.6c0,0,0,0,0,0v-0.1c0-0.2,0-0.3-0.1-0.4c-0.1-0.1-0.3-0.1-0.5-0.1
					c-0.2,0-0.3,0-0.4,0.1s-0.2,0.1-0.3,0.1c0,0-0.1,0-0.1,0l-0.2-0.4c0,0,0-0.1,0-0.1c0.1-0.1,0.3-0.2,0.4-0.2s0.4-0.1,0.6-0.1
					c0.4,0,0.8,0.1,0.9,0.2c0.2,0.2,0.3,0.4,0.3,0.8v1.9c0,0,0,0.1-0.1,0.1H165.5z M164.8,60.7c0.2,0,0.4,0,0.5-0.1s0.2-0.2,0.2-0.4
					V60c0,0,0,0,0,0H165c-0.2,0-0.4,0-0.5,0.1c-0.1,0.1-0.1,0.2-0.1,0.3C164.3,60.6,164.5,60.7,164.8,60.7z"/>
				<path class="st0" d="M167.1,57.8C167.1,57.8,167.1,57.8,167.1,57.8l-0.1-0.6c0,0,0-0.1,0.1-0.1h0.6c0,0,0.1,0,0.1,0.1v0.5
					c0,0,0,0.1-0.1,0.1H167.1z M167.1,61.2C167.1,61.2,167.1,61.2,167.1,61.2l-0.1-2.8c0,0,0-0.1,0.1-0.1h0.6c0,0,0.1,0,0.1,0.1v2.8
					c0,0,0,0.1-0.1,0.1H167.1z"/>
			</g>
		</g>
		<polygon class="st0" points="35.2,65.1 35,64.9 45.4,54.5 45.6,54.7 		"/>
		<g>
			<g>
				<path class="st0" d="M72.8,79.1C72.8,79.1,72.8,79,72.8,79.1l-0.1-0.6c0,0,0-0.1,0.1-0.1h0.6c0,0,0.1,0,0.1,0.1V79
					c0,0,0,0.1-0.1,0.1H72.8z M72.8,82.5C72.8,82.5,72.8,82.5,72.8,82.5l-0.1-2.8c0,0,0-0.1,0.1-0.1h0.6c0,0,0.1,0,0.1,0.1v2.8
					c0,0,0,0.1-0.1,0.1H72.8z"/>
				<path class="st0" d="M74.5,82.5C74.4,82.5,74.4,82.5,74.5,82.5l-0.1-2.8c0,0,0-0.1,0.1-0.1H75c0,0,0.1,0,0.1,0.1v0.2h0
					c0.1-0.1,0.2-0.2,0.3-0.3c0.1-0.1,0.3-0.1,0.5-0.1c0.1,0,0.2,0,0.3,0.1c0.1,0,0.2,0.1,0.3,0.2c0,0,0,0.1,0,0.1l-0.3,0.4
					c0,0-0.1,0-0.1,0c-0.1,0-0.1-0.1-0.2-0.1c-0.1,0-0.1,0-0.2,0c-0.2,0-0.3,0.1-0.4,0.2s-0.1,0.3-0.1,0.5v1.6c0,0,0,0.1-0.1,0.1
					H74.5z"/>
				<path class="st0" d="M78.9,82.5C78.9,82.5,78.9,82.5,78.9,82.5l-0.1-0.3h0c-0.1,0.1-0.2,0.2-0.3,0.2c-0.1,0.1-0.3,0.1-0.5,0.1
					c-0.2,0-0.3,0-0.4-0.1c-0.1-0.1-0.2-0.1-0.3-0.2c-0.1-0.1-0.2-0.2-0.2-0.3s-0.1-0.3-0.1-0.4v-1.8c0,0,0-0.1,0.1-0.1h0.6
					c0,0,0.1,0,0.1,0.1v1.7c0,0.2,0,0.3,0.1,0.5s0.2,0.2,0.4,0.2c0.2,0,0.3-0.1,0.4-0.2c0.1-0.1,0.1-0.3,0.1-0.5v-1.7
					c0,0,0-0.1,0.1-0.1h0.6c0,0,0.1,0,0.1,0.1v2.8c0,0,0,0.1-0.1,0.1H78.9z"/>
				<path class="st0" d="M81.7,82.6c-0.3,0-0.5-0.1-0.8-0.2c-0.2-0.1-0.4-0.3-0.4-0.6c-0.1-0.2-0.1-0.4-0.1-0.7s0-0.5,0.1-0.7
					c0.1-0.3,0.2-0.5,0.4-0.6c0.2-0.1,0.5-0.2,0.8-0.2c0.2,0,0.4,0,0.6,0.1s0.3,0.2,0.4,0.3c0,0,0,0.1,0,0.1l-0.4,0.3
					c0,0-0.1,0-0.1,0c-0.1-0.1-0.1-0.1-0.2-0.2s-0.2-0.1-0.3-0.1c-0.1,0-0.2,0-0.3,0.1c-0.1,0.1-0.2,0.2-0.2,0.3c0,0.1,0,0.2,0,0.2
					c0,0.1,0,0.2,0,0.3c0,0.1,0,0.2,0,0.3c0,0.1,0,0.2,0,0.2c0,0.1,0.1,0.2,0.2,0.3c0.1,0.1,0.2,0.1,0.3,0.1c0.1,0,0.2,0,0.3-0.1
					s0.2-0.1,0.2-0.2c0,0,0.1,0,0.1,0l0.4,0.3c0,0,0,0,0,0.1c-0.1,0.1-0.3,0.2-0.4,0.3S81.9,82.6,81.7,82.6z"/>
				<path class="st0" d="M85.3,82.5C85.2,82.5,85.2,82.5,85.3,82.5l-0.1-0.3h0c-0.1,0.1-0.2,0.2-0.3,0.2c-0.1,0.1-0.3,0.1-0.5,0.1
					c-0.1,0-0.3,0-0.4-0.1c-0.1,0-0.2-0.1-0.3-0.2c-0.1-0.1-0.2-0.2-0.2-0.3s-0.1-0.2-0.1-0.4c0-0.3,0.1-0.5,0.3-0.7
					c0.2-0.1,0.5-0.2,0.8-0.2h0.6c0,0,0,0,0,0v-0.1c0-0.2,0-0.3-0.1-0.4c-0.1-0.1-0.3-0.1-0.5-0.1c-0.2,0-0.3,0-0.4,0.1
					s-0.2,0.1-0.3,0.1c0,0-0.1,0-0.1,0l-0.2-0.4c0,0,0-0.1,0-0.1c0.1-0.1,0.3-0.2,0.4-0.2s0.4-0.1,0.6-0.1c0.4,0,0.8,0.1,0.9,0.2
					c0.2,0.2,0.3,0.4,0.3,0.8v1.9c0,0,0,0.1-0.1,0.1H85.3z M84.6,82c0.2,0,0.4,0,0.5-0.1s0.2-0.2,0.2-0.4v-0.2c0,0,0,0,0,0h-0.5
					c-0.2,0-0.4,0-0.5,0.1c-0.1,0.1-0.1,0.2-0.1,0.3C84.1,81.9,84.2,82,84.6,82z"/>
				<path class="st0" d="M86.9,79.1C86.8,79.1,86.8,79,86.9,79.1l-0.1-0.6c0,0,0-0.1,0.1-0.1h0.6c0,0,0.1,0,0.1,0.1V79
					c0,0,0,0.1-0.1,0.1H86.9z M86.9,82.5C86.8,82.5,86.8,82.5,86.9,82.5l-0.1-2.8c0,0,0-0.1,0.1-0.1h0.6c0,0,0.1,0,0.1,0.1v2.8
					c0,0,0,0.1-0.1,0.1H86.9z"/>
				<path class="st0" d="M89.6,82.6c-0.3,0-0.5-0.1-0.8-0.2c-0.2-0.1-0.4-0.3-0.4-0.6c-0.1-0.2-0.1-0.4-0.1-0.7s0-0.5,0.1-0.7
					c0.1-0.3,0.2-0.5,0.4-0.6c0.2-0.1,0.5-0.2,0.8-0.2c0.2,0,0.4,0,0.6,0.1s0.3,0.2,0.4,0.3c0,0,0,0.1,0,0.1l-0.4,0.3
					c0,0-0.1,0-0.1,0c-0.1-0.1-0.1-0.1-0.2-0.2s-0.2-0.1-0.3-0.1c-0.1,0-0.2,0-0.3,0.1c-0.1,0.1-0.2,0.2-0.2,0.3c0,0.1,0,0.2,0,0.2
					c0,0.1,0,0.2,0,0.3c0,0.1,0,0.2,0,0.3c0,0.1,0,0.2,0,0.2c0,0.1,0.1,0.2,0.2,0.3c0.1,0.1,0.2,0.1,0.3,0.1c0.1,0,0.2,0,0.3-0.1
					s0.2-0.1,0.2-0.2c0,0,0.1,0,0.1,0l0.4,0.3c0,0,0,0,0,0.1c-0.1,0.1-0.3,0.2-0.4,0.3S89.8,82.6,89.6,82.6z"/>
				<path class="st0" d="M92.6,82.6c-0.3,0-0.6-0.1-0.8-0.2c-0.2-0.1-0.4-0.3-0.4-0.6c0-0.1-0.1-0.2-0.1-0.3c0-0.1,0-0.2,0-0.4
					c0-0.2,0-0.3,0-0.4c0-0.1,0-0.2,0.1-0.3c0.1-0.3,0.2-0.4,0.4-0.6c0.2-0.1,0.5-0.2,0.7-0.2c0.3,0,0.6,0.1,0.8,0.2
					c0.2,0.1,0.3,0.3,0.4,0.6c0,0.1,0,0.1,0,0.2s0,0.1,0,0.2c0,0.1,0,0.1,0,0.2s0,0.2,0,0.3c0,0,0,0.1-0.1,0.1H92c0,0,0,0,0,0
					c0,0,0,0.1,0,0.1s0,0.1,0,0.1c0.1,0.3,0.3,0.4,0.6,0.4c0.2,0,0.3,0,0.4-0.1c0.1-0.1,0.2-0.1,0.3-0.2c0,0,0.1,0,0.1,0l0.4,0.3
					c0,0,0,0.1,0,0.1c-0.1,0.1-0.3,0.3-0.5,0.4S92.9,82.6,92.6,82.6z M93.2,80.7c0-0.1,0-0.2,0-0.2c0-0.1-0.1-0.2-0.2-0.3
					s-0.2-0.1-0.4-0.1c-0.1,0-0.3,0-0.4,0.1S92,80.4,92,80.5c0,0.1,0,0.2,0,0.2c0,0,0,0,0,0L93.2,80.7
					C93.2,80.8,93.2,80.8,93.2,80.7z"/>
			</g>
		</g>
		<polygon class="st0" points="35.2,86 35,85.8 45.4,75.4 45.6,75.6 		"/>
		<g>
			<g>
				<path class="st0" d="M1.4,82.5C1.3,82.5,1.3,82.5,1.4,82.5l-1.4-4c0,0,0-0.1,0.1-0.1h0.8c0,0,0.1,0,0.1,0.1l0.8,2.7h0l0.8-2.7
					c0,0,0-0.1,0.1-0.1h0.8c0,0,0.1,0,0,0.1l-1.3,4c0,0,0,0.1-0.1,0.1H1.4z"/>
				<path class="st0" d="M5.1,82.6c-0.3,0-0.6-0.1-0.8-0.2C4,82.2,3.9,82,3.8,81.8c0-0.1-0.1-0.2-0.1-0.3c0-0.1,0-0.2,0-0.4
					c0-0.1,0-0.3,0-0.4c0-0.1,0-0.2,0.1-0.3c0.1-0.3,0.2-0.5,0.5-0.6c0.2-0.1,0.5-0.2,0.8-0.2c0.3,0,0.6,0.1,0.8,0.2
					c0.2,0.1,0.4,0.3,0.5,0.6c0,0.1,0.1,0.2,0.1,0.3s0,0.2,0,0.4c0,0.1,0,0.3,0,0.4c0,0.1,0,0.2-0.1,0.3c-0.1,0.3-0.2,0.5-0.5,0.6
					C5.6,82.5,5.4,82.6,5.1,82.6z M5.1,81.9c0.2,0,0.4-0.1,0.5-0.3c0-0.1,0-0.1,0-0.2c0-0.1,0-0.2,0-0.3s0-0.2,0-0.3
					c0-0.1,0-0.1,0-0.2c-0.1-0.2-0.2-0.3-0.5-0.3c-0.2,0-0.4,0.1-0.5,0.3c0,0.1,0,0.1,0,0.2c0,0.1,0,0.2,0,0.3s0,0.2,0,0.3
					c0,0.1,0,0.1,0,0.2C4.7,81.8,4.8,81.9,5.1,81.9z"/>
				<path class="st0" d="M8.4,82.6c-0.3,0-0.6-0.1-0.8-0.2c-0.2-0.1-0.4-0.3-0.5-0.6c0-0.1-0.1-0.2-0.1-0.3c0-0.1,0-0.2,0-0.4
					c0-0.2,0-0.3,0-0.4c0-0.1,0-0.2,0.1-0.3c0.1-0.3,0.2-0.5,0.5-0.6c0.2-0.1,0.5-0.2,0.8-0.2c0.3,0,0.5,0.1,0.7,0.2
					c0.2,0.1,0.3,0.2,0.4,0.4c0,0,0,0.1,0,0.1l-0.5,0.3c0,0-0.1,0-0.1,0c-0.1-0.1-0.1-0.2-0.2-0.2c-0.1,0-0.2-0.1-0.3-0.1
					c-0.1,0-0.2,0-0.3,0.1C8,80.4,8,80.5,7.9,80.6c0,0.1,0,0.1,0,0.2c0,0.1,0,0.2,0,0.3s0,0.2,0,0.3c0,0.1,0,0.1,0,0.2
					c0,0.1,0.1,0.2,0.2,0.2s0.2,0.1,0.3,0.1c0.1,0,0.2,0,0.3-0.1c0.1,0,0.1-0.1,0.2-0.2c0,0,0.1,0,0.1,0l0.5,0.3c0,0,0,0.1,0,0.1
					c-0.1,0.2-0.3,0.3-0.4,0.4C8.8,82.5,8.6,82.6,8.4,82.6z"/>
				<path class="st0" d="M11.9,82.5C11.9,82.5,11.9,82.5,11.9,82.5l-0.1-0.3h0c-0.1,0.1-0.2,0.2-0.3,0.2c-0.1,0.1-0.3,0.1-0.5,0.1
					c-0.1,0-0.3,0-0.4-0.1c-0.1,0-0.2-0.1-0.3-0.2c-0.1-0.1-0.2-0.2-0.2-0.3s-0.1-0.2-0.1-0.4c0-0.3,0.1-0.6,0.3-0.7
					c0.2-0.2,0.5-0.2,0.9-0.2h0.5c0,0,0,0,0,0v-0.1c0-0.1,0-0.2-0.1-0.3c-0.1-0.1-0.2-0.1-0.5-0.1c-0.1,0-0.3,0-0.4,0.1
					c-0.1,0-0.2,0.1-0.3,0.1c0,0-0.1,0-0.1,0l-0.3-0.5c0,0,0-0.1,0-0.1c0.1-0.1,0.3-0.2,0.5-0.2c0.2-0.1,0.4-0.1,0.6-0.1
					c0.2,0,0.4,0,0.6,0.1s0.3,0.1,0.4,0.2c0.1,0.1,0.2,0.2,0.2,0.3s0.1,0.3,0.1,0.5v1.9c0,0,0,0.1-0.1,0.1H11.9z M11.3,81.9
					c0.4,0,0.5-0.1,0.5-0.4v-0.2c0,0,0,0,0,0h-0.4c-0.3,0-0.5,0.1-0.5,0.3C10.9,81.8,11,81.9,11.3,81.9z"/>
				<path class="st0" d="M14.4,82.5c-0.3,0-0.6-0.1-0.7-0.2c-0.1-0.1-0.2-0.4-0.2-0.7v-3.1c0,0,0-0.1,0.1-0.1h0.7c0,0,0.1,0,0.1,0.1
					v3.1c0,0.1,0,0.2,0.1,0.2s0.1,0.1,0.2,0.1h0.1c0,0,0.1,0,0.1,0.1v0.6c0,0,0,0.1-0.1,0.1H14.4z"/>
				<path class="st0" d="M18,82.6c-0.3,0-0.6-0.1-0.8-0.2c-0.2-0.1-0.4-0.3-0.5-0.6c0-0.1-0.1-0.2-0.1-0.3c0-0.1,0-0.2,0-0.4
					c0-0.2,0-0.3,0-0.4c0-0.1,0-0.2,0.1-0.3c0.1-0.3,0.2-0.5,0.5-0.6c0.2-0.1,0.5-0.2,0.8-0.2c0.3,0,0.6,0.1,0.8,0.2
					c0.2,0.1,0.4,0.3,0.4,0.6c0,0,0,0.1,0,0.2s0,0.1,0,0.2c0,0.1,0,0.1,0,0.2s0,0.2,0,0.3c0,0,0,0.1-0.1,0.1h-1.8c0,0,0,0,0,0
					c0,0.1,0,0.1,0,0.2c0,0.1,0.1,0.2,0.2,0.3c0.1,0.1,0.2,0.1,0.4,0.1c0.1,0,0.3,0,0.4-0.1c0.1,0,0.2-0.1,0.3-0.2c0,0,0.1,0,0.1,0
					l0.4,0.4c0,0,0,0.1,0,0.1c-0.1,0.1-0.3,0.3-0.5,0.4S18.3,82.6,18,82.6z M18.4,80.7C18.5,80.7,18.5,80.7,18.4,80.7
					c0-0.1,0-0.1,0-0.2s0-0.1,0-0.1c0-0.1-0.1-0.2-0.2-0.2c-0.1-0.1-0.2-0.1-0.3-0.1s-0.2,0-0.3,0.1c-0.1,0.1-0.1,0.1-0.2,0.2
					c0,0,0,0.1,0,0.1s0,0.1,0,0.1c0,0,0,0,0,0H18.4z"/>
				<path class="st0" d="M21.8,82.5C21.8,82.5,21.8,82.5,21.8,82.5l-0.1-0.3h0c-0.1,0.1-0.2,0.2-0.3,0.2c-0.1,0.1-0.3,0.1-0.5,0.1
					c-0.2,0-0.5-0.1-0.6-0.2c-0.2-0.1-0.3-0.3-0.4-0.5c0-0.1-0.1-0.2-0.1-0.4c0-0.1,0-0.3,0-0.5c0-0.2,0-0.3,0-0.5
					c0-0.1,0-0.2,0.1-0.4c0.1-0.2,0.2-0.4,0.4-0.5s0.4-0.2,0.6-0.2c0.2,0,0.3,0,0.5,0.1s0.2,0.1,0.3,0.2h0v-1.4c0,0,0-0.1,0.1-0.1
					h0.7c0,0,0.1,0,0.1,0.1v4c0,0,0,0.1-0.1,0.1H21.8z M21.3,81.9c0.2,0,0.4-0.1,0.4-0.3c0-0.1,0-0.1,0-0.2c0-0.1,0-0.2,0-0.3
					s0-0.2,0-0.3s0-0.1,0-0.2c-0.1-0.2-0.2-0.3-0.4-0.3c-0.2,0-0.4,0.1-0.5,0.3c0,0.1,0,0.1,0,0.2c0,0.1,0,0.2,0,0.3s0,0.2,0,0.3
					c0,0.1,0,0.1,0,0.2C20.9,81.8,21,81.9,21.3,81.9z"/>
				<path class="st0" d="M23.5,79.1C23.5,79.1,23.5,79.1,23.5,79.1l-0.1-0.7c0,0,0-0.1,0.1-0.1h0.7c0,0,0.1,0,0.1,0.1v0.6
					c0,0,0,0.1-0.1,0.1H23.5z M23.5,82.5C23.5,82.5,23.5,82.5,23.5,82.5l-0.1-2.8c0,0,0-0.1,0.1-0.1h0.7c0,0,0.1,0,0.1,0.1v2.8
					c0,0,0,0.1-0.1,0.1H23.5z"/>
				<path class="st0" d="M26.2,82.5c-0.3,0-0.6-0.1-0.7-0.2c-0.1-0.2-0.2-0.4-0.2-0.7v-1.3c0,0,0,0,0,0h-0.2c0,0-0.1,0-0.1-0.1v-0.5
					c0,0,0-0.1,0.1-0.1h0.2c0,0,0,0,0,0v-0.8c0,0,0-0.1,0.1-0.1H26c0,0,0.1,0,0.1,0.1v0.8c0,0,0,0,0,0h0.4c0,0,0.1,0,0.1,0.1v0.5
					c0,0,0,0.1-0.1,0.1h-0.4c0,0,0,0,0,0v1.3c0,0.1,0,0.2,0.1,0.2s0.1,0.1,0.2,0.1h0.1c0,0,0.1,0,0.1,0.1v0.6c0,0,0,0.1-0.1,0.1
					H26.2z"/>
			</g>
		</g>
		<g>
			<g>
				<path class="st0" d="M0.3,55.7C0.3,55.7,0.3,55.7,0.3,55.7l0.8-0.1c0,0,0.1,0,0.1,0.1v3.2c0,0,0,0,0,0H3c0,0,0.1,0,0.1,0.1v0.7
					c0,0,0,0.1-0.1,0.1H0.4c0,0-0.1,0-0.1-0.1V55.7z"/>
				<path class="st0" d="M3.7,60.8C3.7,60.8,3.7,60.8,3.7,60.8l-0.1-0.6c0,0,0-0.1,0.1-0.1h0.1c0.1,0,0.2,0,0.2-0.1
					c0.1,0,0.1-0.1,0.1-0.2l0.1-0.2l-1.1-2.7c0,0,0-0.1,0-0.1h0.8c0,0,0.1,0,0.1,0.1l0.6,1.7h0l0.5-1.7c0,0,0-0.1,0.1-0.1h0.7
					c0,0,0.1,0,0,0.1L5,60c-0.1,0.2-0.1,0.3-0.2,0.4c-0.1,0.1-0.1,0.2-0.2,0.3c-0.1,0.1-0.2,0.1-0.3,0.1c-0.1,0-0.2,0-0.3,0H3.7z"/>
				<path class="st0" d="M6.8,59.8C6.8,59.8,6.8,59.7,6.8,59.8l-0.1-2.8c0,0,0-0.1,0.1-0.1h0.7c0,0,0.1,0,0.1,0.1v0.2h0
					c0.1-0.1,0.2-0.2,0.3-0.3c0.1-0.1,0.3-0.1,0.5-0.1c0.1,0,0.2,0,0.3,0s0.2,0.1,0.2,0.1c0,0,0,0.1,0,0.1l-0.3,0.6c0,0,0,0-0.1,0
					c-0.1-0.1-0.3-0.1-0.4-0.1c-0.2,0-0.3,0.1-0.3,0.2c-0.1,0.1-0.1,0.3-0.1,0.5v1.5c0,0,0,0.1-0.1,0.1H6.8z"/>
				<path class="st0" d="M9.5,56.4C9.5,56.4,9.5,56.4,9.5,56.4l-0.1-0.7c0,0,0-0.1,0.1-0.1h0.7c0,0,0.1,0,0.1,0.1v0.6
					c0,0,0,0.1-0.1,0.1H9.5z M9.5,59.8C9.5,59.8,9.5,59.7,9.5,59.8l-0.1-2.8c0,0,0-0.1,0.1-0.1h0.7c0,0,0.1,0,0.1,0.1v2.8
					c0,0,0,0.1-0.1,0.1H9.5z"/>
				<path class="st0" d="M12.4,59.8c-0.3,0-0.6-0.1-0.8-0.2c-0.2-0.1-0.4-0.3-0.5-0.6c0-0.1-0.1-0.2-0.1-0.3c0-0.1,0-0.2,0-0.4
					c0-0.2,0-0.3,0-0.4c0-0.1,0-0.2,0.1-0.3c0.1-0.3,0.2-0.5,0.5-0.6c0.2-0.1,0.5-0.2,0.8-0.2c0.3,0,0.5,0.1,0.7,0.2
					c0.2,0.1,0.3,0.2,0.4,0.4c0,0,0,0.1,0,0.1L13,57.8c0,0-0.1,0-0.1,0c-0.1-0.1-0.1-0.2-0.2-0.2c-0.1,0-0.2-0.1-0.3-0.1
					c-0.1,0-0.2,0-0.3,0.1c-0.1,0.1-0.1,0.1-0.2,0.2c0,0.1,0,0.1,0,0.2c0,0.1,0,0.2,0,0.3s0,0.2,0,0.3c0,0.1,0,0.1,0,0.2
					c0,0.1,0.1,0.2,0.2,0.2s0.2,0.1,0.3,0.1c0.1,0,0.2,0,0.3-0.1c0.1,0,0.1-0.1,0.2-0.2c0,0,0.1,0,0.1,0l0.5,0.3c0,0,0,0.1,0,0.1
					c-0.1,0.2-0.3,0.3-0.4,0.4C12.9,59.8,12.7,59.8,12.4,59.8z"/>
				<path class="st0" d="M15.4,59.8c-0.3,0-0.6,0-0.8-0.1c-0.2-0.1-0.4-0.2-0.5-0.3c0,0,0-0.1,0-0.1l0.4-0.4c0,0,0.1,0,0.1,0
					c0.1,0.1,0.3,0.2,0.4,0.2c0.2,0.1,0.3,0.1,0.5,0.1c0.2,0,0.3,0,0.3-0.1c0.1-0.1,0.1-0.1,0.1-0.2c0-0.1,0-0.1-0.1-0.2
					c-0.1,0-0.2-0.1-0.3-0.1l-0.3,0c-0.3,0-0.5-0.1-0.7-0.3c-0.2-0.1-0.2-0.4-0.2-0.6c0-0.3,0.1-0.5,0.3-0.7s0.5-0.2,0.9-0.2
					c0.2,0,0.5,0,0.7,0.1c0.2,0.1,0.4,0.2,0.5,0.3c0,0,0,0.1,0,0.1l-0.3,0.4c0,0-0.1,0-0.1,0c-0.1-0.1-0.2-0.1-0.4-0.2
					s-0.3-0.1-0.4-0.1c-0.1,0-0.2,0-0.3,0.1c-0.1,0-0.1,0.1-0.1,0.2c0,0.1,0,0.1,0.1,0.2s0.2,0.1,0.3,0.1l0.3,0
					c0.3,0,0.6,0.1,0.7,0.3c0.2,0.2,0.2,0.4,0.2,0.6c0,0.3-0.1,0.5-0.3,0.7C16.2,59.7,15.9,59.8,15.4,59.8z"/>
			</g>
		</g>
	</g>
</g>
</svg>
