<svg xmlns="http://www.w3.org/2000/svg" viewBox="0 0 167.65 93.03"><defs><style>.cls-1{fill:#0067d8;}.cls-2{fill:#fff;}</style></defs><title>アートボード 1</title><g id="label"><path class="cls-1" d="M53.72,50.25a.05.05,0,0,1-.06-.06v-.52a.05.05,0,0,1,.06-.06h.55a.05.05,0,0,1,.06.06v.52a.05.05,0,0,1-.06.06Zm0,3.44a.05.05,0,0,1-.06-.06V50.86a.05.05,0,0,1,.06-.06h.55a.05.05,0,0,1,.06.06v2.77a.05.05,0,0,1-.06.06Z"/><path class="cls-1" d="M55.37,53.69a.05.05,0,0,1-.06-.06V50.86a.05.05,0,0,1,.06-.06h.56a.05.05,0,0,1,.06.06v.25h0a.69.69,0,0,1,.29-.27.92.92,0,0,1,.46-.11,1,1,0,0,1,.34.07.8.8,0,0,1,.27.18.05.05,0,0,1,0,.08l-.32.4a0,0,0,0,1-.08,0l-.21-.1a.72.72,0,0,0-.22,0,.45.45,0,0,0-.41.2.9.9,0,0,0-.13.54v1.56a.05.05,0,0,1-.06.06Z"/><path class="cls-1" d="M59.85,53.69a.05.05,0,0,1-.06-.06v-.21h0a1.16,1.16,0,0,1-.29.25,1,1,0,0,1-.46.09,1.07,1.07,0,0,1-.41-.08.9.9,0,0,1-.51-.57,1.16,1.16,0,0,1-.07-.42V50.86a.05.05,0,0,1,.06-.06h.55a.05.05,0,0,1,.06.06v1.67a.69.69,0,0,0,.13.45.47.47,0,0,0,.41.18.49.49,0,0,0,.4-.18.69.69,0,0,0,.14-.45V50.86a.05.05,0,0,1,.06-.06h.55a.05.05,0,0,1,.06.06v2.77a.05.05,0,0,1-.06.06Z"/><path class="cls-1" d="M62.6,53.76a1.4,1.4,0,0,1-.75-.2,1.08,1.08,0,0,1-.44-.6,2.32,2.32,0,0,1-.09-.71,2.34,2.34,0,0,1,.09-.72,1,1,0,0,1,.44-.59,1.32,1.32,0,0,1,.75-.21,1.34,1.34,0,0,1,.58.12,1.26,1.26,0,0,1,.42.34s0,.05,0,.08l-.38.33a.06.06,0,0,1-.09,0,.69.69,0,0,0-.23-.19.66.66,0,0,0-.3-.07.59.59,0,0,0-.33.1.51.51,0,0,0-.21.28A1.44,1.44,0,0,0,62,52a4.51,4.51,0,0,0,0,.6,1.44,1.44,0,0,0,.05.24.6.6,0,0,0,.21.28.58.58,0,0,0,.33.09.56.56,0,0,0,.3-.07.66.66,0,0,0,.23-.18.06.06,0,0,1,.09,0l.38.33a.06.06,0,0,1,0,.08,1.23,1.23,0,0,1-.42.33A1.34,1.34,0,0,1,62.6,53.76Z"/><path class="cls-1" d="M66.19,53.69a.05.05,0,0,1-.06-.06v-.21h0a.79.79,0,0,1-.31.25,1.29,1.29,0,0,1-.51.09,1.1,1.1,0,0,1-.37-.06.76.76,0,0,1-.31-.16.71.71,0,0,1-.21-.27,1,1,0,0,1,.23-1.09A1.41,1.41,0,0,1,65.5,52h.58s0,0,0,0v-.14a.44.44,0,0,0-.14-.36.79.79,0,0,0-.5-.11,1.11,1.11,0,0,0-.4,0,1,1,0,0,0-.26.14s-.07,0-.09,0l-.22-.39a.06.06,0,0,1,0-.08,1.38,1.38,0,0,1,.42-.21,2.15,2.15,0,0,1,.61-.08,1.35,1.35,0,0,1,.93.25.93.93,0,0,1,.28.76v1.89a.05.05,0,0,1-.06.06Zm-.71-.48a.83.83,0,0,0,.48-.12.42.42,0,0,0,.16-.37V52.5a0,0,0,0,0,0,0H65.6a.84.84,0,0,0-.47.1.32.32,0,0,0-.15.29C65,53.09,65.15,53.21,65.48,53.21Z"/><path class="cls-1" d="M67.79,50.25a.05.05,0,0,1-.06-.06v-.52a.05.05,0,0,1,.06-.06h.55a.05.05,0,0,1,.06.06v.52a.05.05,0,0,1-.06.06Zm0,3.44a.05.05,0,0,1-.06-.06V50.86a.05.05,0,0,1,.06-.06h.55a.05.05,0,0,1,.06.06v2.77a.05.05,0,0,1-.06.06Z"/><path class="cls-1" d="M70.54,53.76a1.4,1.4,0,0,1-.75-.2,1.08,1.08,0,0,1-.44-.6,2.32,2.32,0,0,1-.09-.71,2.34,2.34,0,0,1,.09-.72,1,1,0,0,1,.44-.59,1.32,1.32,0,0,1,.75-.21,1.34,1.34,0,0,1,.58.12,1.26,1.26,0,0,1,.42.34s0,.05,0,.08l-.38.33a.06.06,0,0,1-.09,0,.8.8,0,0,0-.23-.19.66.66,0,0,0-.3-.07.59.59,0,0,0-.33.1.47.47,0,0,0-.21.28A1.44,1.44,0,0,0,70,52a4.5,4.5,0,0,0,0,.6,1.44,1.44,0,0,0,0,.24.54.54,0,0,0,.21.28.58.58,0,0,0,.33.09.56.56,0,0,0,.3-.07.76.76,0,0,0,.23-.18.06.06,0,0,1,.09,0l.38.33a.06.06,0,0,1,0,.08,1.23,1.23,0,0,1-.42.33A1.34,1.34,0,0,1,70.54,53.76Z"/><path class="cls-1" d="M73.51,53.76a1.32,1.32,0,0,1-.77-.21,1.12,1.12,0,0,1-.44-.6,2.21,2.21,0,0,1-.07-.3,2.41,2.41,0,0,1,0-.4c0-.15,0-.29,0-.4a1.36,1.36,0,0,1,.08-.32,1.08,1.08,0,0,1,.43-.59,1.4,1.4,0,0,1,.75-.21,1.34,1.34,0,0,1,.76.22,1.1,1.1,0,0,1,.43.58s0,.11,0,.16,0,.11,0,.18,0,.14,0,.23v.3a.05.05,0,0,1-.06.06H72.92a0,0,0,0,0,0,0,.49.49,0,0,0,0,.12l0,.1a.63.63,0,0,0,.65.44,1,1,0,0,0,.41-.08,1.05,1.05,0,0,0,.27-.2.06.06,0,0,1,.09,0l.35.31s0,0,0,.09a1.5,1.5,0,0,1-.49.35A1.68,1.68,0,0,1,73.51,53.76Zm.57-1.84a.88.88,0,0,0,0-.24.54.54,0,0,0-.21-.28.68.68,0,0,0-.35-.09.7.7,0,0,0-.37.09.58.58,0,0,0-.2.28.61.61,0,0,0,0,.24s0,0,0,0h1.13S74.08,52,74.08,51.92Z"/><path class="cls-1" d="M67.81,3.66a.05.05,0,0,1-.06-.06V3.08A.05.05,0,0,1,67.81,3h.55s.07,0,.07.06V3.6s0,.06-.07.06Zm0,3.44A.05.05,0,0,1,67.75,7V4.27a.05.05,0,0,1,.06-.06h.55s.07,0,.07.06V7s0,.06-.07.06Z"/><path class="cls-1" d="M69.47,7.1A.05.05,0,0,1,69.41,7V4.27a.05.05,0,0,1,.06-.06H70a.05.05,0,0,1,.06.06v.25h0a.71.71,0,0,1,.29-.28,1,1,0,0,1,.46-.1.72.72,0,0,1,.33.07.73.73,0,0,1,.27.17s0,.06,0,.09l-.32.4a.05.05,0,0,1-.08,0,1,1,0,0,0-.21-.1.78.78,0,0,0-.22,0,.48.48,0,0,0-.42.2,1,1,0,0,0-.13.54V7A.05.05,0,0,1,70,7.1Z"/><path class="cls-1" d="M74,7.1A.05.05,0,0,1,73.89,7V6.83h0a.89.89,0,0,1-.3.24.86.86,0,0,1-.45.1,1.08,1.08,0,0,1-.42-.08,1,1,0,0,1-.31-.23,1,1,0,0,1-.2-.34,1.43,1.43,0,0,1-.07-.43V4.27a.05.05,0,0,1,.06-.06h.56a.05.05,0,0,1,.06.06V5.94a.69.69,0,0,0,.13.45.47.47,0,0,0,.41.18.46.46,0,0,0,.39-.18.64.64,0,0,0,.15-.45V4.27A.05.05,0,0,1,74,4.21h.55a.05.05,0,0,1,.06.06V7a.05.05,0,0,1-.06.06Z"/><path class="cls-1" d="M76.7,7.17A1.32,1.32,0,0,1,76,7a1,1,0,0,1-.45-.59,2.34,2.34,0,0,1-.09-.72,2.32,2.32,0,0,1,.09-.71A1,1,0,0,1,76,4.35a1.32,1.32,0,0,1,.75-.21,1.29,1.29,0,0,1,.57.12,1.27,1.27,0,0,1,.43.33s0,.06,0,.09L77.32,5s-.06,0-.09,0A1,1,0,0,0,77,4.81a.66.66,0,0,0-.3-.07.52.52,0,0,0-.33.1.47.47,0,0,0-.21.28.85.85,0,0,0,0,.24,2.53,2.53,0,0,0,0,.29,2.63,2.63,0,0,0,0,.3.85.85,0,0,0,0,.24.47.47,0,0,0,.21.28.52.52,0,0,0,.33.1A.56.56,0,0,0,77,6.5a.67.67,0,0,0,.23-.19.06.06,0,0,1,.09,0l.37.33a.05.05,0,0,1,0,.08,1.27,1.27,0,0,1-.43.33A1.29,1.29,0,0,1,76.7,7.17Z"/><path class="cls-1" d="M80.29,7.1A.05.05,0,0,1,80.23,7V6.83h0a.67.67,0,0,1-.3.24,1.13,1.13,0,0,1-.51.1A1.21,1.21,0,0,1,79,7.11.83.83,0,0,1,78.72,7a.82.82,0,0,1-.21-.27,1,1,0,0,1-.07-.4.81.81,0,0,1,.3-.69,1.43,1.43,0,0,1,.85-.22h.59a0,0,0,0,0,0,0V5.19a.43.43,0,0,0-.14-.36.78.78,0,0,0-.5-.12,1.18,1.18,0,0,0-.41.06.74.74,0,0,0-.25.14s-.07,0-.09,0l-.22-.4s0-.06,0-.07A1.38,1.38,0,0,1,79,4.22a2.15,2.15,0,0,1,.61-.08,1.4,1.4,0,0,1,.93.24,1,1,0,0,1,.27.77V7a.05.05,0,0,1-.06.06Zm-.71-.48a.8.8,0,0,0,.47-.12.43.43,0,0,0,.17-.37V5.91s0,0,0,0H79.7a1,1,0,0,0-.47.09.34.34,0,0,0-.15.3C79.08,6.5,79.24,6.62,79.58,6.62Z"/><path class="cls-1" d="M81.89,3.66a.05.05,0,0,1-.06-.06V3.08A.05.05,0,0,1,81.89,3h.55a.05.05,0,0,1,.06.06V3.6a.05.05,0,0,1-.06.06Zm0,3.44A.05.05,0,0,1,81.83,7V4.27a.05.05,0,0,1,.06-.06h.55a.05.05,0,0,1,.06.06V7a.05.05,0,0,1-.06.06Z"/><path class="cls-1" d="M84.64,7.17A1.35,1.35,0,0,1,83.88,7a1.07,1.07,0,0,1-.44-.59,2.34,2.34,0,0,1-.09-.72,2.32,2.32,0,0,1,.09-.71,1.07,1.07,0,0,1,.44-.59,1.35,1.35,0,0,1,.76-.21,1.32,1.32,0,0,1,.57.12,1.27,1.27,0,0,1,.43.33s0,.06,0,.09L85.25,5a0,0,0,0,1-.08,0,1,1,0,0,0-.23-.18.66.66,0,0,0-.3-.07.57.57,0,0,0-.34.1.5.5,0,0,0-.2.28.85.85,0,0,0,0,.24,2.53,2.53,0,0,0,0,.29,2.63,2.63,0,0,0,0,.3.85.85,0,0,0,0,.24.5.5,0,0,0,.2.28.57.57,0,0,0,.34.1.56.56,0,0,0,.3-.07.67.67,0,0,0,.23-.19.05.05,0,0,1,.08,0l.38.33a.05.05,0,0,1,0,.08,1.27,1.27,0,0,1-.43.33A1.32,1.32,0,0,1,84.64,7.17Z"/><path class="cls-1" d="M87.61,7.17A1.31,1.31,0,0,1,86.83,7a1.08,1.08,0,0,1-.43-.59,2,2,0,0,1-.08-.31c0-.11,0-.24,0-.4s0-.28,0-.4a2.38,2.38,0,0,1,.07-.31,1.09,1.09,0,0,1,.44-.59,1.32,1.32,0,0,1,.75-.21,1.26,1.26,0,0,1,.76.22,1.09,1.09,0,0,1,.42.58s0,.11,0,.16l0,.18c0,.07,0,.14,0,.23a2.63,2.63,0,0,1,0,.3s0,.06-.07.06H87s0,0,0,0A.49.49,0,0,0,87,6l0,.1a.62.62,0,0,0,.65.44.92.92,0,0,0,.4-.08.79.79,0,0,0,.27-.2s.07,0,.09,0l.36.31s0,0,0,.09a1.36,1.36,0,0,1-.48.35A1.71,1.71,0,0,1,87.61,7.17Zm.57-1.84a.88.88,0,0,0,0-.24.54.54,0,0,0-.21-.28.7.7,0,0,0-.72,0,.54.54,0,0,0-.21.28.88.88,0,0,0,0,.24s0,0,0,0h1.14S88.18,5.35,88.18,5.33Z"/><rect class="cls-1" x="53.22" y="2.28" width="10.94" height="5.93"/><path class="cls-2" d="M56.29,7.13a.76.76,0,0,1-.59-.19.89.89,0,0,1-.18-.61V5.23a0,0,0,0,0,0,0h-.15a0,0,0,0,1-.05,0V4.73a0,0,0,0,1,.05-.05h.15a0,0,0,0,0,0,0V4a0,0,0,0,1,0,0h.6a0,0,0,0,1,0,0v.65a0,0,0,0,0,0,0h.31a0,0,0,0,1,0,.05v.42a0,0,0,0,1,0,0h-.31a0,0,0,0,0,0,0V6.3a.26.26,0,0,0,.05.18.21.21,0,0,0,.17.06h.12s0,0,0,0v.49a0,0,0,0,1,0,0Z"/><path class="cls-2" d="M57.29,7.1a0,0,0,0,1,0,0V4.73a0,0,0,0,1,0-.05h.6a0,0,0,0,1,0,.05v.21h0a.49.49,0,0,1,.24-.23.8.8,0,0,1,.39-.08.91.91,0,0,1,.23,0,.59.59,0,0,1,.19.11.06.06,0,0,1,0,.07l-.28.51a.06.06,0,0,1-.07,0,.62.62,0,0,0-.35-.11A.36.36,0,0,0,58,5.4a.67.67,0,0,0-.09.38V7.05a0,0,0,0,1,0,0Z"/><path class="cls-2" d="M59.14,6.45s0,0,0,0h.59s0,0,0,0v.6s0,0,0,0h-.59s0,0,0,0Z"/><path class="cls-2" d="M61.11,4.49h0l-.54.37s-.06,0-.06,0V4.21a.08.08,0,0,1,0-.07l.57-.41a.12.12,0,0,1,.09,0h.56a0,0,0,0,1,.05,0v3.3a0,0,0,0,1-.05,0h-.6s0,0,0,0Z"/><rect class="cls-1" x="53.22" y="26.55" width="16.47" height="5.93"/><path class="cls-2" d="M56.29,31.4a.76.76,0,0,1-.59-.19.89.89,0,0,1-.18-.61V29.5a0,0,0,0,0,0,0h-.15a0,0,0,0,1-.05,0V29a0,0,0,0,1,.05-.05h.15a0,0,0,0,0,0,0v-.65a0,0,0,0,1,0-.05h.6a0,0,0,0,1,0,.05v.65a0,0,0,0,0,0,0h.31a0,0,0,0,1,0,.05v.42a0,0,0,0,1,0,0h-.31a0,0,0,0,0,0,0v1.07a.31.31,0,0,0,.05.19.25.25,0,0,0,.17,0h.12s0,0,0,.05v.49s0,0,0,0Z"/><path class="cls-2" d="M57.29,31.37s0,0,0-.05V29a0,0,0,0,1,0-.05h.6a0,0,0,0,1,0,.05v.21h0a.49.49,0,0,1,.24-.23.93.93,0,0,1,.39-.08.62.62,0,0,1,.23,0A.57.57,0,0,1,59,29a.07.07,0,0,1,0,.07l-.28.51a0,0,0,0,1-.07,0,.71.71,0,0,0-.35-.11.36.36,0,0,0-.29.15.67.67,0,0,0-.09.38v1.27s0,.05,0,.05Z"/><path class="cls-2" d="M59.14,30.72s0,0,0,0h.59s0,0,0,0v.6s0,.05,0,.05h-.59s0,0,0-.05Z"/><path class="cls-2" d="M60.52,30.65s0-.06,0-.07l.55-.1s0,0,.06,0a.44.44,0,0,0,.16.22.39.39,0,0,0,.29.1.35.35,0,0,0,.3-.13A.43.43,0,0,0,62,30.4a.47.47,0,0,0-.13-.36.5.5,0,0,0-.35-.12h-.14s-.05,0-.05-.05v-.49s0-.05.05-.05h.13a.38.38,0,0,0,.42-.42.39.39,0,0,0-.1-.29.34.34,0,0,0-.28-.11.42.42,0,0,0-.26.08.58.58,0,0,0-.13.23.05.05,0,0,1-.06,0l-.54-.11s-.05,0,0-.05a1,1,0,0,1,.11-.31.88.88,0,0,1,.22-.25,1,1,0,0,1,.32-.16,1.35,1.35,0,0,1,.41-.06,1.25,1.25,0,0,1,.45.07.89.89,0,0,1,.33.19.75.75,0,0,1,.2.3,1,1,0,0,1,.07.38.79.79,0,0,1-.1.4.73.73,0,0,1-.28.3h0a.66.66,0,0,1,.16.11.61.61,0,0,1,.14.17.88.88,0,0,1,.11.24,1.36,1.36,0,0,1,0,.3,1,1,0,0,1-.09.43.9.9,0,0,1-.23.32,1,1,0,0,1-.35.21,1.35,1.35,0,0,1-1.18-.13A.86.86,0,0,1,60.52,30.65Z"/><path class="cls-2" d="M63.4,30.72s0,0,.05,0H64s0,0,0,0v.61a.14.14,0,0,1,0,.1l-.5.45a.11.11,0,0,1-.07,0s-.05,0-.05-.05Z"/><path class="cls-2" d="M64.72,30.83v-.51a.35.35,0,0,1,0-.06l1-2.25a.1.1,0,0,1,.07,0h.64s0,0,0,.05l-1,2.24h.63a0,0,0,0,0,0,0v-.73s0-.05.05-.05h.58s0,0,0,.05v.73a0,0,0,0,0,0,0h.22s0,0,0,.05v.51s0,.05,0,.05h-.22a0,0,0,0,0,0,0v.41s0,.05,0,.05h-.58s-.05,0-.05-.05v-.41a0,0,0,0,0,0,0H64.77A0,0,0,0,1,64.72,30.83Z"/><rect class="cls-1" x="97.45" y="2.28" width="11.71" height="5.93"/><path class="cls-2" d="M100.52,7.13a.75.75,0,0,1-.59-.19.89.89,0,0,1-.18-.61V5.23a0,0,0,0,0,0,0h-.15a0,0,0,0,1,0,0V4.73a0,0,0,0,1,0-.05h.15a0,0,0,0,0,0,0V4a0,0,0,0,1,0,0h.6a0,0,0,0,1,0,0v.65a0,0,0,0,0,0,0h.31a0,0,0,0,1,0,.05v.42a0,0,0,0,1,0,0h-.31a0,0,0,0,0,0,0V6.3c0,.09,0,.15,0,.18a.21.21,0,0,0,.17.06h.12s0,0,0,0v.49a0,0,0,0,1,0,0Z"/><path class="cls-2" d="M101.52,7.1a0,0,0,0,1,0,0V4.73a0,0,0,0,1,0-.05h.6a0,0,0,0,1,0,.05v.21h0a.56.56,0,0,1,.25-.23.76.76,0,0,1,.38-.08l.24,0a.59.59,0,0,1,.19.11,0,0,0,0,1,0,.07l-.28.51s0,0-.07,0a.6.6,0,0,0-.35-.11.34.34,0,0,0-.28.15.67.67,0,0,0-.09.38V7.05a0,0,0,0,1,0,0Z"/><path class="cls-2" d="M103.37,6.45s0,0,0,0H104a0,0,0,0,1,0,0v.6a0,0,0,0,1,0,0h-.59s0,0,0,0Z"/><path class="cls-2" d="M104.75,6.38a.05.05,0,0,1,0-.07l.55-.1s0,0,.06,0a.44.44,0,0,0,.16.22.39.39,0,0,0,.29.1.38.38,0,0,0,.3-.13.43.43,0,0,0,.12-.31.44.44,0,0,0-.48-.48h-.14s-.05,0-.05-.05V5.11s0-.05.05-.05h.13a.38.38,0,0,0,.42-.42.39.39,0,0,0-.1-.29.35.35,0,0,0-.29-.11.34.34,0,0,0-.25.08.52.52,0,0,0-.13.23.05.05,0,0,1-.06,0l-.54-.11s0,0,0-.05a.87.87,0,0,1,.11-.32,1,1,0,0,1,.22-.24,1.09,1.09,0,0,1,.32-.17,1.7,1.7,0,0,1,.41-.05,1.25,1.25,0,0,1,.45.07.89.89,0,0,1,.33.19.79.79,0,0,1,.2.3.92.92,0,0,1,.07.38.79.79,0,0,1-.1.4.8.8,0,0,1-.28.3h0a.66.66,0,0,1,.16.11.61.61,0,0,1,.14.17,1.33,1.33,0,0,1,.11.24,1.36,1.36,0,0,1,0,.3,1,1,0,0,1-.09.43.9.9,0,0,1-.23.32,1.13,1.13,0,0,1-.35.21,1.29,1.29,0,0,1-.45.08,1.23,1.23,0,0,1-.73-.21A.89.89,0,0,1,104.75,6.38Z"/><rect class="cls-1" x="136.02" y="2.28" width="11.71" height="5.93"/><path class="cls-2" d="M139.1,7.13a.79.79,0,0,1-.6-.19.89.89,0,0,1-.17-.61V5.23a0,0,0,0,0,0,0h-.15s-.05,0-.05,0V4.73s0-.05.05-.05h.15a0,0,0,0,0,0,0V4s0,0,0,0H139A0,0,0,0,1,139,4v.65a0,0,0,0,0,0,0h.31s0,0,0,.05v.42s0,0,0,0h-.31a0,0,0,0,0,0,0V6.3a.26.26,0,0,0,0,.18.22.22,0,0,0,.17.06h.12s0,0,0,0v.49s0,0,0,0Z"/><path class="cls-2" d="M140.09,7.1a0,0,0,0,1-.05,0V4.73a0,0,0,0,1,.05-.05h.6s.05,0,.05.05v.21h0a.53.53,0,0,1,.24-.23.8.8,0,0,1,.39-.08.85.85,0,0,1,.23,0,.5.5,0,0,1,.19.11s0,0,0,.07l-.28.51a.06.06,0,0,1-.07,0,.62.62,0,0,0-.35-.11.36.36,0,0,0-.29.15.67.67,0,0,0-.09.38V7.05s0,0-.05,0Z"/><path class="cls-2" d="M141.94,6.45a0,0,0,0,1,.05,0h.6a0,0,0,0,1,0,0v.6a0,0,0,0,1,0,0H142a0,0,0,0,1-.05,0Z"/><path class="cls-2" d="M143.28,6.12a.82.82,0,0,1,.13-.48.85.85,0,0,1,.28-.31h0a.9.9,0,0,1-.23-.27.76.76,0,0,1-.1-.41,1,1,0,0,1,.07-.38.81.81,0,0,1,.21-.32.93.93,0,0,1,.33-.21,1.14,1.14,0,0,1,.46-.08,1.08,1.08,0,0,1,.46.08.89.89,0,0,1,.34.21,1.11,1.11,0,0,1,.21.32,1.22,1.22,0,0,1,.07.38.76.76,0,0,1-.11.41.89.89,0,0,1-.22.27h0a1,1,0,0,1,.28.31.9.9,0,0,1,.12.48,1.18,1.18,0,0,1-.08.43,1.08,1.08,0,0,1-.24.32,1.23,1.23,0,0,1-.37.21,1.34,1.34,0,0,1-.46.08,1.39,1.39,0,0,1-.46-.08,1,1,0,0,1-.6-.53A1,1,0,0,1,143.28,6.12Zm.69,0a.44.44,0,0,0,.13.34.42.42,0,0,0,.33.14.46.46,0,0,0,.34-.14.47.47,0,0,0,.12-.34.49.49,0,0,0-.12-.34.45.45,0,0,0-.34-.13.42.42,0,0,0-.33.13A.45.45,0,0,0,144,6.09ZM144.43,5a.38.38,0,0,0,.29-.12.38.38,0,0,0,.1-.27.43.43,0,0,0-.1-.29.38.38,0,0,0-.29-.11.36.36,0,0,0-.28.11.44.44,0,0,0-.11.29.39.39,0,0,0,.11.27A.36.36,0,0,0,144.43,5Z"/><path class="cls-1" d="M114.92,3.56a10.87,10.87,0,0,1-1.44.23c0,.24,0,.44,0,.63a2.3,2.3,0,0,1,.71-.1c0-.09,0-.15.08-.31l.51.12a1.83,1.83,0,0,0-.07.23,1.34,1.34,0,0,1,.67,2.32,2.22,2.22,0,0,1-1.13.61l-.31-.42c.86-.23,1.3-.64,1.3-1.21a.84.84,0,0,0-.69-.87,4.52,4.52,0,0,1-1,1.63c0,.19,0,.31.06.43L113,7a.84.84,0,0,0,0-.19V6.77a1.39,1.39,0,0,1-.68.24c-.35,0-.56-.25-.56-.67a2,2,0,0,1,.86-1.55,2.82,2.82,0,0,1,.29-.18c0-.09,0-.28,0-.77a8.43,8.43,0,0,1-.89,0l0-.51h.28l.67,0a1.55,1.55,0,0,1,0-.18V3.07s0-.11,0-.2l0-.31.55,0c0,.26-.07.57-.08.7a10.35,10.35,0,0,0,1.36-.24Zm-2,2.64c0-.22,0-.79,0-1a1.61,1.61,0,0,0-.6,1.12c0,.12,0,.19.13.19l.14,0a1.64,1.64,0,0,0,.37-.21Zm1-1.45a2.35,2.35,0,0,0-.57.13c0,.13,0,.17,0,.3s0,.33,0,.51v.1a5.07,5.07,0,0,0,.56-1v0Z"/><path class="cls-1" d="M118.89,3.18a1.7,1.7,0,0,0,0-.22l0-.38h.58v.74a1.46,1.46,0,0,1,1.33,1.55,1.36,1.36,0,0,1-1.39,1.5h-.07a2,2,0,0,1-.7,1l-.47-.34a1.65,1.65,0,0,0,.61-.78,1.79,1.79,0,0,1-.81-.62l.29-.42a1.44,1.44,0,0,0,.64.54,7.9,7.9,0,0,0,0-.94c0-.26,0-.57,0-1a2.12,2.12,0,0,0-.92.74A2.63,2.63,0,0,0,117.48,6a3.13,3.13,0,0,0,0,.49l-.55.1a12.5,12.5,0,0,1-.12-1.83A11.18,11.18,0,0,1,117,3l.57.1a7.61,7.61,0,0,0-.22,1.82,2.31,2.31,0,0,1,1.52-1.52Zm.61,1.05c0,.32,0,.39,0,.59a7,7,0,0,1-.06,1c.49,0,.78-.42.78-1a.92.92,0,0,0-.74-1Z"/><path class="cls-1" d="M122.84,2.57h.57l0,.74.87-.12.07.52-.95.12,0,1a1.16,1.16,0,0,1,.08.42,1.21,1.21,0,0,1-.16.63,1.19,1.19,0,0,0-.15.52c0,.11.06.18.2.23a2.74,2.74,0,0,0,.56.06,2.67,2.67,0,0,0,.77-.09.49.49,0,0,0,.24-.49,3.07,3.07,0,0,0-.19-1l.54,0a3.19,3.19,0,0,1,.24,1.15A.78.78,0,0,1,125,7a3.49,3.49,0,0,1-1.17.16,4.36,4.36,0,0,1-.67,0c-.43-.08-.63-.25-.63-.55a.77.77,0,0,1,.07-.32l-.2,0c-.4,0-.62-.34-.62-.91a1.18,1.18,0,0,1,.18-.64.8.8,0,0,1,.67-.43l.19,0V3.87c-.27,0-.42,0-.67,0h-.36V3.35a3,3,0,0,0,.4,0,6.07,6.07,0,0,0,.64,0Zm0,2.66c0-.3-.09-.48-.24-.48s-.38.29-.38.67.08.41.25.41.33-.17.37-.49Zm2.81-.38a6.13,6.13,0,0,0-1-1.25l.4-.33a6.32,6.32,0,0,1,1,1.17Z"/><path class="cls-1" d="M153.65,7a.05.05,0,0,1-.06-.06V5.26a.71.71,0,0,0-.13-.45.56.56,0,0,0-.82,0,.66.66,0,0,0-.14.45V6.93a.05.05,0,0,1-.06.06h-.56a.05.05,0,0,1-.06-.06V5.26a.71.71,0,0,0-.13-.45.56.56,0,0,0-.82,0,.66.66,0,0,0-.14.45V6.93a.05.05,0,0,1-.06.06h-.56s-.05,0-.05-.06V4.16s0-.06.05-.06h.56a.05.05,0,0,1,.06.06v.21h0a.89.89,0,0,1,.29-.24,1.06,1.06,0,0,1,.47-.1,1.08,1.08,0,0,1,.46.1.87.87,0,0,1,.34.29h0a1.08,1.08,0,0,1,.39-.28,1.27,1.27,0,0,1,.54-.11,1.23,1.23,0,0,1,.44.08,1,1,0,0,1,.33.23,1.08,1.08,0,0,1,.21.34,1.43,1.43,0,0,1,.07.43V6.93a.05.05,0,0,1-.06.06Z"/><path class="cls-1" d="M155.29,3.55a.05.05,0,0,1-.06-.06V3a.05.05,0,0,1,.06-.06h.56a.05.05,0,0,1,.06.06v.52a.05.05,0,0,1-.06.06Zm0,3.44a.05.05,0,0,1-.06-.06V4.16a.05.05,0,0,1,.06-.06h.56a.05.05,0,0,1,.06.06V6.93a.05.05,0,0,1-.06.06Z"/><path class="cls-1" d="M157,8.07a.05.05,0,0,1-.06-.06V4.16A.05.05,0,0,1,157,4.1h.55a.05.05,0,0,1,.06.06v.22h0a.72.72,0,0,1,.29-.25,1.2,1.2,0,0,1,1.11.08,1,1,0,0,1,.37.52,2.09,2.09,0,0,1,.08.34c0,.12,0,.28,0,.48s0,.35,0,.47a2.09,2.09,0,0,1-.08.34,1,1,0,0,1-.37.52,1.07,1.07,0,0,1-.63.18,1,1,0,0,1-.48-.1.7.7,0,0,1-.29-.24h0V8a.05.05,0,0,1-.06.06Zm1.21-1.61a.52.52,0,0,0,.54-.37,1.57,1.57,0,0,0,0-.23,2.41,2.41,0,0,0,0-.31,2.45,2.45,0,0,0,0-.32,1.24,1.24,0,0,0,0-.22.57.57,0,0,0-1.08,0,1.24,1.24,0,0,0,0,.22,2.45,2.45,0,0,0,0,.32,2.41,2.41,0,0,0,0,.31,1.57,1.57,0,0,0,0,.23A.52.52,0,0,0,158.16,6.46Z"/><path class="cls-1" d="M160.37,8.07a.05.05,0,0,1-.06-.06V4.16a.05.05,0,0,1,.06-.06h.55a.05.05,0,0,1,.06.06v.22h0a.79.79,0,0,1,.29-.25,1.14,1.14,0,0,1,.48-.1,1.07,1.07,0,0,1,.63.18.93.93,0,0,1,.37.52,1.4,1.4,0,0,1,.08.34,3,3,0,0,1,0,.48,3,3,0,0,1,0,.47,1.4,1.4,0,0,1-.08.34.93.93,0,0,1-.37.52,1.07,1.07,0,0,1-.63.18,1,1,0,0,1-.48-.1.76.76,0,0,1-.29-.24h0V8a.05.05,0,0,1-.06.06Zm1.21-1.61a.51.51,0,0,0,.53-.37,1.55,1.55,0,0,0,0-.23,2.73,2.73,0,0,0,0-.31,2.82,2.82,0,0,0,0-.32,1.19,1.19,0,0,0,0-.22A.57.57,0,0,0,161,5a1.19,1.19,0,0,0,0,.22,2.82,2.82,0,0,0,0,.32,2.73,2.73,0,0,0,0,.31,1.55,1.55,0,0,0,0,.23A.52.52,0,0,0,161.58,6.46Z"/><path class="cls-1" d="M165.44,7a.05.05,0,0,1-.06-.06V6.72h0a.7.7,0,0,1-.31.24,1.13,1.13,0,0,1-.51.1,1.1,1.1,0,0,1-.37-.06.76.76,0,0,1-.31-.16.71.71,0,0,1-.21-.27.8.8,0,0,1-.08-.39.79.79,0,0,1,.31-.7,1.41,1.41,0,0,1,.85-.22h.58s0,0,0,0V5.08a.44.44,0,0,0-.14-.36.78.78,0,0,0-.5-.12,1.09,1.09,0,0,0-.4.06,1,1,0,0,0-.26.14s-.07,0-.09,0l-.22-.4a0,0,0,0,1,0-.07,1.38,1.38,0,0,1,.42-.21A2.15,2.15,0,0,1,164.8,4a1.4,1.4,0,0,1,.93.24A1,1,0,0,1,166,5V6.93A.05.05,0,0,1,166,7Zm-.71-.48a.78.78,0,0,0,.47-.12.43.43,0,0,0,.17-.37V5.8s0,0,0,0h-.48a1,1,0,0,0-.47.09.34.34,0,0,0-.15.3C164.23,6.39,164.4,6.51,164.73,6.51Z"/><path class="cls-1" d="M167,3.55a.05.05,0,0,1-.06-.06V3a.05.05,0,0,1,.06-.06h.55a.05.05,0,0,1,.06.06v.52a.05.05,0,0,1-.06.06ZM167,7a.05.05,0,0,1-.06-.06V4.16A.05.05,0,0,1,167,4.1h.55a.05.05,0,0,1,.06.06V6.93a.05.05,0,0,1-.06.06Z"/><path class="cls-1" d="M91.67,54.77a.05.05,0,0,1-.06-.06V50.86a.05.05,0,0,1,.06-.06h.55a.05.05,0,0,1,.06.06v.22h0a.69.69,0,0,1,.28-.25,1.14,1.14,0,0,1,.48-.1,1.07,1.07,0,0,1,.63.18.93.93,0,0,1,.37.52,1.4,1.4,0,0,1,.08.34,3,3,0,0,1,0,.48,3,3,0,0,1,0,.47,1.4,1.4,0,0,1-.08.34.93.93,0,0,1-.37.52,1.07,1.07,0,0,1-.63.18,1,1,0,0,1-.48-.1.67.67,0,0,1-.28-.24h0v1.29a.05.05,0,0,1-.06.06Zm1.21-1.61a.51.51,0,0,0,.53-.37,1.55,1.55,0,0,0,0-.23,2.73,2.73,0,0,0,0-.31,2.82,2.82,0,0,0,0-.32,1.19,1.19,0,0,0,0-.22.5.5,0,0,0-.53-.38.51.51,0,0,0-.54.38,1.19,1.19,0,0,0,0,.22,2.82,2.82,0,0,0,0,.32,2.73,2.73,0,0,0,0,.31,1.55,1.55,0,0,0,0,.23A.52.52,0,0,0,92.88,53.16Z"/><path class="cls-1" d="M96.18,53.76a1.33,1.33,0,0,1-.76-.21A1.09,1.09,0,0,1,95,53c0-.1,0-.21-.07-.31a2.36,2.36,0,0,1,0-.4,2.3,2.3,0,0,1,0-.4c0-.11,0-.21.07-.32a1.09,1.09,0,0,1,.44-.59,1.46,1.46,0,0,1,1.51,0,1.08,1.08,0,0,1,.43.59,1.87,1.87,0,0,1,.08.32c0,.1,0,.24,0,.4s0,.29,0,.4a1.77,1.77,0,0,1-.08.31,1.08,1.08,0,0,1-.43.59A1.32,1.32,0,0,1,96.18,53.76Zm0-.6a.62.62,0,0,0,.34-.1.65.65,0,0,0,.2-.28.93.93,0,0,0,0-.23,2.36,2.36,0,0,0,0-.3,2.11,2.11,0,0,0,0-.3,1,1,0,0,0,0-.24.65.65,0,0,0-.2-.28.62.62,0,0,0-.34-.1.65.65,0,0,0-.35.1.58.58,0,0,0-.2.28,2,2,0,0,0,0,.24,2.45,2.45,0,0,0,0,.3,2.63,2.63,0,0,0,0,.3,1.89,1.89,0,0,0,0,.23.58.58,0,0,0,.2.28A.65.65,0,0,0,96.18,53.16Z"/><path class="cls-1" d="M99.09,53.73a.79.79,0,0,1-.61-.21.9.9,0,0,1-.18-.62V49.67a.05.05,0,0,1,.06-.06h.55a.05.05,0,0,1,.06.06v3.19a.29.29,0,0,0,.06.21.27.27,0,0,0,.19.06h.14a.05.05,0,0,1,.06.06v.48a.05.05,0,0,1-.06.06Z"/><path class="cls-1" d="M100.24,54.77a.05.05,0,0,1-.06-.06v-.48a.05.05,0,0,1,.06-.06h.11a.36.36,0,0,0,.27-.08.51.51,0,0,0,.16-.26l.09-.25-1.06-2.72s0-.06,0-.06h.59s.06,0,.08.06l.65,1.89h0l.63-1.89a.07.07,0,0,1,.07-.06h.57s.06,0,0,.06l-1.1,3a3,3,0,0,1-.19.43,1,1,0,0,1-.21.28.73.73,0,0,1-.25.15,1,1,0,0,1-.32,0Z"/><path class="cls-1" d="M104.24,53.76a1.75,1.75,0,0,1-.76-.15,1.88,1.88,0,0,1-.49-.31.06.06,0,0,1,0-.08l.35-.36s0,0,.08,0a1.44,1.44,0,0,0,.39.24,1.22,1.22,0,0,0,.46.09.64.64,0,0,0,.4-.1.27.27,0,0,0,.13-.24.24.24,0,0,0-.1-.21.68.68,0,0,0-.38-.11l-.31,0a1.06,1.06,0,0,1-.67-.27.76.76,0,0,1-.22-.58.84.84,0,0,1,.29-.67,1.26,1.26,0,0,1,.83-.25,2,2,0,0,1,.62.1,1.63,1.63,0,0,1,.47.26.05.05,0,0,1,0,.08l-.29.36a.08.08,0,0,1-.09,0,1.2,1.2,0,0,0-.34-.17,1.14,1.14,0,0,0-.41-.07.57.57,0,0,0-.33.08.28.28,0,0,0-.11.22.25.25,0,0,0,.09.2.84.84,0,0,0,.38.1l.31,0a1.19,1.19,0,0,1,.68.27.82.82,0,0,1,.22.58.87.87,0,0,1-.31.7A1.26,1.26,0,0,1,104.24,53.76Z"/><path class="cls-1" d="M108.1,53.69a.05.05,0,0,1-.06-.06V52a.71.71,0,0,0-.13-.45.56.56,0,0,0-.82,0A.66.66,0,0,0,107,52v1.67a.05.05,0,0,1-.06.06h-.56a.05.05,0,0,1-.06-.06v-4a.05.05,0,0,1,.06-.06h.56a.05.05,0,0,1,.06.06v1.4h0a.89.89,0,0,1,.29-.24,1.06,1.06,0,0,1,.47-.1,1.08,1.08,0,0,1,.42.08,1,1,0,0,1,.32.23,1.27,1.27,0,0,1,.2.34,1.43,1.43,0,0,1,.07.43v1.82a.05.05,0,0,1-.06.06Z"/><path class="cls-1" d="M111.38,53.69a.05.05,0,0,1-.06-.06v-.21h0a.7.7,0,0,1-.31.24,1.27,1.27,0,0,1-.88,0,.76.76,0,0,1-.31-.16.71.71,0,0,1-.21-.27,1,1,0,0,1,.23-1.09,1.41,1.41,0,0,1,.85-.22h.58s0,0,0,0v-.14a.44.44,0,0,0-.14-.36.78.78,0,0,0-.5-.12,1.09,1.09,0,0,0-.4.06,1,1,0,0,0-.26.14s-.07,0-.09,0l-.22-.4a0,0,0,0,1,0-.07,1.38,1.38,0,0,1,.42-.21,2.15,2.15,0,0,1,.61-.08,1.4,1.4,0,0,1,.93.24,1,1,0,0,1,.28.77v1.89a.05.05,0,0,1-.06.06Zm-.71-.48a.81.81,0,0,0,.48-.12.42.42,0,0,0,.16-.37V52.5s0,0,0,0h-.48a.84.84,0,0,0-.47.1.32.32,0,0,0-.15.29C110.17,53.09,110.34,53.21,110.67,53.21Z"/><path class="cls-1" d="M53.76,67.44a.05.05,0,0,1-.06-.06V66.9s0-.05.06-.05h.11a.4.4,0,0,0,.27-.09.68.68,0,0,0,.16-.26l.08-.24-1.05-2.73s0-.06,0-.06H54a.07.07,0,0,1,.07.06l.65,1.89h0l.62-1.89a.07.07,0,0,1,.07-.06H56c.05,0,.06,0,.05.06l-1.1,3a2.52,2.52,0,0,1-.2.43.89.89,0,0,1-.21.28.64.64,0,0,1-.25.15,1,1,0,0,1-.32,0Z"/><path class="cls-1" d="M57.81,66.43a1.33,1.33,0,0,1-.76-.21,1.08,1.08,0,0,1-.43-.59,1.77,1.77,0,0,1-.08-.31c0-.11,0-.24,0-.4s0-.29,0-.4a1.87,1.87,0,0,1,.08-.32,1.05,1.05,0,0,1,.43-.58,1.46,1.46,0,0,1,1.51,0,1.07,1.07,0,0,1,.44.58c0,.11,0,.21.07.32a4,4,0,0,1,0,.8c0,.1,0,.21-.07.31a1.09,1.09,0,0,1-.44.59A1.32,1.32,0,0,1,57.81,66.43Zm0-.6a.53.53,0,0,0,.34-.1.54.54,0,0,0,.2-.28,1.55,1.55,0,0,0,0-.23,2.63,2.63,0,0,0,0-.3,2.45,2.45,0,0,0,0-.3,2,2,0,0,0,0-.24.55.55,0,0,0-.2-.27.63.63,0,0,0-.68,0,.64.64,0,0,0-.21.27,1,1,0,0,0,0,.24,2.11,2.11,0,0,0,0,.3,2.36,2.36,0,0,0,0,.3.85.85,0,0,0,0,.23.61.61,0,0,0,.21.28A.53.53,0,0,0,57.81,65.83Z"/><path class="cls-1" d="M61.73,66.36s-.06,0-.06,0V66.1h0a1,1,0,0,1-.3.24,1,1,0,0,1-.45.09,1.08,1.08,0,0,1-.42-.08.79.79,0,0,1-.31-.23.91.91,0,0,1-.2-.33,1.21,1.21,0,0,1-.07-.43V63.53a.05.05,0,0,1,.06-.06h.55a.05.05,0,0,1,.06.06V65.2a.74.74,0,0,0,.14.46.47.47,0,0,0,.4.17.49.49,0,0,0,.4-.17.67.67,0,0,0,.14-.45V63.53a.05.05,0,0,1,.06-.06h.55s.07,0,.07.06v2.78s0,0-.07,0Z"/><path class="cls-1" d="M91.61,65.33a1.33,1.33,0,0,1,0-.19,1.12,1.12,0,0,1,0-.21c0-.09,0-.18,0-.29v-.82c0-.11,0-.21,0-.29a1.09,1.09,0,0,1,0-.22,1.8,1.8,0,0,1,0-.19,1.35,1.35,0,0,1,.52-.75,1.53,1.53,0,0,1,.89-.25,1.56,1.56,0,0,1,.85.23,1.36,1.36,0,0,1,.53.65s0,.06,0,.07l-.51.24s-.06,0-.07,0a1.44,1.44,0,0,0-.28-.37.74.74,0,0,0-.49-.15.71.71,0,0,0-.47.14.87.87,0,0,0-.26.4l0,.13s0,.1,0,.17,0,.15,0,.25v.75c0,.1,0,.18,0,.25s0,.13,0,.18l0,.13a.84.84,0,0,0,.26.39.72.72,0,0,0,.47.15.74.74,0,0,0,.49-.16,1.29,1.29,0,0,0,.28-.37s0,0,.07,0l.51.24s0,0,0,.08a1.38,1.38,0,0,1-.53.64,1.56,1.56,0,0,1-.85.23,1.53,1.53,0,0,1-.89-.25A1.31,1.31,0,0,1,91.61,65.33Z"/><path class="cls-1" d="M97,66.27a.05.05,0,0,1-.06-.06V66h0a.67.67,0,0,1-.3.24,1.29,1.29,0,0,1-.51.09,1.58,1.58,0,0,1-.38,0,1.14,1.14,0,0,1-.31-.16,1.21,1.21,0,0,1-.21-.28.94.94,0,0,1-.07-.39.79.79,0,0,1,.31-.7,1.45,1.45,0,0,1,.84-.22h.59s0,0,0,0v-.14a.47.47,0,0,0-.14-.37.86.86,0,0,0-.5-.11,1.18,1.18,0,0,0-.41.06.61.61,0,0,0-.25.14s-.07,0-.09,0l-.22-.39a.05.05,0,0,1,0-.08,1.63,1.63,0,0,1,.42-.2,1.84,1.84,0,0,1,.61-.08,1.4,1.4,0,0,1,.93.24,1,1,0,0,1,.27.77v1.89a.05.05,0,0,1-.06.06Zm-.71-.48a.8.8,0,0,0,.47-.12.45.45,0,0,0,.17-.38v-.22s0,0,0,0H96.4a1,1,0,0,0-.47.09.32.32,0,0,0-.15.3C95.78,65.67,95.94,65.79,96.28,65.79Z"/><path class="cls-1" d="M98.59,67.35a.05.05,0,0,1-.06-.06V63.43a.05.05,0,0,1,.06-.06h.55a.05.05,0,0,1,.06.06v.22h0a.76.76,0,0,1,.28-.25,1.28,1.28,0,0,1,1.11.08A1,1,0,0,1,101,64a1.47,1.47,0,0,1,.08.35,3.7,3.7,0,0,1,0,.94,1.47,1.47,0,0,1-.08.35,1,1,0,0,1-.37.52,1.28,1.28,0,0,1-1.11.08.76.76,0,0,1-.28-.25h0v1.3a.05.05,0,0,1-.06.06Zm1.21-1.62a.5.5,0,0,0,.53-.37,1.42,1.42,0,0,0,0-.22,5.12,5.12,0,0,0,0-.64,1.42,1.42,0,0,0,0-.22.5.5,0,0,0-.53-.37.51.51,0,0,0-.54.37,1.42,1.42,0,0,0-.05.22,5.13,5.13,0,0,0,0,.64,1.42,1.42,0,0,0,.05.22A.51.51,0,0,0,99.8,65.73Z"/><path class="cls-1" d="M103.09,66.33a1.4,1.4,0,0,1-.75-.2,1.08,1.08,0,0,1-.44-.6,2.85,2.85,0,0,1,0-1.42,1.08,1.08,0,0,1,.44-.6,1.4,1.4,0,0,1,.75-.2,1.34,1.34,0,0,1,.58.12,1.23,1.23,0,0,1,.42.33.05.05,0,0,1,0,.08l-.38.33s-.06,0-.09,0a.83.83,0,0,0-.23-.19.67.67,0,0,0-.3-.06.58.58,0,0,0-.33.09.49.49,0,0,0-.21.29,1.55,1.55,0,0,0,0,.23,4.51,4.51,0,0,0,0,.6,1.44,1.44,0,0,0,0,.24.5.5,0,0,0,.21.28.58.58,0,0,0,.33.09.67.67,0,0,0,.3-.06.83.83,0,0,0,.23-.19.06.06,0,0,1,.09,0l.38.33s0,0,0,.09a1.26,1.26,0,0,1-1,.44Z"/><path class="cls-1" d="M106.74,66.27a.05.05,0,0,1-.06-.06V64.54a.74.74,0,0,0-.13-.46.58.58,0,0,0-.82,0,.68.68,0,0,0-.14.46v1.67a.05.05,0,0,1-.06.06H105a.05.05,0,0,1-.06-.06v-4a.05.05,0,0,1,.06-.06h.56a.05.05,0,0,1,.06.06v1.39h0a.76.76,0,0,1,.29-.23.94.94,0,0,1,.47-.1,1.08,1.08,0,0,1,.42.08,1,1,0,0,1,.32.22,1.27,1.27,0,0,1,.2.34,1.49,1.49,0,0,1,.07.43v1.83a.05.05,0,0,1-.06.06Z"/><path class="cls-1" d="M108.38,62.83a.05.05,0,0,1-.06-.06v-.52a.05.05,0,0,1,.06-.06h.56a.05.05,0,0,1,.06.06v.52a.05.05,0,0,1-.06.06Zm0,3.44a.05.05,0,0,1-.06-.06V63.43a.05.05,0,0,1,.06-.06h.56a.05.05,0,0,1,.06.06v2.78a.05.05,0,0,1-.06.06Z"/><path class="cls-1" d="M110,62.83a.05.05,0,0,1-.06-.06v-.52a.05.05,0,0,1,.06-.06h.55a.05.05,0,0,1,.06.06v.52a.05.05,0,0,1-.06.06Zm0,3.44a.05.05,0,0,1-.06-.06V63.43a.05.05,0,0,1,.06-.06h.55a.05.05,0,0,1,.06.06v2.78a.05.05,0,0,1-.06.06Z"/><path class="cls-1" d="M55.6,92.87c0,.3-.11.39-.44.39a4,4,0,0,1-.49,0l-.09-.46a2.08,2.08,0,0,0,.39,0c.09,0,.11,0,.11-.13v-.53a4.19,4.19,0,0,1-1.31,1l-.3-.4a3.76,3.76,0,0,0,1.38-.92l.23.23v-.68h-.49l.26.2a2.71,2.71,0,0,1-1.1.72l-.27-.38a2.45,2.45,0,0,0,1-.54h-.94v-.44h1l-.34-.31a.93.93,0,0,0,.64-.41l-.07,0c-.33.09-.77.18-1.11.24l-.14-.4a13.13,13.13,0,0,0,1.42-.2s0-.13,0-.21H53.8V89.3h1.13v-.23H53.65v-.36h1.28v-.37h.54v1.09c0,.86-.22,1.25-.86,1.48h1ZM57,91.56a3.33,3.33,0,0,1-1,.66l-.26-.36a2.53,2.53,0,0,0,.91-.51h-.82v-.44h2v2c0,.27-.12.37-.41.37l-.51,0-.12-.47a1.94,1.94,0,0,0,.4,0c.09,0,.11,0,.11-.13v-.53A3.75,3.75,0,0,1,56,93l-.28-.41A3.07,3.07,0,0,0,57,91.76l.24.2v-.61h-.51Zm.76-2.85v.36H56.46v.27h1.11v.33H56.46V90h1.37v.37H56.46v.42h-.54V88.31h.54v.4Z"/><path class="cls-1" d="M62.88,90.15a14.72,14.72,0,0,1-.23,2.44c-.1.36-.29.49-.73.49-.25,0-.68,0-.93-.06l-.1-.58a4.3,4.3,0,0,0,.84.09c.26,0,.34-.06.39-.29a9.57,9.57,0,0,0,.19-1.59h-.65c0,.1-.06.18-.13.34L61,90.88a9.53,9.53,0,0,0,.54-1.64h-1c-.08,2.06-.46,3.1-1.45,3.93l-.43-.42c.89-.75,1.21-1.6,1.29-3.42v-.09H59v-.51h2.88l.31.23c-.11.45-.23.85-.34,1.19Z"/><path class="cls-1" d="M66.33,93.15H65.7V90.6a8,8,0,0,1-1.4,1l-.39-.5a7.46,7.46,0,0,0,2.87-2.58l.55.29a7.72,7.72,0,0,1-1,1.23Z"/><path class="cls-1" d="M71.72,89.21a7.86,7.86,0,0,1-.81,1.73l0,0a12.68,12.68,0,0,1,1.46,1.47l-.48.5a12.76,12.76,0,0,0-1.34-1.54A5.61,5.61,0,0,1,68.83,93l-.4-.51a5.32,5.32,0,0,0,2.53-3l-2,.05,0-.58,2.52,0Z"/><path class="cls-1" d="M77,89.55a18.92,18.92,0,0,1-.17,3,.58.58,0,0,1-.64.51H76a2.74,2.74,0,0,1-.62-.13l0-.6a2.32,2.32,0,0,0,.68.17c.17,0,.24-.06.27-.26a15.14,15.14,0,0,0,.14-2.12h-1a3.82,3.82,0,0,1-1.62,3l-.42-.43a3.25,3.25,0,0,0,1.45-2.57H73.6v-.54h1.33v-1h.57v1Z"/><path class="cls-1" d="M53.67,75.77a.05.05,0,0,1,.06-.06h2.56s.05,0,.05.06v.51s0,.06-.05.06H54.41s0,0,0,0v1a0,0,0,0,0,0,0H56a.05.05,0,0,1,.06.06V78a.05.05,0,0,1-.06.06H54.41a0,0,0,0,0,0,0v1.61a.05.05,0,0,1-.06.06h-.59a.05.05,0,0,1-.06-.06Z"/><path class="cls-1" d="M57.09,79.79a.05.05,0,0,1-.06-.06V77a.05.05,0,0,1,.06-.06h.55a.05.05,0,0,1,.06.06v.25h0a.76.76,0,0,1,.29-.27.92.92,0,0,1,.46-.1.88.88,0,0,1,.33.06.75.75,0,0,1,.28.18s0,.05,0,.08l-.32.4a0,0,0,0,1-.08,0,1.06,1.06,0,0,0-.21-.11.78.78,0,0,0-.22,0,.47.47,0,0,0-.42.19,1,1,0,0,0-.13.54v1.57a.05.05,0,0,1-.06.06Z"/><path class="cls-1" d="M60.86,79.85a1.36,1.36,0,0,1-.77-.21,1.08,1.08,0,0,1-.43-.59,1.41,1.41,0,0,1-.08-.31,2.49,2.49,0,0,1,0-.4,2.42,2.42,0,0,1,0-.4,2.05,2.05,0,0,1,.07-.31,1.06,1.06,0,0,1,.44-.59,1.44,1.44,0,0,1,1.5,0,1.08,1.08,0,0,1,.43.59.83.83,0,0,1,0,.15.84.84,0,0,1,0,.18,1.64,1.64,0,0,1,0,.23,2.91,2.91,0,0,1,0,.31s0,.06-.07.06H60.27s0,0,0,0a.37.37,0,0,0,0,.12.17.17,0,0,0,0,.1.6.6,0,0,0,.64.44.83.83,0,0,0,.41-.08A.77.77,0,0,0,61.6,79a.06.06,0,0,1,.09,0l.36.32a.05.05,0,0,1,0,.08,1.36,1.36,0,0,1-.48.35A1.58,1.58,0,0,1,60.86,79.85ZM61.44,78a.62.62,0,0,0,0-.25.48.48,0,0,0-.21-.27.58.58,0,0,0-.35-.1.61.61,0,0,0-.36.1.48.48,0,0,0-.21.27.87.87,0,0,0,0,.25s0,0,0,0H61.4S61.44,78,61.44,78Z"/><path class="cls-1" d="M64.15,79.85a1.36,1.36,0,0,1-.77-.21,1.08,1.08,0,0,1-.43-.59,2.33,2.33,0,0,1-.08-.31c0-.12,0-.25,0-.4a2.42,2.42,0,0,1,0-.4,2.05,2.05,0,0,1,.07-.31,1.06,1.06,0,0,1,.44-.59,1.44,1.44,0,0,1,1.5,0,1.08,1.08,0,0,1,.43.59.83.83,0,0,1,0,.15.48.48,0,0,1,0,.18,1.64,1.64,0,0,1,0,.23,2.91,2.91,0,0,1,0,.31s0,.06-.07.06H63.56s0,0,0,0a.37.37,0,0,0,0,.12.17.17,0,0,0,0,.1.6.6,0,0,0,.64.44.83.83,0,0,0,.41-.08.77.77,0,0,0,.27-.19A.06.06,0,0,1,65,79l.36.32a.05.05,0,0,1,0,.08,1.36,1.36,0,0,1-.48.35A1.58,1.58,0,0,1,64.15,79.85ZM64.73,78a.62.62,0,0,0,0-.25.48.48,0,0,0-.21-.27.58.58,0,0,0-.35-.1.61.61,0,0,0-.36.1.48.48,0,0,0-.21.27.87.87,0,0,0,0,.25s0,0,0,0h1.13S64.73,78,64.73,78Z"/><path class="cls-1" d="M66.19,79.79a.05.05,0,0,1-.06-.06v-.44a.14.14,0,0,1,0-.06l1.47-1.74H66.27a.05.05,0,0,1-.06-.06V77a.05.05,0,0,1,.06-.06h2.09a.05.05,0,0,1,.06.06v.47a.08.08,0,0,1,0,.06l-1.46,1.71h1.42a.05.05,0,0,1,.06.06v.47a.05.05,0,0,1-.06.06Z"/><path class="cls-1" d="M70.42,79.85a1.38,1.38,0,0,1-.78-.21,1.13,1.13,0,0,1-.43-.59,1.41,1.41,0,0,1-.07-.31,2.41,2.41,0,0,1,0-.4c0-.15,0-.29,0-.4a1.27,1.27,0,0,1,.08-.31,1,1,0,0,1,.43-.59,1.46,1.46,0,0,1,1.51,0,1.13,1.13,0,0,1,.43.59c0,.05,0,.1,0,.15l0,.18c0,.07,0,.15,0,.23v.31a.05.05,0,0,1-.06.06H69.82a0,0,0,0,0,0,0,.41.41,0,0,0,0,.12l0,.1a.61.61,0,0,0,.65.44.79.79,0,0,0,.4-.08.92.92,0,0,0,.28-.19.06.06,0,0,1,.09,0l.35.32a.05.05,0,0,1,0,.08,1.5,1.5,0,0,1-.49.35A1.54,1.54,0,0,1,70.42,79.85ZM71,78a.9.9,0,0,0,0-.25.48.48,0,0,0-.21-.27.7.7,0,0,0-.72,0,.48.48,0,0,0-.21.27.9.9,0,0,0,0,.25,0,0,0,0,0,0,0H71A0,0,0,0,0,71,78Z"/><path class="cls-1" d="M72.58,79.79a.05.05,0,0,1-.06-.06V77a.05.05,0,0,1,.06-.06h.55a.05.05,0,0,1,.06.06v.25h0a.76.76,0,0,1,.29-.27.92.92,0,0,1,.46-.1.88.88,0,0,1,.33.06.75.75,0,0,1,.28.18s0,.05,0,.08l-.32.4a0,0,0,0,1-.08,0,1.06,1.06,0,0,0-.21-.11.78.78,0,0,0-.22,0,.47.47,0,0,0-.42.19,1,1,0,0,0-.13.54v1.57a.05.05,0,0,1-.06.06Z"/><path class="cls-1" d="M92.53,79.79a.05.05,0,0,1-.06-.06V76.38a0,0,0,0,0,0,0H91.36a.05.05,0,0,1-.06-.06v-.51a.05.05,0,0,1,.06-.06h2.92a.05.05,0,0,1,.06.06v.51a.05.05,0,0,1-.06.06H93.21a0,0,0,0,0,0,0v3.35a.05.05,0,0,1-.06.06Z"/><path class="cls-1" d="M96.37,79.79a.05.05,0,0,1-.06-.06v-.21h0a.7.7,0,0,1-.31.24,1.23,1.23,0,0,1-.51.09,1.5,1.5,0,0,1-.37,0,1,1,0,0,1-.31-.16.83.83,0,0,1-.21-.28.93.93,0,0,1-.08-.39.79.79,0,0,1,.31-.7,1.5,1.5,0,0,1,.85-.22h.59a0,0,0,0,0,0,0v-.14a.46.46,0,0,0-.13-.37.89.89,0,0,0-.51-.11,1.45,1.45,0,0,0-.4,0,.93.93,0,0,0-.26.15,0,0,0,0,1-.08,0l-.22-.39a.05.05,0,0,1,0-.08,1.37,1.37,0,0,1,.42-.2,1.74,1.74,0,0,1,.6-.08,1.45,1.45,0,0,1,.94.24,1,1,0,0,1,.27.77v1.89a.05.05,0,0,1-.06.06Zm-.72-.48a.81.81,0,0,0,.48-.12.44.44,0,0,0,.16-.38v-.22a0,0,0,0,0,0,0h-.48a1,1,0,0,0-.48.09.32.32,0,0,0-.15.3C95.15,79.19,95.32,79.31,95.65,79.31Z"/><path class="cls-1" d="M99.73,79.79a.05.05,0,0,1-.06-.06V78.06a.68.68,0,0,0-.14-.46.49.49,0,0,0-.4-.17.51.51,0,0,0-.41.17.69.69,0,0,0-.15.46v1.67a.05.05,0,0,1-.06.06H98a.05.05,0,0,1-.06-.06V77a.05.05,0,0,1,.06-.06h.55a.05.05,0,0,1,.06.06v.21h0a.69.69,0,0,1,.29-.23,1.15,1.15,0,0,1,.89,0,.87.87,0,0,1,.31.22.9.9,0,0,1,.2.34,1.21,1.21,0,0,1,.07.43v1.83a.05.05,0,0,1-.06.06Z"/><path class="cls-1" d="M102.46,79.85a1.4,1.4,0,0,1-.75-.2,1.08,1.08,0,0,1-.44-.6,2.85,2.85,0,0,1,0-1.42,1.08,1.08,0,0,1,.44-.6,1.4,1.4,0,0,1,.75-.2A1.34,1.34,0,0,1,103,77a1.27,1.27,0,0,1,.43.33.05.05,0,0,1,0,.08l-.38.33a0,0,0,0,1-.08,0,1,1,0,0,0-.23-.19.75.75,0,0,0-.31-.06.58.58,0,0,0-.33.09.59.59,0,0,0-.21.29,1.55,1.55,0,0,0,0,.23c0,.09,0,.19,0,.3s0,.21,0,.3a1.44,1.44,0,0,0,0,.24.61.61,0,0,0,.21.28.58.58,0,0,0,.33.09.75.75,0,0,0,.31-.06A1,1,0,0,0,103,79a.05.05,0,0,1,.08,0l.38.33s0,.05,0,.09a1.38,1.38,0,0,1-.43.32A1.34,1.34,0,0,1,102.46,79.85Z"/><path class="cls-1" d="M106.12,79.79a.05.05,0,0,1-.06-.06V78.06a.74.74,0,0,0-.14-.46.51.51,0,0,0-.41-.17.52.52,0,0,0-.41.17.74.74,0,0,0-.14.46v1.67a.05.05,0,0,1-.06.06h-.55a.05.05,0,0,1-.06-.06v-4a.05.05,0,0,1,.06-.06h.55a.05.05,0,0,1,.06.06v1.39h0a.76.76,0,0,1,.29-.23,1,1,0,0,1,.48-.1,1,1,0,0,1,.73.3,1.05,1.05,0,0,1,.2.34,1.21,1.21,0,0,1,.07.43v1.83a.05.05,0,0,1-.06.06Z"/><path class="cls-1" d="M107.76,76.35a.05.05,0,0,1-.06-.06v-.52a.05.05,0,0,1,.06-.06h.55a.05.05,0,0,1,.06.06v.52a.05.05,0,0,1-.06.06Zm0,3.44a.05.05,0,0,1-.06-.06V77a.05.05,0,0,1,.06-.06h.55a.05.05,0,0,1,.06.06v2.78a.05.05,0,0,1-.06.06Z"/><path class="cls-1" d="M111.24,79.79a.1.1,0,0,1-.09-.06l-.73-1.22L110,79v.77a.05.05,0,0,1-.06.06h-.56a.05.05,0,0,1-.06-.06v-4a.05.05,0,0,1,.06-.06H110a.05.05,0,0,1,.06.06v2.35L111,77a.14.14,0,0,1,.11-.06h.61a.05.05,0,0,1,0,0s0,0,0,0L110.85,78l1.05,1.72a0,0,0,0,1,0,0s0,0,0,0Z"/><path class="cls-1" d="M112.84,80.87a.05.05,0,0,1-.06-.06v-.48a.05.05,0,0,1,.06-.06H113a.46.46,0,0,0,.27-.08.69.69,0,0,0,.16-.27l.09-.24L112.41,77s0-.06,0-.06h.59a.07.07,0,0,1,.07.06l.66,1.89h0l.62-1.89s0-.06.07-.06h.58s.06,0,0,.06L114,80a3.63,3.63,0,0,1-.19.43,1.59,1.59,0,0,1-.21.27.73.73,0,0,1-.25.15,1.07,1.07,0,0,1-.32.05Z"/><polygon class="cls-1" points="35.12 57.22 34.92 57.02 45.3 46.63 45.5 46.83 35.12 57.22"/><polygon class="cls-1" points="35.12 10.58 34.92 10.38 45.3 0 45.5 0.2 35.12 10.58"/><path class="cls-1" d="M91.62,88.8a.05.05,0,0,1,.06-.06h.59a.05.05,0,0,1,.06.06v1.92l1.54-1.93a.11.11,0,0,1,.09-.05h.69a.05.05,0,0,1,0,0,.07.07,0,0,1,0,.06l-1.26,1.52,1.41,2.41s0,.07,0,.07h-.67a.11.11,0,0,1-.09,0L93,90.89l-.62.75v1.12a.05.05,0,0,1-.06.06h-.59a.05.05,0,0,1-.06-.06Z"/><path class="cls-1" d="M96.88,92.88a1.63,1.63,0,0,1-.9-.24,1.37,1.37,0,0,1-.54-.74c0-.06,0-.13,0-.19l0-.22a2.66,2.66,0,0,1,0-.3c0-.12,0-.25,0-.41s0-.3,0-.41a2.36,2.36,0,0,1,0-.3c0-.08,0-.16,0-.22s0-.13,0-.19a1.34,1.34,0,0,1,.54-.74,1.76,1.76,0,0,1,1.81,0,1.34,1.34,0,0,1,.54.74,1.05,1.05,0,0,1,0,.19,1.3,1.3,0,0,1,0,.22,2.36,2.36,0,0,1,0,.3c0,.11,0,.25,0,.41s0,.29,0,.41a2.66,2.66,0,0,1,0,.3,1.46,1.46,0,0,1,0,.22,1.33,1.33,0,0,1,0,.19,1.37,1.37,0,0,1-.54.74A1.65,1.65,0,0,1,96.88,92.88Zm0-.63a.79.79,0,0,0,.49-.14.76.76,0,0,0,.27-.4.21.21,0,0,0,0-.12s0-.11,0-.18,0-.16,0-.26,0-.23,0-.37,0-.27,0-.37,0-.19,0-.26,0-.13,0-.18a.28.28,0,0,0,0-.13.69.69,0,0,0-.27-.39.73.73,0,0,0-.49-.14.77.77,0,0,0-.49.14.73.73,0,0,0-.26.39s0,.08,0,.13,0,.11,0,.18a2,2,0,0,0,0,.26c0,.1,0,.22,0,.37s0,.26,0,.37a2,2,0,0,0,0,.26c0,.07,0,.13,0,.18a.83.83,0,0,0,0,.12.8.8,0,0,0,.26.4A.84.84,0,0,0,96.88,92.25Z"/><path class="cls-1" d="M99.25,92a.06.06,0,0,1,0-.08l.52-.12a.05.05,0,0,1,.07,0,.84.84,0,0,0,.22.31.62.62,0,0,0,.4.12.57.57,0,0,0,.45-.17.63.63,0,0,0,.15-.43.62.62,0,0,0-.67-.67h-.17a.05.05,0,0,1-.06-.06v-.47a.05.05,0,0,1,.06-.06h.16a.55.55,0,0,0,.6-.6.53.53,0,0,0-.15-.39.49.49,0,0,0-.4-.16.52.52,0,0,0-.36.12.58.58,0,0,0-.19.3s0,0-.07,0l-.51-.12s0,0,0-.07a1,1,0,0,1,.14-.34,1.12,1.12,0,0,1,.25-.28,1,1,0,0,1,.36-.18,1.33,1.33,0,0,1,.45-.07,1.29,1.29,0,0,1,.51.09,1,1,0,0,1,.61.59,1.1,1.1,0,0,1,.09.45,1,1,0,0,1-.12.48,1.08,1.08,0,0,1-.34.37h0a.47.47,0,0,1,.18.12.91.91,0,0,1,.18.21,2.55,2.55,0,0,1,.13.29,1.5,1.5,0,0,1,.05.37,1.19,1.19,0,0,1-.1.51,1.16,1.16,0,0,1-.26.39,1.22,1.22,0,0,1-.41.25,1.65,1.65,0,0,1-.51.08,1.46,1.46,0,0,1-.82-.22A1,1,0,0,1,99.25,92Z"/><path class="cls-1" d="M104,91.79a1.29,1.29,0,0,1,.17-.62,2.69,2.69,0,0,1,.61-.63c-.09-.1-.16-.2-.22-.28l-.14-.23a1.8,1.8,0,0,1-.08-.21,1.49,1.49,0,0,1,0-.21,1,1,0,0,1,.08-.38.86.86,0,0,1,.21-.29,1.12,1.12,0,0,1,.33-.2,1,1,0,0,1,.39-.07,1.07,1.07,0,0,1,.41.08.87.87,0,0,1,.32.2,1,1,0,0,1,.2.29.84.84,0,0,1,.07.35.75.75,0,0,1,0,.26.72.72,0,0,1-.12.25,1.46,1.46,0,0,1-.21.25,3.64,3.64,0,0,1-.34.28l.64.82.41-.49a.05.05,0,0,1,.08,0l.33.28a0,0,0,0,1,0,.08l-.48.59.15.18a.35.35,0,0,0,.11.1.28.28,0,0,0,.13,0h.09a.05.05,0,0,1,.06.06v.48a.05.05,0,0,1-.06.06h-.2l-.18,0a.34.34,0,0,1-.14,0,.51.51,0,0,1-.13-.09,1.14,1.14,0,0,1-.14-.16l-.1-.13a1.85,1.85,0,0,1-.5.39,1.31,1.31,0,0,1-.56.12,1.28,1.28,0,0,1-.5-.08.86.86,0,0,1-.35-.23.87.87,0,0,1-.22-.34A1.56,1.56,0,0,1,104,91.79Zm.63,0a.5.5,0,0,0,.55.54.69.69,0,0,0,.32-.08,1.4,1.4,0,0,0,.35-.3L105.1,91a1.5,1.5,0,0,0-.4.41A.67.67,0,0,0,104.6,91.76Zm.64-1.58.23-.19.13-.15a.33.33,0,0,0,.07-.13.51.51,0,0,0,0-.13.34.34,0,0,0-.11-.25.37.37,0,0,0-.27-.11.38.38,0,0,0-.28.11.36.36,0,0,0-.11.26.31.31,0,0,0,0,.1l0,.11a.89.89,0,0,0,.09.16Z"/><path class="cls-1" d="M110.45,92.88a1.32,1.32,0,0,1-.75-.2,1.06,1.06,0,0,1-.44-.59,2.34,2.34,0,0,1-.09-.72,2.32,2.32,0,0,1,.09-.71,1.08,1.08,0,0,1,.44-.6,1.4,1.4,0,0,1,.75-.2A1.34,1.34,0,0,1,111,90a1.27,1.27,0,0,1,.43.33.05.05,0,0,1,0,.08l-.38.33a0,0,0,0,1-.08,0,.76.76,0,0,0-.23-.18.62.62,0,0,0-.31-.07.58.58,0,0,0-.33.09.59.59,0,0,0-.21.29,1.55,1.55,0,0,0,0,.23c0,.09,0,.19,0,.3s0,.21,0,.3a1.44,1.44,0,0,0,0,.24.56.56,0,0,0,.21.28.58.58,0,0,0,.33.09.75.75,0,0,0,.31-.06A1,1,0,0,0,111,92s.05,0,.08,0l.38.33s0,0,0,.08a1.24,1.24,0,0,1-.43.32A1.34,1.34,0,0,1,110.45,92.88Z"/><path class="cls-1" d="M114.11,92.82a.05.05,0,0,1-.06-.06V91.09a.74.74,0,0,0-.14-.46.51.51,0,0,0-.41-.17.52.52,0,0,0-.41.17.74.74,0,0,0-.14.46v1.67a.05.05,0,0,1-.06.06h-.55a.05.05,0,0,1-.06-.06v-4a.05.05,0,0,1,.06-.06h.55a.05.05,0,0,1,.06.06v1.4h0a.7.7,0,0,1,.29-.24,1,1,0,0,1,.48-.1,1.07,1.07,0,0,1,.41.08.9.9,0,0,1,.32.23.91.91,0,0,1,.2.33,1.25,1.25,0,0,1,.07.43v1.83a.05.05,0,0,1-.06.06Z"/><path class="cls-1" d="M115.75,89.38a.05.05,0,0,1-.06-.06V88.8a.05.05,0,0,1,.06-.06h.55a.05.05,0,0,1,.06.06v.52a.05.05,0,0,1-.06.06Zm0,3.44a.05.05,0,0,1-.06-.06V90a.05.05,0,0,1,.06-.06h.55a.05.05,0,0,1,.06.06v2.77a.05.05,0,0,1-.06.06Z"/><path class="cls-1" d="M119.24,92.82a.11.11,0,0,1-.1-.06l-.73-1.21L118,92v.76a.05.05,0,0,1-.06.06h-.55a.05.05,0,0,1-.06-.06v-4a.05.05,0,0,1,.06-.06H118a.05.05,0,0,1,.06.06v2.35L119,90a.14.14,0,0,1,.11-.06h.61s0,0,0,0a.08.08,0,0,1,0,0L118.84,91l1.06,1.72s0,0,0,0,0,0,0,0Z"/><path class="cls-1" d="M122.37,92.82a.05.05,0,0,1-.06-.06v-.21h0a1,1,0,0,1-.29.24,1,1,0,0,1-.46.09,1,1,0,0,1-.73-.3,1,1,0,0,1-.19-.34,1.18,1.18,0,0,1-.07-.43V90a.05.05,0,0,1,.06-.06h.55a.05.05,0,0,1,.06.06v1.66a.74.74,0,0,0,.13.46.47.47,0,0,0,.41.17.48.48,0,0,0,.4-.17.73.73,0,0,0,.14-.45V90a.05.05,0,0,1,.06-.06h.55A.05.05,0,0,1,123,90v2.77a.05.05,0,0,1-.06.06Z"/><path class="cls-1" d="M126.48,92.82a.07.07,0,0,1-.07-.06l-.56-1.85h0l-.57,1.85a.07.07,0,0,1-.07.06h-.49a.07.07,0,0,1-.07-.06L123.72,90s0-.06,0-.06h.57a.08.08,0,0,1,.08.06l.56,1.9h0l.55-1.9a.08.08,0,0,1,.08-.06h.43a.08.08,0,0,1,.08.06l.59,1.9h0l.53-1.9a.08.08,0,0,1,.08-.06h.57s.06,0,0,.06L127,92.76a.07.07,0,0,1-.07.06Z"/><path class="cls-1" d="M128.5,91.46V91a.05.05,0,0,1,.06-.06h1.65a.05.05,0,0,1,.06.06v.47a.05.05,0,0,1-.06.06h-1.65A.05.05,0,0,1,128.5,91.46Z"/><path class="cls-1" d="M133.42,88.52,136,93.05H130.8l1.3-2.27C133.08,89.09,133.41,88.51,133.42,88.52Zm0,.86L132.46,91l-1,1.62h3.8L134.37,91C133.84,90.11,133.42,89.38,133.41,89.38Z"/><path class="cls-1" d="M136.38,91.46V91a.05.05,0,0,1,.06-.06h1.65a.05.05,0,0,1,.06.06v.47a.05.05,0,0,1-.06.06h-1.65A.05.05,0,0,1,136.38,91.46Z"/><path class="cls-1" d="M1.6,53.76a2.42,2.42,0,0,1-.47,0,2.83,2.83,0,0,1-.44-.12l-.37-.17A1.16,1.16,0,0,1,0,53.2a.06.06,0,0,1,0-.1l.46-.52s.05,0,.09,0a2.35,2.35,0,0,0,.47.29,1.31,1.31,0,0,0,.59.13.8.8,0,0,0,.5-.14.41.41,0,0,0,.17-.35.36.36,0,0,0-.13-.29,1,1,0,0,0-.5-.16l-.22,0a1.84,1.84,0,0,1-.95-.38,1.06,1.06,0,0,1-.34-.85,1.26,1.26,0,0,1,.11-.51,1,1,0,0,1,.29-.39A1.22,1.22,0,0,1,1,49.64a1.89,1.89,0,0,1,.6-.09,2.43,2.43,0,0,1,.77.11A2.25,2.25,0,0,1,3,50s0,.06,0,.09l-.37.55a.05.05,0,0,1-.08,0,1.74,1.74,0,0,0-.47-.24,1.51,1.51,0,0,0-.48-.08.61.61,0,0,0-.41.13.42.42,0,0,0-.14.32.38.38,0,0,0,.14.29,1.12,1.12,0,0,0,.5.16l.22,0a1.69,1.69,0,0,1,1,.38,1.12,1.12,0,0,1,.32.85,1.27,1.27,0,0,1-.1.52,1.12,1.12,0,0,1-.31.41,1.39,1.39,0,0,1-.5.26A2.09,2.09,0,0,1,1.6,53.76Z"/><path class="cls-1" d="M5.19,53.76a1.47,1.47,0,0,1-.8-.21,1.06,1.06,0,0,1-.46-.61,1.65,1.65,0,0,1-.07-.32,2.42,2.42,0,0,1,0-.76,1.65,1.65,0,0,1,.07-.32,1.06,1.06,0,0,1,.46-.61,1.47,1.47,0,0,1,.8-.21,1.49,1.49,0,0,1,.8.21,1.1,1.1,0,0,1,.46.61,3,3,0,0,1,.07.32,3.62,3.62,0,0,1,0,.76,3,3,0,0,1-.07.32,1.1,1.1,0,0,1-.46.61A1.49,1.49,0,0,1,5.19,53.76Zm0-.71a.43.43,0,0,0,.45-.31,1.55,1.55,0,0,0,0-.21,4.21,4.21,0,0,0,0-.58,1.55,1.55,0,0,0,0-.21.43.43,0,0,0-.45-.31.43.43,0,0,0-.45.31.78.78,0,0,0,0,.21,2.11,2.11,0,0,0,0,.58.78.78,0,0,0,0,.21A.43.43,0,0,0,5.19,53.05Z"/><path class="cls-1" d="M9.09,53.69A.05.05,0,0,1,9,53.63V52a.57.57,0,0,0-.11-.38.38.38,0,0,0-.34-.14.39.39,0,0,0-.33.14.58.58,0,0,0-.12.38v1.67a.05.05,0,0,1-.06.06H7.35a.05.05,0,0,1-.06-.06V50.85a.05.05,0,0,1,.06-.06h.72a.05.05,0,0,1,.06.06v.2h0a.85.85,0,0,1,.29-.23.92.92,0,0,1,.46-.1,1.14,1.14,0,0,1,.43.08.87.87,0,0,1,.5.56,1.56,1.56,0,0,1,.06.44v1.83a.05.05,0,0,1-.06.06Z"/><path class="cls-1" d="M11.81,54.84a1.66,1.66,0,0,1-.32,0l-.31-.09a1.71,1.71,0,0,1-.27-.14,1.2,1.2,0,0,1-.2-.18.06.06,0,0,1,0-.09l.42-.43a.06.06,0,0,1,.09,0,1.15,1.15,0,0,0,.29.18.64.64,0,0,0,.31.07.55.55,0,0,0,.45-.16.74.74,0,0,0,.14-.48v-.25h0a.62.62,0,0,1-.28.25,1.08,1.08,0,0,1-.46.09,1,1,0,0,1-.61-.18,1,1,0,0,1-.37-.52c0-.11,0-.22-.07-.33s0-.24,0-.4,0-.29,0-.4,0-.22.07-.33a1,1,0,0,1,.37-.52,1,1,0,0,1,.61-.18,1.08,1.08,0,0,1,.46.09.62.62,0,0,1,.28.25h0v-.21a.05.05,0,0,1,.06-.06h.72a.05.05,0,0,1,.06.06v2.53A1.29,1.29,0,0,1,11.81,54.84Zm.12-2a.47.47,0,0,0,.28-.08.42.42,0,0,0,.15-.23.58.58,0,0,0,0-.18,1.33,1.33,0,0,0,0-.46.58.58,0,0,0,0-.18.42.42,0,0,0-.15-.23.53.53,0,0,0-.56,0,.49.49,0,0,0-.15.23,1.16,1.16,0,0,0,0,.18,2.65,2.65,0,0,0,0,.46,1.16,1.16,0,0,0,0,.18.49.49,0,0,0,.15.23A.47.47,0,0,0,11.93,52.87Z"/><path class="cls-1" d="M72.7,27.84s0,0,0-.06v-.52s0-.06,0-.06h.56a.05.05,0,0,1,.06.06v.52a.05.05,0,0,1-.06.06Zm0,3.44s0,0,0-.06V28.45s0-.06,0-.06h.56a.05.05,0,0,1,.06.06v2.77a.05.05,0,0,1-.06.06Z"/><path class="cls-1" d="M74.36,31.28a.05.05,0,0,1-.06-.06V28.45a.05.05,0,0,1,.06-.06h.55s.07,0,.07.06v.25h0a.69.69,0,0,1,.29-.27.92.92,0,0,1,.46-.11.88.88,0,0,1,.33.07.88.88,0,0,1,.28.17.08.08,0,0,1,0,.09l-.32.4a0,0,0,0,1-.08,0,1,1,0,0,0-.21-.1.78.78,0,0,0-.22,0,.48.48,0,0,0-.42.2,1,1,0,0,0-.12.54v1.56s0,.06-.07.06Z"/><path class="cls-1" d="M78.84,31.28a.05.05,0,0,1-.06-.06V31h0a1.05,1.05,0,0,1-.3.25,1,1,0,0,1-.45.09,1.16,1.16,0,0,1-.42-.08,1,1,0,0,1-.31-.23,1.13,1.13,0,0,1-.2-.34,1.44,1.44,0,0,1-.06-.43V28.45a.05.05,0,0,1,.06-.06h.55a.05.05,0,0,1,.06.06v1.67a.69.69,0,0,0,.13.45.47.47,0,0,0,.41.18.49.49,0,0,0,.4-.18.69.69,0,0,0,.14-.45V28.45a.05.05,0,0,1,.06-.06h.55a.05.05,0,0,1,.06.06v2.77a.05.05,0,0,1-.06.06Z"/><path class="cls-1" d="M81.59,31.35a1.4,1.4,0,0,1-.75-.2,1.08,1.08,0,0,1-.44-.6,2.32,2.32,0,0,1-.09-.71,2.34,2.34,0,0,1,.09-.72,1,1,0,0,1,.44-.59,1.32,1.32,0,0,1,.75-.21,1.34,1.34,0,0,1,.58.12,1.23,1.23,0,0,1,.42.33.06.06,0,0,1,0,.09l-.38.33a.06.06,0,0,1-.09,0,.69.69,0,0,0-.23-.19.66.66,0,0,0-.3-.07.59.59,0,0,0-.33.1.47.47,0,0,0-.21.28,1.44,1.44,0,0,0,0,.24,4.5,4.5,0,0,0,0,.6,1.44,1.44,0,0,0,0,.24.54.54,0,0,0,.21.28.58.58,0,0,0,.33.09.56.56,0,0,0,.3-.07.66.66,0,0,0,.23-.18.06.06,0,0,1,.09,0l.38.33a.06.06,0,0,1,0,.08,1.23,1.23,0,0,1-.42.33A1.34,1.34,0,0,1,81.59,31.35Z"/><path class="cls-1" d="M85.18,31.28a.05.05,0,0,1-.06-.06V31h0a.76.76,0,0,1-.3.25,1.29,1.29,0,0,1-.51.09,1.21,1.21,0,0,1-.38-.06.92.92,0,0,1-.31-.16,1,1,0,0,1-.21-.27.94.94,0,0,1-.07-.39.79.79,0,0,1,.31-.7,1.38,1.38,0,0,1,.84-.22h.59s0,0,0,0v-.14A.44.44,0,0,0,85,29a.79.79,0,0,0-.5-.11,1.21,1.21,0,0,0-.41.05,1,1,0,0,0-.25.14s-.07,0-.09,0l-.22-.39s0-.06,0-.08a1.38,1.38,0,0,1,.42-.21,2.15,2.15,0,0,1,.61-.08,1.4,1.4,0,0,1,.93.24,1,1,0,0,1,.27.77v1.89s0,.06,0,.06Zm-.71-.48a.78.78,0,0,0,.47-.12.43.43,0,0,0,.17-.37v-.22s0,0,0,0h-.48a.84.84,0,0,0-.47.1.32.32,0,0,0-.15.29C84,30.68,84.14,30.8,84.47,30.8Z"/><path class="cls-1" d="M86.78,27.84a.05.05,0,0,1-.06-.06v-.52a.05.05,0,0,1,.06-.06h.55a.05.05,0,0,1,.06.06v.52a.05.05,0,0,1-.06.06Zm0,3.44a.05.05,0,0,1-.06-.06V28.45a.05.05,0,0,1,.06-.06h.55a.05.05,0,0,1,.06.06v2.77a.05.05,0,0,1-.06.06Z"/><path class="cls-1" d="M89.53,31.35a1.4,1.4,0,0,1-.75-.2,1.1,1.1,0,0,1-.45-.6,2.32,2.32,0,0,1-.09-.71,2.34,2.34,0,0,1,.09-.72,1,1,0,0,1,.45-.59,1.32,1.32,0,0,1,.75-.21,1.29,1.29,0,0,1,.57.12,1.27,1.27,0,0,1,.43.33s0,.06,0,.09l-.37.33s-.06,0-.09,0a.8.8,0,0,0-.23-.19.66.66,0,0,0-.3-.07.59.59,0,0,0-.33.1.47.47,0,0,0-.21.28.85.85,0,0,0,0,.24,4.51,4.51,0,0,0,0,.6.85.85,0,0,0,0,.24.54.54,0,0,0,.21.28.58.58,0,0,0,.33.09.56.56,0,0,0,.3-.07.76.76,0,0,0,.23-.18s0,0,.09,0l.37.33a.05.05,0,0,1,0,.08,1.27,1.27,0,0,1-.43.33A1.29,1.29,0,0,1,89.53,31.35Z"/><path class="cls-1" d="M92.5,31.35a1.38,1.38,0,0,1-.78-.21,1.15,1.15,0,0,1-.43-.6,1.32,1.32,0,0,1-.07-.3,2.41,2.41,0,0,1,0-.4c0-.15,0-.29,0-.4a1.36,1.36,0,0,1,.08-.32,1.08,1.08,0,0,1,.43-.59,1.4,1.4,0,0,1,.75-.21,1.34,1.34,0,0,1,.76.22,1.1,1.1,0,0,1,.43.58l0,.16,0,.18c0,.07,0,.14,0,.23V30a.05.05,0,0,1-.06.06H91.9s0,0,0,0a.49.49,0,0,0,0,.12l0,.1a.63.63,0,0,0,.65.44,1,1,0,0,0,.41-.08,1.05,1.05,0,0,0,.27-.2.06.06,0,0,1,.09,0l.35.31s0,.05,0,.09a1.5,1.5,0,0,1-.49.35A1.68,1.68,0,0,1,92.5,31.35Zm.57-1.84a.88.88,0,0,0,0-.24.54.54,0,0,0-.21-.28.77.77,0,0,0-.72,0,.54.54,0,0,0-.21.28.88.88,0,0,0,0,.24s0,0,0,0H93S93.07,29.54,93.07,29.51Z"/><polygon class="cls-1" points="35.12 34.81 34.92 34.61 45.3 24.22 45.5 24.42 35.12 34.81"/><path class="cls-1" d="M1.27,31.28a.07.07,0,0,1-.07-.06L-.1,27.27A.05.05,0,0,1,0,27.2H.73a.08.08,0,0,1,.08.06l.82,2.68h0l.79-2.68a.08.08,0,0,1,.08-.06h.77a.05.05,0,0,1,0,.07L2,31.22a.07.07,0,0,1-.07.06Z"/><path class="cls-1" d="M5,31.35a1.49,1.49,0,0,1-.8-.21,1.06,1.06,0,0,1-.46-.61,3,3,0,0,1-.07-.32,2.18,2.18,0,0,1,0-.38,2.24,2.24,0,0,1,0-.38,3,3,0,0,1,.07-.32,1.06,1.06,0,0,1,.46-.61,1.49,1.49,0,0,1,.8-.21,1.49,1.49,0,0,1,.8.21,1.06,1.06,0,0,1,.46.61,1.65,1.65,0,0,1,.07.32,2.17,2.17,0,0,1,0,.38,2.09,2.09,0,0,1,0,.38,1.65,1.65,0,0,1-.07.32,1.06,1.06,0,0,1-.46.61A1.49,1.49,0,0,1,5,31.35Zm0-.71a.43.43,0,0,0,.45-.31.78.78,0,0,0,0-.21,4.21,4.21,0,0,0,0-.58.78.78,0,0,0,0-.21A.43.43,0,0,0,5,29a.43.43,0,0,0-.45.31,1.55,1.55,0,0,0,0,.21,4.21,4.21,0,0,0,0,.58,1.55,1.55,0,0,0,0,.21A.43.43,0,0,0,5,30.64Z"/><path class="cls-1" d="M8.27,31.35a1.43,1.43,0,0,1-.79-.21A1.06,1.06,0,0,1,7,30.53a.94.94,0,0,1-.07-.3,2.49,2.49,0,0,1,0-.4,2.3,2.3,0,0,1,0-.39A.94.94,0,0,1,7,29.13a1.06,1.06,0,0,1,.46-.61,1.43,1.43,0,0,1,.79-.21,1.29,1.29,0,0,1,.66.16,1.12,1.12,0,0,1,.44.39.05.05,0,0,1,0,.08l-.53.34s-.06,0-.09,0a.71.71,0,0,0-.2-.19A.5.5,0,0,0,8.28,29,.51.51,0,0,0,8,29.1a.4.4,0,0,0-.17.23,1.12,1.12,0,0,0,0,.21,4.21,4.21,0,0,0,0,.58,1.12,1.12,0,0,0,0,.21.4.4,0,0,0,.17.23.51.51,0,0,0,.28.08.5.5,0,0,0,.26-.06.59.59,0,0,0,.2-.19s.06,0,.09,0l.53.34a.05.05,0,0,1,0,.08,1.22,1.22,0,0,1-.44.4A1.4,1.4,0,0,1,8.27,31.35Z"/><path class="cls-1" d="M11.81,31.28a.05.05,0,0,1-.06-.06V31h0a.81.81,0,0,1-.31.23,1.16,1.16,0,0,1-.49.09,1.5,1.5,0,0,1-.37-.05,1,1,0,0,1-.31-.16.67.67,0,0,1-.21-.28,1,1,0,0,1-.08-.4.79.79,0,0,1,.34-.71,1.52,1.52,0,0,1,.87-.23h.51s0,0,0,0v-.11a.36.36,0,0,0-.12-.3.84.84,0,0,0-.47-.1,1.14,1.14,0,0,0-.39.06.79.79,0,0,0-.26.13.05.05,0,0,1-.08,0l-.27-.47a.06.06,0,0,1,0-.09,1.34,1.34,0,0,1,.45-.21,2.35,2.35,0,0,1,.63-.08,2.1,2.1,0,0,1,.6.07.93.93,0,0,1,.4.19.71.71,0,0,1,.22.33,1.27,1.27,0,0,1,.07.46v1.86a.05.05,0,0,1-.06.06Zm-.61-.56c.36,0,.54-.14.54-.4v-.2s0,0,0,0h-.4c-.35,0-.52.11-.52.33S10.92,30.72,11.2,30.72Z"/><path class="cls-1" d="M14.28,31.32a.91.91,0,0,1-.69-.22,1,1,0,0,1-.2-.7V27.26s0-.06,0-.06h.73a.06.06,0,0,1,.06.06v3.07a.3.3,0,0,0,0,.21.28.28,0,0,0,.2.06h.12a.05.05,0,0,1,.06.06v.6a.05.05,0,0,1-.06.06Z"/><path class="cls-1" d="M17.88,31.35a1.45,1.45,0,0,1-.83-.22,1.08,1.08,0,0,1-.45-.61,1.32,1.32,0,0,1-.08-.3,2.55,2.55,0,0,1,0-.78,1.55,1.55,0,0,1,.07-.31,1.05,1.05,0,0,1,.45-.6,1.37,1.37,0,0,1,.8-.22,1.35,1.35,0,0,1,.8.22,1.05,1.05,0,0,1,.45.6.83.83,0,0,1,0,.15,1.13,1.13,0,0,1,0,.18,1.66,1.66,0,0,1,0,.24,3.11,3.11,0,0,1,0,.32s0,.06-.07.06H17.36s0,0,0,0a.41.41,0,0,0,0,.16.54.54,0,0,0,.22.29.74.74,0,0,0,.38.09,1.08,1.08,0,0,0,.38-.06,1,1,0,0,0,.29-.19s.06,0,.08,0l.4.37a.05.05,0,0,1,0,.08,1.55,1.55,0,0,1-.53.36A1.91,1.91,0,0,1,17.88,31.35Zm.44-1.83s0,0,0,0a.45.45,0,0,0,0-.12s0-.06,0-.1a.41.41,0,0,0-.18-.23.52.52,0,0,0-.31-.09.54.54,0,0,0-.31.09.45.45,0,0,0-.19.33.45.45,0,0,0,0,.12,0,0,0,0,0,0,0Z"/><path class="cls-1" d="M21.72,31.28a.05.05,0,0,1-.06-.06V31h0a.89.89,0,0,1-.29.25,1.11,1.11,0,0,1-.48.09,1,1,0,0,1-.61-.18,1,1,0,0,1-.37-.52,2,2,0,0,1-.08-.35c0-.13,0-.28,0-.47s0-.35,0-.47a2,2,0,0,1,.08-.35,1,1,0,0,1,.37-.52,1,1,0,0,1,.61-.18,1,1,0,0,1,.48.1.76.76,0,0,1,.29.24h0V27.26a.05.05,0,0,1,.06-.06h.72a.05.05,0,0,1,.06.06v4a.05.05,0,0,1-.06.06Zm-.56-.64a.43.43,0,0,0,.45-.31,1,1,0,0,0,0-.2,4.5,4.5,0,0,0,0-.6,1,1,0,0,0,0-.2.42.42,0,0,0-.45-.31.43.43,0,0,0-.45.31,1,1,0,0,0,0,.2,4.5,4.5,0,0,0,0,.6,1,1,0,0,0,0,.2A.43.43,0,0,0,21.16,30.64Z"/><path class="cls-1" d="M23.44,27.92a.05.05,0,0,1-.06-.06v-.6a.05.05,0,0,1,.06-.06h.72a.05.05,0,0,1,.06.06v.6a.05.05,0,0,1-.06.06Zm0,3.36a.05.05,0,0,1-.06-.06V28.44a.05.05,0,0,1,.06-.06h.72a.05.05,0,0,1,.06.06v2.78a.05.05,0,0,1-.06.06Z"/><path class="cls-1" d="M26.09,31.32a.92.92,0,0,1-.72-.24,1,1,0,0,1-.21-.73V29a0,0,0,0,0,0,0H25a.05.05,0,0,1-.06-.06v-.5a.05.05,0,0,1,.06-.06h.18s0,0,0,0v-.78a.05.05,0,0,1,.06-.06h.72a.05.05,0,0,1,.06.06v.78s0,0,0,0h.38a.05.05,0,0,1,.06.06v.5a.05.05,0,0,1-.06.06H26a0,0,0,0,0,0,0v1.29a.32.32,0,0,0,.06.22.28.28,0,0,0,.2.06h.15a.05.05,0,0,1,.06.06v.6a.05.05,0,0,1-.06.06Z"/><path class="cls-1" d="M.22,1.27a.05.05,0,0,1,.06-.06h.77a.05.05,0,0,1,.06.06v3.2a0,0,0,0,0,0,0h1.8s.06,0,.06.07v.66a.05.05,0,0,1-.06.06H.28a.05.05,0,0,1-.06-.06Z"/><path class="cls-1" d="M3.63,6.37a.05.05,0,0,1-.06-.06V5.72a.05.05,0,0,1,.06-.06h.12A.37.37,0,0,0,4,5.59a.46.46,0,0,0,.15-.23l.08-.21L3.15,2.45s0-.06,0-.06H4A.07.07,0,0,1,4,2.45l.59,1.68h0l.54-1.68a.07.07,0,0,1,.07-.06H6s.06,0,0,.06L4.86,5.54a3,3,0,0,1-.19.4,1.16,1.16,0,0,1-.22.26.68.68,0,0,1-.27.13,1.25,1.25,0,0,1-.35,0Z"/><path class="cls-1" d="M6.71,5.29a.05.05,0,0,1-.06-.06V2.45a.05.05,0,0,1,.06-.06h.72a.05.05,0,0,1,.06.06v.24h0a.79.79,0,0,1,.3-.27,1,1,0,0,1,.74,0,.84.84,0,0,1,.23.12.08.08,0,0,1,0,.09l-.34.61a.06.06,0,0,1-.08,0,.82.82,0,0,0-.42-.13.46.46,0,0,0-.35.17.85.85,0,0,0-.1.46V5.23a.05.05,0,0,1-.06.06Z"/><path class="cls-1" d="M9.44,1.92s-.06,0-.06,0v-.6a.05.05,0,0,1,.06-.06h.72a.05.05,0,0,1,.06.06v.6s0,0-.06,0Zm0,3.37a.05.05,0,0,1-.06-.06V2.45a.05.05,0,0,1,.06-.06h.72a.05.05,0,0,1,.06.06V5.23a.05.05,0,0,1-.06.06Z"/><path class="cls-1" d="M12.31,5.36a1.43,1.43,0,0,1-.79-.21,1.1,1.1,0,0,1-.46-.61,1.32,1.32,0,0,1-.07-.3c0-.12,0-.25,0-.4s0-.29,0-.4a1.32,1.32,0,0,1,.07-.3,1.1,1.1,0,0,1,.46-.61,1.43,1.43,0,0,1,.79-.21,1.4,1.4,0,0,1,.66.15,1.22,1.22,0,0,1,.44.4.05.05,0,0,1,0,.08l-.52.34s-.07,0-.09,0a.72.72,0,0,0-.21-.19A.48.48,0,0,0,12.32,3a.44.44,0,0,0-.28.08.45.45,0,0,0-.17.23,1.18,1.18,0,0,0,0,.2,2.63,2.63,0,0,0,0,.3,2.36,2.36,0,0,0,0,.29,1.12,1.12,0,0,0,0,.21.45.45,0,0,0,.17.23.51.51,0,0,0,.28.08.48.48,0,0,0,.26-.06.72.72,0,0,0,.21-.19.06.06,0,0,1,.09,0l.52.35a.05.05,0,0,1,0,.08A1.12,1.12,0,0,1,13,5.2,1.29,1.29,0,0,1,12.31,5.36Z"/><path class="cls-1" d="M15.33,5.36a2.05,2.05,0,0,1-.78-.14A2,2,0,0,1,14,4.91a.06.06,0,0,1,0-.09l.39-.44a.07.07,0,0,1,.09,0,1.35,1.35,0,0,0,.42.24,1.54,1.54,0,0,0,.46.08.52.52,0,0,0,.34-.08.21.21,0,0,0,.11-.19.19.19,0,0,0-.08-.17.73.73,0,0,0-.33-.09l-.32,0a1.18,1.18,0,0,1-.71-.27.81.81,0,0,1-.24-.62.82.82,0,0,1,.31-.68,1.36,1.36,0,0,1,.88-.25,2.37,2.37,0,0,1,.68.1,2.14,2.14,0,0,1,.5.26.06.06,0,0,1,0,.09l-.34.41s-.05,0-.08,0A1.71,1.71,0,0,0,15.74,3,1.55,1.55,0,0,0,15.31,3,.52.52,0,0,0,15,3a.2.2,0,0,0-.09.17.19.19,0,0,0,.08.16.64.64,0,0,0,.33.08l.31,0a1.15,1.15,0,0,1,.74.28.85.85,0,0,1,.23.6.92.92,0,0,1-.34.72A1.43,1.43,0,0,1,15.33,5.36Z"/></g></svg>