<?xml version="1.0" encoding="utf-8"?>
<!-- Generator: Adobe Illustrator 23.0.6, SVG Export Plug-In . SVG Version: 6.00 Build 0)  -->
<svg version="1.1" id="レイヤー_1" xmlns="http://www.w3.org/2000/svg" xmlns:xlink="http://www.w3.org/1999/xlink" x="0px"
	 y="0px" viewBox="0 0 255.5 30" style="enable-background:new 0 0 255.5 30;" xml:space="preserve">
<style type="text/css">
	.st0{fill:#FFFFFF;}
</style>
<title>アセット 1</title>
<g>
	<g id="LOGO">
		<path class="st0" d="M64.7,13.8c-0.4-2.2-1.8-4.1-3.7-5.2c0.2-0.2,0.3-0.3,0.3-0.4c1.4-1.4,1.7-3.6,0.8-5.3
			c-0.8-1.9-2.7-3-4.7-2.8c-1.5,0-3.1,0-4.7,0h-3v4.6c0,4.7,0,9.3,0,14c0,2.9-1.4,4.9-3.8,5.6c-0.5,0.2-1.1,0.3-1.6,0.4v1.9
			c4.1,0,7.5-3.3,7.5-7.4c0-0.1,0-0.1,0-0.2c0-2.6,0-5.3,0-8V9.7c2.1,0,4.1-0.1,6,0c1.5,0.1,2.9,0.9,3.7,2.1
			c0.8,1.1,1.2,2.4,1.2,3.8v7h2.1c0-2.1,0-4.1,0-6.1C64.9,15.6,64.8,14.7,64.7,13.8z M58,7.6c-2,0.1-4,0-6.1,0V2.2
			c0.3-0.1,0.7-0.1,1-0.1c1.7,0,3.3,0,5,0c1.5,0,2.7,1.2,2.7,2.7C60.6,6.3,59.5,7.5,58,7.6z"/>
		<path class="st0" d="M165.9,9.9c-0.4-0.4-0.9-0.7-1.3-1.1l0.4-0.4c1.4-1.4,1.7-3.6,0.8-5.3c-0.8-1.8-2.6-2.9-4.6-2.8
			c-1.4,0-2.7-0.1-4-0.1s-2.4,0-3.7,0v1.6c0,5.8,0,11.7-0.1,17.5c0,2.7-1.9,5-4.6,5.3c-0.3,0.1-0.5,0.1-0.8,0.2v1.9
			c4,0.1,7.4-3.1,7.5-7.1c0,0,0-0.1,0-0.1c0-2.8,0-5.5,0-8.3c0-0.4,0-0.8,0.1-1.2c2,0,3.9-0.1,5.8,0c2.8,0.2,4.9,2.5,4.9,5.3
			c0,1.3,0,2.7,0,4V23h2.1c0-2.9,0.1-5.6,0-8.4C168.2,12.8,167.3,11.1,165.9,9.9z M161.8,7.8c-2.1,0.1-4.1,0-6.3,0V2.4
			c2.2,0,4.3-0.1,6.5,0c1.3,0.2,2.2,1.4,2.2,2.7C164.2,6.5,163.2,7.7,161.8,7.8L161.8,7.8z"/>
		<path class="st0" d="M239.8,0.6v9.8c-2.4-1.6-3.3-2-4.9-2.1c-4.2-0.4-7.9,2.7-8.3,6.8c0,0,0,0,0,0.1c-0.4,4.2,2.7,7.9,6.9,8.2
			c4.2,0.4,7.9-2.7,8.2-6.9c0-0.2,0-0.5,0-0.7c0-4.6,0-9.3,0-13.9c0-0.4,0-0.9-0.1-1.3L239.8,0.6z M234.2,21.3c-3,0-5.5-2.5-5.5-5.5
			c0-3,2.5-5.5,5.6-5.5h0.1c3,0,5.4,2.5,5.4,5.5c0,0,0,0,0,0C239.7,18.8,237.2,21.3,234.2,21.3z"/>
		<path class="st0" d="M80.9,7.6c-4.1,0.2-7.3,3.6-7.2,7.6c0,4.5,0,9,0,13.4V30h2.1v-9.1c0.1,0,0.2,0,0.3,0l0.9,0.6
			c1.8,1.3,4.1,1.7,6.2,1.1c4.1-0.8,6.8-4.8,5.9-8.9C88.3,9.9,84.8,7.3,80.9,7.6L80.9,7.6z M81.3,20.7c-3,0.2-5.7-2-5.9-5.1
			c-0.2-3,2-5.7,5.1-5.9c0.3,0,0.6,0,0.9,0c3-0.2,5.7,2,5.9,5.1c0.2,3-2,5.7-5.1,5.9C81.9,20.8,81.6,20.8,81.3,20.7z"/>
		<path class="st0" d="M174.8,20.1l9-9c-2.2-3.1-6.3-4.1-9.6-2.4c-3.3,1.8-4.9,5.7-3.6,9.3c1.3,3.6,5.1,5.8,8.8,4.9
			c3.5-0.7,6-3.7,5.9-7.3h-1.9C182.6,20.3,178.6,22.4,174.8,20.1z M174,11.5c1.7-1.8,4.5-2.1,6.5-0.7l-7.3,7.6
			C171.8,16.2,172.1,13.3,174,11.5z"/>
		<path class="st0" d="M139,15.3c-0.1-4.2-3.5-7.5-7.7-7.4c-4.2,0.1-7.5,3.5-7.4,7.7s3.5,7.5,7.7,7.4c0.6,0,1.2-0.1,1.7-0.2
			c1.8-0.5,3.3-1.5,4.4-2.9c0.8,1.4,2,2.5,3.5,3.1v-2.3C139.6,19.4,138.8,17.4,139,15.3z M131.5,21c-3,0-5.5-2.5-5.5-5.5
			c0,0,0,0,0,0c0-3,2.4-5.5,5.4-5.5c0,0,0.1,0,0.1,0c3,0,5.5,2.4,5.6,5.4C137,18.5,134.5,20.9,131.5,21z"/>
		<path class="st0" d="M105.6,15.4c0-4.2-3.4-7.6-7.6-7.7c-0.6,0-1.1,0.1-1.7,0.2c-3.1,0.6-5.5,3.2-5.8,6.4c-0.5,3.2,1.1,6.3,4,7.8
			c2.9,1.5,6.5,0.9,8.8-1.4c0.3-0.4,0.6-0.7,0.9-1.1c0.8,1.5,2.1,2.6,3.6,3.3c0-0.3,0.1-0.5,0.1-0.7v-1.5
			C105.9,18.9,105.6,18.1,105.6,15.4z M97.9,20.9c-3,0-5.5-2.5-5.4-5.6c0-3,2.5-5.5,5.6-5.5s5.5,2.5,5.5,5.6S101,20.9,97.9,20.9
			C97.9,20.9,97.9,20.9,97.9,20.9z"/>
		<path class="st0" d="M208.5,8.1c-4.1-0.1-7.5,3-7.6,7.1c0,0.1,0,0.3,0,0.4c-0.1,4.1,3,7.5,7.1,7.6c0.1,0,0.2,0,0.4,0
			c4.2,0.1,7.6-3.2,7.7-7.4c0,0,0-0.1,0-0.1C216.1,11.5,212.7,8.1,208.5,8.1z M208.5,21.2c-3-0.1-5.4-2.5-5.5-5.6
			c0-3,2.5-5.5,5.5-5.5c0,0,0.1,0,0.1,0l0,0c3,0.1,5.4,2.5,5.3,5.5C214,18.7,211.5,21.2,208.5,21.2z"/>
		<path class="st0" d="M193.4,10c1.8-0.3,3.6,0.3,4.8,1.6l1.4-1.4c-3-2.9-7.8-2.8-10.8,0.2s-2.8,7.8,0.2,10.8l0,0
			c3,2.8,7.7,2.7,10.5-0.3l-1.3-1.4c-3.3,2.2-6,2-8.1-0.3c-2-2.3-1.9-5.8,0.4-7.8C191.3,10.6,192.3,10.2,193.4,10z"/>
		<path class="st0" d="M111.1,10c0-0.7-0.1-1.3-0.1-2h-2v14.8h2v-1.4c0-2,0-4.1,0-6.1c0-2.2,1.4-4.2,3.5-5c0.6-0.2,1.3-0.3,1.9-0.5
			V8C114.3,7.8,112.7,8.8,111.1,10z"/>
		<path class="st0" d="M220.5,8.3h-2v14.8h2v-1.3c0-2,0-4,0-6c-0.1-2.7,1.8-5,4.5-5.5l1-0.2V8.3c-2,0-3.9,0.7-5.4,2.1L220.5,8.3z"/>
		<path class="st0" d="M253.5,8.4c-3.2,0.8-5.5,3.7-5.5,7.1c0.1,2.9-2,5.3-4.9,5.6c-0.2,0-0.4,0.1-0.6,0.2v1.9c0.4,0,0.8,0,1.1,0
			c3.5-0.5,6.2-3.4,6.4-7c0.1-3.5,1.9-5.4,5.4-6c0.1,0,0.1-0.1,0.1-0.1V8.1C254.8,8.2,254.1,8.3,253.5,8.4z"/>
		<rect x="118.8" y="8.1" class="st0" width="2" height="14.8"/>
		<path class="st0" d="M68.8,7.9C68.6,8,68.5,8,68.3,8v14.6h1.8V7.9C69.6,7.9,69.2,7.9,68.8,7.9z"/>
		<path class="st0" d="M119.8,2.2c-1,0-1.8,0.8-1.8,1.8c0,1,0.8,1.8,1.8,1.8c1,0,1.8-0.8,1.8-1.8C121.5,3,120.8,2.2,119.8,2.2z"/>
		<path class="st0" d="M69.3,2.1h-0.1c-0.9,0-1.7,0.8-1.6,1.8c0,0,0,0,0,0c0,0.9,0.8,1.7,1.7,1.7c0,0,0,0,0,0
			C70.2,5.6,70.9,4.9,71,4c0,0,0-0.1,0-0.1c0.1-0.9-0.6-1.7-1.5-1.8C69.4,2.1,69.3,2.1,69.3,2.1z"/>
		<path class="st0" d="M30.7,22.5c-0.2-0.2-0.3-0.4-0.3-0.6v-15l-7.8,7.8l0,0V8.3c0-0.1,0-0.2,0-0.3c-0.1-0.4-0.3-0.7-0.6-1
			l-2.9-2.9l-1.3-1.3l-2.5-2.6C15.2,0.1,15,0,14.8,0H7.4H7.3l0.1,0.1l2.3,2.3l5.2,5.1C14.9,7.6,15,7.8,15,7.9c0,2.1,0,4.2,0,6.4
			c0,0.3,0.1,0.6,0.3,0.8l1.8,1.8l3.6,3.5l4.9,4.8l4.4,4.4c0.2,0.2,0.4,0.4,0.6,0.4h7.6l-3.7-3.7L30.7,22.5z M22.6,20.4l-5.7-5.6
			h5.7V20.4z"/>
		<path class="st0" d="M15.7,22.7l-4.5-4.4C10.1,17.3,9,16.2,8,15.1c-0.2-0.2-0.3-0.4-0.3-0.7c0-2.3,0-4.6,0-6.9
			c0-0.1-0.1-0.3-0.2-0.4C7.2,6.9,7,6.6,6.7,6.3L4.8,4.3L3.9,3.5L3.8,3.7L0.3,7.1C0.1,7.2,0,7.5,0,7.7v14.6c2.5,2.5,5.1,5.1,7.6,7.6
			l0,0v-7.6h3c0.2,0,0.4,0.1,0.6,0.2c1.2,1.2,2.4,2.4,3.5,3.6c0.2,0.1,0.3,0.4,0.2,0.6V30h7.7l-3.2-3.4C18.2,25.3,16.9,24,15.7,22.7
			z"/>
	</g>
</g>
</svg>
